<?xml version="1.0" encoding="UTF-8"?>
<svg xmlns="http://www.w3.org/2000/svg" version="1.1" xmlns:xlink="http://www.w3.org/1999/xlink" viewBox="0 0 231.53 46.28">
  <defs>
    <style>
      .cls-1 {
        mix-blend-mode: screen;
        opacity: .47;
      }

      .cls-2 {
        fill: url(#linear-gradient);
      }

      .cls-2, .cls-3, .cls-4, .cls-5, .cls-6, .cls-7 {
        stroke-width: 0px;
      }

      .cls-3 {
        fill: #ef821e;
      }

      .cls-8 {
        isolation: isolate;
      }

      .cls-4 {
        fill: none;
      }

      .cls-5 {
        fill: #023047;
      }

      .cls-6 {
        fill: url(#linear-gradient-2);
      }

      .cls-9 {
        clip-path: url(#clippath);
      }

      .cls-7 {
        fill: #fff;
      }
    </style>
    <linearGradient id="linear-gradient" x1="78.84" y1="2.5" x2="78.84" y2="40.22" gradientUnits="userSpaceOnUse">
      <stop offset="0" stop-color="#ffb703"/>
      <stop offset=".26" stop-color="#feb102"/>
      <stop offset=".61" stop-color="#fda001"/>
      <stop offset="1" stop-color="#fb8500"/>
    </linearGradient>
    <linearGradient id="linear-gradient-2" x1="110.53" y1="4.06" x2="110.53" y2="11.17" xlink:href="#linear-gradient"/>
    <clipPath id="clippath">
      <path class="cls-4" d="M140.84,17.09c-.17-.27-.37-.53-.6-.78-.23-.25-.52-.44-.85-.58-.67-.27-1.39-.42-2.16-.45s-1.54-.05-2.31-.05c.07-1.27.17-2.52.3-3.76.13-1.24.2-2.49.2-3.76,0-.57-.04-1.13-.13-1.68-.08-.55-.26-1.06-.53-1.53-.17-.33-.4-.63-.7-.88-.3-.25-.63-.43-1-.53-.77-.27-1.55-.43-2.33-.48-.79-.05-1.56-.04-2.33.02-.57.07-1.13.24-1.68.53-.55.28-.98.66-1.28,1.13-.57.83-.94,1.76-1.1,2.78-.17,1.02-.28,2.03-.35,3.03-.07.87-.13,1.72-.18,2.56-.05.84-.11,1.69-.18,2.56-.2,0-.54,0-1.03-.03-.48-.02-.99-.03-1.5-.05-.52-.02-1.01-.02-1.48,0s-.8.08-1,.17c-.4.17-.74.37-1,.6-.22.22-.41.57-.57,1.03-.6-1.15-1.45-2.14-2.56-2.96-1.15-.85-2.41-1.36-3.78-1.53-1.9-.27-3.83-.17-5.79.3-1.95.47-3.72,1.24-5.29,2.31-.97.67-1.81,1.47-2.53,2.41-.72.94-1.31,1.94-1.78,3.01-.6,1.4-.98,2.87-1.13,4.38-.15,1.52-.14,3.03.03,4.54.04.43.11.85.18,1.27-.15-.16-.31-.33-.48-.47-.94-.77-1.9-1.51-2.91-2.23s-1.95-1.5-2.86-2.33c.5-.4.99-.81,1.48-1.23.48-.42.96-.84,1.43-1.28.1-.07.26-.21.48-.43s.45-.45.7-.7c.25-.25.48-.49.7-.73.22-.23.36-.4.43-.5.27-.37.51-.74.73-1.13.22-.38.36-.81.43-1.28.07-.7-.05-1.37-.35-2-.23-.53-.56-1.07-.98-1.6-.42-.53-.89-1-1.43-1.4-.54-.4-1.09-.69-1.68-.88-.58-.18-1.16-.21-1.73-.08-.54.1-1.07.33-1.6.7-.67.47-1.26,1-1.78,1.58-.52.58-1.06,1.16-1.63,1.73-.47.47-.94.93-1.4,1.38-.47.45-.94.91-1.4,1.38.03-1.4.08-2.77.12-4.11.05-1.34.06-2.69.03-4.06-.03-.87-.08-1.72-.13-2.56-.05-.83-.16-1.67-.33-2.51-.1-.77-.32-1.44-.65-2-.17-.27-.39-.49-.68-.68-.28-.18-.58-.33-.88-.43-.5-.17-1.13-.28-1.88-.33-.75-.05-1.5-.04-2.26.03-.75.07-1.46.21-2.13.43-.67.22-1.2.51-1.6.88-.23.23-.4.5-.5.8-.1.3-.18.6-.25.9-.1.47-.15.94-.15,1.43v1.43c0,.33,0,.91.02,1.73.02.82.03,1.76.05,2.83.02,1.07.03,2.2.05,3.38.02,1.19.03,2.31.05,3.38.02,1.07.02,2.01.02,2.83v1.73c0,.47-.04,1.29-.13,2.48-.08,1.19-.17,2.45-.25,3.78-.06.9-.09,1.75-.12,2.58-.08-.35-.17-.7-.28-1.05-.28-.85-.46-1.73-.53-2.63-.07-1.2-.08-2.41-.05-3.63.03-1.22-.03-2.43-.2-3.63-.07-.8-.22-1.61-.45-2.43-.23-.82-.57-1.56-1-2.23-.57-.87-1.27-1.64-2.1-2.3-.84-.67-1.74-1.15-2.71-1.45-1.54-.5-3.13-.71-4.79-.63-1.65.08-3.28.31-4.89.68-.77.2-1.53.44-2.28.73-.75.28-1.41.69-1.98,1.23-.67.6-1.1,1.29-1.3,2.08-.2.79-.2,1.53,0,2.23.2.7.58,1.29,1.15,1.75.57.47,1.3.67,2.21.6.67-.07,1.33-.16,1.98-.28s1.31-.21,1.98-.28c.37-.07.75-.11,1.15-.13.4-.02.78,0,1.15.08.3.07.58.2.85.4.27.2.35.45.25.75-.1.27-.4.48-.9.63-.5.15-.9.26-1.2.33-1.14.23-2.27.42-3.41.55-1.14.13-2.24.43-3.31.9-.7.3-1.35.74-1.93,1.3-.19.19-.37.39-.52.59.02-.12.04-.24.05-.37.17-1.62.12-3.21-.15-4.79-.2-1.27-.55-2.51-1.05-3.73-.5-1.22-1.19-2.28-2.05-3.18-1.07-1.07-2.31-1.87-3.73-2.41-1.42-.53-2.9-.73-4.44-.6-1.64.17-3.16.68-4.56,1.55.17-.83.33-1.66.5-2.48.17-.82.28-1.64.35-2.48.07-.57.08-1.14.02-1.7-.05-.57-.16-1.12-.33-1.65-.27-.87-.77-1.54-1.5-2-.5-.3-1.04-.52-1.63-.65-.58-.13-1.16-.22-1.73-.25-.77-.07-1.52-.07-2.26,0-.74.07-1.45.22-2.15.45-.47.13-.91.32-1.33.55-.42.23-.79.54-1.13.9-.53.57-.93,1.22-1.18,1.95-.25.74-.46,1.49-.63,2.25-.33,1.77-.5,3.56-.5,5.36s.03,3.61.1,5.41c.1,3.91.35,7.85.75,11.83.1.94.22,1.86.35,2.78.13.92.3,1.83.5,2.73.07.3.13.6.2.9.07.3.17.58.3.85.2.47.6.78,1.2.93.6.15,1.26.23,1.98.23s1.45-.03,2.21-.1c.75-.07,1.38-.08,1.88-.05,1.27.1,2.51.19,3.73.28,1.22.08,2.45.09,3.68.03,1.04-.07,2.07-.23,3.11-.5,1.04-.27,2-.67,2.91-1.2,1.2-.73,2.29-1.67,3.26-2.81.8-.93,1.42-1.94,1.91-3,0,1.28.25,2.46.75,3.56.37.77.91,1.45,1.63,2.03.72.58,1.49,1.01,2.33,1.28,1.47.47,3.02.53,4.66.17,1.64-.35,3.09-.96,4.36-1.83.07.43.22.8.45,1.1.3.4.74.71,1.33.93.58.22,1.21.37,1.88.45.67.08,1.34.1,2.03.05.68-.05,1.28-.14,1.78-.28.57-.17,1.11-.4,1.63-.7.52-.3.94-.68,1.28-1.15.23-.36.38-.76.48-1.19,0,.03.01.06.02.08.07.27.17.54.3.83.13.28.3.54.5.78.33.37.73.66,1.2.88.47.22.95.38,1.45.48,1.37.3,2.71.33,4.01.1.47-.1.94-.28,1.4-.53.47-.25.85-.58,1.15-.98.27-.37.48-.76.65-1.18.17-.42.28-.84.35-1.28.1-.73.15-1.47.15-2.21v-2.21c.93,1.14,1.89,2.27,2.86,3.41.97,1.14,2.05,2.14,3.26,3.01.53.37,1.12.69,1.75.98.63.28,1.29.43,1.95.43.57,0,1.14-.13,1.7-.4.57-.27,1.05-.62,1.45-1.05.6-.67,1.13-1.42,1.58-2.26.26-.48.44-.98.55-1.47.16.35.33.69.53,1.02.53.84,1.19,1.59,1.98,2.26.78.67,1.63,1.19,2.53,1.55,1.17.53,2.43.86,3.78.98s2.66.14,3.93.08c1.04-.07,2.06-.18,3.08-.35,1.02-.17,2.01-.42,2.98-.75.77-.27,1.44-.67,2-1.2.57-.53.99-1.14,1.28-1.83.28-.68.41-1.41.38-2.18-.03-.77-.25-1.5-.65-2.21-.23-.43-.53-.82-.9-1.15-.37-.33-.79-.55-1.25-.65-.3-.07-.6-.07-.9,0-.3.07-.58.17-.85.3-.57.3-1.17.56-1.8.78-.63.22-1.29.41-1.95.58-.57.13-1.16.23-1.78.28-.62.05-1.21,0-1.78-.13-.37-.07-.72-.19-1.05-.38-.33-.18-.62-.41-.85-.68-.27-.33-.47-.71-.6-1.13-.13-.42-.23-.84-.3-1.28,1.24.5,2.55.84,3.93,1.03,1.39.18,2.73.12,4.03-.18.9-.2,1.78-.55,2.63-1.05.85-.5,1.59-1.12,2.23-1.85.4-.47.74-.99,1.03-1.55.06-.13.11-.26.16-.39.06.06.1.13.16.19.27.27.61.45,1.03.55.42.1.83.18,1.23.25h1.98c.42,0,.82,0,1.2-.03.38-.02.64-.03.78-.03,0,.37.03,1.09.08,2.18s.11,2.23.18,3.43c.07,1.2.13,2.35.2,3.43.07,1.09.13,1.81.2,2.18.07.57.22,1.11.45,1.63.23.52.57.96,1,1.33.33.3.71.52,1.13.65.42.13.84.23,1.28.3,1.17.13,2.36.1,3.56-.1.57-.07,1.11-.21,1.63-.43.52-.22.96-.53,1.33-.93.2-.27.38-.55.53-.85s.24-.6.28-.9c.07-.87.06-1.72-.03-2.56-.08-.83-.18-1.69-.28-2.56-.3-2.44-.45-4.89-.45-7.37.63-.03,1.25-.05,1.85-.05s1.2-.05,1.8-.15c.63-.07,1.17-.27,1.6-.6.27-.2.48-.45.65-.75s.28-.62.35-.95c.13-.53.22-1.07.25-1.6s.03-1.07,0-1.6c0-.63-.12-1.19-.35-1.65ZM37.94,26.21c-.22.63-.52,1.23-.9,1.78-.38.55-.84,1.01-1.38,1.38-.77.57-1.6.9-2.51,1-.47.07-.95.1-1.45.1s-.99-.1-1.45-.3c-.67-.27-1.17-.77-1.5-1.5-.17-.37-.29-.75-.38-1.15-.08-.4-.12-.8-.12-1.2-.03-1.04.1-2.05.4-3.06.1-.4.23-.79.38-1.18.15-.38.36-.73.63-1.03.43-.53.94-1,1.5-1.4.57-.4,1.15-.7,1.75-.9.6-.2,1.2-.26,1.8-.18.6.08,1.17.34,1.7.78.9.8,1.49,1.77,1.75,2.91.17.67.23,1.34.18,2s-.18,1.32-.4,1.95ZM59.11,31.02c-.13.47-.38.88-.73,1.23-.35.35-.71.66-1.08.93-.87.57-1.82.9-2.86,1-.67.1-1.29.03-1.85-.2-.63-.27-1.05-.73-1.25-1.4-.2-.67-.17-1.32.1-1.95.2-.47.49-.88.88-1.25.38-.37.81-.67,1.28-.9.63-.3,1.32-.46,2.05-.48.73-.02,1.39.08,1.98.3.58.22,1.03.56,1.33,1.03.3.47.35,1.04.15,1.7ZM109.87,23.96c-.2.4-.52.72-.95.95-.43.23-.89.38-1.35.45-.67.13-1.37.16-2.1.08-.73-.08-1.42-.29-2.05-.63.4-1.5,1.22-2.64,2.46-3.41.53-.37,1.14-.58,1.8-.65.5,0,.93.15,1.3.45.17.1.38.31.63.63.25.32.39.56.43.73.07.53.02,1-.15,1.4Z"/>
    </clipPath>
  </defs>
  <g class="cls-8">
    <g id="Layer_1" data-name="Layer 1">
      <g>
        <g>
          <g>
            <path class="cls-5" d="M204.54,36.36c1,1.05,2.16,1.88,3.46,2.48.97.43,1.98.74,3.03.93,1.05.18,2.11.29,3.18.33.87,0,1.75-.06,2.63-.17.88-.12,1.73-.34,2.53-.68,1.17-.47,2.25-1.13,3.26-1.98,1-.85,1.82-1.81,2.46-2.88.7-1.2,1.19-2.52,1.45-3.96.27-1.44.37-2.87.3-4.31-.03-1.07-.15-2.12-.35-3.16-.2-1.04-.54-2.04-1-3.01-.74-1.54-1.8-2.9-3.18-4.08-1.39-1.19-2.9-2.01-4.54-2.48-.97-.27-1.96-.42-2.98-.45-1.02-.03-2.01.02-2.98.15-1.1.17-2.18.48-3.23.93s-2.01,1.04-2.88,1.78c-.87.74-1.61,1.6-2.23,2.61-.62,1-1.08,2.04-1.38,3.11-.04.14-.06.29-.1.43-.08-.28-.15-.56-.25-.83-.47-1.17-1.11-2.27-1.93-3.31-.82-1.04-1.78-1.85-2.88-2.46-.63-.37-1.33-.64-2.08-.83-.75-.18-1.5-.24-2.23-.17-1.4.13-2.75.64-4.03,1.53-.9.62-1.62,1.34-2.18,2.14-.35-.87-1.2-1.5-2.2-1.5h-1.71c-1,0-1.85.62-2.2,1.5-.56-.8-1.28-1.52-2.18-2.14-1.29-.88-2.63-1.39-4.03-1.53-.73-.07-1.48,0-2.23.17-.75.18-1.45.46-2.08.83-1.1.6-2.06,1.42-2.88,2.46-.82,1.04-1.46,2.14-1.93,3.31-.21.55-.35,1.11-.45,1.68-.2-.97-.52-1.92-.96-2.83-.74-1.54-1.8-2.9-3.18-4.08-1.39-1.19-2.9-2.01-4.54-2.48-.97-.27-1.96-.42-2.98-.45-1.02-.03-2.01.02-2.98.15-1.1.17-2.18.48-3.23.93s-2.01,1.04-2.88,1.78c-.19.16-.35.35-.53.52-.05-.11-.09-.23-.14-.33-.04-.08-.08-.15-.12-.22-.25-.4-.55-.79-.89-1.15-.48-.52-1.07-.92-1.75-1.19-.85-.34-1.76-.54-2.71-.61.03-.36.07-.71.11-1.06.14-1.32.22-2.68.22-4.03,0-.68-.05-1.37-.15-2.05-.12-.83-.39-1.62-.79-2.34-.32-.62-.76-1.16-1.3-1.61-.55-.46-1.17-.79-1.86-.99-.96-.33-1.94-.52-2.92-.58-.91-.06-1.82-.05-2.79.04-.86.1-1.71.37-2.53.79-.94.49-1.69,1.16-2.2,1.94-.77,1.13-1.28,2.41-1.5,3.78-.18,1.09-.31,2.19-.38,3.24-.07.88-.13,1.75-.18,2.6v.13s-.13,0-.13,0c-.58-.02-1.13-.02-1.65,0-.8.03-1.42.15-1.93.39-.09.04-.18.08-.26.12-.42-.42-.87-.81-1.36-1.18-.88-.65-1.82-1.13-2.8-1.47l4.48-3.52c1.02-.8,1.42-2.09,1.01-3.27-.46-1.32-1.77-2.17-3.34-2.17h-3.62c-1,0-1.95.37-2.61,1.01l-5.99,5.9c-.69.68-.99,1.62-.85,2.52-1.44.52-2.79,1.19-4.03,2.03-.74.51-1.43,1.09-2.06,1.74-.27-.51-.61-1.02-1-1.52-.55-.71-1.19-1.33-1.9-1.86-.76-.57-1.58-.99-2.43-1.26-1-.31-2-.36-2.99-.14-.86.17-1.7.54-2.52,1.1-.78.55-1.49,1.17-2.11,1.85,0-.66,0-1.33-.02-2-.03-.89-.08-1.76-.13-2.61-.05-.92-.17-1.85-.35-2.77-.15-1.06-.47-2.02-1-2.92-.36-.58-.85-1.06-1.44-1.45-.46-.3-.94-.53-1.45-.7-.71-.24-1.53-.38-2.5-.45-.88-.06-1.77-.05-2.64.03-.94.08-1.84.27-2.68.54-1.01.33-1.85.8-2.52,1.41-.03.02-.05.05-.08.08-.51.51-.88,1.11-1.1,1.78-.13.38-.23.77-.32,1.17-.14.64-.21,1.29-.21,1.95v1.43c0,.34,0,.94.03,1.78.02.82.03,1.76.05,2.82l.02,1.1c-.3-.29-.61-.57-.94-.83-1.08-.86-2.26-1.5-3.49-1.88-1.82-.59-3.73-.84-5.69-.75-1.79.09-3.58.34-5.39.75-.84.22-1.69.49-2.53.81-1.06.4-2,.99-2.77,1.71-.24.21-.46.44-.66.67-.3-.39-.62-.77-.97-1.13-1.32-1.32-2.87-2.32-4.62-2.98-1.77-.66-3.63-.92-5.57-.75-.35.04-.7.09-1.05.15.03-.27.06-.53.08-.78.09-.74.1-1.48.03-2.22-.07-.74-.21-1.48-.43-2.17-.44-1.42-1.32-2.59-2.61-3.41-.72-.43-1.52-.75-2.36-.95-.72-.16-1.44-.27-2.06-.3-.91-.08-1.82-.08-2.7,0-.91.08-1.81.27-2.67.55-.63.19-1.24.44-1.81.76-.65.37-1.24.84-1.73,1.37-.78.83-1.36,1.79-1.72,2.86-.28.82-.52,1.67-.72,2.6-.36,1.91-.54,3.87-.54,5.83,0,1.84.03,3.7.1,5.48.04,1.72.12,3.46.23,5.21-3.16-5.45-6.97-7.85-6.97-7.85,2.75,6.41,5.49,15.11,5.49,15.11C8.28,25.16.15,24.2,0,24.19c.15.07,10,4.86,10.07,17.94h10.76c1.08.09,2.24.06,3.45-.05.77-.07,1.24-.06,1.46-.05,1.28.1,2.53.19,3.76.28,1.32.09,2.66.1,4.02.03,1.19-.08,2.39-.27,3.57-.58,1.26-.33,2.46-.82,3.58-1.49,1.05-.64,2.03-1.41,2.92-2.31.47.7,1.05,1.33,1.73,1.89.96.78,2.02,1.36,3.15,1.72,1.89.6,3.89.68,5.94.24,1.04-.22,2.03-.54,2.96-.94.5.44,1.1.79,1.79,1.04.76.28,1.58.48,2.44.59.83.1,1.68.12,2.52.06.83-.06,1.58-.18,2.31-.37.76-.22,1.49-.54,2.18-.94.15-.09.29-.18.43-.27.32.23.67.43,1.04.6.64.3,1.32.52,1.97.65,1.69.37,3.36.41,5.06.1.69-.15,1.39-.41,2.06-.77.79-.42,1.45-.99,2-1.71.39-.53.71-1.11.95-1.72.06-.15.12-.3.17-.46.83.84,1.73,1.61,2.71,2.32.65.45,1.38.86,2.15,1.2,1.83.82,3.86.89,5.74,0,.86-.4,1.61-.95,2.25-1.64.21-.23.41-.47.6-.72.18.17.36.34.55.5.97.82,2.03,1.48,3.16,1.95,1.41.64,2.94,1.03,4.56,1.17,1.46.13,2.9.15,4.31.08,1.12-.07,2.24-.2,3.32-.38,1.16-.19,2.3-.48,3.4-.86,1.1-.38,2.07-.97,2.9-1.74.82-.77,1.45-1.68,1.88-2.69.42-1.02.61-2.11.56-3.25-.05-1.17-.38-2.29-.95-3.28-.37-.68-.84-1.29-1.43-1.82-.16-.15-.33-.28-.51-.41.15-.15.29-.31.43-.47.09-.1.17-.21.26-.31.35.08.7.14,1.04.2.14.02.28.03.41.03h1.55c.05,1.02.1,2.08.17,3.2.07,1.21.13,2.36.2,3.45.09,1.46.16,2.06.22,2.4.1.79.32,1.56.65,2.29.39.86.95,1.6,1.61,2.16.6.54,1.28.93,2.04,1.18.54.17,1.1.3,1.65.39.03,0,.07,0,.1.01.56.06,1.12.09,1.69.09.83,0,1.67-.07,2.51-.2.77-.1,1.53-.3,2.24-.6.85-.36,1.59-.87,2.2-1.54.06-.06.11-.13.16-.19.29-.38.54-.8.76-1.23.12-.24.21-.48.29-.73,2.91,4.83,8.07,8.06,13.96,8.06,4.14,0,7.91-1.6,10.8-4.21-2.67,1.46-5.74,2.3-9.03,2.3-6.53,0-12.23-3.29-15.45-8.22.01-.68,0-1.36-.06-2.02-.08-.84-.18-1.71-.28-2.61-.19-1.53-.32-3.08-.38-4.63.48-.03.97-.08,1.45-.15.25-.03.5-.08.73-.13,0,.18-.02.36-.02.54-.03,1.96.28,3.82.95,5.59.5,1.37,1.25,2.58,2.25,3.63,1,1.05,2.16,1.88,3.46,2.48.97.43,1.98.74,3.03.93,1.05.18,2.11.29,3.18.33.87,0,1.75-.06,2.63-.17.88-.12,1.73-.34,2.53-.68,1.17-.47,2.25-1.13,3.26-1.98,1-.85,1.82-1.81,2.46-2.88.44-.76.79-1.57,1.06-2.41.04.56.09,1.11.15,1.66.07.77.18,1.55.35,2.36.17.8.47,1.54.9,2.2.23.37.53.69.9.98.37.28.75.49,1.15.63.57.17,1.16.25,1.78.25s1.21-.07,1.78-.2c.47-.07.94-.18,1.4-.35.47-.17.89-.38,1.25-.65.47-.37.79-.82.95-1.35.1-.47.14-.93.12-1.4-.02-.47-.04-.93-.08-1.4-.07-1.5-.12-3.01-.17-4.51-.05-1.5-.04-3.01.02-4.51.03-.37.08-.72.15-1.05.07-.33.2-.63.4-.9.23-.3.5-.47.8-.5s.58.03.85.17c.27.15.51.38.73.68.22.3.38.62.48.95.1.4.16.8.18,1.2.02.4.04.82.08,1.25.07,1.24.08,2.46.05,3.68s-.03,2.46,0,3.73c.03.67.14,1.33.33,1.98.18.65.49,1.23.93,1.73.37.43.82.77,1.35,1,.12.05.25.08.37.12.32.17.68.27,1.07.27h.2s.04,0,.06,0c.2.01.4,0,.6,0,.2,0,.4.02.6,0,.02,0,.04,0,.06,0h.2c.39,0,.75-.1,1.07-.27.12-.04.25-.07.37-.12.53-.23.98-.57,1.35-1,.43-.5.74-1.08.93-1.73.18-.65.29-1.31.33-1.98.03-1.27.03-2.51,0-3.73s-.02-2.45.05-3.68c.03-.43.06-.85.08-1.25.02-.4.08-.8.18-1.2.1-.33.26-.65.48-.95.22-.3.46-.53.73-.68.27-.15.55-.21.85-.17s.57.2.8.5c.2.27.33.57.4.9.07.33.12.68.15,1.05.07,1.5.08,3.01.02,4.51-.05,1.5-.11,3.01-.17,4.51-.03.47-.06.94-.08,1.4-.02.47.02.94.12,1.4.17.54.48.99.95,1.35.37.27.78.48,1.25.65.47.17.93.28,1.4.35.57.13,1.16.2,1.78.2s1.21-.08,1.78-.25c.4-.13.79-.34,1.15-.63.37-.28.67-.61.9-.98.43-.67.73-1.4.9-2.2.17-.8.28-1.59.35-2.36.02-.21.04-.43.06-.64.5,1.26,1.21,2.39,2.14,3.37ZM211.15,24.81c.1-.47.28-.93.55-1.38s.58-.86.95-1.23c.13-.13.32-.3.55-.5.23-.2.43-.28.6-.25.1.03.31,0,.63-.08.32-.08.53-.14.63-.18.87-.1,1.74,0,2.61.3.63.23,1.17.59,1.6,1.08.43.49.76,1.03.98,1.63.22.6.3,1.24.25,1.9-.05.67-.24,1.3-.58,1.9-.7,1.17-1.6,1.91-2.71,2.23s-2.15.3-3.13-.05c-.99-.35-1.79-.99-2.41-1.93-.62-.94-.79-2.09-.53-3.46ZM35.57,25.4c-.14.42-.34.8-.59,1.16-.21.31-.46.55-.81.8-.41.3-.83.48-1.38.54-.35.05-.72.08-1.1.08-.16,0-.31-.03-.52-.12-.02,0-.07-.03-.16-.22-.09-.2-.16-.4-.2-.63-.05-.23-.07-.46-.07-.77-.02-.77.07-1.51.3-2.26.01-.04.02-.07.03-.11.07-.3.17-.59.28-.87.04-.11.1-.2.17-.28.02-.03.05-.06.07-.09.29-.36.62-.67,1-.94.37-.26.74-.45,1.11-.57.17-.06.32-.08.48-.08.06,0,.12,0,.19.01.05,0,.2.03.43.21.49.45.79.95.94,1.6.1.42.14.81.11,1.21-.03.45-.13.9-.27,1.33ZM55.88,31.12c-.52.33-1.06.51-1.68.57-.04,0-.09,0-.13.02-.16.02-.28.02-.36,0,0-.04.01-.07.03-.11.07-.16.17-.29.31-.43.2-.2.42-.35.62-.45.32-.15.66-.23,1.04-.24.31,0,.59.02.82.08-.21.21-.43.39-.65.55ZM157.98,28.01c-.7,1.17-1.6,1.91-2.71,2.23s-2.15.3-3.13-.05c-.99-.35-1.79-.99-2.41-1.93s-.79-2.09-.53-3.46c.1-.47.28-.93.55-1.38s.58-.86.95-1.23c.13-.13.32-.3.55-.5.23-.2.43-.28.6-.25.1.03.31,0,.63-.08.32-.08.53-.14.63-.18.87-.1,1.74,0,2.61.3.63.23,1.17.59,1.6,1.08.43.49.76,1.03.98,1.63.22.6.3,1.24.25,1.9-.05.67-.24,1.3-.58,1.9Z"/>
            <path class="cls-5" d="M231.47,27.99c-.58,9.14-8.49,16.38-18.19,16.38-3.29,0-6.37-.84-9.03-2.3,2.89,2.62,6.67,4.21,10.8,4.21,9.1,0,16.48-7.67,16.48-17.13,0-.39-.03-.78-.06-1.16Z"/>
            <path class="cls-5" d="M149.99,7.76c3.41,0,6.5,1.24,8.8,3.26-1.93-3.05-5.32-5.09-9.2-5.09-4.63,0-8.57,2.89-10.15,6.96,2.32-3.1,6.18-5.13,10.55-5.13Z"/>
            <path class="cls-5" d="M226.86,12.92c-1.58-4.07-5.52-6.96-10.15-6.96-3.88,0-7.27,2.03-9.2,5.09,2.3-2.01,5.39-3.26,8.8-3.26,4.37,0,8.22,2.03,10.55,5.13Z"/>
          </g>
          <g>
            <path class="cls-2" d="M140.84,17.09c-.17-.27-.37-.53-.6-.78-.23-.25-.52-.44-.85-.58-.67-.27-1.39-.42-2.16-.45s-1.54-.05-2.31-.05c.07-1.27.17-2.52.3-3.76.13-1.24.2-2.49.2-3.76,0-.57-.04-1.13-.13-1.68-.08-.55-.26-1.06-.53-1.53-.17-.33-.4-.63-.7-.88-.3-.25-.63-.43-1-.53-.77-.27-1.55-.43-2.33-.48-.79-.05-1.56-.04-2.33.02-.57.07-1.13.24-1.68.53-.55.28-.98.66-1.28,1.13-.57.83-.94,1.76-1.1,2.78-.17,1.02-.28,2.03-.35,3.03-.07.87-.13,1.72-.18,2.56-.05.84-.11,1.69-.18,2.56-.2,0-.54,0-1.03-.03-.48-.02-.99-.03-1.5-.05-.52-.02-1.01-.02-1.48,0s-.8.08-1,.17c-.4.17-.74.37-1,.6-.22.22-.41.57-.57,1.03-.6-1.15-1.45-2.14-2.56-2.96-1.15-.85-2.41-1.36-3.78-1.53-1.9-.27-3.83-.17-5.79.3-1.95.47-3.72,1.24-5.29,2.31-.97.67-1.81,1.47-2.53,2.41-.72.94-1.31,1.94-1.78,3.01-.6,1.4-.98,2.87-1.13,4.38-.15,1.52-.14,3.03.03,4.54.04.43.11.85.18,1.27-.15-.16-.31-.33-.48-.47-.94-.77-1.9-1.51-2.91-2.23s-1.95-1.5-2.86-2.33c.5-.4.99-.81,1.48-1.23.48-.42.96-.84,1.43-1.28.1-.07.26-.21.48-.43s.45-.45.7-.7c.25-.25.48-.49.7-.73.22-.23.36-.4.43-.5.27-.37.51-.74.73-1.13.22-.38.36-.81.43-1.28.07-.7-.05-1.37-.35-2-.23-.53-.56-1.07-.98-1.6-.42-.53-.89-1-1.43-1.4-.54-.4-1.09-.69-1.68-.88-.58-.18-1.16-.21-1.73-.08-.54.1-1.07.33-1.6.7-.67.47-1.26,1-1.78,1.58-.52.58-1.06,1.16-1.63,1.73-.47.47-.94.93-1.4,1.38-.47.45-.94.91-1.4,1.38.03-1.4.08-2.77.12-4.11.05-1.34.06-2.69.03-4.06-.03-.87-.08-1.72-.13-2.56-.05-.83-.16-1.67-.33-2.51-.1-.77-.32-1.44-.65-2-.17-.27-.39-.49-.68-.68-.28-.18-.58-.33-.88-.43-.5-.17-1.13-.28-1.88-.33-.75-.05-1.5-.04-2.26.03-.75.07-1.46.21-2.13.43-.67.22-1.2.51-1.6.88-.23.23-.4.5-.5.8-.1.3-.18.6-.25.9-.1.47-.15.94-.15,1.43v1.43c0,.33,0,.91.02,1.73.02.82.03,1.76.05,2.83.02,1.07.03,2.2.05,3.38.02,1.19.03,2.31.05,3.38.02,1.07.02,2.01.02,2.83v1.73c0,.47-.04,1.29-.13,2.48-.08,1.19-.17,2.45-.25,3.78-.06.9-.09,1.75-.12,2.58-.08-.35-.17-.7-.28-1.05-.28-.85-.46-1.73-.53-2.63-.07-1.2-.08-2.41-.05-3.63.03-1.22-.03-2.43-.2-3.63-.07-.8-.22-1.61-.45-2.43-.23-.82-.57-1.56-1-2.23-.57-.87-1.27-1.64-2.1-2.3-.84-.67-1.74-1.15-2.71-1.45-1.54-.5-3.13-.71-4.79-.63-1.65.08-3.28.31-4.89.68-.77.2-1.53.44-2.28.73-.75.28-1.41.69-1.98,1.23-.67.6-1.1,1.29-1.3,2.08-.2.79-.2,1.53,0,2.23.2.7.58,1.29,1.15,1.75.57.47,1.3.67,2.21.6.67-.07,1.33-.16,1.98-.28s1.31-.21,1.98-.28c.37-.07.75-.11,1.15-.13.4-.02.78,0,1.15.08.3.07.58.2.85.4.27.2.35.45.25.75-.1.27-.4.48-.9.63-.5.15-.9.26-1.2.33-1.14.23-2.27.42-3.41.55-1.14.13-2.24.43-3.31.9-.7.3-1.35.74-1.93,1.3-.19.19-.37.39-.52.59.02-.12.04-.24.05-.37.17-1.62.12-3.21-.15-4.79-.2-1.27-.55-2.51-1.05-3.73-.5-1.22-1.19-2.28-2.05-3.18-1.07-1.07-2.31-1.87-3.73-2.41-1.42-.53-2.9-.73-4.44-.6-1.64.17-3.16.68-4.56,1.55.17-.83.33-1.66.5-2.48.17-.82.28-1.64.35-2.48.07-.57.08-1.14.02-1.7-.05-.57-.16-1.12-.33-1.65-.27-.87-.77-1.54-1.5-2-.5-.3-1.04-.52-1.63-.65-.58-.13-1.16-.22-1.73-.25-.77-.07-1.52-.07-2.26,0-.74.07-1.45.22-2.15.45-.47.13-.91.32-1.33.55-.42.23-.79.54-1.13.9-.53.57-.93,1.22-1.18,1.95-.25.74-.46,1.49-.63,2.25-.33,1.77-.5,3.56-.5,5.36s.03,3.61.1,5.41c.1,3.91.35,7.85.75,11.83.1.94.22,1.86.35,2.78.13.92.3,1.83.5,2.73.07.3.13.6.2.9.07.3.17.58.3.85.2.47.6.78,1.2.93.6.15,1.26.23,1.98.23s1.45-.03,2.21-.1c.75-.07,1.38-.08,1.88-.05,1.27.1,2.51.19,3.73.28,1.22.08,2.45.09,3.68.03,1.04-.07,2.07-.23,3.11-.5,1.04-.27,2-.67,2.91-1.2,1.2-.73,2.29-1.67,3.26-2.81.8-.93,1.42-1.94,1.91-3,0,1.28.25,2.46.75,3.56.37.77.91,1.45,1.63,2.03.72.58,1.49,1.01,2.33,1.28,1.47.47,3.02.53,4.66.17,1.64-.35,3.09-.96,4.36-1.83.07.43.22.8.45,1.1.3.4.74.71,1.33.93.58.22,1.21.37,1.88.45.67.08,1.34.1,2.03.05.68-.05,1.28-.14,1.78-.28.57-.17,1.11-.4,1.63-.7.52-.3.94-.68,1.28-1.15.23-.36.38-.76.48-1.19,0,.03.01.06.02.08.07.27.17.54.3.83.13.28.3.54.5.78.33.37.73.66,1.2.88.47.22.95.38,1.45.48,1.37.3,2.71.33,4.01.1.47-.1.94-.28,1.4-.53.47-.25.85-.58,1.15-.98.27-.37.48-.76.65-1.18.17-.42.28-.84.35-1.28.1-.73.15-1.47.15-2.21v-2.21c.93,1.14,1.89,2.27,2.86,3.41.97,1.14,2.05,2.14,3.26,3.01.53.37,1.12.69,1.75.98.63.28,1.29.43,1.95.43.57,0,1.14-.13,1.7-.4.57-.27,1.05-.62,1.45-1.05.6-.67,1.13-1.42,1.58-2.26.26-.48.44-.98.55-1.47.16.35.33.69.53,1.02.53.84,1.19,1.59,1.98,2.26.78.67,1.63,1.19,2.53,1.55,1.17.53,2.43.86,3.78.98s2.66.14,3.93.08c1.04-.07,2.06-.18,3.08-.35,1.02-.17,2.01-.42,2.98-.75.77-.27,1.44-.67,2-1.2.57-.53.99-1.14,1.28-1.83.28-.68.41-1.41.38-2.18-.03-.77-.25-1.5-.65-2.21-.23-.43-.53-.82-.9-1.15-.37-.33-.79-.55-1.25-.65-.3-.07-.6-.07-.9,0-.3.07-.58.17-.85.3-.57.3-1.17.56-1.8.78-.63.22-1.29.41-1.95.58-.57.13-1.16.23-1.78.28-.62.05-1.21,0-1.78-.13-.37-.07-.72-.19-1.05-.38-.33-.18-.62-.41-.85-.68-.27-.33-.47-.71-.6-1.13-.13-.42-.23-.84-.3-1.28,1.24.5,2.55.84,3.93,1.03,1.39.18,2.73.12,4.03-.18.9-.2,1.78-.55,2.63-1.05.85-.5,1.59-1.12,2.23-1.85.4-.47.74-.99,1.03-1.55.06-.13.11-.26.16-.39.06.06.1.13.16.19.27.27.61.45,1.03.55.42.1.83.18,1.23.25h1.98c.42,0,.82,0,1.2-.03.38-.02.64-.03.78-.03,0,.37.03,1.09.08,2.18s.11,2.23.18,3.43c.07,1.2.13,2.35.2,3.43.07,1.09.13,1.81.2,2.18.07.57.22,1.11.45,1.63.23.52.57.96,1,1.33.33.3.71.52,1.13.65.42.13.84.23,1.28.3,1.17.13,2.36.1,3.56-.1.57-.07,1.11-.21,1.63-.43.52-.22.96-.53,1.33-.93.2-.27.38-.55.53-.85s.24-.6.28-.9c.07-.87.06-1.72-.03-2.56-.08-.83-.18-1.69-.28-2.56-.3-2.44-.45-4.89-.45-7.37.63-.03,1.25-.05,1.85-.05s1.2-.05,1.8-.15c.63-.07,1.17-.27,1.6-.6.27-.2.48-.45.65-.75s.28-.62.35-.95c.13-.53.22-1.07.25-1.6s.03-1.07,0-1.6c0-.63-.12-1.19-.35-1.65ZM37.94,26.21c-.22.63-.52,1.23-.9,1.78-.38.55-.84,1.01-1.38,1.38-.77.57-1.6.9-2.51,1-.47.07-.95.1-1.45.1s-.99-.1-1.45-.3c-.67-.27-1.17-.77-1.5-1.5-.17-.37-.29-.75-.38-1.15-.08-.4-.12-.8-.12-1.2-.03-1.04.1-2.05.4-3.06.1-.4.23-.79.38-1.18.15-.38.36-.73.63-1.03.43-.53.94-1,1.5-1.4.57-.4,1.15-.7,1.75-.9.6-.2,1.2-.26,1.8-.18.6.08,1.17.34,1.7.78.9.8,1.49,1.77,1.75,2.91.17.67.23,1.34.18,2s-.18,1.32-.4,1.95ZM59.11,31.02c-.13.47-.38.88-.73,1.23-.35.35-.71.66-1.08.93-.87.57-1.82.9-2.86,1-.67.1-1.29.03-1.85-.2-.63-.27-1.05-.73-1.25-1.4-.2-.67-.17-1.32.1-1.95.2-.47.49-.88.88-1.25.38-.37.81-.67,1.28-.9.63-.3,1.32-.46,2.05-.48.73-.02,1.39.08,1.98.3.58.22,1.03.56,1.33,1.03.3.47.35,1.04.15,1.7ZM109.87,23.96c-.2.4-.52.72-.95.95-.43.23-.89.38-1.35.45-.67.13-1.37.16-2.1.08-.73-.08-1.42-.29-2.05-.63.4-1.5,1.22-2.64,2.46-3.41.53-.37,1.14-.58,1.8-.65.5,0,.93.15,1.3.45.17.1.38.31.63.63.25.32.39.56.43.73.07.53.02,1-.15,1.4Z"/>
            <path class="cls-6" d="M105.72,11.17h2.11c.31,0,.6-.09.79-.24l7.51-5.9c.51-.4.04-.98-.79-.98h-3.62c-.35,0-.67.11-.85.29l-5.99,5.9c-.41.4.07.92.85.92Z"/>
          </g>
          <g class="cls-9">
            <g>
              <circle class="cls-3" cx="18.84" cy="39.94" r="1.09"/>
              <circle class="cls-3" cx="21.03" cy="37.19" r="1.09"/>
              <circle class="cls-3" cx="25.7" cy="37.19" r="1.09"/>
              <circle class="cls-3" cx="30.37" cy="37.19" r="1.09"/>
              <circle class="cls-3" cx="35.04" cy="37.19" r="1.09"/>
              <circle class="cls-3" cx="39.71" cy="37.19" r="1.09"/>
              <circle class="cls-3" cx="44.38" cy="37.19" r="1.09"/>
              <circle class="cls-3" cx="49.05" cy="37.19" r="1.09"/>
              <circle class="cls-3" cx="53.72" cy="37.19" r="1.09"/>
              <circle class="cls-3" cx="58.39" cy="37.19" r="1.09"/>
              <circle class="cls-3" cx="63.06" cy="37.19" r="1.09"/>
              <circle class="cls-3" cx="67.73" cy="37.19" r="1.09"/>
              <circle class="cls-3" cx="72.4" cy="37.19" r="1.09"/>
              <circle class="cls-3" cx="77.07" cy="37.19" r="1.09"/>
              <circle class="cls-3" cx="81.74" cy="37.19" r="1.09"/>
              <circle class="cls-3" cx="86.41" cy="37.19" r="1.09"/>
              <circle class="cls-3" cx="91.08" cy="37.19" r="1.09"/>
              <circle class="cls-3" cx="95.75" cy="37.19" r="1.09"/>
              <circle class="cls-3" cx="100.42" cy="37.19" r="1.09"/>
              <circle class="cls-3" cx="105.09" cy="37.19" r="1.09"/>
              <circle class="cls-3" cx="109.76" cy="37.19" r="1.09"/>
              <circle class="cls-3" cx="114.43" cy="37.19" r="1.09"/>
              <circle class="cls-3" cx="119.1" cy="37.19" r="1.09"/>
              <circle class="cls-3" cx="123.77" cy="37.19" r="1.09"/>
              <circle class="cls-3" cx="128.44" cy="37.19" r="1.09"/>
              <circle class="cls-3" cx="133.11" cy="37.19" r="1.09"/>
              <circle class="cls-3" cx="23.51" cy="39.94" r="1.09"/>
              <circle class="cls-3" cx="28.18" cy="39.94" r="1.09"/>
              <circle class="cls-3" cx="32.85" cy="39.94" r="1.09"/>
              <circle class="cls-3" cx="37.52" cy="39.94" r="1.09"/>
              <circle class="cls-3" cx="42.19" cy="39.94" r="1.09"/>
              <circle class="cls-3" cx="46.86" cy="39.94" r="1.09"/>
              <circle class="cls-3" cx="51.53" cy="39.94" r="1.09"/>
              <circle class="cls-3" cx="56.2" cy="39.94" r="1.09"/>
              <circle class="cls-3" cx="60.87" cy="39.94" r="1.09"/>
              <circle class="cls-3" cx="65.54" cy="39.94" r="1.09"/>
              <circle class="cls-3" cx="70.21" cy="39.94" r="1.09"/>
              <circle class="cls-3" cx="74.88" cy="39.94" r="1.09"/>
              <circle class="cls-3" cx="79.55" cy="39.94" r="1.09"/>
              <circle class="cls-3" cx="84.22" cy="39.94" r="1.09"/>
              <circle class="cls-3" cx="88.89" cy="39.94" r="1.09"/>
              <circle class="cls-3" cx="93.56" cy="39.94" r="1.09"/>
              <circle class="cls-3" cx="98.23" cy="39.94" r="1.09"/>
              <circle class="cls-3" cx="102.9" cy="39.94" r="1.09"/>
              <circle class="cls-3" cx="107.57" cy="39.94" r="1.09"/>
              <circle class="cls-3" cx="112.24" cy="39.94" r="1.09"/>
              <circle class="cls-3" cx="116.91" cy="39.94" r="1.09"/>
              <circle class="cls-3" cx="121.58" cy="39.94" r="1.09"/>
              <circle class="cls-3" cx="126.25" cy="39.94" r="1.09"/>
              <circle class="cls-3" cx="130.92" cy="39.94" r="1.09"/>
              <circle class="cls-3" cx="135.59" cy="39.94" r="1.09"/>
              <circle class="cls-3" cx="18.84" cy="35.14" r="1.09"/>
              <circle class="cls-3" cx="23.51" cy="35.14" r="1.09"/>
              <circle class="cls-3" cx="28.18" cy="35.14" r="1.09"/>
              <circle class="cls-3" cx="32.85" cy="35.14" r="1.09"/>
              <circle class="cls-3" cx="37.52" cy="35.14" r="1.09"/>
              <circle class="cls-3" cx="42.19" cy="35.14" r="1.09"/>
              <circle class="cls-3" cx="46.86" cy="35.14" r="1.09"/>
              <circle class="cls-3" cx="51.53" cy="35.14" r="1.09"/>
              <circle class="cls-3" cx="56.2" cy="35.14" r="1.09"/>
              <circle class="cls-3" cx="60.87" cy="35.14" r="1.09"/>
              <circle class="cls-3" cx="65.54" cy="35.14" r="1.09"/>
              <circle class="cls-3" cx="70.21" cy="35.14" r="1.09"/>
              <circle class="cls-3" cx="74.88" cy="35.14" r="1.09"/>
              <circle class="cls-3" cx="79.55" cy="35.14" r="1.09"/>
              <circle class="cls-3" cx="84.22" cy="35.14" r="1.09"/>
              <circle class="cls-3" cx="88.89" cy="35.14" r="1.09"/>
              <circle class="cls-3" cx="93.56" cy="35.14" r="1.09"/>
              <circle class="cls-3" cx="98.23" cy="35.14" r="1.09"/>
              <circle class="cls-3" cx="102.9" cy="35.14" r="1.09"/>
              <circle class="cls-3" cx="107.57" cy="35.14" r="1.09"/>
              <circle class="cls-3" cx="112.24" cy="35.14" r="1.09"/>
              <circle class="cls-3" cx="116.91" cy="35.14" r="1.09"/>
              <circle class="cls-3" cx="121.58" cy="35.14" r="1.09"/>
              <circle class="cls-3" cx="126.25" cy="35.14" r="1.09"/>
              <circle class="cls-3" cx="130.92" cy="35.14" r="1.09"/>
              <circle class="cls-3" cx="135.59" cy="35.14" r="1.09"/>
            </g>
          </g>
        </g>
        <g class="cls-1">
          <path class="cls-7" d="M22.42,4.06c-2.02,3.78-3.01,7.63-4.59,11.59-1.28-4.18.42-9.72,4.59-11.59h0Z"/>
          <path class="cls-7" d="M72.49,4.06c-.82,4.21-.63,8.18-.98,12.43-2.45-3.62-2.46-9.42.98-12.43h0Z"/>
          <path class="cls-7" d="M102.16,15.48c-2.69,3.34-4.37,6.94-6.66,10.54-.48-4.35,2.22-9.47,6.66-10.54h0Z"/>
          <path class="cls-7" d="M129.63,2.85c-1.85,2.36-3.01,4.89-4.59,7.43-.31-3.05,1.55-6.67,4.59-7.43h0Z"/>
          <path class="cls-7" d="M113.51,4.92c-1.83.95-3.29,2.21-5,3.34.68-2,2.88-3.73,5-3.34h0Z"/>
          <path class="cls-7" d="M50.58,14.74c-1.42,1.92-2.28,3.96-3.48,6.01-.36-2.41,1.03-5.32,3.48-6.01h0Z"/>
          <path class="cls-7" d="M46.19,35.54c1.98,1.34,4.05,2.1,6.16,3.2-2.39.47-5.36-.79-6.16-3.2h0Z"/>
          <path class="cls-7" d="M59.8,38.24c2.37.27,4.57-.02,6.94-.02-1.9,1.53-5.11,1.79-6.94.02h0Z"/>
        </g>
      </g>
    </g>
  </g>
</svg>