<?xml version="1.0" encoding="UTF-8"?>
<svg xmlns="http://www.w3.org/2000/svg" version="1.1" xmlns:xlink="http://www.w3.org/1999/xlink" viewBox="0 0 295.38 426.8">
  <defs>
    <style>
      .cls-1 {
        fill: url(#_Áåçûìÿííûé_ãðàäèåíò_12-20);
      }

      .cls-1, .cls-2, .cls-3, .cls-4, .cls-5, .cls-6, .cls-7, .cls-8, .cls-9, .cls-10, .cls-11, .cls-12, .cls-13, .cls-14, .cls-15, .cls-16, .cls-17, .cls-18, .cls-19, .cls-20, .cls-21, .cls-22, .cls-23, .cls-24, .cls-25, .cls-26, .cls-27, .cls-28, .cls-29, .cls-30, .cls-31, .cls-32, .cls-33, .cls-34, .cls-35, .cls-36, .cls-37, .cls-38, .cls-39, .cls-40, .cls-41, .cls-42, .cls-43, .cls-44, .cls-45, .cls-46, .cls-47, .cls-48, .cls-49, .cls-50, .cls-51, .cls-52, .cls-53, .cls-54, .cls-55, .cls-56, .cls-57, .cls-58, .cls-59, .cls-60, .cls-61, .cls-62 {
        stroke-width: 0px;
      }

      .cls-2 {
        fill: #98c2ff;
      }

      .cls-3 {
        fill: url(#_Áåçûìÿííûé_ãðàäèåíò_12-22);
      }

      .cls-4 {
        fill: url(#_Áåçûìÿííûé_ãðàäèåíò_11);
      }

      .cls-4, .cls-7, .cls-8, .cls-9, .cls-10, .cls-16, .cls-17, .cls-20, .cls-21, .cls-23, .cls-25, .cls-29, .cls-32, .cls-33, .cls-46, .cls-50, .cls-54, .cls-56, .cls-58, .cls-60, .cls-61 {
        mix-blend-mode: screen;
      }

      .cls-4, .cls-46, .cls-61, .cls-62 {
        opacity: .5;
      }

      .cls-5 {
        opacity: .82;
      }

      .cls-5, .cls-41, .cls-62 {
        fill: #530050;
        mix-blend-mode: multiply;
      }

      .cls-6 {
        fill: url(#_Áåçûìÿííûé_ãðàäèåíò_12-17);
      }

      .cls-7 {
        fill: url(#_Áåçûìÿííûé_ãðàäèåíò_107);
      }

      .cls-8 {
        fill: url(#_Áåçûìÿííûé_ãðàäèåíò_3);
        opacity: .61;
      }

      .cls-9 {
        fill: url(#_Áåçûìÿííûé_ãðàäèåíò_689);
      }

      .cls-9, .cls-23, .cls-25, .cls-32, .cls-50, .cls-54, .cls-56, .cls-58 {
        opacity: .88;
      }

      .cls-10 {
        fill: url(#_Áåçûìÿííûé_ãðàäèåíò_679);
      }

      .cls-11 {
        fill: url(#_Áåçûìÿííûé_ãðàäèåíò_12-19);
      }

      .cls-63 {
        isolation: isolate;
      }

      .cls-12 {
        fill: url(#_Áåçûìÿííûé_ãðàäèåíò_12-2);
      }

      .cls-13 {
        fill: url(#_Áåçûìÿííûé_ãðàäèåíò_39);
      }

      .cls-14 {
        fill: url(#_Áåçûìÿííûé_ãðàäèåíò_12-15);
      }

      .cls-15 {
        fill: url(#_Áåçûìÿííûé_ãðàäèåíò_86);
      }

      .cls-15, .cls-42, .cls-44 {
        mix-blend-mode: color-dodge;
      }

      .cls-16 {
        fill: url(#_Áåçûìÿííûé_ãðàäèåíò_691-3);
      }

      .cls-17 {
        fill: url(#_Áåçûìÿííûé_ãðàäèåíò_691);
      }

      .cls-18 {
        fill: #37bafc;
      }

      .cls-19 {
        fill: url(#_Áåçûìÿííûé_ãðàäèåíò_12-7);
      }

      .cls-20 {
        fill: url(#_Áåçûìÿííûé_ãðàäèåíò_679-2);
      }

      .cls-21 {
        fill: url(#_Áåçûìÿííûé_ãðàäèåíò_679-4);
      }

      .cls-22 {
        fill: url(#_Áåçûìÿííûé_ãðàäèåíò_12-4);
      }

      .cls-23 {
        fill: url(#_Áåçûìÿííûé_ãðàäèåíò_689-2);
      }

      .cls-24 {
        fill: url(#_Áåçûìÿííûé_ãðàäèåíò_674);
      }

      .cls-25 {
        fill: url(#_Áåçûìÿííûé_ãðàäèåíò_688-2);
      }

      .cls-26 {
        fill: url(#_Áåçûìÿííûé_ãðàäèåíò_12-18);
      }

      .cls-27 {
        fill: #1e70e5;
      }

      .cls-28 {
        fill: url(#_Áåçûìÿííûé_ãðàäèåíò_674-2);
      }

      .cls-29 {
        fill: url(#_Áåçûìÿííûé_ãðàäèåíò_691-2);
      }

      .cls-30 {
        fill: #f329ff;
      }

      .cls-31 {
        fill: url(#_Áåçûìÿííûé_ãðàäèåíò_12-10);
      }

      .cls-32 {
        fill: url(#_Áåçûìÿííûé_ãðàäèåíò_692-2);
      }

      .cls-33 {
        fill: url(#_Áåçûìÿííûé_ãðàäèåíò_691-4);
      }

      .cls-34 {
        fill: url(#_Áåçûìÿííûé_ãðàäèåíò_68);
      }

      .cls-35 {
        fill: url(#_Áåçûìÿííûé_ãðàäèåíò_12-5);
      }

      .cls-36 {
        fill: url(#_Áåçûìÿííûé_ãðàäèåíò_12-21);
      }

      .cls-37 {
        fill: url(#_Áåçûìÿííûé_ãðàäèåíò_12-8);
      }

      .cls-38 {
        fill: url(#_Áåçûìÿííûé_ãðàäèåíò_12-16);
      }

      .cls-39 {
        fill: url(#_Áåçûìÿííûé_ãðàäèåíò_12-3);
      }

      .cls-40 {
        fill: #183ba0;
      }

      .cls-41 {
        opacity: .7;
      }

      .cls-42 {
        fill: url(#_Áåçûìÿííûé_ãðàäèåíò_63);
      }

      .cls-43 {
        fill: url(#_Áåçûìÿííûé_ãðàäèåíò_12);
      }

      .cls-44 {
        fill: url(#_Áåçûìÿííûé_ãðàäèåíò_63-2);
      }

      .cls-45 {
        fill: url(#_Áåçûìÿííûé_ãðàäèåíò_12-14);
      }

      .cls-46 {
        fill: url(#_Áåçûìÿííûé_ãðàäèåíò_11-3);
      }

      .cls-47 {
        fill: url(#_Áåçûìÿííûé_ãðàäèåíò_711);
      }

      .cls-48 {
        fill: #1949b5;
      }

      .cls-49 {
        fill: url(#_Áåçûìÿííûé_ãðàäèåíò_12-6);
      }

      .cls-50 {
        fill: url(#_Áåçûìÿííûé_ãðàäèåíò_688);
      }

      .cls-51 {
        fill: #fff;
      }

      .cls-52 {
        fill: url(#_Áåçûìÿííûé_ãðàäèåíò_12-12);
      }

      .cls-53 {
        fill: url(#_Áåçûìÿííûé_ãðàäèåíò_12-9);
      }

      .cls-54 {
        fill: url(#_Áåçûìÿííûé_ãðàäèåíò_689-4);
      }

      .cls-55 {
        fill: url(#_Áåçûìÿííûé_ãðàäèåíò_12-11);
      }

      .cls-56 {
        fill: url(#_Áåçûìÿííûé_ãðàäèåíò_689-3);
      }

      .cls-57 {
        fill: #f576ff;
      }

      .cls-58 {
        fill: url(#_Áåçûìÿííûé_ãðàäèåíò_692);
      }

      .cls-59 {
        fill: url(#_Áåçûìÿííûé_ãðàäèåíò_12-13);
      }

      .cls-60 {
        fill: url(#_Áåçûìÿííûé_ãðàäèåíò_679-3);
      }

      .cls-61 {
        fill: url(#_Áåçûìÿííûé_ãðàäèåíò_11-2);
      }
    </style>
    <linearGradient id="_Áåçûìÿííûé_ãðàäèåíò_12" data-name="Áåçûìÿííûé ãðàäèåíò 12" x1="165.19" y1="319.14" x2="148.07" y2="563.43" gradientUnits="userSpaceOnUse">
      <stop offset="0" stop-color="#102f9a"/>
      <stop offset="1" stop-color="#140a6b"/>
    </linearGradient>
    <radialGradient id="_Áåçûìÿííûé_ãðàäèåíò_3" data-name="Áåçûìÿííûé ãðàäèåíò 3" cx="128.27" cy="382.82" fx="128.27" fy="382.82" r="69.61" gradientUnits="userSpaceOnUse">
      <stop offset="0" stop-color="#ea1f7a"/>
      <stop offset=".07" stop-color="#d01b6c"/>
      <stop offset=".26" stop-color="#91134c"/>
      <stop offset=".45" stop-color="#5d0c30"/>
      <stop offset=".62" stop-color="#35071b"/>
      <stop offset=".77" stop-color="#18030c"/>
      <stop offset=".9" stop-color="#060003"/>
      <stop offset="1" stop-color="#000"/>
    </radialGradient>
    <linearGradient id="_Áåçûìÿííûé_ãðàäèåíò_711" data-name="Áåçûìÿííûé ãðàäèåíò 711" x1="145.48" y1="407.03" x2="143.61" y2="266.32" gradientUnits="userSpaceOnUse">
      <stop offset="0" stop-color="#ff0adf"/>
      <stop offset=".03" stop-color="#f709d8"/>
      <stop offset=".52" stop-color="#730465"/>
      <stop offset=".85" stop-color="#20011c"/>
      <stop offset="1" stop-color="#000"/>
    </linearGradient>
    <linearGradient id="_Áåçûìÿííûé_ãðàäèåíò_679" data-name="Áåçûìÿííûé ãðàäèåíò 679" x1="150.68" y1="416.31" x2="143" y2="330.43" gradientUnits="userSpaceOnUse">
      <stop offset="0" stop-color="#ff0adf"/>
      <stop offset=".27" stop-color="#821aca"/>
      <stop offset=".46" stop-color="#2f25bc"/>
      <stop offset=".54" stop-color="#0f2ab7"/>
      <stop offset=".57" stop-color="#0d27aa"/>
      <stop offset=".68" stop-color="#09196e"/>
      <stop offset=".78" stop-color="#050e3e"/>
      <stop offset=".88" stop-color="#02061c"/>
      <stop offset=".95" stop-color="#000107"/>
      <stop offset="1" stop-color="#000"/>
    </linearGradient>
    <linearGradient id="_Áåçûìÿííûé_ãðàäèåíò_12-2" data-name="Áåçûìÿííûé ãðàäèåíò 12" x1="83.59" y1="180.17" x2="101.23" y2="233.08" xlink:href="#_Áåçûìÿííûé_ãðàäèåíò_12"/>
    <linearGradient id="_Áåçûìÿííûé_ãðàäèåíò_12-3" data-name="Áåçûìÿííûé ãðàäèåíò 12" x1="98.99" y1="332.66" x2="40.08" y2="249.2" xlink:href="#_Áåçûìÿííûé_ãðàäèåíò_12"/>
    <linearGradient id="_Áåçûìÿííûé_ãðàäèåíò_12-4" data-name="Áåçûìÿííûé ãðàäèåíò 12" x1="105.53" y1="146.7" x2="51.76" y2="71.31" xlink:href="#_Áåçûìÿííûé_ãðàäèåíò_12"/>
    <linearGradient id="_Áåçûìÿííûé_ãðàäèåíò_12-5" data-name="Áåçûìÿííûé ãðàäèåíò 12" x1="85.57" y1="303.58" x2="59.58" y2="268.09" xlink:href="#_Áåçûìÿííûé_ãðàäèåíò_12"/>
    <linearGradient id="_Áåçûìÿííûé_ãðàäèåíò_12-6" data-name="Áåçûìÿííûé ãðàäèåíò 12" x1="116.85" y1="11.46" x2="155.47" y2="434.82" xlink:href="#_Áåçûìÿííûé_ãðàäèåíò_12"/>
    <linearGradient id="_Áåçûìÿííûé_ãðàäèåíò_12-7" data-name="Áåçûìÿííûé ãðàäèåíò 12" x1="191.94" y1="3.92" x2="230.63" y2="428.01" xlink:href="#_Áåçûìÿííûé_ãðàäèåíò_12"/>
    <linearGradient id="_Áåçûìÿííûé_ãðàäèåíò_12-8" data-name="Áåçûìÿííûé ãðàäèåíò 12" x1="114.22" y1="63.77" x2="90.07" y2="45.53" xlink:href="#_Áåçûìÿííûé_ãðàäèåíò_12"/>
    <linearGradient id="_Áåçûìÿííûé_ãðàäèåíò_12-9" data-name="Áåçûìÿííûé ãðàäèåíò 12" x1="135.26" y1="9.09" x2="173.95" y2="433.18" xlink:href="#_Áåçûìÿííûé_ãðàäèåíò_12"/>
    <linearGradient id="_Áåçûìÿííûé_ãðàäèåíò_12-10" data-name="Áåçûìÿííûé ãðàäèåíò 12" x1="217.75" y1="84.08" x2="196.17" y2="62.88" xlink:href="#_Áåçûìÿííûé_ãðàäèåíò_12"/>
    <linearGradient id="_Áåçûìÿííûé_ãðàäèåíò_12-11" data-name="Áåçûìÿííûé ãðàäèåíò 12" x1="208.74" y1="2.39" x2="247.43" y2="426.48" xlink:href="#_Áåçûìÿííûé_ãðàäèåíò_12"/>
    <linearGradient id="_Áåçûìÿííûé_ãðàäèåíò_12-12" data-name="Áåçûìÿííûé ãðàäèåíò 12" x1="136.17" y1="111.47" x2="165.18" y2="225.84" xlink:href="#_Áåçûìÿííûé_ãðàäèåíò_12"/>
    <linearGradient id="_Áåçûìÿííûé_ãðàäèåíò_12-13" data-name="Áåçûìÿííûé ãðàäèåíò 12" x1="176.79" y1="216.52" x2="206.95" y2="270" xlink:href="#_Áåçûìÿííûé_ãðàäèåíò_12"/>
    <linearGradient id="_Áåçûìÿííûé_ãðàäèåíò_107" data-name="Áåçûìÿííûé ãðàäèåíò 107" x1="176.54" y1="191.1" x2="178.73" y2="198.87" gradientUnits="userSpaceOnUse">
      <stop offset="0" stop-color="#090afe"/>
      <stop offset=".28" stop-color="#0606a9"/>
      <stop offset=".54" stop-color="#030361"/>
      <stop offset=".75" stop-color="#01012c"/>
      <stop offset=".91" stop-color="#00000c"/>
      <stop offset="1" stop-color="#000"/>
    </linearGradient>
    <linearGradient id="_Áåçûìÿííûé_ãðàäèåíò_12-14" data-name="Áåçûìÿííûé ãðàäèåíò 12" x1="177.23" y1="248.93" x2="211.94" y2="322.9" xlink:href="#_Áåçûìÿííûé_ãðàäèåíò_12"/>
    <linearGradient id="_Áåçûìÿííûé_ãðàäèåíò_86" data-name="Áåçûìÿííûé ãðàäèåíò 86" x1="116.34" y1="257.59" x2="160.97" y2="257.59" gradientUnits="userSpaceOnUse">
      <stop offset=".03" stop-color="#000"/>
      <stop offset=".57" stop-color="#092ffe"/>
      <stop offset=".69" stop-color="#061fa9"/>
      <stop offset=".8" stop-color="#031161"/>
      <stop offset=".89" stop-color="#01082c"/>
      <stop offset=".96" stop-color="#00020c"/>
      <stop offset="1" stop-color="#000"/>
    </linearGradient>
    <radialGradient id="_Áåçûìÿííûé_ãðàäèåíò_68" data-name="Áåçûìÿííûé ãðàäèåíò 68" cx="146.14" cy="337.43" fx="146.14" fy="337.43" r="83.62" gradientUnits="userSpaceOnUse">
      <stop offset="0" stop-color="#4810a4"/>
      <stop offset=".24" stop-color="#3f2dc1"/>
      <stop offset=".56" stop-color="#354fe3"/>
      <stop offset=".82" stop-color="#3063f7"/>
      <stop offset="1" stop-color="#2e6bff"/>
    </radialGradient>
    <linearGradient id="_Áåçûìÿííûé_ãðàäèåíò_679-2" data-name="Áåçûìÿííûé ãðàäèåíò 679" x1="146.39" y1="337.83" x2="105.11" y2="325.17" xlink:href="#_Áåçûìÿííûé_ãðàäèåíò_679"/>
    <linearGradient id="_Áåçûìÿííûé_ãðàäèåíò_674" data-name="Áåçûìÿííûé ãðàäèåíò 674" x1="122.93" y1="328.36" x2="87.75" y2="296.35" gradientUnits="userSpaceOnUse">
      <stop offset="0" stop-color="#102f9a"/>
      <stop offset="1" stop-color="#07043a"/>
    </linearGradient>
    <linearGradient id="_Áåçûìÿííûé_ãðàäèåíò_679-3" data-name="Áåçûìÿííûé ãðàäèåíò 679" x1="143.72" y1="314.73" x2="132.46" y2="189.5" xlink:href="#_Áåçûìÿííûé_ãðàäèåíò_679"/>
    <linearGradient id="_Áåçûìÿííûé_ãðàäèåíò_63" data-name="Áåçûìÿííûé ãðàäèåíò 63" x1="179.8" y1="303.06" x2="190.18" y2="312.37" gradientUnits="userSpaceOnUse">
      <stop offset="0" stop-color="#092ffe"/>
      <stop offset=".28" stop-color="#061fa9"/>
      <stop offset=".54" stop-color="#031161"/>
      <stop offset=".75" stop-color="#01082c"/>
      <stop offset=".91" stop-color="#00020c"/>
      <stop offset="1" stop-color="#000"/>
    </linearGradient>
    <linearGradient id="_Áåçûìÿííûé_ãðàäèåíò_63-2" data-name="Áåçûìÿííûé ãðàäèåíò 63" x1="205.22" y1="332.62" x2="225.65" y2="350.95" xlink:href="#_Áåçûìÿííûé_ãðàäèåíò_63"/>
    <linearGradient id="_Áåçûìÿííûé_ãðàäèåíò_39" data-name="Áåçûìÿííûé ãðàäèåíò 39" x1="229.57" y1="164.66" x2="124.63" y2="68.56" gradientUnits="userSpaceOnUse">
      <stop offset="0" stop-color="#0c2171"/>
      <stop offset="1" stop-color="#051147"/>
    </linearGradient>
    <linearGradient id="_Áåçûìÿííûé_ãðàäèåíò_674-2" data-name="Áåçûìÿííûé ãðàäèåíò 674" x1="102.02" y1="351.34" x2="66.84" y2="319.33" xlink:href="#_Áåçûìÿííûé_ãðàäèåíò_674"/>
    <linearGradient id="_Áåçûìÿííûé_ãðàäèåíò_12-15" data-name="Áåçûìÿííûé ãðàäèåíò 12" x1="-49.89" y1="38.28" x2="-6.07" y2="139" gradientTransform="translate(259.72 71.94) rotate(3.59)" xlink:href="#_Áåçûìÿííûé_ãðàäèåíò_12"/>
    <linearGradient id="_Áåçûìÿííûé_ãðàäèåíò_12-16" data-name="Áåçûìÿííûé ãðàäèåíò 12" x1="228.49" y1="266.04" x2="250.69" y2="289.22" xlink:href="#_Áåçûìÿííûé_ãðàäèåíò_12"/>
    <linearGradient id="_Áåçûìÿííûé_ãðàäèåíò_12-17" data-name="Áåçûìÿííûé ãðàäèåíò 12" x1="108.53" y1="205.24" x2="187.62" y2="285.9" xlink:href="#_Áåçûìÿííûé_ãðàäèåíò_12"/>
    <linearGradient id="_Áåçûìÿííûé_ãðàäèåíò_12-18" data-name="Áåçûìÿííûé ãðàäèåíò 12" x1="170.33" y1="317.97" x2="221.25" y2="360.65" xlink:href="#_Áåçûìÿííûé_ãðàäèåíò_12"/>
    <linearGradient id="_Áåçûìÿííûé_ãðàäèåíò_679-4" data-name="Áåçûìÿííûé ãðàäèåíò 679" x1="141.79" y1="254.53" x2="141.79" y2="310.88" xlink:href="#_Áåçûìÿííûé_ãðàäèåíò_679"/>
    <radialGradient id="_Áåçûìÿííûé_ãðàäèåíò_692" data-name="Áåçûìÿííûé ãðàäèåíò 692" cx="-445.93" cy="197.12" fx="-445.93" fy="197.12" r="3.36" gradientTransform="translate(570.84 222.29) rotate(7)" gradientUnits="userSpaceOnUse">
      <stop offset="0" stop-color="#ea1f7a"/>
      <stop offset=".22" stop-color="#e91f7a"/>
      <stop offset=".24" stop-color="#c51a67"/>
      <stop offset=".28" stop-color="#9c1452"/>
      <stop offset=".32" stop-color="#770f3e"/>
      <stop offset=".36" stop-color="#560b2d"/>
      <stop offset=".41" stop-color="#3b071f"/>
      <stop offset=".46" stop-color="#250413"/>
      <stop offset=".52" stop-color="#14020a"/>
      <stop offset=".6" stop-color="#080104"/>
      <stop offset=".7" stop-color="#010000"/>
      <stop offset="1" stop-color="#000"/>
    </radialGradient>
    <radialGradient id="_Áåçûìÿííûé_ãðàäèåíò_691" data-name="Áåçûìÿííûé ãðàäèåíò 691" cx="134.28" cy="386.1" fx="134.28" fy="386.1" r="2.92" gradientUnits="userSpaceOnUse">
      <stop offset="0" stop-color="#00e768"/>
      <stop offset=".14" stop-color="#009342"/>
      <stop offset=".32" stop-color="#002a12"/>
      <stop offset=".4" stop-color="#000"/>
    </radialGradient>
    <radialGradient id="_Áåçûìÿííûé_ãðàäèåíò_692-2" data-name="Áåçûìÿííûé ãðàäèåíò 692" cx="115.27" cy="360.01" fx="115.27" fy="360.01" r="1.11" gradientTransform="matrix(1,0,0,1,0,0)" xlink:href="#_Áåçûìÿííûé_ãðàäèåíò_692"/>
    <radialGradient id="_Áåçûìÿííûé_ãðàäèåíò_691-2" data-name="Áåçûìÿííûé ãðàäèåíò 691" cx="114.56" cy="309.71" fx="114.56" fy="309.71" r="1.82" xlink:href="#_Áåçûìÿííûé_ãðàäèåíò_691"/>
    <radialGradient id="_Áåçûìÿííûé_ãðàäèåíò_691-3" data-name="Áåçûìÿííûé ãðàäèåíò 691" cx="121.47" cy="364.9" fx="121.47" fy="364.9" r=".88" xlink:href="#_Áåçûìÿííûé_ãðàäèåíò_691"/>
    <radialGradient id="_Áåçûìÿííûé_ãðàäèåíò_688" data-name="Áåçûìÿííûé ãðàäèåíò 688" cx="-363.68" cy="178.08" fx="-363.68" fy="178.08" r="1.89" gradientTransform="translate(570.84 222.29) rotate(7)" gradientUnits="userSpaceOnUse">
      <stop offset="0" stop-color="#ea1f7a"/>
      <stop offset=".13" stop-color="#e91f7a"/>
      <stop offset=".15" stop-color="#cf1b6c"/>
      <stop offset=".2" stop-color="#a41556"/>
      <stop offset=".25" stop-color="#7d1041"/>
      <stop offset=".3" stop-color="#5b0c2f"/>
      <stop offset=".36" stop-color="#3e0820"/>
      <stop offset=".43" stop-color="#270514"/>
      <stop offset=".5" stop-color="#15020b"/>
      <stop offset=".59" stop-color="#090104"/>
      <stop offset=".71" stop-color="#020001"/>
      <stop offset="1" stop-color="#000"/>
    </radialGradient>
    <radialGradient id="_Áåçûìÿííûé_ãðàäèåíò_691-4" data-name="Áåçûìÿííûé ãðàäèåíò 691" cx="-386.54" cy="206.68" fx="-386.54" fy="206.68" r=".78" gradientTransform="translate(570.84 222.29) rotate(7)" xlink:href="#_Áåçûìÿííûé_ãðàäèåíò_691"/>
    <radialGradient id="_Áåçûìÿííûé_ãðàäèåíò_689" data-name="Áåçûìÿííûé ãðàäèåíò 689" cx="-385.59" cy="207.46" fx="-385.59" fy="207.46" r="5.87" gradientTransform="translate(570.84 222.29) rotate(7)" gradientUnits="userSpaceOnUse">
      <stop offset="0" stop-color="#ea1f7a"/>
      <stop offset=".42" stop-color="#e91f7a"/>
      <stop offset=".5" stop-color="#d01b6c"/>
      <stop offset=".67" stop-color="#90134b"/>
      <stop offset=".9" stop-color="#2a0516"/>
      <stop offset="1" stop-color="#000"/>
    </radialGradient>
    <radialGradient id="_Áåçûìÿííûé_ãðàäèåíò_689-2" data-name="Áåçûìÿííûé ãðàäèåíò 689" cx="-392.66" cy="197.91" fx="-392.66" fy="197.91" r="2.39" xlink:href="#_Áåçûìÿííûé_ãðàäèåíò_689"/>
    <radialGradient id="_Áåçûìÿííûé_ãðàäèåíò_689-3" data-name="Áåçûìÿííûé ãðàäèåíò 689" cx="99.76" cy="361.46" fx="99.76" fy="361.46" r="3.17" gradientTransform="matrix(1,0,0,1,0,0)" xlink:href="#_Áåçûìÿííûé_ãðàäèåíò_689"/>
    <radialGradient id="_Áåçûìÿííûé_ãðàäèåíò_689-4" data-name="Áåçûìÿííûé ãðàäèåíò 689" cx="92.2" cy="338.91" fx="92.2" fy="338.91" r="1.53" gradientTransform="matrix(1,0,0,1,0,0)" xlink:href="#_Áåçûìÿííûé_ãðàäèåíò_689"/>
    <radialGradient id="_Áåçûìÿííûé_ãðàäèåíò_688-2" data-name="Áåçûìÿííûé ãðàäèåíò 688" cx="-372.57" cy="200.1" fx="-372.57" fy="200.1" r="1.36" xlink:href="#_Áåçûìÿííûé_ãðàäèåíò_688"/>
    <linearGradient id="_Áåçûìÿííûé_ãðàäèåíò_12-19" data-name="Áåçûìÿííûé ãðàäèåíò 12" x1="137.3" y1="74.78" x2="48.55" y2="12.01" xlink:href="#_Áåçûìÿííûé_ãðàäèåíò_12"/>
    <linearGradient id="_Áåçûìÿííûé_ãðàäèåíò_12-20" data-name="Áåçûìÿííûé ãðàäèåíò 12" x1="121.29" y1="26.67" x2="65.61" y2="-10.12" xlink:href="#_Áåçûìÿííûé_ãðàäèåíò_12"/>
    <linearGradient id="_Áåçûìÿííûé_ãðàäèåíò_12-21" data-name="Áåçûìÿííûé ãðàäèåíò 12" x1="281.03" y1="122.86" x2="243" y2="170.65" xlink:href="#_Áåçûìÿííûé_ãðàäèåíò_12"/>
    <linearGradient id="_Áåçûìÿííûé_ãðàäèåíò_11" data-name="Áåçûìÿííûé ãðàäèåíò 11" x1="88.14" y1="177.2" x2="97.32" y2="195.56" gradientUnits="userSpaceOnUse">
      <stop offset="0" stop-color="#0a86ff"/>
      <stop offset="1" stop-color="#000"/>
    </linearGradient>
    <linearGradient id="_Áåçûìÿííûé_ãðàäèåíò_11-2" data-name="Áåçûìÿííûé ãðàäèåíò 11" x1="177.94" y1="121.98" x2="212.87" y2="137.1" xlink:href="#_Áåçûìÿííûé_ãðàäèåíò_11"/>
    <linearGradient id="_Áåçûìÿííûé_ãðàäèåíò_11-3" data-name="Áåçûìÿííûé ãðàäèåíò 11" x1="43.48" y1="344.78" x2="82.36" y2="391.71" xlink:href="#_Áåçûìÿííûé_ãðàäèåíò_11"/>
    <linearGradient id="_Áåçûìÿííûé_ãðàäèåíò_12-22" data-name="Áåçûìÿííûé ãðàäèåíò 12" x1="190.67" y1="363.31" x2="200.62" y2="390.28" xlink:href="#_Áåçûìÿííûé_ãðàäèåíò_12"/>
  </defs>
  <g class="cls-63">
    <g id="Layer_1" data-name="Layer 1">
      <g>
        <g>
          <polygon class="cls-43" points="21.95 410.98 32.74 392.38 51.14 387.94 240.19 392.08 292.59 401.68 295.38 413.4 106.58 426.8 21.95 410.98"/>
          <polygon class="cls-41" points="23.99 407.45 32.74 392.38 232.14 409.5 292.59 400.94 294.45 409.5 249.25 415.63 91.14 419.73 0 413.4 23.99 407.45"/>
          <polygon class="cls-8" points="34.46 391.97 193.27 405.88 230.53 396.22 81.5 389.32 51.14 387.94 34.46 391.97"/>
        </g>
        <g>
          <polygon class="cls-2" points="54.92 389.67 53.54 367.63 59.05 331.81 67.32 329.05 67.32 327.67 60.43 323.54 63.18 305.63 78.34 307.01 63.18 298.74 65.94 276.7 87.98 276.7 87.98 243.63 96.25 284.96 75.58 375.9 54.92 389.67"/>
          <polygon class="cls-47" points="110.27 391.21 113.2 317.56 120.22 314.31 124.1 262.24 160.97 261.93 162.97 289.06 165.79 291.26 171.87 305.3 177.74 309.39 179.94 368.02 180.29 392.43 170.61 392.68 110.27 391.21"/>
          <polygon class="cls-2" points="98.95 98.49 96.25 94.83 70.07 96.21 75.58 144.43 81.09 149.94 82.47 183.01 79.72 183.01 79.72 199.54 49.4 203.68 48.03 232.61 87.98 245.01 87.98 151.32 98.95 98.49"/>
          <path class="cls-10" d="M173.18,392.64l-62.91-1.32,2.43-61.29s1.28,54.23,3.7,56.64c2.41,2.41,4.64,2.41,7.61,1.3,2.97-1.11,1.11-118.86,1.11-118.86h9.1s-2.23,117.37-.19,118.86c2.04,1.49,5.39,1.86,6.69,1.67,1.3-.19-2.04-72.8-2.04-72.8,0,0,3.9,72.24,5.01,72.99,1.11.74,3.76,2.15,3.9.19,1.13-15.64,1.3-.56,2.41.37,1.11.93,12.44,1.11,14.3,0,1.86-1.11-.93-67.79-.93-67.79h17.09v69.46l-7.29.58Z"/>
          <polygon class="cls-48" points="52.51 204.49 80 200.22 80 183.88 96.53 183.14 96.53 209.69 52.51 204.49"/>
          <polygon class="cls-12" points="91.14 204.49 80 200.22 80 183.88 94.86 183.14 91.14 204.49"/>
          <polygon class="cls-18" points="199.58 70.82 196.75 70.82 195.28 66.32 197.48 58.67 198.64 58.67 199.58 70.82"/>
          <polygon class="cls-18" points="98.94 99.56 94.86 157.88 105.07 156.58 134.23 168.84 181.21 166.42 184.74 147.66 207.96 148.41 177.5 178.68 87.99 166.98 98.94 99.56"/>
          <polygon class="cls-39" points="91.2 307.5 79.46 308.24 77.74 307.06 64.69 298.18 81.98 298.18 91.2 307.5"/>
          <polygon class="cls-41" points="91.2 307.42 79.46 308.15 77.74 306.98 64.69 298.09 81.98 298.09 91.2 307.42"/>
          <polygon class="cls-22" points="98.95 99.43 98.94 99.52 96.44 96.07 92.99 122.18 91.94 130.15 90.05 144.48 76.81 144.48 76.74 144.37 72.02 97.75 96.44 95.97 98.95 99.43"/>
          <path class="cls-35" d="M86.77,289.41l-10.62,12.39v.04l-6.96-3.13-3.66-.53-.78-.11c.3-2.66.6-5.36.92-8.09.04-.34.35-3.2.48-4.3.19-1.66.39-3.35.57-5.03.09-.69.16-1.38.25-2.07l11.74-.58,4.74-.25,3.33,11.67Z"/>
          <path class="cls-49" d="M243.76,394.2l-26.94-.6-46.19-1.01.02-.14.5-2.34,4.28-20.57,2.76-.39.19-.04,1.56-.21-.02-.23v-.14l-.02-.5-.65-18.36-.25-6.48-.14-4.02-1.08-29.8-.14-4.07h-5.77l-6.02-14.04-.99-2.3h-1.89l-1.98-27.12h-.18l-36.7-.02-7.75-5.67,7.75,5.97-3.88,52.19-7.03,3.24-1.06,26.5-.18,4.23-1.72,42.97-8.04-.16-17.4-.39h-.19l-22.91-.51-6.44-.14v-21.58c.83-.97,2.87-15.42,5.45-36.45.02-.04.02-.05.02-.09l3.75-1.49v-4.3l-2.57-3.13-.09-.11c.25-2.09.51-4.23.76-6.41.07-.62.9-7.58,1.17-9.95l13.99.51,3.51.12h6.82l-10.94-4.92-.97-.43v-.04l10.62-12.39-3.33-11.67.6-.04,5.68-.28-1.66-32.04-38.47-13.31h-.02c0-.05.02-.09.02-.14.57-5.22,1.13-10.37,1.66-15.38.46-4.11,1.31-12.06,1.31-12.06l32.77,1.49-4.32-53.43-.18-2.3-.02-.11-4-5.66h13.22l1.89-14.32,1.04-7.97,3.45-26.11,2.51,3.45-2.58,29.87-.04.48-2.62,30.33h.02l10.68-1.26,29.76,10.69,7.88-.35,39.39-1.73.09-.02,3.56-19.26h22.63l11.12,7.54,5.97,55.31,3.45.43,1.75,12.62,2.02,14.41h.04l.02.11,2.25,14.66,1.82,11.84-4.13,1.15,2.62,54.58-4.5,2.83,4.5,1.04,9.14,69.42Z"/>
          <polygon class="cls-19" points="217.34 143.22 198.8 143.22 191.67 140.18 190.95 128.19 190.87 126.84 190.1 114.2 201.31 74.39 207.95 76.01 210.32 76.59 217.34 143.22"/>
          <polygon class="cls-37" points="123.47 40.23 122.84 95.58 122.84 96.05 122.84 96.07 120.43 96.07 113.94 94.09 113.93 94.08 111.42 66.53 119.69 38.56 121.06 38.56 123.47 40.23"/>
          <polygon class="cls-53" points="141.91 0 141.91 22.84 139.5 25.04 139.08 24.77 128.6 18.13 129.86 9.53 139.5 0 141.91 0"/>
          <polygon class="cls-31" points="199.95 70.82 197.12 70.82 195.65 66.32 197.85 58.67 199.01 58.67 199.95 70.82"/>
          <polygon class="cls-27" points="214.74 53.5 208.54 50.25 208.27 50.07 208.22 50.03 209.23 31.45 213.36 27.32 213.54 31.86 214.74 53.5"/>
          <polygon class="cls-55" points="215.16 53.91 209.92 50.25 209.65 50.07 209.6 50.03 209.46 31.87 213.14 27.88 214.91 31.86 215.15 53.59 215.16 53.91"/>
          <polygon class="cls-5" points="243.77 394.29 216.82 393.7 216.82 393.6 214.99 346.22 214.99 346.21 183.63 346.01 182.7 344.89 208.54 343.23 210.63 341.96 212.84 340.61 214.66 337.6 214.66 337.6 216.5 330.34 216.45 330.13 195.03 328.46 208.28 322.38 207.12 304.05 207.12 304.05 176.94 289.92 206.87 299.96 206.88 299.9 212.45 280.5 212.24 274.97 213.9 273.77 214.67 273.22 214.93 273.03 216.19 268.95 211.96 267.87 211.68 260.67 172.11 254.82 203.72 255.85 203.72 217.08 208.75 217.08 208.24 183.76 208.21 181.84 207.7 148.35 218.81 155.9 224.78 211.22 225.56 211.31 228.24 211.64 232.01 238.67 232.06 238.67 234.31 253.34 236.13 265.18 232.01 266.33 234.63 320.91 230.12 323.74 234.63 324.79 243.76 394.19 243.77 394.29"/>
          <polygon class="cls-5" points="217.34 143.22 198.8 143.22 191.67 140.18 210.43 140.18 210.17 133.46 210.04 130.15 207.95 76.01 210.32 76.59 217.34 143.22"/>
          <polygon class="cls-62" points="141.91 0 141.91 22.84 139.5 25.04 139.08 24.77 128.6 18.13 139.08 15.51 141.91 0"/>
          <polygon class="cls-62" points="98.95 99.53 96.38 129.41 96.37 129.41 93.72 160.19 93.72 160.19 93.71 160.3 92.46 153.38 81.02 152.55 80.59 152.52 80.83 150.24 76.74 144.48 90.05 144.48 91.94 130.15 92.99 122.18 96.44 96.07 98.94 99.52 98.95 99.53"/>
          <polygon class="cls-62" points="134.15 169.73 130.49 212.27 123.47 211.95 123.47 235.94 111.68 233.13 110.48 241.29 107.65 232.17 104.4 159.04 134.15 169.73"/>
          <polygon class="cls-52" points="181.51 167 181.43 167.53 180.45 173.57 179.56 179.16 179.13 181.84 178.62 185.02 177.88 189.63 177.49 192.04 176.97 195.29 176.97 195.29 175.12 206.82 157.21 208.73 139.81 210.59 130.49 212.27 130.57 211.27 130.73 209.4 131.38 201.94 134.15 169.73 142.05 169.27 181.51 167"/>
          <polygon class="cls-27" points="123.47 40.23 122.84 95.58 122.84 96.05 122.84 96.07 118.44 92.3 121.06 38.56 123.47 40.23"/>
          <polygon class="cls-62" points="215.46 54.14 215.43 54.12 209.92 50.25 213.17 50.02 213.17 49.8 213.14 27.88 214.91 31.86 215.46 54.14"/>
          <path class="cls-41" d="M88.05,234.9v10.58l-38.48-13.31s0-.07.01-.1c0-.01,0-.03,0-.04l38.47,2.87Z"/>
          <polygon class="cls-59" points="203.72 217.08 168.94 220.44 171.77 254.8 203.72 255.85 203.72 217.08"/>
          <polygon class="cls-62" points="211.68 260.67 172.28 254.82 203.72 255.85 211.68 260.67"/>
          <path class="cls-7" d="M177.49,192.04l.06-.02c-.14.94-.34,2.09-.58,3.27l.52-3.25Z"/>
          <polygon class="cls-45" points="211.68 280.47 181.51 278.17 176.9 290.11 206.86 299.96 211.68 280.47"/>
          <polygon class="cls-15" points="124.1 261.82 116.34 256.16 160.35 253.34 160.97 261.85 124.1 261.82"/>
          <polygon class="cls-34" points="170.62 392.59 170.6 392.68 170.6 392.69 159.88 392.46 110.23 391.37 102.2 391.19 84.82 390.81 84.63 390.81 84.6 390.81 84.61 390.7 84.69 389.89 85.79 378.88 85.87 378.12 90.04 336.35 90.38 332.94 92.45 312.22 98.43 312.22 105.97 309.74 105.97 309.74 106.08 309.7 116.34 256.16 124.1 262.14 120.22 314.31 113.2 317.56 112.13 344.06 111.96 348.3 110.23 391.26 170.62 392.59"/>
          <polygon class="cls-20" points="124.1 262.14 120.22 314.31 113.2 317.56 112.13 344.06 111.96 348.3 110.23 391.26 110.23 391.37 107.31 391.36 84.89 391.32 84.6 391.32 84.63 390.81 84.64 390.7 84.69 389.89 85.79 378.88 85.87 378.12 90.04 336.35 90.38 332.94 92.45 312.22 105.97 309.74 105.97 309.74 106.08 309.7 116.34 256.16 124.1 262.14"/>
          <polygon class="cls-24" points="120.22 314.31 113.2 317.56 92.45 312.22 105.87 309.7 105.97 309.74 105.97 309.74 120.22 314.31"/>
          <polygon class="cls-60" points="160.97 262.03 124.1 262 116.34 256.34 160.35 253.52 160.97 262.03"/>
          <polygon class="cls-48" points="195.92 217.84 203.72 219.61 208.75 217.08 203.72 217.08 195.92 217.84"/>
          <polygon class="cls-62" points="214.99 346.22 183.4 345.85 182.66 344.9 208.54 343.23 212.79 340.62 214.99 346.22"/>
          <polygon class="cls-42" points="165.85 291.27 162.97 289.06 165.06 288.75 165.85 291.27"/>
          <polygon class="cls-44" points="177.78 309.38 171.87 305.3 177.63 305.3 177.78 309.38"/>
          <polygon class="cls-62" points="207.12 304.06 176.9 290.01 207.07 299.96 207.12 304.06"/>
          <polygon class="cls-62" points="122.84 96.05 120.74 95.97 113.93 94.09 113.93 94.08 118.75 92.3 122.84 96.05"/>
          <polygon class="cls-62" points="139.08 15.51 139.08 25.04 128.6 18.13 139.08 15.51"/>
          <polygon class="cls-27" points="215.46 54.17 209.48 50.08 209.65 50.07 213.17 49.8 215.15 53.59 215.43 54.12 215.46 54.17"/>
          <polygon class="cls-13" points="217.34 143.22 198.8 143.22 191.67 140.18 210.43 140.18 217.34 143.22"/>
          <polygon class="cls-62" points="90.46 149.09 80.83 150.24 80.83 150.24 76.74 144.48 90.05 144.48 90.46 149.09"/>
          <polygon class="cls-48" points="123.47 211.95 132.27 213.84 166.39 207.85 123.47 211.95"/>
          <polygon class="cls-48" points="211.68 274.92 194.29 271.57 214.93 273.24 211.68 274.92"/>
          <polygon class="cls-30" points="180.46 368.53 180.3 368.57 179.93 368.68 178.37 369.12 176.62 369.61 175.43 369.95 170.63 392.59 170.61 392.68 170.63 392.59 170.65 392.45 174.18 369 179.41 367.64 178.35 349.65 178.05 344.7 178 338.57 177.78 310.54 171.14 306.77 165.79 292.31 162.34 290.01 160.81 261.85 160.58 257.6 160.35 253.34 163.8 285.81 163.89 286.03 165.02 288.75 165.19 289.16 171.87 305.3 177.74 305.3 179.21 337.99 179.27 339.46 179.66 349.08 180.33 365.5 180.46 368.48 180.46 368.53"/>
          <polygon class="cls-18" points="201.29 74.31 188.93 114.93 191.64 140.15 190.45 114.43 201.29 74.31"/>
          <polygon class="cls-18" points="199.93 70.75 197.73 69.74 197.06 70.75 199.93 70.75"/>
          <polygon class="cls-27" points="139.06 25.09 141.66 22.86 141.71 2.52 143.09 23.19 139.61 25.46 139.06 25.09"/>
          <polygon class="cls-40" points="60.64 332.6 90.54 331.33 64.4 330.41 60.69 331.89 60.64 332.6"/>
          <polygon class="cls-28" points="61.8 322.98 90.87 328.04 94.86 331.52 64.4 330.41 64.4 326.14 61.8 322.98"/>
          <g>
            <polygon class="cls-27" points="255.09 251.18 241.53 247.98 241.29 242.98 240.5 227.02 238.16 170.61 238.16 169.23 246.39 168.13 247.87 171.07 255.11 251.18 255.09 251.18"/>
            <polygon class="cls-14" points="240.48 226.78 239.73 170.24 239.74 170.24 246.22 168.97 247.86 171.17 255.09 251.18 241.53 247.98 241.29 242.98 240.5 227.02 240.51 228.13 240.5 228.13 240.49 226.79 240.48 226.78"/>
            <polygon class="cls-62" points="241.56 248.02 254.66 246.34 255.14 251.11 241.56 248.02"/>
          </g>
          <polygon class="cls-38" points="203.72 234.83 202.39 244.05 203.72 245.48 204.61 243.12 203.72 234.83"/>
          <polygon class="cls-6" points="132.19 214.52 129.27 236.47 124.01 235.88 123.46 211.92 132.19 214.52"/>
          <polygon class="cls-62" points="230.06 323.72 234.7 324.84 216.5 330.04 194.96 328.36 208.33 322.42 234.7 320.94 230.06 323.72"/>
          <polygon class="cls-48" points="111.76 233.09 123.47 232.03 123.46 235.88 111.76 233.09"/>
          <polygon class="cls-26" points="182.7 344.89 184.19 337.28 214.27 338.24 212.79 340.62 208.51 343.22 182.7 344.89"/>
          <path class="cls-21" d="M124.01,262.06l-3.45,47.64,4.94.09s-1.86-44.57,0-44.57,2.04,41.23,2.04,41.23h1.3s-1.67-41.41.93-41.41,12.07-.19,14.11.74c2.04.93,2.32,48.42,2.32,48.42h6.69s-1.39-48.04.66-48.79c2.04-.74,5.39-.74,5.39-.74l2.04,52.19h2.04l-2.04-54.97-36.96.19Z"/>
          <path class="cls-58" d="M107.54,364.05c-.23,1.84-1.9,3.15-3.75,2.93-1.84-.23-3.15-1.9-2.93-3.75.23-1.84,1.9-3.15,3.75-2.93,1.84.23,3.15,1.9,2.93,3.75Z"/>
          <path class="cls-51" d="M151.43,384.96c-.04.36-.37.62-.73.57-.36-.04-.62-.37-.57-.73.04-.36.37-.62.73-.57.36.04.62.37.57.73Z"/>
          <path class="cls-17" d="M137.18,386.45c-.2,1.6-1.65,2.74-3.25,2.54-1.6-.2-2.74-1.65-2.54-3.25.2-1.6,1.65-2.74,3.25-2.54,1.6.2,2.74,1.65,2.54,3.25Z"/>
          <path class="cls-32" d="M116.37,360.15c-.07.61-.63,1.04-1.24.97-.61-.07-1.04-.63-.97-1.24.07-.61.63-1.04,1.24-.97.61.07,1.04.63.97,1.24Z"/>
          <path class="cls-29" d="M116.37,309.93c-.12,1-1.03,1.7-2.03,1.58-1-.12-1.7-1.03-1.58-2.02s1.03-1.7,2.02-1.58c1,.12,1.7,1.03,1.58,2.02Z"/>
          <path class="cls-16" d="M122.34,365c-.06.48-.5.82-.98.76-.48-.06-.82-.5-.76-.98.06-.48.5-.82.98-.76.48.06.82.5.76.98Z"/>
          <path class="cls-50" d="M190.04,354.98c-.13,1.03-1.07,1.77-2.1,1.64-1.03-.13-1.77-1.07-1.64-2.1.13-1.03,1.07-1.77,2.1-1.64,1.03.13,1.77,1.07,1.64,2.1Z"/>
          <path class="cls-33" d="M162.76,380.45c-.05.43-.44.73-.87.68-.43-.05-.73-.44-.68-.87.05-.43.44-.73.87-.68.43.05.73.44.68.87Z"/>
          <path class="cls-9" d="M168.66,381.96c-.39,3.22-3.32,5.5-6.54,5.11-3.22-.39-5.5-3.32-5.11-6.54.39-3.22,3.32-5.5,6.54-5.11,3.22.39,5.5,3.32,5.11,6.54Z"/>
          <path class="cls-23" d="M159.35,371.2c-.16,1.31-1.35,2.24-2.67,2.08s-2.24-1.35-2.08-2.67c.16-1.31,1.35-2.24,2.67-2.08s2.24,1.35,2.08,2.67Z"/>
          <path class="cls-56" d="M102.91,361.85c-.21,1.74-1.79,2.97-3.53,2.76-1.74-.21-2.97-1.79-2.76-3.53.21-1.74,1.8-2.97,3.53-2.76,1.74.21,2.97,1.8,2.76,3.53Z"/>
          <path class="cls-54" d="M93.71,339.1c-.1.84-.86,1.43-1.7,1.33-.84-.1-1.43-.86-1.33-1.7.1-.84.86-1.43,1.7-1.33.84.1,1.43.86,1.33,1.7Z"/>
          <path class="cls-25" d="M178.02,375.69c-.09.75-.77,1.28-1.52,1.19-.75-.09-1.28-.77-1.19-1.52.09-.75.77-1.28,1.52-1.19.75.09,1.28.77,1.19,1.52Z"/>
          <polygon class="cls-27" points="104.05 29.13 93.09 36.35 100.52 71.21 105.52 71.18 105.74 30.92 104.05 29.13"/>
          <polygon class="cls-11" points="96.56 28.69 93.09 36.35 100.32 70.69 103.93 70.69 103.93 29.12 96.56 28.69"/>
          <polygon class="cls-27" points="108.21 11.02 104.29 23.38 110.68 30.43 110.02 11.48 108.21 11.02"/>
          <polygon class="cls-27" points="252.36 148.33 251.19 151.25 253.52 162.34 254.69 162.34 254.69 148.91 252.36 148.33"/>
          <polygon class="cls-1" points="108.12 9.69 104.5 22.35 109.8 27.34 109.92 11.5 108.12 9.69"/>
          <polygon class="cls-36" points="253.46 149.02 252.3 151.94 254.63 163.03 255.8 163.03 255.8 149.6 253.46 149.02"/>
          <polygon class="cls-4" points="84.2 192.02 105.79 190.47 105.79 189.82 84.03 189.82 84.2 192.02"/>
          <polygon class="cls-62" points="207.96 198.34 175.96 201.55 175.92 200.18 208.42 195.42 211.65 196.99 207.96 198.34"/>
          <polygon class="cls-61" points="210.14 133.26 191.67 133.26 191.67 132.55 210.14 130.58 210.14 133.26"/>
          <polygon class="cls-46" points="55.3 375.51 86.87 371.99 85.64 380.35 55.3 379.07 55.3 382.52 65.9 383.33 55.26 384.16 55.3 375.51"/>
          <polygon class="cls-62" points="211.65 267.94 173.41 267.27 181.29 269.95 215 273.31 216.18 269.11 211.65 267.94"/>
          <polygon class="cls-57" points="170.89 393.03 170.6 393.02 109.66 391.39 113.62 317.48 119.34 313.7 123.46 261.51 124.15 261.57 120 314.09 114.29 317.87 112.78 389.67 170.34 392.33 175.13 369.63 175.81 369.77 170.89 393.03"/>
          <path class="cls-62" d="M221.31,230.99l-19.47-3.54-31.72,7.38.53,6.46-27.24,5.63-9.26,7.9,9.26-9.67,26.56-5.31v-6.65s17.7-2.21,19.47-3.98c1.77-1.77,2.53-10.87,2.53-10.87l.71-.2s-3.25,11.07-1.48,11.07,10.62-3.54,10.62-3.54l19.47,3.54v1.77Z"/>
          <polygon class="cls-62" points="115.09 262.85 88.48 253.52 108.01 259.31 116.34 257.59 115.96 258.18 108.01 259.31 115.17 262.29 115.09 262.85"/>
          <polygon class="cls-3" points="177.05 370.85 212.46 377.93 184.14 369.08 177.05 370.85"/>
          <path class="cls-41" d="M51.55,213.84s14.55-8.01,15.14-8.71c.6-.7-1.26-2.64-1.26-2.64l1.38-.21,1.23,2.92-16.5,9.34v-.69Z"/>
          <polygon class="cls-41" points="85 307.11 107.78 300.83 107.56 301.94 85 307.11"/>
          <polygon class="cls-41" points="86.77 289.41 77.12 302.26 76.14 303.57 76.14 301.8 86.77 289.41"/>
          <polygon class="cls-41" points="84.06 277.73 86.77 289.41 83.44 277.74 83.23 277.02 84.04 277.71 84.06 277.73"/>
          <polygon class="cls-5" points="246.1 169.03 247.87 248.69 254.95 250.46 247.87 170.8 246.1 169.03"/>
        </g>
      </g>
    </g>
  </g>
</svg>