<svg width="1440" height="190" viewBox="0 0 1440 190" fill="none" xmlns="http://www.w3.org/2000/svg">
<circle cx="35.8148" cy="70.7779" r="20.2222" fill="#FF8700" fill-opacity="0.5"/>
<circle cx="65.0247" cy="20.2222" r="20.2222" fill="#FF8700" fill-opacity="0.5"/>
<circle cx="95.358" cy="70.7779" r="20.2222" fill="#FF8700" fill-opacity="0.5"/>
<circle cx="124.568" cy="20.2222" r="20.2222" fill="#FF8700" fill-opacity="0.5"/>
<circle cx="154.901" cy="70.7779" r="20.2222" fill="#FF8700" fill-opacity="0.5"/>
<circle cx="184.111" cy="20.2222" r="20.2222" fill="#FF8700" fill-opacity="0.5"/>
<circle cx="214.444" cy="70.7779" r="20.2222" fill="#FF8700" fill-opacity="0.5"/>
<circle cx="243.654" cy="20.2222" r="20.2222" fill="#FF8700" fill-opacity="0.5"/>
<circle cx="273.988" cy="70.7779" r="20.2222" fill="#FF8700" fill-opacity="0.5"/>
<circle cx="303.198" cy="20.2222" r="20.2222" fill="#FF8700" fill-opacity="0.5"/>
<circle cx="333.531" cy="70.7779" r="20.2222" fill="#FF8700" fill-opacity="0.5"/>
<circle cx="362.741" cy="20.2222" r="20.2222" fill="#FF8700" fill-opacity="0.5"/>
<circle cx="393.074" cy="70.7779" r="20.2222" fill="#FF8700" fill-opacity="0.5"/>
<circle cx="422.284" cy="20.2222" r="20.2222" fill="#FF8700" fill-opacity="0.5"/>
<circle cx="452.617" cy="70.7779" r="20.2222" fill="#FF8700" fill-opacity="0.5"/>
<circle cx="481.827" cy="20.2222" r="20.2222" fill="#FF8700" fill-opacity="0.5"/>
<circle cx="512.161" cy="70.7779" r="20.2222" fill="#FF8700" fill-opacity="0.5"/>
<circle cx="541.37" cy="20.2222" r="20.2222" fill="#FF8700" fill-opacity="0.5"/>
<circle cx="571.704" cy="70.7779" r="20.2222" fill="#FF8700" fill-opacity="0.5"/>
<circle cx="600.914" cy="20.2222" r="20.2222" fill="#FF8700" fill-opacity="0.5"/>
<circle cx="631.247" cy="70.7779" r="20.2222" fill="#FF8700" fill-opacity="0.5"/>
<circle cx="660.457" cy="20.2222" r="20.2222" fill="#FF8700" fill-opacity="0.5"/>
<circle cx="690.79" cy="70.7779" r="20.2222" fill="#FF8700" fill-opacity="0.5"/>
<circle cx="720" cy="20.2222" r="20.2222" fill="#FF8700" fill-opacity="0.5"/>
<circle cx="750.333" cy="70.7779" r="20.2222" fill="#FF8700" fill-opacity="0.5"/>
<circle cx="779.543" cy="20.2222" r="20.2222" fill="#FF8700" fill-opacity="0.5"/>
<circle cx="809.877" cy="70.7779" r="20.2222" fill="#FF8700" fill-opacity="0.5"/>
<circle cx="839.086" cy="20.2222" r="20.2222" fill="#FF8700" fill-opacity="0.5"/>
<circle cx="869.42" cy="70.7779" r="20.2222" fill="#FF8700" fill-opacity="0.5"/>
<circle cx="898.63" cy="20.2222" r="20.2222" fill="#FF8700" fill-opacity="0.5"/>
<circle cx="928.963" cy="70.7779" r="20.2222" fill="#FF8700" fill-opacity="0.5"/>
<circle cx="958.173" cy="20.2222" r="20.2222" fill="#FF8700" fill-opacity="0.5"/>
<circle cx="988.506" cy="70.7779" r="20.2222" fill="#FF8700" fill-opacity="0.5"/>
<circle cx="1017.72" cy="20.2222" r="20.2222" fill="#FF8700" fill-opacity="0.5"/>
<circle cx="1048.05" cy="70.7779" r="20.2222" fill="#FF8700" fill-opacity="0.5"/>
<circle cx="1077.26" cy="20.2222" r="20.2222" fill="#FF8700" fill-opacity="0.5"/>
<circle cx="1107.59" cy="70.7779" r="20.2222" fill="#FF8700" fill-opacity="0.5"/>
<circle cx="1136.8" cy="20.2222" r="20.2222" fill="#FF8700" fill-opacity="0.5"/>
<circle cx="1167.14" cy="70.7779" r="20.2222" fill="#FF8700" fill-opacity="0.5"/>
<circle cx="1196.35" cy="20.2222" r="20.2222" fill="#FF8700" fill-opacity="0.5"/>
<circle cx="1226.68" cy="70.7779" r="20.2222" fill="#FF8700" fill-opacity="0.5"/>
<circle cx="1255.89" cy="20.2222" r="20.2222" fill="#FF8700" fill-opacity="0.5"/>
<circle cx="1286.22" cy="70.7779" r="20.2222" fill="#FF8700" fill-opacity="0.5"/>
<circle cx="1315.43" cy="20.2222" r="20.2222" fill="#FF8700" fill-opacity="0.5"/>
<circle cx="1345.77" cy="70.7779" r="20.2222" fill="#FF8700" fill-opacity="0.5"/>
<circle cx="1374.98" cy="20.2222" r="20.2222" fill="#FF8700" fill-opacity="0.5"/>
<circle cx="1434.52" cy="20.2222" r="20.2222" fill="#FF8700" fill-opacity="0.5"/>
<circle cx="5.4815" cy="20.2222" r="20.2222" fill="#FF8700" fill-opacity="0.5"/>
<circle cx="1405.31" cy="70.7779" r="20.2222" fill="#FF8700" fill-opacity="0.5"/>
<circle cx="35.8148" cy="169.778" r="20.2222" fill="#FF8700" fill-opacity="0.5"/>
<circle cx="65.0247" cy="119.222" r="20.2222" fill="#FF8700" fill-opacity="0.5"/>
<circle cx="95.358" cy="169.778" r="20.2222" fill="#FF8700" fill-opacity="0.5"/>
<circle cx="124.568" cy="119.222" r="20.2222" fill="#FF8700" fill-opacity="0.5"/>
<circle cx="154.901" cy="169.778" r="20.2222" fill="#FF8700" fill-opacity="0.5"/>
<circle cx="184.111" cy="119.222" r="20.2222" fill="#FF8700" fill-opacity="0.5"/>
<circle cx="214.444" cy="169.778" r="20.2222" fill="#FF8700" fill-opacity="0.5"/>
<circle cx="243.654" cy="119.222" r="20.2222" fill="#FF8700" fill-opacity="0.5"/>
<circle cx="273.988" cy="169.778" r="20.2222" fill="#FF8700" fill-opacity="0.5"/>
<circle cx="303.198" cy="119.222" r="20.2222" fill="#FF8700" fill-opacity="0.5"/>
<circle cx="333.531" cy="169.778" r="20.2222" fill="#FF8700" fill-opacity="0.5"/>
<circle cx="362.741" cy="119.222" r="20.2222" fill="#FF8700" fill-opacity="0.5"/>
<circle cx="393.074" cy="169.778" r="20.2222" fill="#FF8700" fill-opacity="0.5"/>
<circle cx="422.284" cy="119.222" r="20.2222" fill="#FF8700" fill-opacity="0.5"/>
<circle cx="452.617" cy="169.778" r="20.2222" fill="#FF8700" fill-opacity="0.5"/>
<circle cx="481.827" cy="119.222" r="20.2222" fill="#FF8700" fill-opacity="0.5"/>
<circle cx="512.161" cy="169.778" r="20.2222" fill="#FF8700" fill-opacity="0.5"/>
<circle cx="541.37" cy="119.222" r="20.2222" fill="#FF8700" fill-opacity="0.5"/>
<circle cx="571.704" cy="169.778" r="20.2222" fill="#FF8700" fill-opacity="0.5"/>
<circle cx="600.914" cy="119.222" r="20.2222" fill="#FF8700" fill-opacity="0.5"/>
<circle cx="631.247" cy="169.778" r="20.2222" fill="#FF8700" fill-opacity="0.5"/>
<circle cx="660.457" cy="119.222" r="20.2222" fill="#FF8700" fill-opacity="0.5"/>
<circle cx="690.79" cy="169.778" r="20.2222" fill="#FF8700" fill-opacity="0.5"/>
<circle cx="720" cy="119.222" r="20.2222" fill="#FF8700" fill-opacity="0.5"/>
<circle cx="750.333" cy="169.778" r="20.2222" fill="#FF8700" fill-opacity="0.5"/>
<circle cx="779.543" cy="119.222" r="20.2222" fill="#FF8700" fill-opacity="0.5"/>
<circle cx="809.877" cy="169.778" r="20.2222" fill="#FF8700" fill-opacity="0.5"/>
<circle cx="839.086" cy="119.222" r="20.2222" fill="#FF8700" fill-opacity="0.5"/>
<circle cx="869.42" cy="169.778" r="20.2222" fill="#FF8700" fill-opacity="0.5"/>
<circle cx="898.63" cy="119.222" r="20.2222" fill="#FF8700" fill-opacity="0.5"/>
<circle cx="928.963" cy="169.778" r="20.2222" fill="#FF8700" fill-opacity="0.5"/>
<circle cx="958.173" cy="119.222" r="20.2222" fill="#FF8700" fill-opacity="0.5"/>
<circle cx="988.506" cy="169.778" r="20.2222" fill="#FF8700" fill-opacity="0.5"/>
<circle cx="1017.72" cy="119.222" r="20.2222" fill="#FF8700" fill-opacity="0.5"/>
<circle cx="1048.05" cy="169.778" r="20.2222" fill="#FF8700" fill-opacity="0.5"/>
<circle cx="1077.26" cy="119.222" r="20.2222" fill="#FF8700" fill-opacity="0.5"/>
<circle cx="1107.59" cy="169.778" r="20.2222" fill="#FF8700" fill-opacity="0.5"/>
<circle cx="1136.8" cy="119.222" r="20.2222" fill="#FF8700" fill-opacity="0.5"/>
<circle cx="1167.14" cy="169.778" r="20.2222" fill="#FF8700" fill-opacity="0.5"/>
<circle cx="1196.35" cy="119.222" r="20.2222" fill="#FF8700" fill-opacity="0.5"/>
<circle cx="1226.68" cy="169.778" r="20.2222" fill="#FF8700" fill-opacity="0.5"/>
<circle cx="1255.89" cy="119.222" r="20.2222" fill="#FF8700" fill-opacity="0.5"/>
<circle cx="1286.22" cy="169.778" r="20.2222" fill="#FF8700" fill-opacity="0.5"/>
<circle cx="1315.43" cy="119.222" r="20.2222" fill="#FF8700" fill-opacity="0.5"/>
<circle cx="1345.77" cy="169.778" r="20.2222" fill="#FF8700" fill-opacity="0.5"/>
<circle cx="1374.98" cy="119.222" r="20.2222" fill="#FF8700" fill-opacity="0.5"/>
<circle cx="1434.52" cy="119.222" r="20.2222" fill="#FF8700" fill-opacity="0.5"/>
<circle cx="5.4815" cy="119.222" r="20.2222" fill="#FF8700" fill-opacity="0.5"/>
<circle cx="1405.31" cy="169.778" r="20.2222" fill="#FF8700" fill-opacity="0.5"/>
</svg>
