<?xml version="1.0" encoding="UTF-8"?>
<svg id="Layer_1" data-name="Layer 1" xmlns="http://www.w3.org/2000/svg" version="1.1" viewBox="0 0 210.77 210.79">
  <defs>
    <style>
      .cls-1 {
        fill: #231f20;
        stroke-width: 0px;
      }
    </style>
  </defs>
  <path id="CUSTOM" class="cls-1" d="M205.11,91.68s-.01-.01-.02-.02L119.11,5.68c-3.67-3.67-8.54-5.68-13.72-5.68s-10.06,2.02-13.72,5.68L5.72,91.62s-.06.06-.09.09c-7.53,7.57-7.51,19.85.04,27.4,3.45,3.45,8,5.45,12.88,5.66.2.02.4.03.6.03h3.43v63.28c0,12.52,10.19,22.71,22.71,22.71h33.64c3.41,0,6.18-2.77,6.18-6.18v-49.61c0-5.71,4.65-10.36,10.36-10.36h19.84c5.71,0,10.36,4.65,10.36,10.36v49.61c0,3.41,2.76,6.18,6.18,6.18h33.64c12.52,0,22.71-10.19,22.71-22.71v-63.28h3.18c5.18,0,10.05-2.02,13.72-5.69,7.56-7.56,7.56-19.87.01-27.43ZM196.36,110.38c-1.33,1.33-3.11,2.07-4.99,2.07h-9.35c-3.41,0-6.18,2.76-6.18,6.18v69.45c0,5.71-4.65,10.36-10.36,10.36h-27.46v-43.43c0-12.52-10.19-22.71-22.71-22.71h-19.84c-12.52,0-22.71,10.19-22.71,22.71v43.43h-27.46c-5.71,0-10.36-4.65-10.36-10.36v-69.45c0-3.41-2.76-6.18-6.18-6.18h-9.19c-.1,0-.19-.01-.29-.01-1.84-.03-3.57-.76-4.86-2.06-2.75-2.75-2.75-7.23,0-9.98,0,0,0,0,0,0h0S100.4,14.42,100.4,14.42c1.33-1.33,3.1-2.07,4.99-2.07s3.65.73,4.99,2.07l85.96,85.96s.03.03.04.04c2.74,2.75,2.73,7.22-.01,9.97Z"/>
</svg>