<?xml version="1.0" encoding="UTF-8"?>
<svg id="Layer_1" data-name="Layer 1" xmlns="http://www.w3.org/2000/svg" version="1.1" viewBox="0 0 210.77 210.79">
  <defs>
    <style>
      .cls-1 {
        fill: #231f20;
        stroke-width: 0px;
      }
    </style>
  </defs>
  <path class="cls-1" d="M131.42,105.4c0-4.54-3.68-8.22-8.22-8.22H47.6v-17.19S.65,105.4.65,105.4l46.94,25.41v-17.19h75.6c4.54,0,8.22-3.68,8.22-8.22Z"/>
  <path class="cls-1" d="M188.94.4h-101.72c-11.68,0-21.18,9.5-21.18,21.18v49.56c0,4.54,3.68,8.22,8.22,8.22s8.22-3.68,8.22-8.22V21.58c0-2.61,2.12-4.74,4.74-4.74h101.72c2.61,0,4.74,2.12,4.74,4.74v167.64c0,2.61-2.12,4.74-4.74,4.74h-101.72c-2.61,0-4.74-2.12-4.74-4.74v-49.56c0-4.54-3.68-8.22-8.22-8.22s-8.22,3.68-8.22,8.22v49.56c0,11.68,9.5,21.18,21.18,21.18h101.72c11.68,0,21.18-9.5,21.18-21.18V21.58c0-11.68-9.5-21.18-21.18-21.18Z"/>
</svg>