<?xml version="1.0" encoding="UTF-8"?>
<svg xmlns="http://www.w3.org/2000/svg" version="1.1" xmlns:xlink="http://www.w3.org/1999/xlink" viewBox="0 0 169.71 191.6">
  <defs>
    <style>
      .cls-1 {
        fill: #e8fffe;
      }

      .cls-1, .cls-2, .cls-3, .cls-4, .cls-5, .cls-6, .cls-7, .cls-8, .cls-9, .cls-10, .cls-11, .cls-12, .cls-13, .cls-14, .cls-15, .cls-16, .cls-17, .cls-18, .cls-19, .cls-20, .cls-21, .cls-22, .cls-23, .cls-24, .cls-25, .cls-26, .cls-27, .cls-28, .cls-29, .cls-30, .cls-31, .cls-32, .cls-33, .cls-34 {
        stroke-width: 0px;
      }

      .cls-2 {
        fill: url(#linear-gradient);
      }

      .cls-3 {
        fill: #ef821e;
      }

      .cls-4 {
        fill: url(#_Áåçûìÿííûé_ãðàäèåíò_9-6);
      }

      .cls-5 {
        fill: url(#_Áåçûìÿííûé_ãðàäèåíò_10-4);
      }

      .cls-5, .cls-6, .cls-10, .cls-11, .cls-16, .cls-19, .cls-35, .cls-23, .cls-26, .cls-34 {
        mix-blend-mode: screen;
      }

      .cls-6 {
        fill: url(#_Áåçûìÿííûé_ãðàäèåíò_27);
      }

      .cls-7 {
        fill: url(#linear-gradient-6);
      }

      .cls-8 {
        fill: url(#_Áåçûìÿííûé_ãðàäèåíò_9);
      }

      .cls-9 {
        fill: url(#_Áåçûìÿííûé_ãðàäèåíò_9-3);
      }

      .cls-10 {
        fill: url(#_Áåçûìÿííûé_ãðàäèåíò_10-7);
      }

      .cls-36 {
        clip-path: url(#clippath-2);
      }

      .cls-37 {
        isolation: isolate;
      }

      .cls-11 {
        fill: url(#_Áåçûìÿííûé_ãðàäèåíò_10);
      }

      .cls-12 {
        fill: url(#_Áåçûìÿííûé_ãðàäèåíò_34-2);
      }

      .cls-13 {
        fill: url(#_Áåçûìÿííûé_ãðàäèåíò_9-4);
      }

      .cls-14 {
        fill: url(#_Áåçûìÿííûé_ãðàäèåíò_9-7);
      }

      .cls-15 {
        fill: url(#linear-gradient-5);
      }

      .cls-16 {
        fill: url(#_Áåçûìÿííûé_ãðàäèåíò_10-3);
      }

      .cls-17 {
        fill: none;
      }

      .cls-18 {
        fill: #023047;
      }

      .cls-38 {
        clip-path: url(#clippath-1);
      }

      .cls-19 {
        fill: url(#_Áåçûìÿííûé_ãðàäèåíò_10-6);
      }

      .cls-20 {
        fill: #efffe8;
      }

      .cls-35 {
        opacity: .47;
      }

      .cls-21 {
        fill: url(#linear-gradient-2);
      }

      .cls-22 {
        fill: url(#_Áåçûìÿííûé_ãðàäèåíò_9-5);
      }

      .cls-23 {
        fill: url(#_Áåçûìÿííûé_ãðàäèåíò_10-2);
      }

      .cls-24 {
        fill: url(#_Áåçûìÿííûé_ãðàäèåíò_34-3);
      }

      .cls-25 {
        fill: url(#linear-gradient-3);
      }

      .cls-39 {
        clip-path: url(#clippath);
      }

      .cls-26 {
        fill: url(#_Áåçûìÿííûé_ãðàäèåíò_10-8);
      }

      .cls-27 {
        fill: url(#linear-gradient-4);
        mix-blend-mode: soft-light;
      }

      .cls-28 {
        fill: #fff;
      }

      .cls-29 {
        fill: url(#_Áåçûìÿííûé_ãðàäèåíò_34);
      }

      .cls-30 {
        fill: #8ecae6;
      }

      .cls-31 {
        fill: url(#_Áåçûìÿííûé_ãðàäèåíò_46);
      }

      .cls-32 {
        fill: #d3e7eb;
      }

      .cls-33 {
        fill: url(#_Áåçûìÿííûé_ãðàäèåíò_9-2);
      }

      .cls-34 {
        fill: url(#_Áåçûìÿííûé_ãðàäèåíò_10-5);
      }
    </style>
    <linearGradient id="_Áåçûìÿííûé_ãðàäèåíò_9" data-name="Áåçûìÿííûé ãðàäèåíò 9" x1="84.67" y1="93.66" x2="84.67" y2="305.99" gradientUnits="userSpaceOnUse">
      <stop offset=".03" stop-color="#b8ced4"/>
      <stop offset=".58" stop-color="#81a2b1"/>
      <stop offset="1" stop-color="#568096"/>
    </linearGradient>
    <linearGradient id="_Áåçûìÿííûé_ãðàäèåíò_10" data-name="Áåçûìÿííûé ãðàäèåíò 10" x1="128.25" y1="26.9" x2="72.12" y2="321.56" gradientUnits="userSpaceOnUse">
      <stop offset="0" stop-color="#596870"/>
      <stop offset="1" stop-color="#000"/>
    </linearGradient>
    <linearGradient id="_Áåçûìÿííûé_ãðàäèåíò_10-2" data-name="Áåçûìÿííûé ãðàäèåíò 10" x1="62.71" y1="14.67" x2="6.63" y2="309.1" xlink:href="#_Áåçûìÿííûé_ãðàäèåíò_10"/>
    <linearGradient id="_Áåçûìÿííûé_ãðàäèåíò_10-3" data-name="Áåçûìÿííûé ãðàäèåíò 10" x1="84.67" y1="118.5" x2="84.67" y2="55.05" xlink:href="#_Áåçûìÿííûé_ãðàäèåíò_10"/>
    <linearGradient id="_Áåçûìÿííûé_ãðàäèåíò_9-2" data-name="Áåçûìÿííûé ãðàäèåíò 9" x1="84.69" y1="283.91" x2="84.69" y2="159.42" xlink:href="#_Áåçûìÿííûé_ãðàäèåíò_9"/>
    <linearGradient id="_Áåçûìÿííûé_ãðàäèåíò_9-3" data-name="Áåçûìÿííûé ãðàäèåíò 9" x1="81.76" y1="218.34" x2="86.15" y2="-55.84" xlink:href="#_Áåçûìÿííûé_ãðàäèåíò_9"/>
    <linearGradient id="_Áåçûìÿííûé_ãðàäèåíò_9-4" data-name="Áåçûìÿííûé ãðàäèåíò 9" x1="85.87" y1="76.51" x2="80.97" y2="225.99" xlink:href="#_Áåçûìÿííûé_ãðàäèåíò_9"/>
    <linearGradient id="_Áåçûìÿííûé_ãðàäèåíò_10-4" data-name="Áåçûìÿííûé ãðàäèåíò 10" x1="116.03" y1="70.23" x2="112.22" y2="124.39" xlink:href="#_Áåçûìÿííûé_ãðàäèåíò_10"/>
    <linearGradient id="_Áåçûìÿííûé_ãðàäèåíò_10-5" data-name="Áåçûìÿííûé ãðàäèåíò 10" x1="59.29" y1="66.34" x2="55.48" y2="120.42" xlink:href="#_Áåçûìÿííûé_ãðàäèåíò_10"/>
    <linearGradient id="_Áåçûìÿííûé_ãðàäèåíò_9-5" data-name="Áåçûìÿííûé ãðàäèåíò 9" x1="91" y1="35.4" x2="87.56" y2="77.8" xlink:href="#_Áåçûìÿííûé_ãðàäèåíò_9"/>
    <linearGradient id="_Áåçûìÿííûé_ãðàäèåíò_9-6" data-name="Áåçûìÿííûé ãðàäèåíò 9" x1="84.32" y1="180.61" x2="84.32" y2="166.64" xlink:href="#_Áåçûìÿííûé_ãðàäèåíò_9"/>
    <linearGradient id="_Áåçûìÿííûé_ãðàäèåíò_9-7" data-name="Áåçûìÿííûé ãðàäèåíò 9" x1="114.23" y1="19.65" x2="19.67" y2="221.58" xlink:href="#_Áåçûìÿííûé_ãðàäèåíò_9"/>
    <linearGradient id="linear-gradient" x1="85.1" y1="61.53" x2="84.35" y2="284.79" gradientUnits="userSpaceOnUse">
      <stop offset="0" stop-color="#219ebc"/>
      <stop offset=".99" stop-color="#023047"/>
    </linearGradient>
    <linearGradient id="_Áåçûìÿííûé_ãðàäèåíò_10-6" data-name="Áåçûìÿííûé ãðàäèåíò 10" x1="150.43" y1="-83.59" x2="66.15" y2="218.69" xlink:href="#_Áåçûìÿííûé_ãðàäèåíò_10"/>
    <linearGradient id="_Áåçûìÿííûé_ãðàäèåíò_10-7" data-name="Áåçûìÿííûé ãðàäèåíò 10" x1="88.62" y1="166.51" x2="86.41" y2="70.15" xlink:href="#_Áåçûìÿííûé_ãðàäèåíò_10"/>
    <linearGradient id="linear-gradient-2" x1="85.22" y1="150.3" x2="85.22" y2="45.79" xlink:href="#linear-gradient"/>
    <linearGradient id="linear-gradient-3" x1="99.46" y1="11.2" x2="37.29" y2="315.26" gradientUnits="userSpaceOnUse">
      <stop offset="0" stop-color="#219ebc"/>
      <stop offset="1" stop-color="#023047"/>
    </linearGradient>
    <linearGradient id="linear-gradient-4" x1="86.93" y1="163.31" x2="84.23" y2="18.14" gradientUnits="userSpaceOnUse">
      <stop offset="0" stop-color="#8ecae6"/>
      <stop offset="1" stop-color="#219ebc"/>
    </linearGradient>
    <linearGradient id="_Áåçûìÿííûé_ãðàäèåíò_46" data-name="Áåçûìÿííûé ãðàäèåíò 46" x1="134.67" y1="134.44" x2="148.35" y2="112.63" gradientUnits="userSpaceOnUse">
      <stop offset="0" stop-color="#12b5aa"/>
      <stop offset=".99" stop-color="#3c6ea3"/>
    </linearGradient>
    <linearGradient id="_Áåçûìÿííûé_ãðàäèåíò_34" data-name="Áåçûìÿííûé ãðàäèåíò 34" x1="154.57" y1="113.89" x2="141.29" y2="115.56" gradientUnits="userSpaceOnUse">
      <stop offset="0" stop-color="#bcc8d4"/>
      <stop offset=".02" stop-color="#b9c5d1"/>
      <stop offset=".4" stop-color="#8ca0ac"/>
      <stop offset=".59" stop-color="#7b929e"/>
      <stop offset=".68" stop-color="#8298a4"/>
      <stop offset=".82" stop-color="#96a8b4"/>
      <stop offset=".98" stop-color="#b7c4d0"/>
      <stop offset="1" stop-color="#bcc8d4"/>
    </linearGradient>
    <linearGradient id="_Áåçûìÿííûé_ãðàäèåíò_27" data-name="Áåçûìÿííûé ãðàäèåíò 27" x1="149.46" y1="103.9" x2="151.78" y2="113.71" gradientUnits="userSpaceOnUse">
      <stop offset="0" stop-color="#f5f2d5"/>
      <stop offset="1" stop-color="#000"/>
    </linearGradient>
    <linearGradient id="_Áåçûìÿííûé_ãðàäèåíò_34-2" data-name="Áåçûìÿííûé ãðàäèåíò 34" x1="151.03" y1="109.37" x2="124.8" y2="157.03" xlink:href="#_Áåçûìÿííûé_ãðàäèåíò_34"/>
    <linearGradient id="_Áåçûìÿííûé_ãðàäèåíò_34-3" data-name="Áåçûìÿííûé ãðàäèåíò 34" x1="149.32" y1="98.7" x2="148.02" y2="125.82" xlink:href="#_Áåçûìÿííûé_ãðàäèåíò_34"/>
    <linearGradient id="_Áåçûìÿííûé_ãðàäèåíò_10-8" data-name="Áåçûìÿííûé ãðàäèåíò 10" x1="126.65" y1="-28.57" x2="51.41" y2="221.34" xlink:href="#_Áåçûìÿííûé_ãðàäèåíò_10"/>
    <clipPath id="clippath">
      <rect class="cls-17" x="49.17" y="82.11" width="70.28" height="61.59"/>
    </clipPath>
    <clipPath id="clippath-1">
      <path class="cls-17" d="M97.59,142.73l-48.41,6.88v-67.5h39.75c15.22,0,27.44,12.53,27.08,27.75l-.28,11.64c-.25,10.29-7.93,19.8-18.13,21.25h-.01Z"/>
    </clipPath>
    <linearGradient id="linear-gradient-5" x1="164.06" y1="337.76" x2="164.06" y2="392.77" gradientTransform="translate(0 -252)" gradientUnits="userSpaceOnUse">
      <stop offset="0" stop-color="#ffb703"/>
      <stop offset=".26" stop-color="#feb102"/>
      <stop offset=".61" stop-color="#fda001"/>
      <stop offset="1" stop-color="#fb8500"/>
    </linearGradient>
    <linearGradient id="linear-gradient-6" x1="210.36" y1="340.03" x2="210.36" y2="350.4" xlink:href="#linear-gradient-5"/>
    <clipPath id="clippath-2">
      <path class="cls-17" d="M254.55,107.03c-.25-.39-.54-.77-.87-1.14-.34-.36-.76-.64-1.24-.85-.98-.39-2.03-.61-3.15-.66s-2.25-.07-3.37-.07c.1-1.85.25-3.67.44-5.48s.29-3.63.29-5.48c0-.83-.06-1.65-.19-2.45-.12-.8-.38-1.55-.77-2.23-.25-.48-.58-.92-1.02-1.28s-.92-.63-1.46-.77c-1.12-.39-2.26-.63-3.4-.7-1.15-.07-2.27-.06-3.4.03-.83.1-1.65.35-2.45.77-.8.41-1.43.96-1.87,1.65-.83,1.21-1.37,2.57-1.6,4.05-.25,1.49-.41,2.96-.51,4.42-.1,1.27-.19,2.51-.26,3.73s-.16,2.46-.26,3.73c-.29,0-.79,0-1.5-.04-.7-.03-1.44-.04-2.19-.07-.76-.03-1.47-.03-2.16,0-.69.03-1.17.12-1.46.25-.58.25-1.08.54-1.46.87-.32.32-.6.83-.83,1.5-.87-1.68-2.11-3.12-3.73-4.32-1.68-1.24-3.51-1.98-5.51-2.23-2.77-.39-5.58-.25-8.44.44-2.84.69-5.42,1.81-7.71,3.37-1.41.98-2.64,2.14-3.69,3.51s-1.91,2.83-2.6,4.39c-.87,2.04-1.43,4.19-1.65,6.39-.22,2.22-.2,4.42.04,6.62.06.63.16,1.24.26,1.85-.22-.23-.45-.48-.7-.69-1.37-1.12-2.77-2.2-4.24-3.25s-2.84-2.19-4.17-3.4c.73-.58,1.44-1.18,2.16-1.79.7-.61,1.4-1.22,2.09-1.87.15-.1.38-.31.7-.63s.66-.66,1.02-1.02.7-.71,1.02-1.06c.32-.34.52-.58.63-.73.39-.54.74-1.08,1.06-1.65.32-.55.52-1.18.63-1.87.1-1.02-.07-2-.51-2.92-.34-.77-.82-1.56-1.43-2.33-.61-.77-1.3-1.46-2.09-2.04-.79-.58-1.59-1.01-2.45-1.28-.85-.26-1.69-.31-2.52-.12-.79.15-1.56.48-2.33,1.02-.98.69-1.84,1.46-2.6,2.3-.76.85-1.55,1.69-2.38,2.52-.69.69-1.37,1.36-2.04,2.01-.69.66-1.37,1.33-2.04,2.01.04-2.04.12-4.04.17-5.99.07-1.95.09-3.92.04-5.92-.04-1.27-.12-2.51-.19-3.73-.07-1.21-.23-2.44-.48-3.66-.15-1.12-.47-2.1-.95-2.92-.25-.39-.57-.71-.99-.99-.41-.26-.85-.48-1.28-.63-.73-.25-1.65-.41-2.74-.48-1.09-.07-2.19-.06-3.3.04-1.09.1-2.13.31-3.11.63s-1.75.74-2.33,1.28c-.34.34-.58.73-.73,1.17-.15.44-.26.87-.36,1.31-.15.69-.22,1.37-.22,2.09v2.09c0,.48,0,1.33.03,2.52s.04,2.57.07,4.13c.03,1.56.04,3.21.07,4.93.03,1.74.04,3.37.07,4.93.03,1.56.03,2.93.03,4.13v2.52c0,.69-.06,1.88-.19,3.62-.12,1.74-.25,3.57-.36,5.51-.09,1.31-.13,2.55-.17,3.76-.12-.51-.25-1.02-.41-1.53-.41-1.24-.67-2.52-.77-3.84-.1-1.75-.12-3.51-.07-5.29s-.04-3.54-.29-5.29c-.1-1.17-.32-2.35-.66-3.54-.34-1.2-.83-2.27-1.46-3.25-.83-1.27-1.85-2.39-3.06-3.35-1.22-.98-2.54-1.68-3.95-2.11-2.25-.73-4.56-1.04-6.98-.92-2.41.12-4.78.45-7.13.99-1.12.29-2.23.64-3.32,1.06-1.09.41-2.06,1.01-2.89,1.79-.98.87-1.6,1.88-1.9,3.03s-.29,2.23,0,3.25c.29,1.02.85,1.88,1.68,2.55.83.69,1.9.98,3.22.87.98-.1,1.94-.23,2.89-.41s1.91-.31,2.89-.41c.54-.1,1.09-.16,1.68-.19.58-.03,1.14,0,1.68.12.44.1.85.29,1.24.58.39.29.51.66.36,1.09-.15.39-.58.7-1.31.92s-1.31.38-1.75.48c-1.66.34-3.31.61-4.97.8-1.66.19-3.27.63-4.83,1.31-1.02.44-1.97,1.08-2.81,1.9-.28.28-.54.57-.76.86.03-.17.06-.35.07-.54.25-2.36.17-4.68-.22-6.98-.29-1.85-.8-3.66-1.53-5.44s-1.74-3.32-2.99-4.64c-1.56-1.56-3.37-2.73-5.44-3.51-2.07-.77-4.23-1.06-6.47-.87-2.39.25-4.61.99-6.65,2.26.25-1.21.48-2.42.73-3.62.25-1.2.41-2.39.51-3.62.1-.83.12-1.66.03-2.48-.07-.83-.23-1.63-.48-2.41-.39-1.27-1.12-2.25-2.19-2.92-.73-.44-1.52-.76-2.38-.95-.85-.19-1.69-.32-2.52-.36-1.12-.1-2.22-.1-3.3,0s-2.11.32-3.14.66c-.69.19-1.33.47-1.94.8-.61.34-1.15.79-1.65,1.31-.77.83-1.36,1.78-1.72,2.84-.36,1.08-.67,2.17-.92,3.28-.48,2.58-.73,5.19-.73,7.82s.04,5.26.15,7.89c.15,5.7.51,11.45,1.09,17.25.15,1.37.32,2.71.51,4.05.19,1.34.44,2.67.73,3.98.1.44.19.87.29,1.31.1.44.25.85.44,1.24.29.69.87,1.14,1.75,1.36.87.22,1.84.34,2.89.34s2.11-.04,3.22-.15c1.09-.1,2.01-.12,2.74-.07,1.85.15,3.66.28,5.44.41,1.78.12,3.57.13,5.37.04,1.52-.1,3.02-.34,4.53-.73,1.52-.39,2.92-.98,4.24-1.75,1.75-1.06,3.34-2.44,4.75-4.1,1.17-1.36,2.07-2.83,2.79-4.37,0,1.87.36,3.59,1.09,5.19.54,1.12,1.33,2.11,2.38,2.96,1.05.85,2.17,1.47,3.4,1.87,2.14.69,4.4.77,6.8.25,2.39-.51,4.51-1.4,6.36-2.67.1.63.32,1.17.66,1.6.44.58,1.08,1.04,1.94,1.36.85.32,1.76.54,2.74.66.98.12,1.95.15,2.96.07.99-.07,1.87-.2,2.6-.41.83-.25,1.62-.58,2.38-1.02.76-.44,1.37-.99,1.87-1.68.34-.52.55-1.11.7-1.74,0,.04.01.09.03.12.1.39.25.79.44,1.21.19.41.44.79.73,1.14.48.54,1.06.96,1.75,1.28.69.32,1.39.55,2.11.7,2,.44,3.95.48,5.85.15.69-.15,1.37-.41,2.04-.77.69-.36,1.24-.85,1.68-1.43.39-.54.7-1.11.95-1.72.25-.61.41-1.22.51-1.87.15-1.06.22-2.14.22-3.22v-3.22c1.36,1.66,2.76,3.31,4.17,4.97,1.41,1.66,2.99,3.12,4.75,4.39.77.54,1.63,1.01,2.55,1.43.92.41,1.88.63,2.84.63.83,0,1.66-.19,2.48-.58.83-.39,1.53-.9,2.11-1.53.87-.98,1.65-2.07,2.3-3.3.38-.7.64-1.43.8-2.14.23.51.48,1.01.77,1.49.77,1.22,1.74,2.32,2.89,3.3,1.14.98,2.38,1.74,3.69,2.26,1.71.77,3.54,1.25,5.51,1.43,1.97.17,3.88.2,5.73.12,1.52-.1,3-.26,4.49-.51,1.49-.25,2.93-.61,4.35-1.09,1.12-.39,2.1-.98,2.92-1.75.83-.77,1.44-1.66,1.87-2.67.41-.99.6-2.06.55-3.18-.04-1.12-.36-2.19-.95-3.22-.34-.63-.77-1.2-1.31-1.68-.54-.48-1.15-.8-1.82-.95-.44-.1-.87-.1-1.31,0-.44.1-.85.25-1.24.44-.83.44-1.71.82-2.62,1.14-.92.32-1.88.6-2.84.85-.83.19-1.69.34-2.6.41-.9.07-1.76,0-2.6-.19-.54-.1-1.05-.28-1.53-.55-.48-.26-.9-.6-1.24-.99-.39-.48-.69-1.04-.87-1.65-.19-.61-.34-1.22-.44-1.87,1.81.73,3.72,1.22,5.73,1.5,2.03.26,3.98.17,5.88-.26,1.31-.29,2.6-.8,3.84-1.53s2.32-1.63,3.25-2.7c.58-.69,1.08-1.44,1.5-2.26.09-.19.16-.38.23-.57.09.09.15.19.23.28.39.39.89.66,1.5.8.61.15,1.21.26,1.79.36h2.89c.61,0,1.2,0,1.75-.04.55-.03.93-.04,1.14-.04,0,.54.04,1.59.12,3.18s.16,3.25.26,5c.1,1.75.19,3.43.29,5,.1,1.59.19,2.64.29,3.18.1.83.32,1.62.66,2.38.34.76.83,1.4,1.46,1.94.48.44,1.04.76,1.65.95s1.22.34,1.87.44c1.71.19,3.44.15,5.19-.15.83-.1,1.62-.31,2.38-.63s1.4-.77,1.94-1.36c.29-.39.55-.8.77-1.24.22-.44.35-.87.41-1.31.1-1.27.09-2.51-.04-3.73-.12-1.21-.26-2.46-.41-3.73-.44-3.56-.66-7.13-.66-10.75.92-.04,1.82-.07,2.7-.07s1.75-.07,2.62-.22c.92-.1,1.71-.39,2.33-.87.39-.29.7-.66.95-1.09.25-.44.41-.9.51-1.39.19-.77.32-1.56.36-2.33s.04-1.56,0-2.33c0-.92-.17-1.74-.51-2.41l.07.04h0ZM104.5,120.33c-.32.92-.76,1.79-1.31,2.6-.55.8-1.22,1.47-2.01,2.01-1.12.83-2.33,1.31-3.66,1.46-.69.1-1.39.15-2.11.15s-1.44-.15-2.11-.44c-.98-.39-1.71-1.12-2.19-2.19-.25-.54-.42-1.09-.55-1.68-.12-.58-.17-1.17-.17-1.75-.04-1.52.15-2.99.58-4.46.15-.58.34-1.15.55-1.72.22-.55.52-1.06.92-1.5.63-.77,1.37-1.46,2.19-2.04.83-.58,1.68-1.02,2.55-1.31.87-.29,1.75-.38,2.62-.26.87.12,1.71.5,2.48,1.14,1.31,1.17,2.17,2.58,2.55,4.24.25.98.34,1.95.26,2.92s-.26,1.92-.58,2.84ZM135.37,127.34c-.19.69-.55,1.28-1.06,1.79s-1.04.96-1.57,1.36c-1.27.83-2.65,1.31-4.17,1.46-.98.15-1.88.04-2.7-.29-.92-.39-1.53-1.06-1.82-2.04-.29-.98-.25-1.92.15-2.84.29-.69.71-1.28,1.28-1.82.55-.54,1.18-.98,1.87-1.31.92-.44,1.92-.67,2.99-.7s2.03.12,2.89.44c.85.32,1.5.82,1.94,1.5.44.69.51,1.52.22,2.48h0ZM209.39,117.05c-.29.58-.76,1.05-1.39,1.39s-1.3.55-1.97.66c-.98.19-2,.23-3.06.12-1.06-.12-2.07-.42-2.99-.92.58-2.19,1.78-3.85,3.59-4.97.77-.54,1.66-.85,2.62-.95.73,0,1.36.22,1.9.66.25.15.55.45.92.92.36.47.57.82.63,1.06.1.77.03,1.46-.22,2.04h-.03Z"/>
    </clipPath>
  </defs>
  <g class="cls-37">
    <g id="Layer_1" data-name="Layer 1">
      <g>
        <g>
          <path class="cls-8" d="M166.16,99.91c-1.79,29.9-4.14,61.07-6.59,84.09-.46,3.66-1.76,5.94-4.39,6-9.18.38-18.32.69-27.43.94-11.96.33-23.86.53-35.7.61-8.7.07-17.38.07-26.01,0-4.89-.03-9.76-.09-14.62-.18-12.37-.2-24.65-.55-36.87-1.04-2.86.11-4.96-.9-5.41-4.33-2.34-27.59-4.55-64.06-6.2-96.95C1.13,52.94-.03,21.14,0,10.17c.31-2.99,2.07-4.85,5.25-5.59,7.57-.7,15.15-1.32,22.74-1.85,9.29-.66,18.61-1.19,27.94-1.58,15.48-.65,31.02-.91,46.63-.73,16.61.2,33.29.92,50.06,2.23,4.03.32,8.06.66,12.09,1.05,2.35,1.05,3.92,2.74,4.4,5.34.82,12.58-.54,50.57-2.94,90.87Z"/>
          <path class="cls-11" d="M152.61,2.66c-8.98,62.51-17.36,125.56-24.87,188.28-11.96.33-23.86.53-35.7.61,3.5-63.71,7-127.41,10.51-191.12,16.61.2,33.29.92,50.06,2.23Z"/>
          <path class="cls-23" d="M66.03,191.55c-4.89-.03-9.76-.09-14.62-.18L27.98,2.74c9.29-.66,18.61-1.19,27.94-1.58l10.1,190.39Z"/>
          <path class="cls-16" d="M166.16,99.91c-3.87,1.32-7.8,2.44-11.76,3.38-18.9,4.48-38.52,5.03-57.96,4.66-32.5-.61-65.19-3.78-93.51-18.89C1.13,52.94-.03,21.14,0,10.17c.31-2.99,2.07-4.85,5.25-5.59C57.73-.23,110.75-1.43,164.7,3.71c2.35,1.05,3.92,2.74,4.4,5.34.82,12.58-.54,50.57-2.94,90.87Z"/>
          <path class="cls-32" d="M0,10.18c.12-1.36.61-2.74,1.59-3.75.97-1.01,2.29-1.6,3.63-1.93h0s0,0,0,0c13.24-1.36,26.5-2.55,39.8-3.19C58.34.59,71.65.16,84.96.04c26.63-.24,53.27.78,79.78,3.3h.06s.06.03.06.03c1.13.5,2.21,1.22,3.03,2.19.83.97,1.35,2.18,1.58,3.41v.02s0,.02,0,.02c.24,4,.24,7.98.23,11.97,0,3.99-.09,7.97-.17,11.95-.19,7.97-.47,15.93-.8,23.89l-.52,11.94c-.2,3.98-.47,7.95-.71,11.93l-1.62,23.84,1.09-23.87.48-11.94.54-11.93c.33-7.96.61-15.91.8-23.87.09-3.98.17-7.96.17-11.94,0-3.98,0-7.96-.23-11.92v.04c-.2-1.13-.67-2.2-1.41-3.06-.73-.87-1.71-1.52-2.77-1.99l.12.03C138.19,1.56,111.57.54,84.97.79c-13.3.12-26.6.56-39.88,1.27-13.28.78-26.56,1.55-39.83,2.63h.01c-1.33.3-2.64.84-3.61,1.81-.99.96-1.51,2.32-1.66,3.68Z"/>
          <path class="cls-33" d="M79.19,180.85c-20.16,0-40.19-.37-59.62-1.09C15.17,125.51,11.38,42.03,10.96,14.88c28.75-2.52,55.51-3.75,81.66-3.75,22.38,0,44.47.94,65.75,2.8.57,26.43-3.93,113.28-9.3,165.54-23.74.91-47.22,1.37-69.88,1.37Z"/>
          <path class="cls-9" d="M79.19,171.86c-16.26,0-32.46-.24-48.31-.72-3.46-46.37-6.53-109.8-7.48-142.25,24.13-1.86,46.88-2.76,69.22-2.76,18.14,0,36.11.63,53.58,1.88-.41,31.59-3.94,96.73-8.24,142.87-19.96.65-39.69.99-58.78.99Z"/>
          <polygon class="cls-13" points="153.01 98.64 152.18 107.3 131 107.21 95.72 107.07 65.89 106.95 48.38 106.87 18.18 106.75 17.26 98.91 47.54 98.85 65.52 98.81 96.11 98.75 131.94 98.68 153.01 98.64"/>
          <path class="cls-5" d="M131.94,98.68c-.31,2.85-.64,5.69-.94,8.52l-35.28-.14c.12-2.77.25-5.55.39-8.31l35.83-.07Z"/>
          <polygon class="cls-34" points="65.89 106.95 48.38 106.87 47.54 98.85 65.52 98.81 65.89 106.95"/>
          <polygon class="cls-22" points="18.18 106.75 26.97 116.24 142.42 112.72 152.18 107.3 18.18 106.75"/>
          <path class="cls-4" d="M137.97,170.88l11.1,8.6c-42.03,2.61-85.25,2.58-129.49.29l11.31-8.61,107.09-.27Z"/>
          <path class="cls-32" d="M13.7,85.71l2.98,47.02c.94,15.68,1.98,31.34,3.26,46.99l-.35-.34c43.1,2.47,86.35,2.12,129.45-.29l-.35.34c1.75-19.29,3.3-38.6,4.66-57.93l1.98-28.99c.65-9.66,1.25-19.33,1.79-29-.37,9.68-.79,19.36-1.28,29.03l-.77,14.51-.98,14.5c-1.35,19.33-2.91,38.64-4.66,57.94l-.03.32-.32.02c-43.13,2.4-86.4,2.76-129.53.29l-.33-.02-.03-.33c-1.28-15.66-2.31-31.33-3.27-47.01-.48-7.84-.8-15.69-1.18-23.53l-1.04-23.54Z"/>
          <polygon class="cls-32" points="17.26 98.91 34.22 98.5 51.19 98.47 85.13 98.4 119.07 98.33 136.04 98.3 153.01 98.64 136.04 99.05 119.07 99.08 85.14 99.15 51.2 99.22 34.23 99.25 17.26 98.91"/>
          <path class="cls-1" d="M117.2,180.57c-.58-.14-1.12-.26-1.72-.31-.55-.05-1.08-.07-1.63-.03-.54.04-1.09.06-1.63.11-.61.05-1.15.21-1.69.51-.22.12-.25.5,0,.61.27.12.52.25.81.28.29.04.59.08.88.09.54.01,1.09-.02,1.63-.03.58-.01,1.12-.08,1.7-.18.28-.05.57-.08.84-.17.27-.09.54-.19.81-.28.28-.1.32-.52,0-.6Z"/>
          <path class="cls-1" d="M118.3,98.31c-.23-.09-.53-.09-.78-.12-.23-.03-.45-.02-.68-.02-.52,0-1.03.06-1.54.08-.5.02-.99.02-1.49.01-.52-.02-1.02.06-1.53.12-.19.02-.33.3-.11.4.48.21.93.41,1.45.48.54.07,1.08.13,1.62.16.54.03,1.07.06,1.6-.01.5-.07,1.13-.14,1.55-.45.25-.19.21-.52-.09-.64Z"/>
          <path class="cls-1" d="M168.61,6.87c-.06-.14-.11-.29-.18-.43-.1-.18-.23-.36-.35-.53-.09-.13-.18-.27-.28-.38-.14-.14-.29-.27-.44-.4-.25-.22-.5-.42-.79-.6-.2-.12-.47-.14-.65.03-.16.15-.26.42-.14.63.18.3.37.58.56.87.02.03.04.07.07.1,0,0,0,0,0,0,.04.06.08.12.11.18.12.18.25.34.39.51.1.12.2.25.3.37.01.02.2.19.13.12-.06-.06.03.03.04.04.06.05.12.11.17.16.11.11.23.22.34.33.15.15.28.26.47.36.22.11.53-.1.53-.33.01-.36-.15-.7-.28-1.03Z"/>
          <path class="cls-1" d="M147.61,1.6c-1.64-.37-3.32-.28-4.99-.25-1.7.03-3.41-.07-5.11-.17-.51-.03-.63.79-.12.88,1.74.33,3.47.65,5.23.85.86.1,1.74.08,2.6.05.91-.03,1.69-.3,2.47-.76.24-.14.21-.54-.08-.61Z"/>
        </g>
        <path class="cls-14" d="M156.59,20.56c-.06,2.53-.12,5.03-.17,7.55-.34,13.99-.78,27.78-1.35,41.37-.1,2.32-.19,4.64-.3,6.94-.27,6-.56,11.95-.88,17.87,0,.1,0,.2,0,.3-.13,2.28-.25,4.57-.39,6.84-.14,2.38-.28,4.74-.43,7.1-.4,6.57-.84,13.08-1.32,19.53-.06.85-.13,1.7-.18,2.55-1.28,17.05-2.8,33.68-4.59,49.84-.24,2.76-1.71,4.19-4.13,4.59-11.65.74-23.38,1.24-35.19,1.51-11.09.25-22.26.31-33.48.15-18.78-.22-37.73-1-56.85-2.29-2.36-.35-3.55-2-3.8-4.67-2.22-25.18-3.96-50.88-5.26-77.07-.61-12.07-1.11-24.26-1.53-36.53-.09-2.32-.16-4.66-.23-6.99-.07-2.22-.14-4.43-.19-6.66-.02-.49-.04-.98-.04-1.47-.09-2.87-.16-5.76-.23-8.65-.04-1.44-.07-2.87-.1-4.32-.05-2.15-.1-4.31-.15-6.47-.07-3.57-.14-7.16-.19-10.75.45-3.25,2.33-5.46,6.68-5.87,24.43-1.68,48.43-2.6,71.99-2.64,17.06-.03,33.9.41,50.46,1.33,5.34.3,10.66.65,15.95,1.05,3.16.65,5.49,2.21,5.9,5.87Z"/>
        <g>
          <path class="cls-2" d="M160.74,18c-.06,2.53-.12,5.03-.17,7.55-.34,13.99-.78,27.78-1.35,41.37-.1,2.32-.19,4.64-.3,6.94-.27,6-.56,11.95-.88,17.87,0,.1,0,.2,0,.3-.13,2.28-.25,4.57-.39,6.84-.14,2.38-.28,4.74-.43,7.1-.4,6.57-.84,13.08-1.32,19.53-.06.85-.13,1.7-.18,2.55-1.28,17.05-2.8,33.68-4.59,49.84-.24,2.76-1.71,4.19-4.13,4.59-11.65.74-23.38,1.24-35.19,1.51-11.09.25-22.26.31-33.48.15-18.78-.22-37.73-1-56.84-2.29-2.36-.35-3.55-2-3.8-4.67-2.22-25.18-3.96-50.88-5.26-77.07-.61-12.07-1.11-24.26-1.53-36.53-.09-2.32-.16-4.66-.23-6.99-.07-2.22-.14-4.43-.19-6.66-.02-.49-.04-.98-.04-1.47-.09-2.87-.16-5.76-.23-8.65-.04-1.44-.07-2.87-.1-4.32-.05-2.15-.1-4.31-.15-6.47-.07-3.57-.14-7.16-.19-10.75.45-3.25,2.33-5.46,6.68-5.87,24.43-1.68,48.43-2.6,71.99-2.64,17.06-.03,33.9.41,50.46,1.33,5.34.3,10.66.65,15.95,1.05,3.16.65,5.49,2.21,5.9,5.87Z"/>
          <path class="cls-19" d="M138.89,11.08c-9.68,57.53-18.71,115.17-27.08,172.91-11.09.25-22.26.31-33.48.15,1.19-58.13,4.04-116.58,10.1-174.39,17.06-.03,33.9.41,50.46,1.33Z"/>
          <path class="cls-10" d="M160.74,18c-.06,2.53-.12,5.03-.17,7.55-.34,13.99-.78,27.78-1.35,41.37-.1,2.32-.19,4.64-.3,6.94-.27,6-.56,11.95-.88,17.87,0,.1,0,.2,0,.3,0,0,0,0,0,0-5.88,4.27-12.06,8.1-18.49,11.46-.81.43-1.64.85-2.47,1.26-5.35,2.67-10.86,5.02-16.49,7.03-3.41,1.21-6.69,2.23-9.96,3.01-5.61,1.36-11.22,2.06-17.42,1.94-11.08-.2-21.95-.32-32.68-1.35-9.2-.88-18.29-2.44-27.29-5.32-.81-.25-1.64-.52-2.45-.81-2.17-.75-4.34-1.59-6.5-2.51-4.15-1.77-8.3-3.86-11.85-6.63-.61-12.07-1.11-24.26-1.53-36.53-.09-2.32-.16-4.66-.23-6.99-.07-2.22-.14-4.43-.19-6.66-.02-.49-.04-.98-.04-1.47-.09-2.87-.16-5.76-.23-8.65-.04-1.44-.07-2.87-.1-4.32-.05-2.15-.1-4.31-.15-6.47-.07-3.57-.14-7.16-.19-10.75.45-3.25,2.33-5.46,6.68-5.87,47.83-3.3,94.1-3.64,138.4-.26,3.16.65,5.49,2.21,5.9,5.87Z"/>
          <path class="cls-21" d="M90.11,167.08c-18.04,0-36.66-.55-55.48-1.64-3.49-41.54-5.72-85.92-6.64-132.18,21.33-1.31,42.12-1.97,61.91-1.97,17.99,0,35.64.55,52.57,1.63-1.25,50.03-3.89,93.72-8.02,133.04-14.53.74-29.4,1.12-44.33,1.12h0Z"/>
          <path class="cls-25" d="M139.96,34.95c-.3,12.01-.68,23.65-1.14,34.93-1.39,34.28-3.55,65.35-6.53,94.02-13.89.73-28.11,1.08-42.38,1.08-17.26,0-35.06-.53-53.05-1.59-2.28-27.51-4-56.31-5.14-86.1-.53-13.8-.94-27.81-1.22-42.01,20.39-1.27,40.27-1.92,59.2-1.92,17.21,0,34.08.53,50.27,1.58Z"/>
          <path class="cls-27" d="M138.82,69.89c-1.39,34.28-3.55,65.35-6.53,94.02-13.89.73-28.11,1.08-42.38,1.08-17.26,0-35.06-.53-53.05-1.59-2.28-27.51-4-56.31-5.14-86.1l6.18.3,27.68-.46,1.69,38.54,40.51-.94.68-20.21,12.49,1.4,2.03-25.85h12.82l3.02-.19Z"/>
          <path class="cls-31" d="M144.54,121.48c-1.26-.61-2.11-1.65-2.63-2.87-1.73-4.1-.05-10.21,6.44-9.52.35.04.68.1.98.19,1.67.49,2.61,1.73,2.96,3.26,1.04,4.46-2.85,11.35-7.75,8.94Z"/>
          <path class="cls-29" d="M145.91,120.49c-1.16-.59-1.95-1.6-2.42-2.78-1.6-3.97-.05-9.87,5.93-9.2.32.04.63.1.9.18,1.54.47,2.4,1.67,2.73,3.16.96,4.32-2.62,10.98-7.14,8.64Z"/>
          <path class="cls-6" d="M153.06,111.84c-.6.49-1.18.97-1.82,1.54-.58-.7-1.15-1.35-1.73-2.04.27-.88.54-1.76.82-2.65,1.54.47,2.4,1.67,2.73,3.16Z"/>
          <path class="cls-12" d="M144.97,116.91c.35.87.93,1.6,1.77,2.04,4.64,2.4,7.91-8.19,2.57-8.78-4.37-.49-5.51,3.84-4.34,6.74Z"/>
          <path class="cls-24" d="M147.85,117.88c.03-1.98.06-3.96.09-5.93.51-.06.98.07,1.46.23-.23,1.87-.36,3.9-.59,5.77-.26-.08-.71-.17-.96-.07Z"/>
          <path class="cls-30" d="M11.01,67.12c-.35-8.14-.69-16.28-.97-24.42l-.4-12.21c-.14-4.07-.18-8.14-.26-12.22v-.03s0-.03,0-.03c.21-1.57.84-3.2,2.1-4.31,1.24-1.11,2.86-1.62,4.43-1.82,3.11-.26,6.18-.42,9.27-.63l9.25-.53,9.26-.46c12.35-.56,24.7-.91,37.06-1.03,24.72-.23,49.45.46,74.11,2.33h.02s.02,0,.02,0c1.49.31,3.04.85,4.22,1.96,1.2,1.09,1.81,2.69,1.98,4.23v.03s0,.03,0,.03c-.18,9.67-.59,19.34-.87,29.01-.34,9.67-.56,19.34-1.05,29l-.71,14.49c-.26,4.86-.6,9.65-.94,14.49-.75,9.65-1.42,19.3-2.28,28.93.69-9.65,1.18-19.31,1.75-28.96l1.43-28.98c.49-9.66.72-19.33,1.05-28.99.29-9.67.69-19.33.87-29v.05c-.16-1.43-.7-2.81-1.74-3.77-1.03-.97-2.44-1.48-3.86-1.77h.05c-24.63-1.86-49.34-2.55-74.04-2.32-12.35.12-24.7.47-37.04,1.03l-9.25.46-9.25.53c-3.07.21-6.18.38-9.22.63-1.48.18-2.94.66-4.02,1.63-1.09.96-1.66,2.39-1.86,3.86v-.06c.08,4.07.17,8.14.2,12.22l.17,12.22c.13,8.15.31,16.29.5,24.43Z"/>
          <path class="cls-30" d="M142.46,32.92c-.19,11.11-.45,22.22-.8,33.32-.31,11.11-.89,22.21-1.52,33.3-1.29,22.19-3,44.35-5.32,66.46l-.03.32-.32.02c-33.26,1.71-66.61,1.4-99.85-.52l-.32-.02-.03-.32c-1.84-21.99-3.28-44.01-4.37-66.05-.55-11.02-1.03-22.04-1.28-33.07-.29-11.03-.49-22.06-.63-33.09.31,11.03.7,22.05,1.17,33.07l1.48,33.06c1.09,22.03,2.52,44.05,4.37,66.03l-.35-.34c33.22,1.92,66.54,2.22,99.77.51l-.35.34c2.31-22.09,4.03-44.25,5.32-66.42.65-11.09,1.14-22.19,1.72-33.28.54-11.1.98-22.2,1.36-33.3Z"/>
          <polygon class="cls-26" points="79.61 35.26 69.54 162.97 96.51 163.94 125.76 35.26 79.61 35.26"/>
          <path class="cls-20" d="M104.64,167.13c-1.13-.17-2.24-.21-3.38-.22-.56,0-1.11-.02-1.66-.04-.3-.01-.6-.01-.9,0-.26,0-.5-.02-.75.08-.16.07-.12.29,0,.37.23.15.53.15.79.19.28.04.57.08.85.1.55.04,1.11.07,1.66.1,1.15.05,2.25,0,3.38-.25.15-.03.16-.3,0-.32Z"/>
          <path class="cls-20" d="M152.16,111.69c-.03-.09-.07-.19-.11-.28-.03-.07-.06-.14-.1-.21-.05-.09-.13-.18-.2-.26-.12-.14-.25-.3-.41-.4-.16-.1-.34-.17-.51-.24-.14-.05-.33.04-.39.16-.07.13-.06.32.05.42.08.07.15.14.22.22.03.04.07.08.1.11.03.03.08.06.12.09.19.15.35.32.54.46,0,0,0,0,0,0,.02.02.04.03.06.05.04.03.08.06.11.1.04.03.07.07.11.1.05.04.11.07.17.1.12.07.27-.02.27-.16,0-.09,0-.18-.04-.27Z"/>
          <path class="cls-20" d="M131.95,10.44c-2.61-.65-5.55-.66-8.28-.73-1.4-.04-2.8-.04-4.19-.05-1.37,0-2.77-.04-4.1.23-.25.05-.25.31,0,.36,1.28.26,2.62.25,3.94.29,1.45.04,2.9.11,4.36.17,2.73.12,5.56.39,8.28.1.29-.03.22-.32,0-.37Z"/>
          <g class="cls-39">
            <path class="cls-18" d="M115.46,103.46s18.65,40.25-24.72,40.25c-27.36,0-5.69-9.58,10.59-21.41,9.52-6.91,14.12-18.84,14.12-18.84h.01Z"/>
            <g class="cls-38">
              <g class="cls-37">
                <g id="Layer_1-2" data-name="Layer 1-2">
                  <g>
                    <g>
                      <g>
                        <path class="cls-18" d="M347.43,135.13c1.46,1.53,3.15,2.74,5.05,3.62,1.41.63,2.89,1.08,4.42,1.36,1.53.26,3.08.42,4.64.48,1.27,0,2.55-.09,3.84-.25,1.28-.17,2.52-.5,3.69-.99,1.71-.69,3.28-1.65,4.75-2.89,1.46-1.24,2.65-2.64,3.59-4.2,1.02-1.75,1.74-3.67,2.11-5.77.39-2.1.54-4.19.44-6.28-.04-1.56-.22-3.09-.51-4.61-.29-1.52-.79-2.97-1.46-4.39-1.08-2.25-2.62-4.23-4.64-5.95-2.03-1.74-4.23-2.93-6.62-3.62-1.41-.39-2.86-.61-4.35-.66-1.49-.04-2.93.03-4.35.22-1.6.25-3.18.7-4.71,1.36s-2.93,1.52-4.2,2.6c-1.27,1.08-2.35,2.33-3.25,3.81-.9,1.46-1.57,2.97-2.01,4.53-.06.2-.09.42-.15.63-.12-.41-.22-.82-.36-1.21-.69-1.71-1.62-3.31-2.81-4.83-1.2-1.52-2.6-2.7-4.2-3.59-.92-.54-1.94-.93-3.03-1.21-1.09-.26-2.19-.35-3.25-.25-2.04.19-4.01.93-5.88,2.23-1.31.9-2.36,1.95-3.18,3.12-.51-1.27-1.75-2.19-3.21-2.19h-2.49c-1.46,0-2.7.9-3.21,2.19-.82-1.17-1.87-2.22-3.18-3.12-1.88-1.28-3.84-2.03-5.88-2.23-1.06-.1-2.16,0-3.25.25-1.09.26-2.11.67-3.03,1.21-1.6.87-3,2.07-4.2,3.59-1.2,1.52-2.13,3.12-2.81,4.83-.31.8-.51,1.62-.66,2.45-.29-1.41-.76-2.8-1.4-4.13-1.08-2.25-2.62-4.23-4.64-5.95-2.03-1.74-4.23-2.93-6.62-3.62-1.41-.39-2.86-.61-4.35-.66-1.49-.04-2.93.03-4.35.22-1.6.25-3.18.7-4.71,1.36s-2.93,1.52-4.2,2.6c-.28.23-.51.51-.77.76-.07-.16-.13-.34-.2-.48-.06-.12-.12-.22-.17-.32-.36-.58-.8-1.15-1.3-1.68-.7-.76-1.56-1.34-2.55-1.74-1.24-.5-2.57-.79-3.95-.89.04-.52.1-1.04.16-1.55.2-1.92.32-3.91.32-5.88,0-.99-.07-2-.22-2.99-.17-1.21-.57-2.36-1.15-3.41-.47-.9-1.11-1.69-1.9-2.35-.8-.67-1.71-1.15-2.71-1.44-1.4-.48-2.83-.76-4.26-.85-1.33-.09-2.65-.07-4.07.06-1.25.15-2.49.54-3.69,1.15-1.37.71-2.46,1.69-3.21,2.83-1.12,1.65-1.87,3.51-2.19,5.51-.26,1.59-.45,3.19-.55,4.72-.1,1.28-.19,2.55-.26,3.79v.19h-.19c-.85-.03-1.65-.03-2.41,0-1.17.04-2.07.22-2.81.57-.13.06-.26.12-.38.17-.61-.61-1.27-1.18-1.98-1.72-1.28-.95-2.65-1.65-4.08-2.14l6.53-5.13c1.49-1.17,2.07-3.05,1.47-4.77-.67-1.92-2.58-3.16-4.87-3.16h-5.28c-1.46,0-2.84.54-3.81,1.47l-8.73,8.6c-1.01.99-1.44,2.36-1.24,3.67-2.1.76-4.07,1.74-5.88,2.96-1.08.74-2.09,1.59-3,2.54-.39-.74-.89-1.49-1.46-2.22-.8-1.04-1.74-1.94-2.77-2.71-1.11-.83-2.3-1.44-3.54-1.84-1.46-.45-2.92-.52-4.36-.2-1.25.25-2.48.79-3.67,1.6-1.14.8-2.17,1.71-3.08,2.7,0-.96,0-1.94-.03-2.92-.04-1.3-.12-2.57-.19-3.81-.07-1.34-.25-2.7-.51-4.04-.22-1.55-.69-2.95-1.46-4.26-.52-.85-1.24-1.55-2.1-2.11-.67-.44-1.37-.77-2.11-1.02-1.04-.35-2.23-.55-3.65-.66-1.28-.09-2.58-.07-3.85.04-1.37.12-2.68.39-3.91.79-1.47.48-2.7,1.17-3.67,2.06-.04.03-.07.07-.12.12-.74.74-1.28,1.62-1.6,2.6-.19.55-.34,1.12-.47,1.71-.2.93-.31,1.88-.31,2.84v2.09c0,.5,0,1.37.04,2.6.03,1.2.04,2.57.07,4.11l.03,1.6c-.44-.42-.89-.83-1.37-1.21-1.57-1.25-3.3-2.19-5.09-2.74-2.65-.86-5.44-1.22-8.3-1.09-2.61.13-5.22.5-7.86,1.09-1.22.32-2.46.71-3.69,1.18-1.55.58-2.92,1.44-4.04,2.49-.35.31-.67.64-.96.98-.44-.57-.9-1.12-1.41-1.65-1.92-1.92-4.19-3.38-6.74-4.35-2.58-.96-5.29-1.34-8.12-1.09-.51.06-1.02.13-1.53.22.04-.39.09-.77.12-1.14.13-1.08.15-2.16.04-3.24-.1-1.08-.31-2.16-.63-3.16-.64-2.07-1.92-3.78-3.81-4.97-1.05-.63-2.22-1.09-3.44-1.39-1.05-.23-2.1-.39-3-.44-1.33-.12-2.65-.12-3.94,0-1.33.12-2.64.39-3.89.8-.92.28-1.81.64-2.64,1.11-.95.54-1.81,1.22-2.52,2-1.14,1.21-1.98,2.61-2.51,4.17-.41,1.2-.76,2.44-1.05,3.79-.52,2.79-.79,5.64-.79,8.5,0,2.68.04,5.4.15,7.99.06,2.51.17,5.05.34,7.6-4.61-7.95-10.16-11.45-10.16-11.45,4.01,9.35,8.01,22.03,8.01,22.03-6.68-10-18.53-11.4-18.75-11.42.22.1,14.58,7.09,14.68,26.16h15.69c1.57.13,3.27.09,5.03-.07,1.12-.1,1.81-.09,2.13-.07,1.87.15,3.69.28,5.48.41,1.92.13,3.88.15,5.86.04,1.74-.12,3.49-.39,5.21-.85,1.84-.48,3.59-1.2,5.22-2.17,1.53-.93,2.96-2.06,4.26-3.37.69,1.02,1.53,1.94,2.52,2.76,1.4,1.14,2.95,1.98,4.59,2.51,2.76.87,5.67.99,8.66.35,1.52-.32,2.96-.79,4.32-1.37.73.64,1.6,1.15,2.61,1.52,1.11.41,2.3.7,3.56.86,1.21.15,2.45.17,3.67.09,1.21-.09,2.3-.26,3.37-.54,1.11-.32,2.17-.79,3.18-1.37.22-.13.42-.26.63-.39.47.34.98.63,1.52.87.93.44,1.92.76,2.87.95,2.46.54,4.9.6,7.38.15,1.01-.22,2.03-.6,3-1.12,1.15-.61,2.11-1.44,2.92-2.49.57-.77,1.04-1.62,1.39-2.51.09-.22.17-.44.25-.67,1.21,1.22,2.52,2.35,3.95,3.38.95.66,2.01,1.25,3.14,1.75,2.67,1.2,5.63,1.3,8.37,0,1.25-.58,2.35-1.39,3.28-2.39.31-.34.6-.69.87-1.05.26.25.52.5.8.73,1.41,1.2,2.96,2.16,4.61,2.84,2.06.93,4.29,1.5,6.65,1.71,2.13.19,4.23.22,6.28.12,1.63-.1,3.27-.29,4.84-.55,1.69-.28,3.35-.7,4.96-1.25s3.02-1.41,4.23-2.54c1.2-1.12,2.11-2.45,2.74-3.92.61-1.49.89-3.08.82-4.74-.07-1.71-.55-3.34-1.39-4.78-.54-.99-1.22-1.88-2.09-2.65-.23-.22-.48-.41-.74-.6.22-.22.42-.45.63-.69.13-.15.25-.31.38-.45.51.12,1.02.2,1.52.29.2.03.41.04.6.04h2.26c.07,1.49.15,3.03.25,4.67.1,1.76.19,3.44.29,5.03.13,2.13.23,3,.32,3.5.15,1.15.47,2.27.95,3.34.57,1.25,1.39,2.33,2.35,3.15.87.79,1.87,1.36,2.97,1.72.79.25,1.6.44,2.41.57h.15c.82.09,1.63.13,2.46.13,1.21,0,2.44-.1,3.66-.29,1.12-.15,2.23-.44,3.27-.87,1.24-.52,2.32-1.27,3.21-2.25.09-.09.16-.19.23-.28.42-.55.79-1.17,1.11-1.79.17-.35.31-.7.42-1.06,4.24,7.04,11.77,11.75,20.36,11.75,6.04,0,11.53-2.33,15.75-6.14-3.89,2.13-8.37,3.35-13.17,3.35-9.52,0-17.83-4.8-22.53-11.99,0-.99,0-1.98-.09-2.95-.12-1.22-.26-2.49-.41-3.81-.28-2.23-.47-4.49-.55-6.75.7-.04,1.41-.12,2.11-.22.36-.04.73-.12,1.06-.19,0,.26-.03.52-.03.79-.04,2.86.41,5.57,1.39,8.15.73,2,1.82,3.76,3.28,5.29s3.15,2.74,5.05,3.62c1.41.63,2.89,1.08,4.42,1.36,1.53.26,3.08.42,4.64.48,1.27,0,2.55-.09,3.84-.25,1.28-.17,2.52-.5,3.69-.99,1.71-.69,3.28-1.65,4.75-2.89,1.46-1.24,2.65-2.64,3.59-4.2.64-1.11,1.15-2.29,1.55-3.51.06.82.13,1.62.22,2.42.1,1.12.26,2.26.51,3.44.25,1.17.69,2.25,1.31,3.21.34.54.77,1.01,1.31,1.43.54.41,1.09.71,1.68.92.83.25,1.69.36,2.6.36s1.76-.1,2.6-.29c.69-.1,1.37-.26,2.04-.51.69-.25,1.3-.55,1.82-.95.69-.54,1.15-1.2,1.39-1.97.15-.69.2-1.36.17-2.04s-.06-1.36-.12-2.04c-.1-2.19-.17-4.39-.25-6.58s-.06-4.39.03-6.58c.04-.54.12-1.05.22-1.53.1-.48.29-.92.58-1.31.34-.44.73-.69,1.17-.73s.85.04,1.24.25c.39.22.74.55,1.06.99.32.44.55.9.7,1.39.15.58.23,1.17.26,1.75.03.58.06,1.2.12,1.82.1,1.81.12,3.59.07,5.37s-.04,3.59,0,5.44c.04.98.2,1.94.48,2.89.26.95.71,1.79,1.36,2.52.54.63,1.2,1.12,1.97,1.46.17.07.36.12.54.17.47.25.99.39,1.56.39h1.25c.29,0,.58.03.87,0h.38c.57,0,1.09-.15,1.56-.39.17-.06.36-.1.54-.17.77-.34,1.43-.83,1.97-1.46.63-.73,1.08-1.57,1.36-2.52.26-.95.42-1.91.48-2.89.04-1.85.04-3.66,0-5.44s-.03-3.57.07-5.37c.04-.63.09-1.24.12-1.82s.12-1.17.26-1.75c.15-.48.38-.95.7-1.39.32-.44.67-.77,1.06-.99.39-.22.8-.31,1.24-.25s.83.29,1.17.73c.29.39.48.83.58,1.31.1.48.17.99.22,1.53.1,2.19.12,4.39.03,6.58-.07,2.19-.16,4.39-.25,6.58-.04.69-.09,1.37-.12,2.04-.03.69.03,1.37.17,2.04.25.79.7,1.44,1.39,1.97.54.39,1.14.7,1.82.95.69.25,1.36.41,2.04.51.83.19,1.69.29,2.6.29s1.76-.12,2.6-.36c.58-.19,1.15-.5,1.68-.92.54-.41.98-.89,1.31-1.43.63-.98,1.06-2.04,1.31-3.21s.41-2.32.51-3.44c.03-.31.06-.63.09-.93.73,1.84,1.76,3.49,3.12,4.91l.04-.04h0ZM357.07,118.29c.15-.69.41-1.36.8-2.01s.85-1.25,1.39-1.79c.19-.19.47-.44.8-.73s.63-.41.87-.36c.15.04.45,0,.92-.12s.77-.2.92-.26c1.27-.15,2.54,0,3.81.44.92.34,1.71.86,2.33,1.57.63.71,1.11,1.5,1.43,2.38.32.87.44,1.81.36,2.77-.07.98-.35,1.9-.85,2.77-1.02,1.71-2.33,2.79-3.95,3.25s-3.14.44-4.56-.07c-1.44-.51-2.61-1.44-3.51-2.81-.9-1.37-1.15-3.05-.77-5.05v.03h.01ZM101.04,119.15c-.2.61-.5,1.17-.86,1.69-.31.45-.67.8-1.18,1.17-.6.44-1.21.7-2.01.79-.51.07-1.05.12-1.6.12-.23,0-.45-.04-.76-.17-.03,0-.1-.04-.23-.32-.13-.29-.23-.58-.29-.92-.07-.34-.1-.67-.1-1.12-.03-1.12.1-2.2.44-3.3.01-.06.03-.1.04-.16.1-.44.25-.86.41-1.27.06-.16.15-.29.25-.41.03-.04.07-.09.1-.13.42-.52.9-.98,1.46-1.37.54-.38,1.08-.66,1.62-.83.25-.09.47-.12.7-.12.09,0,.17,0,.28.01.07,0,.29.04.63.31.71.66,1.15,1.39,1.37,2.33.15.61.2,1.18.16,1.76-.04.66-.19,1.31-.39,1.94h-.01ZM130.66,127.49c-.76.48-1.55.74-2.45.83-.06,0-.13,0-.19.03-.23.03-.41.03-.52,0,0-.06,0-.1.04-.16.1-.23.25-.42.45-.63.29-.29.61-.51.9-.66.47-.22.96-.34,1.52-.35.45,0,.86.03,1.2.12-.31.31-.63.57-.95.8h0ZM279.54,122.95c-1.02,1.71-2.33,2.79-3.95,3.25s-3.14.44-4.56-.07c-1.44-.51-2.61-1.44-3.51-2.81s-1.15-3.05-.77-5.05c.15-.69.41-1.36.8-2.01s.85-1.25,1.39-1.79c.19-.19.47-.44.8-.73s.63-.41.87-.36c.15.04.45,0,.92-.12s.77-.2.92-.26c1.27-.15,2.54,0,3.81.44.92.34,1.71.86,2.33,1.57.63.71,1.11,1.5,1.43,2.38.32.87.44,1.81.36,2.77-.07.98-.35,1.9-.85,2.77v.03h.01Z"/>
                        <path class="cls-18" d="M386.7,122.92c-.85,13.33-12.38,23.89-26.52,23.89-4.8,0-9.29-1.22-13.17-3.35,4.21,3.82,9.73,6.14,15.75,6.14,13.27,0,24.03-11.18,24.03-24.98,0-.57-.04-1.14-.09-1.69Z"/>
                        <path class="cls-18" d="M267.89,93.43c4.97,0,9.48,1.81,12.83,4.75-2.81-4.45-7.76-7.42-13.42-7.42-6.75,0-12.5,4.21-14.8,10.15,3.38-4.52,9.01-7.48,15.38-7.48h0Z"/>
                        <path class="cls-18" d="M379.98,100.95c-2.3-5.93-8.05-10.15-14.8-10.15-5.66,0-10.6,2.96-13.42,7.42,3.35-2.93,7.86-4.75,12.83-4.75,6.37,0,11.99,2.96,15.38,7.48h0Z"/>
                      </g>
                      <g>
                        <path class="cls-15" d="M254.55,107.03c-.25-.39-.54-.77-.87-1.14-.34-.36-.76-.64-1.24-.85-.98-.39-2.03-.61-3.15-.66s-2.25-.07-3.37-.07c.1-1.85.25-3.67.44-5.48s.29-3.63.29-5.48c0-.83-.06-1.65-.19-2.45-.12-.8-.38-1.55-.77-2.23-.25-.48-.58-.92-1.02-1.28s-.92-.63-1.46-.77c-1.12-.39-2.26-.63-3.4-.7-1.15-.07-2.27-.06-3.4.03-.83.1-1.65.35-2.45.77-.8.41-1.43.96-1.87,1.65-.83,1.21-1.37,2.57-1.6,4.05-.25,1.49-.41,2.96-.51,4.42-.1,1.27-.19,2.51-.26,3.73-.07,1.22-.16,2.46-.26,3.73-.29,0-.79,0-1.5-.04-.7-.03-1.44-.04-2.19-.07-.76-.03-1.47-.03-2.16,0s-1.17.12-1.46.25c-.58.25-1.08.54-1.46.87-.32.32-.6.83-.83,1.5-.87-1.68-2.11-3.12-3.73-4.32-1.68-1.24-3.51-1.98-5.51-2.23-2.77-.39-5.58-.25-8.44.44-2.84.69-5.42,1.81-7.71,3.37-1.41.98-2.64,2.14-3.69,3.51s-1.91,2.83-2.6,4.39c-.87,2.04-1.43,4.19-1.65,6.39-.22,2.22-.2,4.42.04,6.62.06.63.16,1.24.26,1.85-.22-.23-.45-.48-.7-.69-1.37-1.12-2.77-2.2-4.24-3.25s-2.84-2.19-4.17-3.4c.73-.58,1.44-1.18,2.16-1.79.7-.61,1.4-1.22,2.09-1.87.15-.1.38-.31.7-.63s.66-.66,1.02-1.02.7-.71,1.02-1.06c.32-.34.52-.58.63-.73.39-.54.74-1.08,1.06-1.65.32-.55.52-1.18.63-1.87.1-1.02-.07-2-.51-2.92-.34-.77-.82-1.56-1.43-2.33-.61-.77-1.3-1.46-2.09-2.04s-1.59-1.01-2.45-1.28c-.85-.26-1.69-.31-2.52-.12-.79.15-1.56.48-2.33,1.02-.98.69-1.84,1.46-2.6,2.3s-1.55,1.69-2.38,2.52c-.69.69-1.37,1.36-2.04,2.01-.69.66-1.37,1.33-2.04,2.01.04-2.04.12-4.04.17-5.99.07-1.95.09-3.92.04-5.92-.04-1.27-.12-2.51-.19-3.73-.07-1.21-.23-2.44-.48-3.66-.15-1.12-.47-2.1-.95-2.92-.25-.39-.57-.71-.99-.99-.41-.26-.85-.48-1.28-.63-.73-.25-1.65-.41-2.74-.48s-2.19-.06-3.3.04c-1.09.1-2.13.31-3.11.63s-1.75.74-2.33,1.28c-.34.34-.58.73-.73,1.17s-.26.87-.36,1.31c-.15.69-.22,1.37-.22,2.09v2.09c0,.48,0,1.33.03,2.52.03,1.2.04,2.57.07,4.13.03,1.56.04,3.21.07,4.93.03,1.74.04,3.37.07,4.93.03,1.56.03,2.93.03,4.13v2.52c0,.69-.06,1.88-.19,3.62-.12,1.74-.25,3.57-.36,5.51-.09,1.31-.13,2.55-.17,3.76-.12-.51-.25-1.02-.41-1.53-.41-1.24-.67-2.52-.77-3.84-.1-1.75-.12-3.51-.07-5.29.04-1.78-.04-3.54-.29-5.29-.1-1.17-.32-2.35-.66-3.54-.34-1.2-.83-2.27-1.46-3.25-.83-1.27-1.85-2.39-3.06-3.35-1.22-.98-2.54-1.68-3.95-2.11-2.25-.73-4.56-1.04-6.98-.92-2.41.12-4.78.45-7.13.99-1.12.29-2.23.64-3.32,1.06-1.09.41-2.06,1.01-2.89,1.79-.98.87-1.6,1.88-1.9,3.03s-.29,2.23,0,3.25c.29,1.02.85,1.88,1.68,2.55.83.69,1.9.98,3.22.87.98-.1,1.94-.23,2.89-.41s1.91-.31,2.89-.41c.54-.1,1.09-.16,1.68-.19.58-.03,1.14,0,1.68.12.44.1.85.29,1.24.58.39.29.51.66.36,1.09-.15.39-.58.7-1.31.92s-1.31.38-1.75.48c-1.66.34-3.31.61-4.97.8s-3.27.63-4.83,1.31c-1.02.44-1.97,1.08-2.81,1.9-.28.28-.54.57-.76.86.03-.17.06-.35.07-.54.25-2.36.17-4.68-.22-6.98-.29-1.85-.8-3.66-1.53-5.44s-1.74-3.32-2.99-4.64c-1.56-1.56-3.37-2.73-5.44-3.51-2.07-.77-4.23-1.06-6.47-.87-2.39.25-4.61.99-6.65,2.26.25-1.21.48-2.42.73-3.62.25-1.2.41-2.39.51-3.62.1-.83.12-1.66.03-2.48-.07-.83-.23-1.63-.48-2.41-.39-1.27-1.12-2.25-2.19-2.92-.73-.44-1.52-.76-2.38-.95-.85-.19-1.69-.32-2.52-.36-1.12-.1-2.22-.1-3.3,0s-2.11.32-3.14.66c-.69.19-1.33.47-1.94.8s-1.15.79-1.65,1.31c-.77.83-1.36,1.78-1.72,2.84-.36,1.08-.67,2.17-.92,3.28-.48,2.58-.73,5.19-.73,7.82s.04,5.26.15,7.89c.15,5.7.51,11.45,1.09,17.25.15,1.37.32,2.71.51,4.05.19,1.34.44,2.67.73,3.98.1.44.19.87.29,1.31.1.44.25.85.44,1.24.29.69.87,1.14,1.75,1.36s1.84.34,2.89.34,2.11-.04,3.22-.15c1.09-.1,2.01-.12,2.74-.07,1.85.15,3.66.28,5.44.41,1.78.12,3.57.13,5.37.04,1.52-.1,3.02-.34,4.53-.73s2.92-.98,4.24-1.75c1.75-1.06,3.34-2.44,4.75-4.1,1.17-1.36,2.07-2.83,2.79-4.37,0,1.87.36,3.59,1.09,5.19.54,1.12,1.33,2.11,2.38,2.96,1.05.85,2.17,1.47,3.4,1.87,2.14.69,4.4.77,6.8.25,2.39-.51,4.51-1.4,6.36-2.67.1.63.32,1.17.66,1.6.44.58,1.08,1.04,1.94,1.36.85.32,1.76.54,2.74.66.98.12,1.95.15,2.96.07.99-.07,1.87-.2,2.6-.41.83-.25,1.62-.58,2.38-1.02s1.37-.99,1.87-1.68c.34-.52.55-1.11.7-1.74,0,.04.01.09.03.12.1.39.25.79.44,1.21.19.41.44.79.73,1.14.48.54,1.06.96,1.75,1.28.69.32,1.39.55,2.11.7,2,.44,3.95.48,5.85.15.69-.15,1.37-.41,2.04-.77.69-.36,1.24-.85,1.68-1.43.39-.54.7-1.11.95-1.72.25-.61.41-1.22.51-1.87.15-1.06.22-2.14.22-3.22v-3.22c1.36,1.66,2.76,3.31,4.17,4.97s2.99,3.12,4.75,4.39c.77.54,1.63,1.01,2.55,1.43.92.41,1.88.63,2.84.63.83,0,1.66-.19,2.48-.58.83-.39,1.53-.9,2.11-1.53.87-.98,1.65-2.07,2.3-3.3.38-.7.64-1.43.8-2.14.23.51.48,1.01.77,1.49.77,1.22,1.74,2.32,2.89,3.3,1.14.98,2.38,1.74,3.69,2.26,1.71.77,3.54,1.25,5.51,1.43s3.88.2,5.73.12c1.52-.1,3-.26,4.49-.51,1.49-.25,2.93-.61,4.35-1.09,1.12-.39,2.1-.98,2.92-1.75.83-.77,1.44-1.66,1.87-2.67.41-.99.6-2.06.55-3.18-.04-1.12-.36-2.19-.95-3.22-.34-.63-.77-1.2-1.31-1.68s-1.15-.8-1.82-.95c-.44-.1-.87-.1-1.31,0s-.85.25-1.24.44c-.83.44-1.71.82-2.62,1.14-.92.32-1.88.6-2.84.85-.83.19-1.69.34-2.6.41-.9.07-1.76,0-2.6-.19-.54-.1-1.05-.28-1.53-.55-.48-.26-.9-.6-1.24-.99-.39-.48-.69-1.04-.87-1.65s-.34-1.22-.44-1.87c1.81.73,3.72,1.22,5.73,1.5,2.03.26,3.98.17,5.88-.26,1.31-.29,2.6-.8,3.84-1.53s2.32-1.63,3.25-2.7c.58-.69,1.08-1.44,1.5-2.26.09-.19.16-.38.23-.57.09.09.15.19.23.28.39.39.89.66,1.5.8.61.15,1.21.26,1.79.36h2.89c.61,0,1.2,0,1.75-.04.55-.03.93-.04,1.14-.04,0,.54.04,1.59.12,3.18s.16,3.25.26,5,.19,3.43.29,5c.1,1.59.19,2.64.29,3.18.1.83.32,1.62.66,2.38.34.76.83,1.4,1.46,1.94.48.44,1.04.76,1.65.95s1.22.34,1.87.44c1.71.19,3.44.15,5.19-.15.83-.1,1.62-.31,2.38-.63s1.4-.77,1.94-1.36c.29-.39.55-.8.77-1.24s.35-.87.41-1.31c.1-1.27.09-2.51-.04-3.73-.12-1.21-.26-2.46-.41-3.73-.44-3.56-.66-7.13-.66-10.75.92-.04,1.82-.07,2.7-.07s1.75-.07,2.62-.22c.92-.1,1.71-.39,2.33-.87.39-.29.7-.66.95-1.09s.41-.9.51-1.39c.19-.77.32-1.56.36-2.33s.04-1.56,0-2.33c0-.92-.17-1.74-.51-2.41l.07.04h0ZM104.5,120.33c-.32.92-.76,1.79-1.31,2.6-.55.8-1.22,1.47-2.01,2.01-1.12.83-2.33,1.31-3.66,1.46-.69.1-1.39.15-2.11.15s-1.44-.15-2.11-.44c-.98-.39-1.71-1.12-2.19-2.19-.25-.54-.42-1.09-.55-1.68-.12-.58-.17-1.17-.17-1.75-.04-1.52.15-2.99.58-4.46.15-.58.34-1.15.55-1.72.22-.55.52-1.06.92-1.5.63-.77,1.37-1.46,2.19-2.04.83-.58,1.68-1.02,2.55-1.31.87-.29,1.75-.38,2.62-.26s1.71.5,2.48,1.14c1.31,1.17,2.17,2.58,2.55,4.24.25.98.34,1.95.26,2.92s-.26,1.92-.58,2.84ZM135.37,127.34c-.19.69-.55,1.28-1.06,1.79-.51.51-1.04.96-1.57,1.36-1.27.83-2.65,1.31-4.17,1.46-.98.15-1.88.04-2.7-.29-.92-.39-1.53-1.06-1.82-2.04-.29-.98-.25-1.92.15-2.84.29-.69.71-1.28,1.28-1.82.55-.54,1.18-.98,1.87-1.31.92-.44,1.92-.67,2.99-.7s2.03.12,2.89.44c.85.32,1.5.82,1.94,1.5.44.69.51,1.52.22,2.48h0ZM209.39,117.05c-.29.58-.76,1.05-1.39,1.39-.63.34-1.3.55-1.97.66-.98.19-2,.23-3.06.12-1.06-.12-2.07-.42-2.99-.92.58-2.19,1.78-3.85,3.59-4.97.77-.54,1.66-.85,2.62-.95.73,0,1.36.22,1.9.66.25.15.55.45.92.92s.57.82.63,1.06c.1.77.03,1.46-.22,2.04,0,0-.03,0-.03,0Z"/>
                        <path class="cls-7" d="M203.33,98.4h3.08c.45,0,.87-.13,1.15-.35l10.95-8.6c.74-.58.06-1.43-1.15-1.43h-5.28c-.51,0-.98.16-1.24.42l-8.73,8.6c-.6.58.1,1.34,1.24,1.34h-.01Z"/>
                      </g>
                      <g class="cls-36">
                        <g>
                          <circle class="cls-3" cx="76.65" cy="140.35" r="1.59"/>
                          <circle class="cls-3" cx="79.84" cy="136.34" r="1.59"/>
                          <circle class="cls-3" cx="86.65" cy="136.34" r="1.59"/>
                          <circle class="cls-3" cx="93.46" cy="136.34" r="1.59"/>
                          <circle class="cls-3" cx="100.27" cy="136.34" r="1.59"/>
                          <circle class="cls-3" cx="107.08" cy="136.34" r="1.59"/>
                          <circle class="cls-3" cx="113.89" cy="136.34" r="1.59"/>
                          <circle class="cls-3" cx="120.7" cy="136.34" r="1.59"/>
                          <circle class="cls-3" cx="127.51" cy="136.34" r="1.59"/>
                          <circle class="cls-3" cx="134.32" cy="136.34" r="1.59"/>
                          <circle class="cls-3" cx="141.13" cy="136.34" r="1.59"/>
                          <circle class="cls-3" cx="147.94" cy="136.34" r="1.59"/>
                          <circle class="cls-3" cx="154.75" cy="136.34" r="1.59"/>
                          <circle class="cls-3" cx="161.56" cy="136.34" r="1.59"/>
                          <circle class="cls-3" cx="168.37" cy="136.34" r="1.59"/>
                          <circle class="cls-3" cx="175.18" cy="136.34" r="1.59"/>
                          <circle class="cls-3" cx="181.99" cy="136.34" r="1.59"/>
                          <circle class="cls-3" cx="188.8" cy="136.34" r="1.59"/>
                          <circle class="cls-3" cx="195.61" cy="136.34" r="1.59"/>
                          <circle class="cls-3" cx="202.42" cy="136.34" r="1.59"/>
                          <circle class="cls-3" cx="209.23" cy="136.34" r="1.59"/>
                          <circle class="cls-3" cx="216.04" cy="136.34" r="1.59"/>
                          <circle class="cls-3" cx="222.84" cy="136.34" r="1.59"/>
                          <circle class="cls-3" cx="229.65" cy="136.34" r="1.59"/>
                          <circle class="cls-3" cx="236.46" cy="136.34" r="1.59"/>
                          <circle class="cls-3" cx="243.27" cy="136.34" r="1.59"/>
                          <circle class="cls-3" cx="83.46" cy="140.35" r="1.59"/>
                          <circle class="cls-3" cx="90.27" cy="140.35" r="1.59"/>
                          <circle class="cls-3" cx="97.08" cy="140.35" r="1.59"/>
                          <circle class="cls-3" cx="103.89" cy="140.35" r="1.59"/>
                          <circle class="cls-3" cx="110.7" cy="140.35" r="1.59"/>
                          <circle class="cls-3" cx="117.5" cy="140.35" r="1.59"/>
                          <circle class="cls-3" cx="124.31" cy="140.35" r="1.59"/>
                          <circle class="cls-3" cx="131.12" cy="140.35" r="1.59"/>
                          <circle class="cls-3" cx="137.93" cy="140.35" r="1.59"/>
                          <circle class="cls-3" cx="144.74" cy="140.35" r="1.59"/>
                          <circle class="cls-3" cx="151.55" cy="140.35" r="1.59"/>
                          <circle class="cls-3" cx="158.36" cy="140.35" r="1.59"/>
                          <circle class="cls-3" cx="165.17" cy="140.35" r="1.59"/>
                          <circle class="cls-3" cx="171.98" cy="140.35" r="1.59"/>
                          <circle class="cls-3" cx="178.79" cy="140.35" r="1.59"/>
                          <circle class="cls-3" cx="185.6" cy="140.35" r="1.59"/>
                          <circle class="cls-3" cx="192.41" cy="140.35" r="1.59"/>
                          <circle class="cls-3" cx="199.22" cy="140.35" r="1.59"/>
                          <circle class="cls-3" cx="206.03" cy="140.35" r="1.59"/>
                          <circle class="cls-3" cx="212.84" cy="140.35" r="1.59"/>
                          <circle class="cls-3" cx="219.65" cy="140.35" r="1.59"/>
                          <circle class="cls-3" cx="226.46" cy="140.35" r="1.59"/>
                          <circle class="cls-3" cx="233.27" cy="140.35" r="1.59"/>
                          <circle class="cls-3" cx="240.08" cy="140.35" r="1.59"/>
                          <circle class="cls-3" cx="246.89" cy="140.35" r="1.59"/>
                          <circle class="cls-3" cx="76.65" cy="133.35" r="1.59"/>
                          <circle class="cls-3" cx="83.46" cy="133.35" r="1.59"/>
                          <circle class="cls-3" cx="90.27" cy="133.35" r="1.59"/>
                          <circle class="cls-3" cx="97.08" cy="133.35" r="1.59"/>
                          <circle class="cls-3" cx="103.89" cy="133.35" r="1.59"/>
                          <circle class="cls-3" cx="110.7" cy="133.35" r="1.59"/>
                          <circle class="cls-3" cx="117.5" cy="133.35" r="1.59"/>
                          <circle class="cls-3" cx="124.31" cy="133.35" r="1.59"/>
                          <circle class="cls-3" cx="131.12" cy="133.35" r="1.59"/>
                          <circle class="cls-3" cx="137.93" cy="133.35" r="1.59"/>
                          <circle class="cls-3" cx="144.74" cy="133.35" r="1.59"/>
                          <circle class="cls-3" cx="151.55" cy="133.35" r="1.59"/>
                          <circle class="cls-3" cx="158.36" cy="133.35" r="1.59"/>
                          <circle class="cls-3" cx="165.17" cy="133.35" r="1.59"/>
                          <circle class="cls-3" cx="171.98" cy="133.35" r="1.59"/>
                          <circle class="cls-3" cx="178.79" cy="133.35" r="1.59"/>
                          <circle class="cls-3" cx="185.6" cy="133.35" r="1.59"/>
                          <circle class="cls-3" cx="192.41" cy="133.35" r="1.59"/>
                          <circle class="cls-3" cx="199.22" cy="133.35" r="1.59"/>
                          <circle class="cls-3" cx="206.03" cy="133.35" r="1.59"/>
                          <circle class="cls-3" cx="212.84" cy="133.35" r="1.59"/>
                          <circle class="cls-3" cx="219.65" cy="133.35" r="1.59"/>
                          <circle class="cls-3" cx="226.46" cy="133.35" r="1.59"/>
                          <circle class="cls-3" cx="233.27" cy="133.35" r="1.59"/>
                          <circle class="cls-3" cx="240.08" cy="133.35" r="1.59"/>
                          <circle class="cls-3" cx="246.89" cy="133.35" r="1.59"/>
                        </g>
                      </g>
                    </g>
                    <g class="cls-35">
                      <path class="cls-28" d="M81.87,88.03c-2.95,5.51-4.39,11.13-6.69,16.9-1.87-6.1.61-14.17,6.69-16.9h0Z"/>
                      <path class="cls-28" d="M154.88,88.03c-1.2,6.14-.92,11.93-1.43,18.13-3.57-5.28-3.59-13.74,1.43-18.13h0Z"/>
                      <path class="cls-28" d="M198.14,104.68c-3.92,4.87-6.37,10.12-9.71,15.37-.7-6.34,3.24-13.81,9.71-15.37h0Z"/>
                      <path class="cls-28" d="M238.2,86.27c-2.7,3.44-4.39,7.13-6.69,10.83-.45-4.45,2.26-9.73,6.69-10.83h0Z"/>
                      <path class="cls-28" d="M214.69,89.28c-2.67,1.39-4.8,3.22-7.29,4.87.99-2.92,4.2-5.44,7.29-4.87h0Z"/>
                      <path class="cls-28" d="M122.93,103.6c-2.07,2.8-3.32,5.77-5.07,8.76-.52-3.51,1.5-7.76,5.07-8.76h0Z"/>
                      <path class="cls-28" d="M116.53,133.93c2.89,1.95,5.91,3.06,8.98,4.67-3.49.69-7.82-1.15-8.98-4.67h0Z"/>
                      <path class="cls-28" d="M136.37,137.87c3.46.39,6.66-.03,10.12-.03-2.77,2.23-7.45,2.61-10.12.03h0Z"/>
                    </g>
                  </g>
                </g>
              </g>
            </g>
          </g>
        </g>
      </g>
    </g>
  </g>
</svg>