<?xml version="1.0" encoding="UTF-8"?>
<svg id="Layer_1" data-name="Layer 1" xmlns="http://www.w3.org/2000/svg" version="1.1" viewBox="0 0 300 535.78">
  <defs>
    <style>
      .cls-1 {
        fill: #9bc3e8;
      }

      .cls-1, .cls-2, .cls-3, .cls-4, .cls-5, .cls-6, .cls-7, .cls-8, .cls-9, .cls-10, .cls-11, .cls-12, .cls-13, .cls-14, .cls-15, .cls-16 {
        stroke-width: 0px;
      }

      .cls-17 {
        fill: none;
        stroke: #fff;
        stroke-miterlimit: 10;
        stroke-width: 3.49px;
      }

      .cls-2 {
        fill: #4d84c0;
      }

      .cls-3 {
        fill: #73c5d0;
      }

      .cls-4 {
        fill: #6599d1;
      }

      .cls-5 {
        fill: #202324;
      }

      .cls-6 {
        fill: #98d8ea;
      }

      .cls-7 {
        fill: #f3e543;
      }

      .cls-8 {
        fill: #dbe2e3;
      }

      .cls-9 {
        fill: #44638d;
      }

      .cls-10 {
        fill: #f2f7fa;
      }

      .cls-11 {
        fill: #fef7b6;
      }

      .cls-12 {
        fill: #d6ca37;
      }

      .cls-13 {
        fill: #fff;
      }

      .cls-14 {
        fill: #c2e7f1;
      }

      .cls-15 {
        fill: #f9ee7e;
      }

      .cls-16 {
        fill: #84b2db;
      }
    </style>
  </defs>
  <path class="cls-13" d="M289.55,449.64c-3.75-12.93-8.97-25.01-15.55-35.89-5.88-9.72-13.63-19.49-24.37-30.71-.21-.22-.44-.42-.66-.61-.42-.36-.67-.6-.8-.85,6.19-1.96,12.11-5.63,18.55-11.5,1.62-1.47,3.59-2.8,6.2-4.18.42-.22.95-.41,1.52-.61,1.72-.61,4.33-1.53,4.08-4.47-.23-2.67-2.62-3.82-4.56-4.74-.5-.24-.96-.46-1.38-.7-1.73-.98-3.62-1.27-5.45-1.55-.4-.06-.79-.12-1.19-.19.28-.4.52-.73.78-1.05,9.14-11.23,15.8-24.17,19.76-38.47,1.25-4.46,1.86-9.14,1.85-13.9-.02-5.63-1.83-8.1-7.18-9.82-.75-.24-1.51-.45-2.24-.64-.45-.12-.88-.23-1.32-.36-4.13-1.18-9-2.65-13.81-4.58-1.65-.66-2.23-1.42-2.3-3-.19-4.91-1.83-9.87-4.98-15.2-5.63-9.49-14.3-16.98-26.52-22.88-.46-.22-.91-.39-1.36-.55-.6-.22-1.13-.42-1.59-.7.8-.77,1.74-1.66,2.7-2.55,13.16-12.17,22.07-25.53,27.3-40.86l.12-.33c.79-2.33,1.23-3.61,1.88-4.13.63-.49,1.9-.62,4.48-.82,8.11-.66,14.27-6.33,15.68-14.44.65-3.76.69-7.57.71-11.26.02-1.32.03-2.68.07-4.02.44-14.4-3.68-27.55-12.61-40.21-4.83-6.87-10.95-11.61-18.68-14.5-1.07-.4-2.29-.85-2.43-1.12-.12-.27.16-1.43.46-2.67l.04-.17c.17-.69.32-1.32.54-1.94,3.58-10.3,5.41-21.29,7.04-30.98.38-2.27.86-3.15,2.98-3.86,5.86-1.99,9.21-7.7,7.96-13.58-1.24-5.9-6.82-10.1-12.99-9.81-6.5.32-11.7,5.03-12.34,11.2-.2,2.02.22,4.05,1.36,6.38.58,1.21.47,1.53-.31,2.1l-1.02.77c-2.62,1.98-5.09,3.84-7.95,5.16-1.1.5-1.78.76-2.07.76-.11-.17-.29-.66-.51-1.98-.46-2.57-.87-5.2-1.27-7.73-.58-3.69-1.19-7.51-1.9-11.25-.39-2.03-.19-2.47,1.44-3.09,4.04-1.53,6.83-4.44,8.05-8.42,1.54-5.01.32-9.46-3.55-12.88-4.58-4.05-10.02-4.91-15.75-2.49-4.91,2.07-7.71,5.93-8.08,11.17-.19,2.63.52,4.99,1.7,7.59-6.21,2.38-11.6,6.06-16.84,9.64-1.63,1.12-3.31,2.27-5,3.37-1.17-4.99-1.03-9.58-.87-14.39l.04-1.2c.09-2.93.62-4.18,3.41-5.41,3.6-1.59,6.26-4.73,7.29-8.59,1.03-3.86.29-7.87-2.01-10.98-4.59-6.25-13.98-7.63-20.5-3.01-6.3,4.47-7.41,12.25-2.71,18.92.72,1.03.61,1.22-.13,2.08-5.03,5.82-9.78,12.01-14.38,18.01-3.65,4.75-7.42,9.69-11.31,14.37-4.16,5.03-7.12,9.45-9.31,13.94-.86,1.77-1.77,2.49-3.87,3.06-17.63,4.79-31.1,10.8-42.42,18.91-.91.65-1.14.5-2.27-.23-5.78-3.75-12.26-4.99-19.26-3.7-6.26,1.16-11.99,3.34-17.01,6.47-16.11,10.06-27.75,24.37-34.58,42.51-2.84,7.52-4,14.58-3.54,21.6.73,11.33,5.17,19.1,13.6,23.75,1.25.7,1.71,1.64,2.18,3.25,1.92,6.74,4.58,13.23,7.92,19.27,8.01,14.49,19.43,26.89,33.97,36.83.84.58,1.86,1.28,2.12,1.61-.21.37-1.05,1.18-1.69,1.78-4.52,4.33-7.98,9.2-10.77,13.37-3.46,5.17-7.37,11.03-12.08,15.85-9.15,9.36-19.04,19.12-30.53,26.66-2.39,1.57-4.58,3.42-6.5,5.51-2.56,2.78-3.79,5.92-3.88,9.86-.12,5.69,2.71,9.82,5.51,13.11,3.42,4.03,6.88,7.28,10.55,9.91,4.01,2.88,8.02,5.95,11.88,8.92l2.24,1.7c-.12-.05-.24-.12-.37-.18-.98-.5-2.83-1.44-4.37.59-1.92,2.52-.04,4.94.77,5.98,1.05,1.36,2.18,2.68,3.27,3.94l.58.68c2.51,2.94,5.74,4.95,8.87,6.89.37.23.74.45,1.11.69-.04.1-.08.2-.12.29-.35.79-.67,1.54-1.05,2.23-.34.6-.78,1.18-1.23,1.78-.18.24-.36.48-.53.72-14.08,19.54-22.85,38.77-26.77,58.78-2,10.17-.74,19.43,3.84,28.33,4.27,8.29,11.09,15.16,20.85,21.01,5.52,3.32,11.23,6.74,17.94,9.01-1.9,1.76-3.92,2.74-5.82,3.53-4.13,1.69-7.88,3.17-11.48,4.5-3.08,1.13-4.61,3.11-4.68,6.06-.08,2.91,1.2,5.07,3.87,6.61,2.11,1.22,4.51,1.86,7.54,2,.33.02.65,0,.95,0,.88-.02,1.45-.02,1.89.36,1.59,1.36,3.4,1.65,5.14,1.93.47.08.91.15,1.36.24,5.65,1.19,11.39,1.22,16.95,1.26,1.55.02,3.18.03,4.76.06.9.03,1.86.04,2.84.04,3.27,0,6.93-.25,10.3-1.61,2.66-1.07,5.53-1.91,9.01-2.63,6.38-1.34,10.01-5.21,10.8-11.51.04-.31.06-.62.08-.94.05-.72.11-1.27.28-1.66,28.06,6.14,54.84,5.72,81.81-1.29.35,2.5,2.18,3.94,3.7,5.15l.37.29c1.71,1.36,3.71,2.46,6.31,3.46,4.86,1.87,10.64,3.98,16.67,5.46l.81.2c7.84,1.94,15.96,3.93,24.37,3.63h.14c2.24-.09,4.78-.19,6.68-1.77,1.55-1.28,3.35-1.84,5.27-2.43.43-.12.86-.26,1.28-.4l1.41-.46c.96-.31,1.97-.64,2.96-.99,2.89-1.02,5.1-2.8,6.56-5.29.95-1.63,1.23-3.17.84-4.58-.39-1.42-1.44-2.6-3.13-3.51-.53-.29-1.08-.5-1.61-.7-.35-.13-.69-.26-.99-.4-3.52-1.61-6.87-3.77-10.19-6.56,9.97-5.88,17.82-12.41,23.96-19.92,7.18-8.8,9.33-18.39,6.4-28.5M245.45,337.61h0,0ZM244.91,98.97h0s0,0,0,0ZM183.82,58.29h0s0,0,0,0ZM52.86,490.76h0Z"/>
  <path class="cls-17" d="M289.55,449.64c-3.75-12.93-8.97-25.01-15.55-35.89-5.88-9.72-13.63-19.49-24.37-30.71-.21-.22-.44-.42-.66-.61-.42-.36-.67-.6-.8-.85,6.19-1.96,12.11-5.63,18.55-11.5,1.62-1.47,3.59-2.8,6.2-4.18.42-.22.95-.41,1.52-.61,1.72-.61,4.33-1.53,4.08-4.47-.23-2.67-2.62-3.82-4.56-4.74-.5-.24-.96-.46-1.38-.7-1.73-.98-3.62-1.27-5.45-1.55-.4-.06-.79-.12-1.19-.19.28-.4.52-.73.78-1.05,9.14-11.23,15.8-24.17,19.76-38.47,1.25-4.46,1.86-9.14,1.85-13.9-.02-5.63-1.83-8.1-7.18-9.82-.75-.24-1.51-.45-2.24-.64-.45-.12-.88-.23-1.32-.36-4.13-1.18-9-2.65-13.81-4.58-1.65-.66-2.23-1.42-2.3-3-.19-4.91-1.83-9.87-4.98-15.2-5.63-9.49-14.3-16.98-26.52-22.88-.46-.22-.91-.39-1.36-.55-.6-.22-1.13-.42-1.59-.7.8-.77,1.74-1.66,2.7-2.55,13.16-12.17,22.07-25.53,27.3-40.86l.12-.33c.79-2.33,1.23-3.61,1.88-4.13.63-.49,1.9-.62,4.48-.82,8.11-.66,14.27-6.33,15.68-14.44.65-3.76.69-7.57.71-11.26.02-1.32.03-2.68.07-4.02.44-14.4-3.68-27.55-12.61-40.21-4.83-6.87-10.95-11.61-18.68-14.5-1.07-.4-2.29-.85-2.43-1.12-.12-.27.16-1.43.46-2.67l.04-.17c.17-.69.32-1.32.54-1.94,3.58-10.3,5.41-21.29,7.04-30.98.38-2.27.86-3.15,2.98-3.86,5.86-1.99,9.21-7.7,7.96-13.58-1.24-5.9-6.82-10.1-12.99-9.81-6.5.32-11.7,5.03-12.34,11.2-.2,2.02.22,4.05,1.36,6.38.58,1.21.47,1.53-.31,2.1l-1.02.77c-2.62,1.98-5.09,3.84-7.95,5.16-1.1.5-1.78.76-2.07.76-.11-.17-.29-.66-.51-1.98-.46-2.57-.87-5.2-1.27-7.73-.58-3.69-1.19-7.51-1.9-11.25-.39-2.03-.19-2.47,1.44-3.09,4.04-1.53,6.83-4.44,8.05-8.42,1.54-5.01.32-9.46-3.55-12.88-4.58-4.05-10.02-4.91-15.75-2.49-4.91,2.07-7.71,5.93-8.08,11.17-.19,2.63.52,4.99,1.7,7.59-6.21,2.38-11.6,6.06-16.84,9.64-1.63,1.12-3.31,2.27-5,3.37-1.17-4.99-1.03-9.58-.87-14.39l.04-1.2c.09-2.93.62-4.18,3.41-5.41,3.6-1.59,6.26-4.73,7.29-8.59,1.03-3.86.29-7.87-2.01-10.98-4.59-6.25-13.98-7.63-20.5-3.01-6.3,4.47-7.41,12.25-2.71,18.92.72,1.03.61,1.22-.13,2.08-5.03,5.82-9.78,12.01-14.38,18.01-3.65,4.75-7.42,9.69-11.31,14.37-4.16,5.03-7.12,9.45-9.31,13.94-.86,1.77-1.77,2.49-3.87,3.06-17.63,4.79-31.1,10.8-42.42,18.91-.91.65-1.14.5-2.27-.23-5.78-3.75-12.26-4.99-19.26-3.7-6.26,1.16-11.99,3.34-17.01,6.47-16.11,10.06-27.75,24.37-34.58,42.51-2.84,7.52-4,14.58-3.54,21.6.73,11.33,5.17,19.1,13.6,23.75,1.25.7,1.71,1.64,2.18,3.25,1.92,6.74,4.58,13.23,7.92,19.27,8.01,14.49,19.43,26.89,33.97,36.83.84.58,1.86,1.28,2.12,1.61-.21.37-1.05,1.18-1.69,1.78-4.52,4.33-7.98,9.2-10.77,13.37-3.46,5.17-7.37,11.03-12.08,15.85-9.15,9.36-19.04,19.12-30.53,26.66-2.39,1.57-4.58,3.42-6.5,5.51-2.56,2.78-3.79,5.92-3.88,9.86-.12,5.69,2.71,9.82,5.51,13.11,3.42,4.03,6.88,7.28,10.55,9.91,4.01,2.88,8.02,5.95,11.88,8.92l2.24,1.7c-.12-.05-.24-.12-.37-.18-.98-.5-2.83-1.44-4.37.59-1.92,2.52-.04,4.94.77,5.98,1.05,1.36,2.18,2.68,3.27,3.94l.58.68c2.51,2.94,5.74,4.95,8.87,6.89.37.23.74.45,1.11.69-.04.1-.08.2-.12.29-.35.79-.67,1.54-1.05,2.23-.34.6-.78,1.18-1.23,1.78-.18.24-.36.48-.53.72-14.08,19.54-22.85,38.77-26.77,58.78-2,10.17-.74,19.43,3.84,28.33,4.27,8.29,11.09,15.16,20.85,21.01,5.52,3.32,11.23,6.74,17.94,9.01-1.9,1.76-3.92,2.74-5.82,3.53-4.13,1.69-7.88,3.17-11.48,4.5-3.08,1.13-4.61,3.11-4.68,6.06-.08,2.91,1.2,5.07,3.87,6.61,2.11,1.22,4.51,1.86,7.54,2,.33.02.65,0,.95,0,.88-.02,1.45-.02,1.89.36,1.59,1.36,3.4,1.65,5.14,1.93.47.08.91.15,1.36.24,5.65,1.19,11.39,1.22,16.95,1.26,1.55.02,3.18.03,4.76.06.9.03,1.86.04,2.84.04,3.27,0,6.93-.25,10.3-1.61,2.66-1.07,5.53-1.91,9.01-2.63,6.38-1.34,10.01-5.21,10.8-11.51.04-.31.06-.62.08-.94.05-.72.11-1.27.28-1.66,28.06,6.14,54.84,5.72,81.81-1.29.35,2.5,2.18,3.94,3.7,5.15l.37.29c1.71,1.36,3.71,2.46,6.31,3.46,4.86,1.87,10.64,3.98,16.67,5.46l.81.2c7.84,1.94,15.96,3.93,24.37,3.63h.14c2.24-.09,4.78-.19,6.68-1.77,1.55-1.28,3.35-1.84,5.27-2.43.43-.12.86-.26,1.28-.4l1.41-.46c.96-.31,1.97-.64,2.96-.99,2.89-1.02,5.1-2.8,6.56-5.29.95-1.63,1.23-3.17.84-4.58-.39-1.42-1.44-2.6-3.13-3.51-.53-.29-1.08-.5-1.61-.7-.35-.13-.69-.26-.99-.4-3.52-1.61-6.87-3.77-10.19-6.56,9.97-5.88,17.82-12.41,23.96-19.92,7.18-8.8,9.33-18.39,6.4-28.5ZM283.05,444.84h0ZM245.45,337.61h0,0ZM254.9,399.74h0ZM246.87,388.51h0ZM243.49,378.35h0ZM277.1,430.2h0ZM234.71,369.73h0ZM232.71,366.05h0ZM229.44,78.44h0ZM250.05,72.72h0ZM247.47,62.12h0ZM244.91,98.97h0s0,0,0,0ZM243.97,101.73h0ZM222.09,246.2h0ZM218.15,248.5h0ZM218.06,249.38h0ZM154.03,87.23h0ZM152.14,280.59h0ZM151.5,279.01h0ZM183.82,58.29h0s0,0,0,0ZM173.89,51.36h0ZM156.17,152.63h0ZM155.83,152.95h0ZM169.81,47.11h0ZM167.55,45.94h0ZM177.97,33.72h0ZM197.06,83.05h0ZM198.32,84.87h0ZM198.91,502.18h0ZM202.72,505.81h0ZM213.47,245.3h0ZM142.24,86.2h0ZM135.36,193.75h0ZM130.31,190.9h0ZM123.25,91.77h0ZM104.8,118.64h0ZM86.5,105.94h0ZM83.99,104.42h0ZM83.9,258.52h0ZM48.09,485.92h0ZM49.96,344.82h0ZM52.86,490.76h0ZM53.07,345.51h0ZM66.1,303.08h0ZM62.79,293.22h0ZM60.65,233.14h0ZM47.45,184.89h0ZM46.1,186.03h0ZM51.3,184.73h0ZM48.93,185.41h0ZM15.1,332.07h0ZM13.07,324.69h0Z"/>
  <path class="cls-13" d="M290.27,483.95c9.07-11.11,11.87-23.87,8.11-36.86-3.96-13.71-9.52-26.52-16.5-38.08-4.85-8.02-10.83-16-18.5-24.63,3.14-2.05,6.29-4.52,9.53-7.47,1-.91,2.32-1.79,4.14-2.77.13-.05.29-.11.42-.15,9.62-3.36,10.52-10.16,10.21-13.9-.49-5.82-4.18-9.06-7.09-10.85,6.54-9.93,11.48-20.85,14.75-32.62,1.47-5.27,2.2-10.79,2.19-16.4-.04-9.56-4.47-15.62-13.57-18.54-.9-.29-1.82-.54-2.84-.8l-1.01-.28c-3.01-.86-6.41-1.88-9.84-3.1-.79-5.12-2.74-10.23-5.86-15.52-5.15-8.66-12.33-15.84-21.87-21.77,10.57-11.26,18.1-23.55,22.93-37.34,11.65-1.46,20.72-10.11,22.77-21.9.78-4.48.82-8.84.86-12.8,0-1.24.02-2.52.06-3.76.5-16.46-4.17-31.43-14.29-45.79-4.8-6.83-10.65-11.95-17.77-15.54,2.85-9.15,4.5-18.42,5.93-26.87,8.6-4.25,13.25-13.5,11.23-23.04-2.17-10.25-11.82-17.59-22.42-17.07-2.22.11-4.35.52-6.35,1.2.7-6.79-1.8-13.13-7.17-17.88-7.21-6.38-16.47-7.86-25.43-4.08-2.02.87-3.86,1.94-5.48,3.22-.59-3.23-1.91-6.31-3.91-9.02-7.63-10.36-22.53-12.63-33.2-5.05-8.7,6.17-11.58,16.79-7.79,26.38-3.97,4.8-7.72,9.71-11.42,14.51-3.59,4.69-7.31,9.54-11.09,14.11-4.19,5.07-7.32,9.66-9.76,14.32-16.12,4.49-29.01,10.02-40.09,17.22-6.73-3.21-14.2-4.16-21.87-2.75-7.4,1.36-14.2,3.96-20.21,7.71-17.86,11.16-30.74,26.98-38.31,47.05-3.3,8.78-4.66,17.1-4.11,25.44.88,13.68,6.41,23.8,16.45,30.1,2.07,6.99,4.89,13.73,8.37,20.03,7.49,13.56,17.7,25.4,30.42,35.31-2.48,3.02-4.58,6.03-6.41,8.78-3.21,4.82-6.87,10.29-10.98,14.49-8.8,8.99-18.29,18.36-29.01,25.4-3.01,1.98-5.77,4.33-8.21,6.97-4.05,4.4-6.17,9.75-6.31,15.88-.19,8.92,4.31,15.27,7.7,19.26,3.92,4.61,7.91,8.35,12.2,11.42,1.63,1.18,3.29,2.4,4.92,3.63-.56,3.08-.13,7.1,3.31,11.54,1.14,1.48,2.37,2.91,3.56,4.3l.57.66c1.41,1.65,2.91,3.05,4.44,4.26-13.63,19.62-22.22,39.08-26.2,59.38-2.42,12.28-.87,23.5,4.69,34.32,5.08,9.85,13.03,17.92,24.3,24.68.46.28.92.55,1.39.84-6.15,2.56-9.75,7.67-9.91,14.14-.16,6.32,2.85,11.58,8.48,14.81,3.36,1.94,7.18,2.98,11.63,3.2,2.69,1.49,5.31,1.91,7.13,2.2.29.04.54.08.82.14,6.54,1.36,13,1.41,18.82,1.44,1.5.02,3.04.03,4.67.06.94.03,1.92.04,2.93.04,3.76,0,8.73-.26,13.74-2.27,2.13-.86,4.5-1.55,7.44-2.17,7.66-1.61,13.27-5.98,16.14-12.4,24.08,4.18,47.37,3.68,70.74-1.52.83.78,1.61,1.4,2.19,1.86l.36.29c2.46,1.96,5.24,3.51,8.76,4.86,5.12,1.96,11.24,4.19,17.77,5.81l.84.21c8.05,1.99,17.2,4.24,27.01,3.88,2.96-.12,7.92-.29,12.16-3.84.3-.19,1.42-.54,2.19-.77l.24-.07c.41-.13.81-.26,1.15-.37l1.36-.45c1.06-.34,2.15-.7,3.23-1.07,4.92-1.75,8.88-4.96,11.42-9.32,2.81-4.8,2.51-9,1.76-11.67-.75-2.69-2.68-6.46-7.61-9.13-.04-.02-.07-.04-.1-.05,5.36-4.2,10.01-8.72,14.02-13.65M35.36,367.49l.66-1.07c.34.42.69.83,1.03,1.24-.62.03-1.19-.02-1.69-.17"/>
  <path class="cls-5" d="M225.54,242.71c1.03,1.2,2.62,1.44,3.97,2.09,10.68,5.16,19.87,12.05,26.03,22.43,2.68,4.51,4.61,9.36,4.83,14.66.09,2.22,1.12,3.26,3.01,4.01,4.55,1.82,9.21,3.26,13.91,4.61,1.18.34,2.36.62,3.52.99,4.85,1.55,6.37,3.58,6.39,8.73.02,4.6-.55,9.14-1.8,13.59-3.91,14.03-10.35,26.75-19.55,38.05-.56.69-1.05,1.44-1.84,2.54,2.86.72,5.65.62,8.02,1.98,2.11,1.2,5.15,1.97,5.37,4.53.23,2.77-3.09,2.94-5,3.96-2.32,1.23-4.5,2.6-6.43,4.35-5.6,5.09-11.67,9.4-18.99,11.51-.24,1.67,1.06,2.25,1.85,3.08,9.02,9.43,17.45,19.34,24.21,30.51,6.73,11.15,11.81,23.08,15.44,35.61,2.98,10.3.37,19.41-6.2,27.45-6.84,8.39-15.3,14.9-25.04,20.47,3.57,3.19,7.38,5.83,11.67,7.79.83.38,1.74.63,2.54,1.07,2.78,1.51,3.42,3.77,1.84,6.49-1.37,2.35-3.41,3.89-5.95,4.79-1.44.51-2.9.95-4.35,1.44-2.4.79-4.83,1.31-6.92,3.05-1.64,1.36-3.95,1.41-6.14,1.49-8.53.31-16.7-1.78-24.87-3.79-5.63-1.39-11.1-3.34-16.53-5.42-2.15-.82-4.2-1.84-6.01-3.28-1.9-1.53-3.98-2.93-3.67-6.03-27.91,7.49-55.56,7.7-83.41,1.49-1.01.95-.85,2.43-1.02,3.74-.75,5.94-4.2,9.33-9.89,10.52-3.16.66-6.22,1.49-9.2,2.7-4.06,1.63-8.44,1.58-12.68,1.48-7.17-.17-14.39.19-21.5-1.29-2.09-.44-4.25-.44-5.98-1.93-1.05-.88-2.34-.57-3.54-.62-2.47-.12-4.83-.59-7.02-1.85-2.19-1.26-3.36-3-3.29-5.58.06-2.69,1.53-4.13,3.92-5.01,3.87-1.43,7.7-2.94,11.51-4.51,2.68-1.1,5.2-2.46,7.5-5.12-7.24-2.17-13.36-5.8-19.45-9.46-8.54-5.12-15.78-11.55-20.42-20.55-4.51-8.76-5.64-17.88-3.75-27.59,4.25-21.58,13.84-40.65,26.59-58.33.62-.86,1.3-1.7,1.83-2.62.59-1.06,1.03-2.21,1.63-3.51-3.74-2.39-7.66-4.49-10.56-7.88-1.3-1.52-2.6-3.01-3.83-4.58-1.05-1.36-2.02-2.92-.76-4.58,1.35-1.77,2.76-.08,4.12.23.68.14,1.34.39,2.01.6.58-1.83-.7-2.16-1.44-2.73-4.75-3.62-9.45-7.29-14.3-10.76-3.89-2.79-7.27-6.11-10.35-9.72-3-3.52-5.35-7.31-5.24-12.33.09-3.62,1.19-6.53,3.59-9.12,1.87-2.04,3.98-3.83,6.29-5.33,11.47-7.54,21.21-17.09,30.72-26.82,4.66-4.76,8.49-10.43,12.21-16.01,3.17-4.74,6.51-9.24,10.62-13.18,2.86-2.75,2.84-2.82-.6-5.16-13.98-9.59-25.38-21.55-33.61-36.44-3.34-6.06-5.94-12.41-7.82-19.04-.49-1.7-1.08-3.02-2.74-3.93-8.95-4.95-12.38-13.13-13-22.82-.47-7.3.91-14.32,3.48-21.13,6.69-17.77,17.96-31.84,34.11-41.93,5.1-3.18,10.66-5.22,16.61-6.31,6.65-1.22,12.77-.12,18.43,3.53,1.19.78,2.02,1.3,3.56.21,12.72-9.12,27.08-14.67,42.05-18.74,2.3-.62,3.55-1.51,4.6-3.67,2.42-4.95,5.64-9.44,9.16-13.7,8.78-10.61,16.66-21.94,25.68-32.37,1.03-1.19,1.27-1.95.2-3.48-4.41-6.27-3.33-13.24,2.44-17.32,5.98-4.25,14.67-3,18.91,2.75,4.31,5.85,2.18,14.74-4.83,17.84-3.29,1.45-4,3.18-4.08,6.44-.18,5.65-.51,11.24,1.27,17.45,7.96-5.02,15.11-11.03,24.13-14.18-1.36-2.77-2.33-5.32-2.13-8.15.36-4.92,2.94-8.32,7.38-10.19,5.26-2.22,10.28-1.49,14.56,2.29,3.51,3.1,4.61,7.13,3.2,11.68-1.15,3.76-3.8,6.33-7.36,7.67-2.41.92-2.6,2.12-2.17,4.39,1.2,6.29,2.06,12.65,3.17,18.95.58,3.34,1.02,3.53,4.18,2.07,3.35-1.54,6.23-3.84,9.18-6.05,1.41-1.05,1.36-2.06.65-3.53-.86-1.77-1.45-3.68-1.24-5.75.58-5.57,5.33-9.89,11.26-10.18,5.57-.27,10.68,3.58,11.8,8.9,1.11,5.18-1.69,10.39-7.21,12.25-2.65.89-3.33,2.27-3.74,4.76-1.74,10.39-3.52,20.79-7,30.8-.24.72-.42,1.46-.61,2.2-.93,3.75-.94,3.79,2.68,5.15,7.53,2.81,13.47,7.43,18.14,14.08,8.39,11.92,12.84,24.91,12.41,39.52-.16,5.04.1,10.1-.77,15.12-1.32,7.57-7.02,12.87-14.64,13.49-5.66.45-5.56.49-7.46,6.06-5.4,15.85-14.78,29.08-27,40.39-1.11,1.03-2.22,2.08-3.32,3.14-.09.08-.07.26-.13.45M166.56,47.91c-.62.12-.89.54-.92,1.13l.04-.12c-6.39,7.54-12.08,15.61-17.96,23.53-1.26,1.7-2.21,3.64-3.39,5.4-1.14,1.69-.83,2.8,1.12,3.43,2.06,1.33,4.83,1.42,6.39,3.62,1.78,2.6,4.58,3.92,7.12,5.54,9.11,5.79,18.52,10.98,28.71,14.68,10.08,4.76,20.85,5.49,31.72,5.05,5.76-.24,11.49-1.53,17.25-2.12,5.75-.58,5.77-.45,7.27-5.98.11-.44.11-.91.17-1.36l-.11-.24.08.25c.5-.23.63-.63.54-1.14.9-1.63,1.35-3.35,1.13-5.22,1.73-5.78,2.83-11.68,3.66-17.64.8-1.24.96-2.58.68-4l.02-.32c.29-1.59,1.18-3.39-.96-4.33-1.99-.88-3.84-2.15-6.14,0-3.54,3.32-7.37,6.39-12.36,7.42-1.83.37-1.15,1.81-1.17,2.93-1.26,1.38-1.85.43-2.2-.7-1.17-3.8-2.13-7.65-2.71-11.59-.77-5.14-1.42-10.28-2.65-15.34-.25-1.04-.26-2.43-1.32-2.79-3.56-1.23-7.14-3.98-10.9-.39-4.87,1.94-9.19,4.82-13.43,7.82-3.5,2.48-7.03,4.89-11.12,6.31-1.98-.57-1.29-2.14-1.29-3.45-.66-6.61-1.11-13.22-.86-19.87.13-3.93-2.74-5.58-7.15-4.27-2.71,3.47-5.08,7.17-7.32,10.96-1,.78-1.79,1.68-2.08,2.94l.16-.14ZM52.69,490.95c.18.44.48.69.96.62.11-.02.19-.19.29-.28-.36-.18-.72-.36-1.08-.53-.54-1.91-2.21-2.68-3.68-3.67-1.52-1.7-3.23-3.29-4.55-5.14-10.64-14.81-13.23-31.65-11.62-49.28.92-10.05,5.44-19.01,10.37-27.71,4.66-8.23,9.04-16.62,12.88-25.32-1.72-1.13-2.95-1.69-4.25.44-2.85,4.68-5.9,9.25-8.62,14.03-8.59,15.06-15.95,30.56-19.3,47.78-2.13,10.94-.64,20.94,5.54,30.21,4.69,7.03,11.01,12.22,18.37,16.21,1.28,1.39,2.85,2.26,4.7,2.64M244.9,383.25c-.3-.76-.57-1.95-1.61-1.3-.76.47.25,1.15.62,1.68.07.11.22.17.34.26,1.52,3.24,3.51,6.15,5.91,8.8,7.29,11.28,15.66,21.8,23.3,32.84,1.36,2.81,2.75,5.61,4.12,8.42.75,3.58,1.58,7.14,2.25,10.73,3,16.15.02,30.36-13.46,41.13-2.99,2.39-6.21,4.41-9.58,6.23-1.02.54-3.34.77-2.43,2.46.75,1.38,2.57.18,3.62-.54,8.62-5.84,17.01-12.04,23.05-20.69,4.76-6.83,6.47-14.37,4-22.62-1.7-5.73-4.15-11.15-6.41-16.64-1.24-2.93-2.05-6.11-4.57-8.36-.12-2.91-1.85-5.12-3.26-7.45-5.67-9.47-12.51-18.11-19.67-26.48-2.07-2.83-4.15-5.65-6.22-8.47M60.91,232.79c-.09.12-.26.23-.25.34.02.24.12.48.19.72,2.49,3.16,5.34,5.89,9.4,7.33-3.09-3.41-6.17-6.82-9.27-10.23-7.88-11.67-10.93-24.56-9.45-39-4.82,1.01-9.38,1.72-14.12,1.46.05.95,0,1.43.13,1.85,4.18,14,11.42,26.23,21.45,36.83.5.52.98,1.21,1.9.82l.03-.12ZM55.28,376.35c.09-.04.18-.09.27-.12-.12.05-.23.12-.35.19.09-3.42-3.58-9.79-6.22-10.78-.28-.11-.58-.15-.88-.17-1.92-.12-3.84-.21-6.4-.34,1.98,2.83,4.23,4.53,6.55,6.19,2.35,1.67,5.01,2.93,7.04,5.04M116.77,94.62v-.12c-1.3.45-2.61.82-3.85,1.36-5.57,2.43-10.97,5.15-16.15,8.31-2.89,1.77-2.63,1.76-1.23,4.78,1.66,3.59,4.08,6.29,7.57,8.07l.19.18c.06.36.26.55.64.54.29.52.68.91,1.28,1.05,3.35,3.31,6.73,6.6,10.05,9.95.95.95,2.03,1.13,3.29,1.24,4.63.4,8.85,1.92,12.75,4.54,3.88,2.61,7.98,4.88,11.95,7.28,1.1-.95,1.14-2.05,1.28-3.09.62-4.53,1.27-9.04,1.89-13.57.18-1.35.11-2.87,1.63-3.51,1.55-.65,2.49.54,3.53,1.44,3.42,3.01,6.46,6.46,10.41,8.83.05.44.29.71.73.79.63,1.41,1.47,2.6,3.13,3.2,1.36-2.1,2.59-4.18,4.02-6.12,4.31-5.79,8.93-11.26,15.92-14.05,2.19-.87,3.7-2.46,4.58-4.75-4.68-1.96-9.23-3.73-13.66-5.75-10.31-4.7-20.02-10.44-29.19-17.12-2.03-1.47-4.1-2.71-6.73-1.44-5.85.51-11.31,2.37-16.59,4.84-2.61.73-5.28,1.36-7.46,3.12M246.51,60.89c.6,1.37,2.01,1.84,3.13,2.48,2.71,1.54,6.65.95,8.98-1.17,2.11-1.93,2.79-4.31,1.9-7.05-1.09-3.34-3.72-4.66-6.94-5.06-1.05-.12-2.16-.21-3.06.55-5.64,2.23-6.93,5.51-4.01,10.25M182.67,14.36c-7.21,1.86-9.45,6.27-6.32,12.39.82,2.3,2.63,3.22,4.9,3.51,1.23.74,2.63.53,3.95.63,3.32.27,5.83-1.33,7.56-3.98,1.8-2.75,1.89-5.61-.36-8.28-2.19-3.81-5.52-5.06-9.73-4.28M63.5,295.41l-.02.15c.3,3.71,1.94,6.85,4.18,9.73-.04.53.22.82.71.95.03.46.22.81.69.96.12.57.41.96,1.01,1.06l-.06-.03c4.09,5.91,9.97,9.49,16.6,11.48,20.73,6.22,39.45,1.5,56.5-11.21,1.25-.94,2.01-2.23,2.84-3.52,3.6-5.52,3.93-11.75,4.04-18.02.44-2.67-.07-5.5,1.51-7.95l.25.15c1.05,2.48-.07,5.3,1.15,7.75-.36,4.16,1.91,7.63,2.99,11.41.95,3.34,3.05,5.81,5.98,7.77,17.54,11.78,36.76,15.93,57.56,12.72,9.03-1.4,17.46-4.5,24.73-10.18,6.15-4.82,10.96-10.6,11.86-18.8l-.06.06c.66-.54.66-1.26.52-2.01.55-3.77.29-7.48-1.07-11.08-1.11-4.35-3.3-8.16-6.02-11.68-6.82-8.83-15.89-14.48-26.11-18.57-2.26-.91-3.82-.36-4.91,1.76l-.23.18c-5.12,4.18-10.72,7.74-16.88,9.97-10.89,3.94-21.84,7.85-33.41,9.46-2.87.4-5.72.96-8.6,1.36-7.26.97-14.53,2.2-21.89,1.69-7.31-.52-14.6-1.22-21.68-3.34-9.48-2.84-19.38-4.5-27.83-10.14-1.24-.83-2.57-.87-3.95-.8-3.28-2.76-3.72-1.93-6.13.27-5.94,5.4-10.6,11.73-13.24,19.37-1.8,5.21-2.95,10.54-1.66,16.09-.12,1.07-.37,2.16.62,3M245.97,377.35c4.28-.83,8.06-2.75,11.46-5.37,4.91-3.79,9.27-8.29,15.19-11.01-2.08-2.1-4.52-2.46-6.81-3.21-2.91-.96-5.14-.37-7.21,2.09-4.61,5.48-8.87,11.2-13.08,16.97-.36-.25-.71-.51-1.06-.76,3.21-8.1,8.57-14.68,14.48-20.92,11.42-12.08,19.51-26.1,23.78-42.22.89-3.38,1.87-6.79,1.31-10.36.3-3.2.06-6.39-3.48-7.55-6.6-2.15-13.36-3.78-19.81-6.53-2.82,11.84-7,18.55-15.68,24.93-7.8,5.73-16.71,8.72-26.16,10.38-3.83.67-7.72.64-11.87,1.18,1.28,2.11,2.18,3.84,3.7,5.15,4.11,3.75,9.2,5.04,14.52,5.57,8.28.84,16.63.95,24.8,2.8-.37,1.12-1.35,1.01-2.24,1.16-4.09.67-8.22.68-12.33.4-2.23-.15-3.42.55-3.99,2.7-.7,2.65-1.7,5.23-2.3,7.89-.45,2.02-1.23,4.17.15,6.21,1.74,7.42,5.56,13.81,9.99,19.87.95,1.29,1.91,2.47,3.76,1.71,1.02-.2,2.03-.38,2.86-1.08M215.05,40.14c2.13,2.12,4.89,2.98,7.71,3.46,3.5.6,6.72-1.42,8.06-4.72,1.26-3.15.75-6.11-1.53-8.54-2.56-2.72-5.67-4.08-9.46-2.49-6.55,2.04-8.38,6.74-4.78,12.28M175.82,206.12c2.02-2.01,3.77-4.19,4.96-7.83-14.4,5.55-28.52,3.58-43.4,1.66,2.55,2.71,4.37,4.93,7,6.25,2.81,3.17,6.29,5.25,10.42,6.05,8.02,1.53,15.37.54,21.02-6.13M182.33,192.4l-.03.02c1.82-.04,2.99-1.4,4.46-2.13,2.1-1.05,2.68-2.52,1.81-4.83-1.94-5.12-3.61-10.34-5.48-15.49-.72-2-1.9-3.78-3.05-5.59-4.81-7.55-12.6-10.17-20.5-12.6-1.44-.45-2.67.19-3.71,1.18-1.8.62-3.6,1.25-5.12,2.46-1.12.04-2.06.62-2.93,1.2-10.83,7.32-16.5,18.14-20.4,30.16-.3.92-.28,1.91.64,2.45,2.48,1.46,4.3,3.98,7.34,4.52,7.24,3.52,15.16,3.36,22.89,3.92,7.71.55,15.24-.58,22.21-4.25.78-.03,1.48-.23,1.86-1.01M65.64,502.85c-4.05,3.67-9.14,5.26-14.13,7.08-1.86.68-3.74,1.32-5.57,2.08-1.34.55-2.02,1.79-1.1,2.93,2.03,2.47,5.26,2.92,8.04,4.12,1.59.7,2.09-.84,2.94-1.56.85-.71,1.84-1.11,2.86-1.38,4.91-1.34,9.55-3.17,13.12-7.05.29-.31.76-.54,1.18-.62.75-.13,1.1.36,1.07,1.05-.04.99-.74,1.65-1.33,2.34-2.55,3.04-5.98,4.62-9.61,5.96-1.6.58-3.62.44-4.85,2.34,10.75,2.32,21.41,2.36,32.08,1.65,2.89-.2,5.62-1.35,8.29-2.5,2.19-.95,4.23-2.02,6.73-2.37,2.76-.38,4.93-2.25,5.53-5.4.3-1.65.72-3.27.52-4.98.27-.64.94-1.44-.31-1.69-.53-.1-1.14.31-1.72.47-13.68,3.77-27.02,3.82-39.62-3.7-2.08-1.25-3.04-.11-4.13,1.24M203.51,503.76c-1.41,3.39-1.44,3.51,1.15,5.17,1.4.89,2.93,1.61,4.48,2.26,9.77,4.14,20.03,6.53,30.48,7.94,4.54.61,9.28,1.41,14.15-.21-1.78-3.87-5.41-5.46-8.15-7.68.56-1.11,1.2-1.09,1.76-.96,3.63.8,7.07,1.96,9.55,4.99.65.81,1.2,2.02,2.43,1.83,3.76-.54,7.64-.91,10.32-4.16,1.78-2.17,1.71-3.07-.83-4.03-7.05-2.66-12.69-7.17-17.63-12.72-1.62-1.74-3.1-.1-4.42.39-9.15,3.39-18.58,5.56-28.28,6.45-3.94.37-7.88-.12-11.74-1.06-1.49-.36-3.18-.62-3.26,1.79M209.96,335.48l.03.04c-1.19-3.19-3.71-5.58-5.2-8.58-.87-1.73-2.08-2.25-3.98-2.37-10.18-.66-19.9-3.21-29.14-7.54-6.7-3.14-12.65-7.38-18.09-12.46-2.74,2.29-5.23,4.53-7.88,6.57-15.49,11.96-32.87,17.25-52.42,14.39-2.55-.37-5.06-1.12-7.58-1.75-1.36-.34-2.43-.34-2.63,1.43-.54,4.9-2.7,9.36-3.71,14.15-3.04,6.97-6.09,13.93-10.07,20.44-1.36,2.21-2.55,4.52-3.67,6.85-7.32,15.4-14.61,30.82-22.56,45.93-2.4,4.55-4.63,9.28-5.21,14.55-.24.54-.6,1.06-.7,1.63-2.21,11.95-1.32,23.71,2.18,35.32,2.58,8.55,6.98,15.9,13.65,21.88,4.68,4.19,9.46,8.27,14.88,11.46,7.32,4.32,15.03,7.65,23.78,7.13,11.78-.7,22.79-3.89,32.93-10.15,7.28-4.5,14.97-8.28,23.03-11.26,9.18-3.4,18.37-3.83,27.74-.37,6.27,2.31,11.65,6.07,17.1,9.69,8.11,5.38,17.14,7.83,26.56,7.07,14.14-1.12,27.58-5.31,39.91-12.5,9.28-5.4,16.1-12.97,17.02-24.11.54-6.64.54-13.43-.52-20.09-.45-2.84-.54-5.79-2.02-8.38-.37-2.98-1.94-5.43-3.54-7.84-3.29-4.95-6.61-9.89-10.07-14.72-12.97-18.11-25.5-36.5-36.87-55.67-3.73-6.29-7.07-12.82-11.51-18.67-.19-.88-.61-1.61-1.44-2.05M63.15,308.22c-4.74-8.21-6.76-17-5-26.55-1.4.19-1.76.93-2.25,1.46-10.28,11.13-21.17,21.57-33.67,30.23-2.13,1.48-4.16,3.09-6.02,4.92-3.35,3.28-3.92,7-2.27,11.24.94,3.01,3.01,5.23,5.16,7.41,6.02,6.14,13.33,10.66,20.1,15.83,7.41,5.65,14.75,11.33,19.46,20.35,3.42-5.38,5.48-10.89,7.96-16.19,5.26-9.27,4.76-7.19.08-14.97-.07-.12-.16-.25-.24-.39-.62-1.16-1.41-1.26-2.63-.69-3.18,1.49-6.45,2.78-9.67,4.2-1.47.65-2.89,1.09-4.21-.27.43-2.27,2.51-2.45,4.11-3.12,7.04-2.92,13.84-6.27,20.66-9.63,4.33-2.12,3.92-6.15,5.11-9.56.24-.7-.6-1.27-1.35-1.61-6.23-2.86-11.06-7.47-15.35-12.68M270.61,183.23c1.82-1.51,2.02-3.75,2.32-5.81.9-6.52,1.15-13.07.64-19.67-.49-6.34-3.01-12.11-4.79-18.11-2.93-9.88-8.77-17.42-17.89-22.18-5.01-2.6-10.31-5.33-16.12-4.17-7.05,1.39-14.22,1.87-21.24,3.25-2.56-.34-2.13,1.58-2.19,3-.25,6.81,1.58,13.32,3.22,19.81,3.46,13.74,8.83,26.6,18.66,37.2,8.48,9.12,18.91,12.39,31.06,10.6,2.63-.39,4.99-1.36,6.32-3.92M47.21,185.76c.75.15,1.44.11,1.93-.58,2-.19,3.78-.98,5.43-2.09,3.62-.94,6.54-3.17,9.51-5.29,13.52-9.71,21.8-23.26,27.75-38.42,2.92-7.45,3.21-15.22,1.32-22.97-1.17-4.82-3.37-9.12-8.24-11.36-1.86-1.56-4.13-1.83-6.4-2.06-6.64-.68-12.76,1.08-18.53,4.16-14.9,7.95-25.15,20.18-32.11,35.35-3.74,8.16-5.93,16.7-5.41,25.78.7,12.33,8.45,19.43,20.31,18.44,1.51-.12,2.98-.63,4.46-.96M85.56,250.33c1.62,2.54,4.01,4.08,6.71,5.28,13.38,5.93,27.33,9.53,41.95,10.52,23.38,1.59,45.62-2.59,66.52-13.24,8.84-4.5,17.12-9.96,24-17.27,6.39-5.5,11.92-11.49,15.28-19.54,3.13-7.5,4.68-15.06,4.68-23.09,0-2.09-.4-3.4-2.58-4.06-2.65-.8-4.92-2.37-7.07-4.12-8.83-7.17-15.16-16.17-19.9-26.44-6.18-13.42-8.35-27.63-8.8-42.21.83-1.27.96-2.28-.92-2.56-2.85-.42-5.71-.75-8.55-1.24-1.6-.28-2.63.37-3.44,1.6-2.4,3.66-5.21,7.08-6.51,11.37-4.7,8.1-6.48,17.09-7.71,26.18-.4,2.93.03,5.92,2.66,8.31,2.24,2.03,3.88,4.74,4.96,7.64,2.34,6.31,4.41,12.7,6.23,19.18.53,1.93.48,3.86-1.25,4.98-4.07,2.62-5.88,6.75-8.02,10.78-1.56,2.95-3.59,5.68-5.86,8.19-2.34,2.6-5.17,4.11-8.61,4.9-3.48.8-6.98.46-10.46.8-4.11.38-8.05-.42-11.43-2.65-6.64-4.38-13.1-9.05-17.11-16.24-.65-1.17-1.69-1.69-2.67-2.41-4.72-3.5-5.03-4.35-3.59-10.02.38-1.47.95-2.91,1.32-4.39,1.41-5.6,5.2-9.99,7.83-14.96,1.2-2.25,1.04-3.71-.06-5.79-7.78-14.61-17.93-27.32-30.3-38.28-.85-.76-1.54-1.9-3.03-1.77,0,.93,0,1.84,0,2.75-.13,13.58-3.09,26.36-10.77,37.82-7.59,11.33-16.67,21.1-28.83,27.68-1.32.71-2.64,1.27-2.93,3.17-1.9,12.66-.72,24.88,6.52,35.67,5.98,8.88,13.4,16.66,21.74,23.47M200.69,501.11c-.12-.27-.16-.7-.35-.77-6.89-2.76-12.6-7.45-18.88-11.21-4.59-2.75-9.49-5.12-14.93-5.48-7.79-.52-15.2,1.13-22.16,4.72-9.09,4.68-18.19,9.37-27.28,14.06-.72.37-1.22.9-.94,1.82,26.06,6.75,73.05,5,84.54-3.15M150.56,126.94c-1.46,1.5-1.31,3.12-1.58,4.59-.78,4.2-1.41,8.44-2.27,12.63-.62,3.04-1.96,3.55-4.35,1.54-4.64-3.85-10.12-6.29-15.24-9.3-1.86-1.1-3.88-2.01-6.74-1.55,6.49,8.15,12.03,16.29,16.59,26.07.85-1.25,1.22-1.93,1.72-2.52,3.44-4.05,7.72-6.97,12.65-8.87,3.1-1.19,6.33-2.44,9.78-1.28,4.48,1.52,9.16,2.51,13.79,5.3,1.9-10.25,3.32-20.33,7.19-29.88-5.59,3.78-9.67,8.83-13.21,14.33-2.21,3.44-2.95,3.75-5.68.65-3.77-4.25-8.41-7.5-12.63-11.73M230.18,339.68h-10.35c1.63,3.49,3.25,6.66,5.51,10.15.83-1.96,1.42-3.47,2.11-4.93.77-1.6,1.62-3.15,2.72-5.22M247.88,203.07c1.9-2.42,2.67-5.21,3.68-7.87,1.1-2.86.95-2.95-3.06-3.32-.29,3.74.27,7.55-.62,11.18M73.47,336.31q-5.77,2.18-2.69,4.99c.77-1.44,1.54-2.86,2.69-4.99M73.57,341.53c-1.28.78-2.33,1.42-1.79,2.92.06.19.65.42.71.35.74-.78,1.22-1.68,1.08-3.26"/>
  <path class="cls-6" d="M37.87,427.13c.57-5.27,2.81-10,5.21-14.55,7.95-15.11,15.23-30.53,22.56-45.93,1.11-2.33,2.31-4.64,3.66-6.85,3.99-6.51,7.03-13.48,10.08-20.44.79-.1,1.52-.33,1.86-1.13,1.22-2.92,3.7-4.79,5.77-7.02,1.23-1.34,2.38-1.68,4.37-1.32,5.06.9,10.02,2.45,15.3,2.17,2.46-.13,4.74-1.1,7.21-1.03,4.06.12,7.84-1.12,11.45-2.78,9.01-4.15,17.52-9.14,24.76-16.04,1.47-1.4,2.43-1.19,3.83.09,2.92,2.66,5.88,5.31,9.03,7.66,4.58,3.41,10.01,5.16,15.38,6.71,7.27,2.11,14.53,4.61,22.26,4.34,2.35-.09,4.11.63,5.64,2.37.96,1.11,1.94,2.46,3.78,2.14l-.03-.04c-.24,1.19.22,1.89,1.44,2.05,4.43,5.85,7.78,12.38,11.51,18.67,11.36,19.18,23.9,37.56,36.87,55.67,3.46,4.83,6.78,9.78,10.07,14.72,1.6,2.41,3.18,4.86,3.54,7.84-.06,5.96-.05,11.92-.21,17.88-.15,5.81-1.62,11.36-5.92,15.37-4.1,3.83-8.55,7.47-13.4,10.23-12.29,6.97-24.55,13.88-39.29,15.17-10.09.88-18.19-1.53-24.92-8.94-.51-.55-1.11-1.04-1.77-1.44-2.26-1.38-4.16-3.26-5.63-5.32-2.76-3.92-6.31-7.06-9.7-10.34-4.44-4.27-9.34-7.88-15.84-8.24-8.3-.47-14.87,2.73-19.3,9.77-5.56,8.85-13.48,15.71-19.74,23.95-1.66,2.19-4.06,3.01-6.56,3.86-4.51,1.53-9.2,2.07-13.85,2.56-4.5.48-9.13.79-13.64-.61-5.85-1.81-11.47-4.18-16.62-7.48-6.46-4.14-12.01-9.36-16.55-15.57-7.28-9.98-13.06-20.53-12.48-33.5.21-4.88-.06-9.78-.13-14.66M249.31,465.17c7.29-2.42,10.83-7.63,10.2-15.03-.04-.6-.08-1.27.13-1.8,1.69-4.06,2.49-8.05,1.24-12.53-.74-2.62-1.92-4.33-4.42-3.46-2.15.74-4.25,1.81-6.14,3.07-2.56,1.7-2.65,3.92-.21,6.03,1.44,1.25,2.82,2.4,2.84,4.43.02,2.29.95,4.15,2.52,5.7,1.07,1.03,1.1,2.05.38,3.27-.78,1.32-1.44,2.67-2.35,3.92-1.52,2.04-3.6,3.75-4.19,6.4-.45.15-.52.29-.21.37.04,0,.13-.25.21-.37M226.93,434.13c-.71-13.51-5.33-25.56-13.77-36.15-2.98-3.73-6.53-6.86-10.87-8.95-6.77-3.28-14.06-.76-17.39,5.98-1.53,3.08-2.14,6.34-2.18,9.75-.16,16.37,6.64,29.82,17.5,41.53,2.18,2.35,4.9,4.12,7.91,5.38,7.65,3.17,14.46.21,17.29-7.59,1.16-3.19,1.5-6.53,1.51-9.94M80.84,436.99c0,3.42.27,6.76,1.32,10.01,2.64,8.07,9.02,10.69,16.65,6.81,3.02-1.53,5.68-3.6,8.03-6.05.95-.99,1.86-2.02,2.73-3.1,9.11-11.38,14.64-24.29,16.15-38.81.54-5.21.17-10.43-2.73-15.07-2.42-3.86-7.08-6.1-10.49-4.86-4.32,1.59-8.45,3.59-11.75,6.93-12.09,12.27-18.46,27.11-19.92,44.16M54.57,450c-.07,1.13.55,1.99,1.03,2.95,1.49,3.04,4.35,4.61,6.75,6.68,3.6,3.1,7.81,5.25,11.93,7.55.64.36,1.44.85,2.02,0,.46-.7.16-1.46-.36-2.1-.29-.36-.61-.69-.92-1.02-3.87-4.11-6.61-9.13-10.36-13.28-2.76-3.03-.24-6.77-2.34-9.71-.41-.58.92-1.48,1.87-1.53,1.73-.08,2.6-1.1,3.59-2.39,1.39-1.83,2.67-3.68,3.74-5.72,1.52-2.86,1.2-3.99-2.02-4.76-2.94-.71-5.9-1.51-8.8-2.29-4.42-1.2-6.75-.89-10.03,4.58-2.11,3.55-1.96,4,1.69,5.88,1.2.62,1.97,1.26,2.2,2.61.35,2.09.98,4.08.98,6.28s-.78,4.17-.98,6.28"/>
  <path class="cls-13" d="M206.34,116.15c.46,14.58,2.62,28.8,8.8,42.21,4.74,10.27,11.08,19.27,19.91,26.44,2.14,1.75,4.41,3.32,7.07,4.12,2.17.66,2.58,1.97,2.58,4.06,0,8.03-1.56,15.59-4.69,23.09-3.35,8.05-8.89,14.04-15.27,19.54-.93-.1-1.81-.04-2.7.26-2.45.78-3.89,2.92-5.85,4.33-8.64,6.23-18.49,9.73-28.53,12.76-8.45,2.55-17.26,3.28-25.96,4.49-2.95.41-6.09.61-9.07-.44-.89-.31-1.78-.34-2.7-.16-6.73,1.34-13.62.75-20.42,1.51-4.95.54-9.98.02-15.01-.65-6.49-.88-12.71-2.67-18.97-4.41-3.34-.93-6.27-3.27-9.97-2.99-8.34-6.81-15.75-14.59-21.73-23.47-7.25-10.78-8.43-23.01-6.53-35.67.29-1.91,1.61-2.46,2.93-3.18,12.16-6.58,21.24-16.36,28.83-27.68,7.67-11.45,10.63-24.23,10.76-37.82,0-.91,0-1.82,0-2.75,1.49-.12,2.18,1.02,3.02,1.77,12.37,10.96,22.52,23.67,30.3,38.28,1.11,2.08,1.27,3.54.07,5.79-2.64,4.97-6.43,9.36-7.84,14.96-.38,1.48-.94,2.92-1.32,4.39-1.44,5.67-1.13,6.53,3.59,10.02.96.71,2.01,1.24,2.67,2.41,4,7.19,10.45,11.86,17.11,16.24,3.37,2.23,7.31,3.03,11.42,2.65,3.48-.34,6.98,0,10.47-.8,3.42-.78,6.27-2.3,8.6-4.9,2.27-2.51,4.3-5.24,5.87-8.19,2.13-4.03,3.94-8.16,8.01-10.78,1.73-1.11,1.78-3.05,1.25-4.98-1.81-6.47-3.89-12.87-6.22-19.18-1.09-2.91-2.73-5.61-4.97-7.63-2.63-2.4-3.06-5.4-2.66-8.32,1.24-9.09,3.01-18.08,7.71-26.18,2.7-.39,4.06-2.65,5.56-4.42,3.24-3.83,7.08-5.57,12.05-4.81.59.09,1.21.04,1.82.06"/>
  <path class="cls-4" d="M255.41,276.82c1.36,3.59,1.62,7.3,1.07,11.08-.68.54-.78,1.22-.52,2,0,0,.06-.05.05-.05-1.53.52-1.77,2.02-2.35,3.2-2.14,4.41-5.51,7.46-9.69,10.02-5.65,3.46-11.67,5.81-17.95,7.8-11.84,3.77-23.66,4.23-35.43.09-11.75-4.14-22.57-9.89-31.42-18.95-1.85-1.91-3.26-4.53-6.28-5.07-1.22-2.46-.1-5.27-1.15-7.76.42-.94,1.19-1.24,2.17-1.39,2.68-.4,5.4-.73,8.03-1.38,9.85-2.44,19.75-4.74,29.18-8.54,7.16-2.89,14.49-5.54,20.67-10.38,2.99-2.34,6.14-4.64,6.35-8.97,0,0,.23-.18.23-.17,3.48,1.21,6.48,3.26,9.29,5.54,4.24,3.42,8.43,6.9,12.58,10.44,5.18,4.43,9.2,9.54,11.83,15.79.45,1.06.56,2.35,2.05,2.77,1.54-1.83-.08-4.27,1.28-6.04M218.58,292.93c-1.2.54-2.17.95-3.12,1.39-.8.38-1.03,1.08-.84,1.9.55,2.54,4.08,5.91,6.73,6.24,4.88.6,9.45-.49,13.39-3.42,4.57-3.39,5.55-9.7,2.42-14.21-.83-1.19-1.69-1.83-2.75-.16-.52.84-.76,2.37-2.14,1.91-1.85-.62-3.29.31-4.81.85-1.57.54-2.53.29-3.44-1.13-.71-1.13-1.61-2.16-3.37-1.53-4.71,1.69-9.16,3.78-13.34,7.22,2.51,1.01,4.23-.4,5.99-.91,2.16-.62,3.87-.66,5.28,1.86M157.6,281.49c-.62-.02-1.29.07-1.63.62-.44.7-.25,1.45.25,2.11,1.36,1.81,3.41,2.57,5.4,3.29.89.32,1.38-.45,1.2-1.36-.32-1.67-3.59-4.55-5.22-4.66"/>
  <path class="cls-10" d="M54.57,183.1c-1.66,1.11-3.43,1.89-5.44,2.08-1.16-1.53-1.63-.78-1.93.59-1.48.33-2.95.84-4.46.96-11.85.98-19.6-6.11-20.31-18.45-.52-9.08,1.69-17.61,5.41-25.78,6.97-15.16,17.2-27.41,32.11-35.35,5.78-3.07,11.9-4.83,18.53-4.16,2.27.23,4.56.5,6.4,2.07.03,1.68.1,3.31.55,4.98,1.43,5.31,2.06,10.93,1.84,16.22-.26,6.07-1.53,12.33-4.06,18.16-1.35,3.09-3.78,5.68-4.57,8.86-1.24,4.98-4.28,8.86-7.35,12.46-4.75,5.57-10.34,10.41-15.62,15.5-.59.56-1.05,1.06-1.12,1.86M48.1,142.94c.04,1.72.14,3.51,2.02,4.23,1.86.7,3.16-.51,4.35-1.77,1.72-1.82,2.8-3.95,3.3-6.41.33-1.63.16-3.1-1.32-4.04-1.43-.9-2.96-.71-4.3.24-2.65,1.89-4.13,4.42-4.06,7.75"/>
  <path class="cls-4" d="M69.07,307.22c-.46-.15-.66-.5-.69-.96-.24-.32-.48-.64-.71-.95-2.24-2.88-3.88-6.02-4.18-9.73,1.32-.94,1.03-2.36,1.25-3.7.79-5.04.71-10.39,3.6-14.81,4.38-6.69,10.1-12.33,15.29-18.39.09-.11.27-.12.41-.19.29.07.7.04.86.22,3.99,4.03,8.44,7.26,13.9,9.1,3.73,1.25,7.38,2.81,10.93,4.52,8.75,4.24,17.87,6.57,27.64,6.41,4.72-.08,9.45-.43,14.14.29-1.59,2.44-1.07,5.29-1.51,7.95-4.9,2.83-9.07,6.63-13.28,10.31-6.18,5.41-13.06,9.84-19.74,14.54-2.25,1.58-4.7,2.72-7.22,3.82-5.29,2.31-10.78,1.57-16.22,1.64-7.74.1-14.64-2.2-20.37-7.56-.9-.85-1.74-1.75-3.15-1.45l.06.03c-.08-.59-.42-.94-1.01-1.06M96.63,294.21c-4.3-1.26-6.06-1.16-9.23.37-4.53,2.19-5.11,2.1-8.7-1.36-.66-.63-1.31-1.27-2-1.87-.61-.54-1.41-.87-2.09-.42-.95.63-.7,1.6-.14,2.4,4.28,6.24,9.37,11.56,16.71,14.19,1.82.65,3.68,1.22,5.58-.32-.47-.69-.77-1.2-1.14-1.66-1.2-1.46-2.95-2.1-4.51-3.03-1.83-1.12-1.82-1.86.04-2.67,2.63-1.13,3.99-3.32,5.48-5.63M140.44,287.5c2.46-.11,4.21-1.55,4.09-3.38-.09-1.53-.81-2.6-2.5-2.51-1.39.08-3.02,2.75-2.9,4.58.06.84.42,1.42,1.3,1.31"/>
  <path class="cls-10" d="M213.53,116.55c7.03-1.37,14.2-1.85,21.24-3.26,5.8-1.15,11.1,1.58,16.12,4.18,9.12,4.76,14.96,12.3,17.88,22.18,1.78,5.98,4.31,11.75,4.8,18.11.51,6.59.26,13.15-.65,19.67-.29,2.04-.49,4.29-2.31,5.81-3.98-.14-7.8-1.27-11.7-1.77-11.32-1.46-19.86-7.69-26.64-16.2-6.48-8.13-10.67-17.65-14.45-27.35-2.72-6.93-3.21-14.18-4.29-21.38M261.53,144.87c-.23-3.96-2.1-6.9-4.27-9.7-1.13-1.45-2.64-2.27-4.4-1.29-1.73.98-1.75,2.59-1.14,4.4,1.2,3.55,3.24,6.57,5.67,9.3,1.59,1.77,3.45,1.13,3.95-1.16.13-.59.14-1.2.19-1.54"/>
  <path class="cls-7" d="M187.67,105.12c-10.18-3.7-19.61-8.89-28.71-14.68-2.54-1.61-5.34-2.93-7.12-5.54.64-1.33,4.21-1.73,1.75-3.96-1.9-1.72-1.61-3.16-.95-5.14.68-2.01,1.5-3.94,2.68-5.67.81-1.18,1.38-2.3,1.1-3.75.05-.26.11-.51.18-.76,1.02-.1,2.03-.2,3.05-.29.17,3.42.23,6.87.56,10.27.24,2.43,1.37,4.5,3.59,5.81,1.92,3.77,4.93,6.51,8.53,8.56,7.68,4.38,16.09,4.34,24.65,3.92-.22-1.01-.89-1.28-1.41-1.34-2.85-.34-5.58-1.43-8.53-1.27-3.71.2-6.79-1.07-9.27-3.96-1.48-1.73-3.01-3.63-4.93-4.71-3.76-2.1-3.78-4.82-2.85-8.49,1.27-4.95,2.23-10.02,1.76-15.22.56-2.02.89-4.15,1.75-6.04,1.16-2.52-.48-2.82-2.14-3.28-2.35-1.89-1.75-3.79-.02-5.71,2.26-2.52,3.55-5.56,4.71-8.68,2.15.29,2.64,1.79,2.51,3.61-.16,2.31.42,4.48.97,6.66.91,3.63,1.87,7.25,2.71,10.89.23.98.52,1.71,1.58,1.92,0,1.3-.69,2.88,1.28,3.45.07,1.95-1.69,2.8-2.49,4.22-.47.86-1.57,1.79-.62,2.85.74.82,1.72.21,2.5-.23,1.72-.98,3.64-1.44,5.36-2.51,5.68-3.54,11.06-7.53,16.94-10.8,4.34-2.4,4.17-2.68,2.88-7.64,3.75-3.59,7.34-.84,10.9.39,1.05.37,1.06,1.74,1.32,2.79,1.22,5.05,1.88,10.2,2.65,15.34.58,3.94,1.53,7.79,2.71,11.59.35,1.12.95,2.09,2.19.7,1.42-1.14,3.1-.99,4.74-.94,1.82.05,3.59-.12,5.27-.86-.06,3.92-.22,7.85-.17,11.76.05,4.33,1.75,5.8,6.45,5.95.21,1.87-.23,3.59-1.13,5.23-.44.25-.66.62-.54,1.13l-.08-.25.11.24c-7.83-1.04-15.26,1-22.13,4.16-5.98,2.75-11.77,3.42-18.07,2.41-5.38-.87-10.8-1.44-16.21-2.15M204.29,89.45c2.21.78,2.61,3.29,4.39,4.52,4.16,2.87,16.71,1.6,20.28-2.11.9-.95.87-1.62-.19-2.61-3.51-3.29-7.82-5.2-12.11-7.1-2.27-1.01-3.43-2.45-3.18-4.91.51-4.81-2.04-9.17-1.95-13.95.04-1.84-1.53-2.74-3.26-1.87-2.13,1.08-4.48,1.97-5.78,4.23-2.34-.27-4.51.59-6.73,1-2.35.44-3.52,2.65-2.6,4.82.71,1.73.86,3.51,1.31,5.24,1.46,5.57,4.26,10.27,9.83,12.74"/>
  <path class="cls-3" d="M37.87,427.12c.06,4.89.34,9.79.12,14.67-.58,12.97,5.2,23.51,12.48,33.49,4.54,6.22,10.1,11.43,16.56,15.57,5.14,3.3,10.76,5.67,16.61,7.49,4.5,1.4,9.13,1.08,13.64.61,4.65-.49,9.34-1.03,13.85-2.56,2.5-.86,4.9-1.69,6.56-3.87,6.26-8.23,14.18-15.1,19.74-23.94,4.43-7.05,11.01-10.25,19.3-9.78,6.5.37,11.4,3.98,15.84,8.24,3.39,3.27,6.93,6.42,9.69,10.34,1.47,2.08,3.37,3.95,5.63,5.33.65.39,1.26.88,1.77,1.44,6.73,7.4,14.83,9.82,24.92,8.93,14.73-1.29,27-8.19,39.29-15.17,4.85-2.75,9.3-6.4,13.4-10.22,4.3-4.01,5.77-9.57,5.92-15.38.15-5.96.14-11.92.21-17.88,1.48,2.6,1.58,5.55,2.02,8.38,1.05,6.67,1.06,13.45.52,20.09-.92,11.15-7.74,18.7-17.02,24.12-12.34,7.18-25.78,11.36-39.91,12.5-9.42.75-18.45-1.7-26.56-7.07-5.45-3.62-10.83-7.38-17.1-9.69-9.36-3.44-18.56-3.02-27.74.37-8.05,2.98-15.75,6.75-23.03,11.26-10.14,6.27-21.15,9.44-32.93,10.16-8.75.53-16.45-2.81-23.78-7.13-5.41-3.19-10.19-7.27-14.88-11.46-6.67-5.97-11.08-13.32-13.65-21.87-3.51-11.62-4.39-23.38-2.18-35.33.11-.57.46-1.09.7-1.63"/>
  <path class="cls-4" d="M124.23,91.5c5.29-2.47,10.74-4.33,16.59-4.84.69,4.22,3.31,7.08,6.73,9.28,2.43,1.55,4.95,2.97,7.54,4.22,9.08,4.37,18.37,8.14,28.44,9.53.91.12,1.97.04,2.19,1.2.21,1.14-.77,1.63-1.6,1.95-4.58,1.73-7.89,5.08-11.26,8.45-2.19,2.19-3.72,4.83-5.36,7.38-1.22,1.88-2.61,3.34-4.76,4.02-.44-.08-.68-.36-.73-.79.07-1.08.13-2.18-.67-3.05-3.61-3.97-7.45-7.69-12.36-10.04-2.58-1.25-4.08-.78-5.11,1.8-1.13,2.8-2.51,5.57-2.08,8.8.27,2-.39,3.88-1.45,5.59-2.45.21-3.95-1.69-5.79-2.58-7.67-3.71-15.99-5.95-23.31-10.44-1.93-1.19-3.59-2.92-6.02-3.18-.6-.14-.99-.54-1.28-1.06-.12-.29-.34-.46-.65-.54l-.19-.17c.52-1.94-.67-3.09-1.86-4.34-4.55-4.78-4.46-5.39,1.17-9.12,3.66-2.44,7.49-4.61,11.42-6.58,1.13-.57,2.76-.7,2.92-2.48,0,0,0,.12,0,.13,2.98.11,5.9.09,7.47-3.13"/>
  <path class="cls-6" d="M284.03,302.56c.56,3.58-.42,6.98-1.3,10.35-4.27,16.13-12.35,30.15-23.79,42.23-5.91,6.24-11.27,12.82-14.48,20.91-.87.54-1.51,1.23-1.36,2.36-1.86.76-2.81-.41-3.76-1.7-4.43-6.07-8.25-12.45-9.99-19.88.78-.1,1.53-.37,1.94-1.05,2.54-4.18,6.52-6.59,10.52-9.19,4.01-2.61,9.03-3.73,12.15-7.79-.25-.14-.48-.37-.7-.37-1.06-.02-2.13.03-3.2.05-8.17-1.86-16.53-1.97-24.8-2.81-5.32-.54-10.41-1.82-14.52-5.57.58-.7,1.24-.54,2.04-.4,4.37.7,8.72.81,13.07-.39,7.48-2.08,14.59-4.99,21.47-8.65,6.08-3.24,11.51-7.26,16.56-11.92,2.71-2.5,4.71-5.57,7.21-8.22,2.35-2.51,5.28-2.66,8.4-2.54,2.85.11,2.97,2.69,4.2,4.27.1.12.22.2.34.31"/>
  <path class="cls-6" d="M66.63,356.93c-2.48,5.3-4.55,10.81-7.96,16.19-4.71-9.03-12.05-14.71-19.45-20.35-6.78-5.17-14.08-9.69-20.11-15.83-2.14-2.19-4.22-4.4-5.15-7.41.6-.88,1.13-1.83,1.82-2.63,4.27-4.99,8.08-10.88,16.21-8.74.43.12.93.07,1.37,0,6.9-.98,13.9-1.28,20.7-3.01,4-1.02,7.34-2.95,9.09-6.93,4.3,5.22,9.11,9.82,15.35,12.67.75.35,1.6.91,1.35,1.61-1.19,3.42-.78,7.44-5.11,9.56-6.81,3.36-13.63,6.72-20.66,9.63-1.61.67-3.68.85-4.12,3.12-1.14.08-2.23.45-2.4,1.67-.17,1.28.95,1.8,1.94,2.2.84.33,1.71.54,2.59.76,2.64.64,5.4.97,7.89,1.98,2.69,1.09,5.82,2,6.64,5.5"/>
  <path class="cls-7" d="M150.71,155.4c1.52-1.21,3.32-1.84,5.11-2.46,4.73.9,8.05,3.76,10.97,7.41,2.64,3.29,4.83,7.05,8.4,9.47,1.92,1.3,3.49,2.9,5.13,4.47,3.13,2.98,4.17,7.04,5.14,10.96.58,2.31-1.96,3.85-2.93,5.83-.19.38-.15.88-.22,1.33l.03-.02c-.86-.11-1.55.11-1.86,1.01-6.97,3.67-14.5,4.81-22.21,4.25-7.73-.55-15.65-.39-22.9-3.92.97-.54,1.78-.9.61-2.27-3.05-3.52-2.83-3.51-.17-7.55,2.57-3.92,5.58-7.55,7.57-11.89,1.24-2.71,2.9-5.26,4.53-7.81,1.64-2.57,3.9-5.24,2.82-8.81"/>
  <path class="cls-2" d="M200.69,501.11c-11.49,8.16-58.48,9.91-84.54,3.16-.29-.93.21-1.45.94-1.83,9.1-4.68,18.19-9.37,27.29-14.06,6.96-3.59,14.37-5.24,22.15-4.72,5.44.36,10.34,2.74,14.93,5.48,6.28,3.76,12,8.44,18.88,11.2.19.07.23.5.35.77"/>
  <path class="cls-2" d="M151.5,279.02c-4.69-.72-9.43-.37-14.14-.29-9.78.16-18.89-2.18-27.65-6.41-3.54-1.71-7.19-3.28-10.92-4.53-5.47-1.83-9.92-5.06-13.9-9.09-.17-.19-.57-.15-.86-.22-.04-.6-.07-1.2-.12-1.78,1.38-.06,2.71-.03,3.94.79,8.45,5.65,18.36,7.3,27.83,10.14,7.08,2.12,14.38,2.84,21.69,3.34,7.36.52,14.63-.71,21.89-1.69,2.87-.38,5.73-.95,8.6-1.36,11.57-1.61,22.51-5.51,33.41-9.45,6.16-2.23,11.75-5.8,16.88-9.97-.22,4.33-3.36,6.63-6.35,8.96-6.19,4.83-13.51,7.48-20.68,10.38-9.43,3.8-19.34,6.1-29.17,8.54-2.63.65-5.35.98-8.03,1.38-.98.15-1.76.45-2.18,1.39l-.24-.15"/>
  <path class="cls-8" d="M85.55,250.33c3.7-.29,6.63,2.05,9.97,2.98,6.26,1.75,12.48,3.52,18.97,4.41,5.03.68,10.06,1.2,15.01.65,6.8-.75,13.68-.17,20.42-1.5.92-.19,1.81-.15,2.7.15,2.98,1.04,6.12.85,9.07.44,8.7-1.2,17.51-1.93,25.96-4.49,10.04-3.02,19.89-6.53,28.53-12.76,1.96-1.41,3.4-3.54,5.85-4.33.89-.29,1.77-.35,2.69-.26-6.88,7.31-15.16,12.76-24,17.28-20.9,10.65-43.14,14.81-66.52,13.24-14.63-.99-28.58-4.59-41.95-10.52-2.69-1.2-5.07-2.75-6.71-5.28"/>
  <path class="cls-2" d="M47.99,488.31c-7.37-3.99-13.68-9.18-18.37-16.21-6.18-9.27-7.67-19.26-5.54-30.21,3.35-17.22,10.72-32.71,19.3-47.78,2.73-4.78,5.78-9.35,8.62-14.03,1.3-2.13,2.53-1.57,4.25-.44-3.84,8.7-8.21,17.09-12.88,25.32-4.92,8.7-9.45,17.66-10.37,27.71-1.6,17.62.98,34.46,11.62,49.28,1.32,1.85,3.02,3.43,4.55,5.14-.39.41-.79.81-1.19,1.21"/>
  <path class="cls-3" d="M209.99,335.52c-1.84.32-2.81-1.03-3.78-2.14-1.53-1.74-3.28-2.46-5.64-2.37-7.73.27-14.98-2.23-22.26-4.34-5.36-1.55-10.8-3.3-15.37-6.71-3.16-2.35-6.12-5-9.03-7.66-1.39-1.28-2.35-1.49-3.83-.09-7.23,6.89-15.74,11.89-24.76,16.04-3.6,1.66-7.39,2.9-11.44,2.78-2.48-.07-4.75.89-7.22,1.03-5.28.29-10.24-1.27-15.3-2.17-1.98-.36-3.13-.02-4.37,1.32-2.06,2.23-4.55,4.1-5.77,7.02-.34.8-1.06,1.03-1.86,1.13,1.01-4.78,3.17-9.25,3.72-14.15.2-1.77,1.26-1.77,2.62-1.43,2.52.62,5.03,1.37,7.58,1.75,19.56,2.86,36.93-2.43,52.42-14.39,2.65-2.04,5.14-4.28,7.88-6.57,5.44,5.07,11.39,9.32,18.09,12.46,9.24,4.33,18.96,6.88,29.14,7.54,1.91.12,3.1.64,3.98,2.37,1.49,3,4.01,5.39,5.2,8.58"/>
  <path class="cls-3" d="M63.15,308.22c-1.75,3.99-5.09,5.92-9.1,6.93-6.79,1.73-13.79,2.03-20.7,3.01-.45.06-.94.11-1.36,0-8.13-2.14-11.94,3.74-16.21,8.73-.7.81-1.22,1.75-1.83,2.63-1.65-4.23-1.09-7.96,2.27-11.24,1.86-1.83,3.89-3.43,6.02-4.91,12.49-8.67,23.39-19.11,33.67-30.24.49-.54.85-1.28,2.25-1.46-1.76,9.55.27,18.34,5,26.55"/>
  <path class="cls-6" d="M150.56,126.94c4.23,4.23,8.86,7.47,12.63,11.73,2.74,3.09,3.47,2.79,5.68-.65,3.54-5.5,7.62-10.55,13.21-14.33-3.86,9.54-5.29,19.63-7.18,29.88-4.64-2.79-9.31-3.77-13.79-5.3-3.45-1.17-6.67.09-9.78,1.28-4.92,1.89-9.2,4.82-12.65,8.87-.5.59-.87,1.27-1.71,2.52-4.57-9.78-10.1-17.92-16.6-26.07,2.87-.45,4.89.45,6.74,1.55,5.12,3.01,10.61,5.45,15.24,9.3,2.4,2.01,3.74,1.5,4.35-1.54.86-4.19,1.49-8.43,2.27-12.63.28-1.47.12-3.09,1.58-4.59"/>
  <path class="cls-2" d="M152.9,286.92c3.01.55,4.42,3.17,6.28,5.07,8.85,9.06,19.67,14.81,31.43,18.95,11.76,4.14,23.58,3.68,35.43-.08,6.28-2.01,12.3-4.35,17.95-7.81,4.18-2.56,7.55-5.6,9.7-10.02.57-1.19.82-2.68,2.35-3.2-.89,8.2-5.7,13.98-11.86,18.8-7.26,5.67-15.7,8.78-24.72,10.18-20.8,3.21-40.02-.94-57.56-12.72-2.93-1.97-5.04-4.43-5.98-7.78-1.08-3.77-3.34-7.25-3-11.4"/>
  <path class="cls-7" d="M251.2,496.19c4.94,5.55,10.59,10.05,17.63,12.72,2.54.96,2.62,1.86.83,4.02-2.67,3.26-6.56,3.62-10.32,4.17-1.24.18-1.78-1.02-2.43-1.83-2.48-3.04-5.92-4.19-9.55-4.99-.55-.12-1.19-.16-1.76.96,2.74,2.22,6.37,3.8,8.15,7.67-4.87,1.62-9.61.82-14.15.21-10.44-1.4-20.71-3.79-30.48-7.93-1.54-.65-3.08-1.36-4.48-2.27-2.59-1.66-2.56-1.77-1.15-5.16,4.08,1.64,8.25,2.8,12.67,3.23,4.1.41,8.1.46,12.2-.05,6.76-.86,12.75-3.63,18.68-6.69,1.79-.92,3.29-2.17,4.15-4.06"/>
  <path class="cls-7" d="M111.42,506.53c.2,1.69-.21,3.32-.53,4.98-.59,3.16-2.76,5.01-5.52,5.4-2.51.35-4.55,1.43-6.74,2.36-2.66,1.15-5.39,2.31-8.28,2.5-10.68.72-21.33.67-32.08-1.64,1.23-1.91,3.26-1.76,4.85-2.35,3.63-1.34,7.05-2.92,9.61-5.95.59-.7,1.28-1.36,1.33-2.34.02-.7-.33-1.2-1.08-1.05-.41.07-.88.31-1.17.62-3.57,3.86-8.21,5.7-13.12,7.04-1.03.28-2.02.67-2.86,1.38-.86.73-1.36,2.26-2.94,1.57-2.77-1.2-6-1.65-8.04-4.13-.93-1.12-.24-2.37,1.1-2.93,1.83-.76,3.7-1.39,5.56-2.08,4.99-1.81,10.08-3.41,14.13-7.08,3.67,1.47,6.87,3.96,10.49,5.36,11.93,4.63,23.76,3.76,35.29-1.68"/>
  <path class="cls-3" d="M284.03,302.56c-.12-.11-.24-.19-.34-.31-1.23-1.58-1.35-4.17-4.2-4.27-3.12-.12-6.05.04-8.4,2.54-2.5,2.66-4.49,5.73-7.21,8.22-5.05,4.66-10.48,8.68-16.56,11.92-6.88,3.67-13.98,6.57-21.47,8.65-4.35,1.2-8.7,1.09-13.07.39-.8-.13-1.46-.3-2.04.4-1.53-1.29-2.42-3.02-3.7-5.14,4.15-.54,8.05-.51,11.87-1.18,9.45-1.66,18.36-4.66,26.17-10.38,8.67-6.38,12.85-13.08,15.68-24.94,6.44,2.76,13.2,4.39,19.8,6.54,3.55,1.16,3.78,4.35,3.48,7.55"/>
  <path class="cls-2" d="M70.01,308.25c1.41-.29,2.26.61,3.16,1.45,5.73,5.37,12.63,7.66,20.37,7.56,5.43-.07,10.93.67,16.21-1.63,2.52-1.11,4.99-2.24,7.23-3.83,6.68-4.7,13.55-9.12,19.73-14.54,4.21-3.68,8.39-7.47,13.29-10.3-.12,6.28-.45,12.5-4.04,18.02-.84,1.29-1.6,2.59-2.85,3.52-17.05,12.71-35.76,17.43-56.5,11.21-6.63-2-12.5-5.57-16.6-11.48"/>
  <path class="cls-8" d="M213.54,116.55c1.08,7.2,1.57,14.45,4.28,21.38,3.79,9.69,7.98,19.22,14.46,27.35,6.78,8.51,15.31,14.73,26.64,16.19,3.9.5,7.72,1.62,11.69,1.77-1.33,2.56-3.69,3.52-6.32,3.92-12.16,1.79-22.58-1.48-31.06-10.6-9.84-10.6-15.2-23.47-18.67-37.2-1.63-6.48-3.46-12.99-3.21-19.81.05-1.42-.37-3.34,2.19-3"/>
  <path class="cls-8" d="M54.57,183.1c.08-.8.54-1.3,1.12-1.86,5.29-5.09,10.88-9.94,15.62-15.5,3.08-3.6,6.12-7.48,7.35-12.46.78-3.17,3.23-5.77,4.57-8.86,2.52-5.83,3.81-12.09,4.06-18.16.22-5.29-.41-10.92-1.84-16.22-.46-1.67-.53-3.3-.55-4.98,4.88,2.24,7.07,6.54,8.25,11.36,1.89,7.75,1.6,15.52-1.32,22.97-5.95,15.16-14.23,28.71-27.76,38.42-2.97,2.12-5.88,4.35-9.5,5.29"/>
  <path class="cls-2" d="M162.75,132.69c2.14-.69,3.53-2.13,4.75-4.01,1.65-2.55,3.18-5.18,5.37-7.38,3.36-3.37,6.67-6.72,11.25-8.45.83-.31,1.81-.8,1.6-1.94-.21-1.16-1.27-1.08-2.18-1.2-10.08-1.39-19.37-5.16-28.44-9.53-2.59-1.26-5.12-2.67-7.54-4.23-3.43-2.19-6.05-5.06-6.73-9.28,2.62-1.27,4.69-.03,6.72,1.44,9.17,6.67,18.88,12.41,29.19,17.12,4.43,2.02,8.98,3.79,13.66,5.75-.88,2.29-2.4,3.88-4.58,4.75-6.99,2.79-11.61,8.26-15.92,14.05-1.44,1.94-2.66,4.03-4.02,6.12-1.66-.6-2.5-1.79-3.13-3.2"/>
  <path class="cls-2" d="M60.88,232.91c-.93.38-1.4-.3-1.9-.83-10.03-10.59-17.27-22.81-21.45-36.83-.12-.41-.07-.88-.12-1.84,4.73.26,9.3-.45,14.12-1.46-1.47,14.43,1.58,27.33,9.45,39-.03.65-.06,1.3-.1,1.95"/>
  <path class="cls-15" d="M150.71,155.4c1.08,3.57-1.18,6.24-2.82,8.81-1.63,2.55-3.29,5.1-4.53,7.81-1.99,4.33-5,7.96-7.57,11.89-2.66,4.05-2.88,4.03.17,7.55,1.18,1.37.37,1.73-.61,2.27-3.04-.54-4.86-3.06-7.33-4.52-.92-.54-.95-1.53-.64-2.45,3.89-12.02,9.57-22.84,20.4-30.16.87-.59,1.81-1.17,2.93-1.2"/>
  <path class="cls-2" d="M105.22,118.79c2.42.28,4.09,2.01,6.02,3.18,7.32,4.5,15.64,6.74,23.31,10.45,1.84.89,3.34,2.78,5.79,2.58,1.06-1.72,1.72-3.6,1.45-5.6-.43-3.24.95-6,2.08-8.8,1.03-2.58,2.53-3.04,5.11-1.8,4.91,2.36,8.75,6.08,12.36,10.04.79.88.74,1.97.67,3.05-3.95-2.36-6.99-5.82-10.41-8.83-1.04-.91-1.98-2.1-3.53-1.44-1.53.64-1.45,2.18-1.63,3.51-.62,4.53-1.27,9.05-1.89,13.57-.13,1.05-.18,2.14-1.28,3.09-3.98-2.4-8.08-4.66-11.96-7.28-3.91-2.62-8.12-4.14-12.75-4.54-1.26-.11-2.35-.29-3.29-1.24-3.32-3.35-6.7-6.64-10.05-9.95"/>
  <path class="cls-16" d="M255.41,276.82c-1.36,1.77.26,4.21-1.28,6.04-1.49-.43-1.61-1.71-2.05-2.76-2.62-6.25-6.64-11.36-11.83-15.79-4.15-3.54-8.33-7.02-12.57-10.44-2.83-2.27-5.82-4.33-9.29-5.55,1.09-2.11,2.65-2.67,4.9-1.77,10.21,4.08,19.29,9.75,26.11,18.58,2.72,3.51,4.91,7.33,6.02,11.68"/>
  <path class="cls-12" d="M182.3,192.42c.07-.45.04-.95.22-1.33.97-1.98,3.51-3.52,2.93-5.83-.97-3.92-2.01-7.98-5.14-10.97-1.64-1.56-3.21-3.17-5.13-4.46-3.57-2.42-5.76-6.18-8.4-9.48-2.92-3.65-6.24-6.51-10.97-7.4,1.04-1,2.27-1.62,3.71-1.19,7.91,2.44,15.71,5.06,20.51,12.61,1.15,1.81,2.33,3.59,3.05,5.59,1.86,5.16,3.53,10.37,5.47,15.49.87,2.32.29,3.78-1.8,4.82-1.47.74-2.65,2.1-4.46,2.14"/>
  <path class="cls-2" d="M278.62,434.01c2.27,5.49,4.7,10.92,6.41,16.64,2.46,8.26.76,15.8-4,22.62-6.04,8.65-14.43,14.85-23.05,20.7-1.06.71-2.87,1.92-3.63.54-.91-1.69,1.41-1.92,2.43-2.47,3.37-1.83,6.59-3.84,9.58-6.23,13.48-10.76,16.45-24.98,13.46-41.12-.67-3.59-1.5-7.16-2.25-10.74.35.02.7.04,1.04.06"/>
  <path class="cls-12" d="M187.67,105.13c5.4.7,10.83,1.28,16.21,2.14,6.3,1.02,12.09.35,18.08-2.41,6.86-3.16,14.29-5.19,22.12-4.15-.06.46-.06.92-.17,1.36-1.5,5.53-1.52,5.4-7.27,5.99-5.76.59-11.49,1.87-17.25,2.11-10.86.45-21.64-.29-31.71-5.05"/>
  <path class="cls-12" d="M144.39,206.19c-2.64-1.32-4.45-3.54-7-6.25,14.88,1.93,28.99,3.89,43.4-1.66-1.2,3.64-2.93,5.83-4.97,7.83-.39-.53-.89-.8-1.55-.57-8.97,3.14-18.02,3.45-27.16.72-.84-.26-1.8-.06-2.72-.07"/>
  <path class="cls-12" d="M251.2,496.19c-.86,1.89-2.35,3.14-4.15,4.06-5.92,3.06-11.92,5.83-18.68,6.69-4.1.52-8.1.46-12.2.05-4.42-.43-8.6-1.59-12.67-3.23.07-2.42,1.77-2.16,3.26-1.79,3.86.94,7.8,1.43,11.74,1.06,9.7-.89,19.13-3.07,28.28-6.46,1.33-.49,2.8-2.13,4.42-.38"/>
  <path class="cls-7" d="M219.83,27.86c3.79-1.59,6.89-.23,9.46,2.49,2.27,2.43,2.78,5.39,1.52,8.54-1.33,3.3-4.56,5.32-8.06,4.72-2.81-.48-5.57-1.34-7.7-3.46,1.78-3.29,3.58-6.57,5.34-9.87.51-.94.23-1.75-.56-2.41"/>
  <path class="cls-3" d="M245.53,376.82c4.21-5.77,8.47-11.5,13.08-16.97,2.07-2.46,4.29-3.05,7.2-2.09,2.28.75,4.74,1.11,6.81,3.21-5.92,2.71-10.28,7.22-15.19,11.01-3.4,2.62-7.19,4.54-11.46,5.37-.16-.17-.3-.35-.45-.53"/>
  <path class="cls-16" d="M83.92,256.69c.04.6.08,1.2.12,1.78-.14.06-.32.08-.41.19-5.19,6.06-10.91,11.7-15.29,18.39-2.89,4.42-2.82,9.78-3.6,14.81-.22,1.34.06,2.77-1.25,3.7l.02-.16c.33-1.11.38-2.16-.62-2.99-1.29-5.56-.14-10.88,1.66-16.09,2.64-7.65,7.3-13.98,13.24-19.38,2.41-2.19,2.84-3.02,6.13-.26"/>
  <path class="cls-11" d="M245.72,94.36c-4.69-.15-6.4-1.63-6.45-5.95-.05-3.92.11-7.84.18-11.76,1.46-1.67,4.26-1.39,5.37-3.29,1.53-2.61,3.22-2.23,5.25-.95l-.02.33c-1.02,1.2-.96,2.57-.68,3.99-.83,5.96-1.93,11.87-3.66,17.64"/>
  <path class="cls-15" d="M209.66,47.62c1.3,4.96,1.46,5.24-2.87,7.64-5.88,3.27-11.26,7.26-16.95,10.8-1.71,1.08-3.64,1.53-5.35,2.51-.78.45-1.77,1.05-2.51.23-.95-1.05.15-1.99.63-2.85.79-1.43,2.56-2.27,2.48-4.22,4.1-1.42,7.64-3.84,11.13-6.31,4.25-3.01,8.56-5.9,13.43-7.82"/>
  <path class="cls-3" d="M66.63,356.93c-.82-3.5-3.95-4.41-6.64-5.5-2.49-1.01-5.25-1.34-7.89-1.98-.87-.21-1.75-.43-2.59-.76-1-.4-2.11-.93-1.94-2.2.17-1.22,1.26-1.59,2.4-1.67,1.32,1.36,2.74.92,4.22.27,3.21-1.42,6.48-2.71,9.67-4.2,1.21-.57,2-.48,2.62.69.08.13.17.27.25.39,4.67,7.78,5.17,5.7-.09,14.97"/>
  <path class="cls-3" d="M250.06,338.48c1.06-.03,2.13-.07,3.19-.05.23,0,.46.23.7.37-3.11,4.07-8.13,5.18-12.15,7.79-4,2.6-7.97,5-10.51,9.19-.42.69-1.16.95-1.94,1.06-1.38-2.03-.6-4.18-.15-6.22.6-2.67,1.61-5.24,2.3-7.88.55-2.16,1.76-2.85,3.99-2.7,4.11.28,8.24.27,12.33-.41.89-.14,1.87-.04,2.24-1.15"/>
  <path class="cls-12" d="M111.42,506.53c-11.53,5.44-23.36,6.31-35.29,1.68-3.62-1.4-6.82-3.89-10.49-5.36,1.09-1.35,2.05-2.48,4.13-1.24,12.59,7.52,25.94,7.48,39.61,3.7.59-.16,1.2-.57,1.73-.46,1.24.23.58,1.04.31,1.69"/>
  <path class="cls-7" d="M181.25,30.27c-2.27-.29-4.08-1.21-4.89-3.51.45-3.04,2.27-5.24,4.43-7.24,1.51-1.37,2.84-2.85,1.88-5.15,4.21-.78,7.54.47,9.73,4.28-.81,4.25-3.9,6.62-7.26,8.77-1.36.86-3.24,1.04-3.9,2.85"/>
  <path class="cls-7" d="M250.53,50.65c.91-.77,2.02-.68,3.06-.55,3.22.4,5.85,1.72,6.94,5.06.9,2.74.22,5.13-1.9,7.05-2.33,2.11-6.27,2.71-8.98,1.17-1.12-.64-2.53-1.11-3.13-2.48,1.22-2.6,3.13-4.65,4.99-6.77,1.26-1.43,1.61-2.96-.98-3.48"/>
  <path class="cls-7" d="M144.39,206.19c.92,0,1.88-.19,2.72.07,9.14,2.73,18.19,2.42,27.16-.72.66-.23,1.16.04,1.55.57-5.65,6.68-13,7.66-21.01,6.13-4.14-.79-7.62-2.88-10.42-6.05"/>
  <path class="cls-2" d="M273.46,425.53c-7.63-11.04-16.01-21.56-23.3-32.84.31-.32.63-.64.95-.96,7.16,8.37,13.99,17.01,19.67,26.48,1.4,2.33,3.15,4.54,3.26,7.45-.18-.13-.38-.18-.6-.12"/>
  <path class="cls-12" d="M250.07,72.4c-2.04-1.28-3.72-1.66-5.25.95-1.11,1.9-3.91,1.62-5.37,3.29-1.69.73-3.46.9-5.28.85-1.64-.04-3.32-.21-4.73.95,0-1.13-.66-2.56,1.17-2.94,4.99-1.03,8.82-4.09,12.36-7.42,2.29-2.16,4.15-.89,6.14,0,2.14.95,1.26,2.75.96,4.33"/>
  <path class="cls-11" d="M156.6,65.63c-.08.25-.13.51-.18.76-1.85.29-2.78,1.62-3.67,3.07-2.42,3.96-4.88,7.89-7.31,11.84-1.95-.62-2.27-1.74-1.12-3.43,1.19-1.77,2.13-3.7,3.4-5.4,5.88-7.92,11.57-15.99,17.96-23.53.38,1.67-.68,2.79-1.41,4.11-2.36,4.32-5.67,8.06-7.67,12.59"/>
  <path class="cls-15" d="M156.6,65.63c2-4.53,5.31-8.28,7.67-12.59.73-1.32,1.78-2.44,1.41-4.11l-.04.12c.54-.18.83-.57.91-1.13l-.15.14c1.63-.32,2.04-1.5,2.07-2.94,2.24-3.79,4.62-7.49,7.32-10.96.09.36.18.71.26,1.07-1.16,3.11-2.46,6.16-4.72,8.67-1.72,1.93-2.33,3.82.02,5.72-2.5.62-3.57,2.63-4.62,4.68-2.02,3.91-4.47,7.53-7.08,11.05-1.02.1-2.04.2-3.05.29"/>
  <path class="cls-12" d="M176.05,35.21c-.08-.36-.17-.71-.25-1.07,4.41-1.31,7.29.34,7.14,4.27-.23,6.65.21,13.26.87,19.87-1.06-.2-1.35-.94-1.58-1.91-.84-3.65-1.8-7.27-2.71-10.9-.55-2.19-1.13-4.35-.97-6.65.13-1.82-.36-3.32-2.51-3.61"/>
  <path class="cls-16" d="M116.76,94.51c-.16,1.78-1.78,1.9-2.92,2.47-3.94,1.98-7.77,4.15-11.42,6.58-5.63,3.75-5.72,4.34-1.17,9.13,1.19,1.25,2.37,2.41,1.86,4.33-3.5-1.77-5.9-4.48-7.57-8.06-1.4-3.03-1.65-3.01,1.23-4.79,5.18-3.17,10.59-5.89,16.15-8.31,1.24-.54,2.55-.91,3.84-1.36"/>
  <path class="cls-8" d="M206.34,116.15c-.61-.02-1.23.03-1.82-.06-4.97-.76-8.81.98-12.05,4.81-1.5,1.77-2.85,4.03-5.56,4.42,1.31-4.29,4.11-7.71,6.52-11.37.81-1.23,1.85-1.87,3.43-1.6,2.84.49,5.7.83,8.55,1.24,1.88.28,1.76,1.29.92,2.56"/>
  <path class="cls-15" d="M145.44,81.29c2.43-3.94,4.9-7.88,7.31-11.84.88-1.44,1.82-2.78,3.67-3.07.29,1.44-.29,2.57-1.11,3.75-1.17,1.73-1.99,3.67-2.67,5.67-.67,1.98-.96,3.42.95,5.14,2.45,2.23-1.11,2.63-1.75,3.96-1.58-2.19-4.34-2.29-6.4-3.61"/>
  <path class="cls-3" d="M55.26,376.37c-2.02-2.14-4.66-3.39-7.02-5.06-2.32-1.66-4.57-3.36-6.55-6.19,2.56.12,4.48.22,6.4.33.3.02.62.07.89.18,2.64.99,6.31,7.37,6.22,10.78l.06-.04Z"/>
  <path class="cls-12" d="M181.25,30.27c.66-1.81,2.53-1.99,3.9-2.85,3.36-2.15,6.45-4.51,7.26-8.77,2.25,2.67,2.16,5.52.36,8.28-1.73,2.65-4.25,4.25-7.57,3.98-1.31-.11-2.71.11-3.94-.63"/>
  <path class="cls-8" d="M230.18,339.68c-1.09,2.07-1.95,3.62-2.72,5.22-.7,1.46-1.28,2.97-2.11,4.93-2.27-3.49-3.88-6.66-5.5-10.15h10.34Z"/>
  <path class="cls-11" d="M219.83,27.86c.79.66,1.07,1.47.56,2.41-1.77,3.3-3.56,6.58-5.34,9.87-3.6-5.54-1.77-10.24,4.78-12.28"/>
  <path class="cls-11" d="M182.68,14.36c.95,2.29-.38,3.77-1.88,5.16-2.17,2-3.99,4.19-4.43,7.24-3.14-6.13-.9-10.53,6.31-12.4"/>
  <path class="cls-11" d="M250.53,50.65c2.59.52,2.24,2.05.98,3.48-1.86,2.12-3.77,4.17-4.99,6.77-2.91-4.74-1.62-8.02,4.01-10.25"/>
  <path class="cls-2" d="M247.88,203.06c.89-3.64.33-7.44.62-11.18,4.01.37,4.16.45,3.06,3.32-1.02,2.66-1.78,5.44-3.68,7.86"/>
  <path class="cls-9" d="M60.88,232.91c.04-.65.07-1.3.1-1.95,3.09,3.41,6.17,6.81,9.27,10.23-4.06-1.44-6.92-4.17-9.4-7.34.54-.32,1.27-.62.06-1.05l-.03.12Z"/>
  <path class="cls-9" d="M251.12,391.72c-.32.32-.64.64-.95.96-2.41-2.65-4.41-5.57-5.92-8.8.23-.2.46-.41.66-.63,2.07,2.83,4.15,5.65,6.22,8.47"/>
  <path class="cls-9" d="M273.46,425.53c.21-.05.42,0,.6.12,2.52,2.25,3.32,5.42,4.57,8.36-.35-.03-.7-.04-1.04-.06-1.37-2.81-2.76-5.61-4.12-8.42"/>
  <path class="cls-8" d="M73.47,336.31c-1.15,2.13-1.93,3.56-2.7,4.99q-3.07-2.82,2.7-4.99"/>
  <path class="cls-16" d="M124.23,91.5c-1.57,3.22-4.49,3.24-7.47,3.13,2.19-1.77,4.85-2.4,7.47-3.13"/>
  <path class="cls-9" d="M47.99,488.31c.39-.4.79-.8,1.19-1.21,1.47.98,3.14,1.76,3.68,3.67l-.17.19c-1.85-.38-3.42-1.25-4.7-2.64"/>
  <path class="cls-9" d="M73.57,341.53c.14,1.59-.34,2.49-1.08,3.26-.06.07-.65-.16-.71-.35-.54-1.5.52-2.13,1.79-2.92"/>
  <path class="cls-3" d="M243.1,378.43c-.16-1.13.48-1.82,1.36-2.36.35.25.7.51,1.06.76.14.18.29.36.45.53-.82.7-1.85.89-2.86,1.08"/>
  <path class="cls-12" d="M249.38,76.72c-.29-1.42-.34-2.79.68-3.99.29,1.41.12,2.76-.68,3.99"/>
  <path class="cls-9" d="M244.25,383.88c-.12-.08-.26-.15-.34-.26-.37-.53-1.36-1.2-.61-1.67,1.03-.65,1.29.54,1.6,1.29-.2.23-.43.45-.65.63"/>
  <path class="cls-11" d="M168.47,45.1c-.03,1.44-.44,2.62-2.07,2.95.29-1.28,1.08-2.18,2.07-2.95"/>
  <path class="cls-8" d="M47.21,185.77c.29-1.36.77-2.11,1.93-.58-.49.69-1.18.73-1.93.58"/>
  <path class="cls-3" d="M211.4,337.53c-1.21-.16-1.68-.86-1.44-2.04.83.43,1.25,1.16,1.44,2.04"/>
  <path class="cls-4" d="M62.88,292.42c1,.83.95,1.88.62,2.99-.98-.83-.73-1.92-.62-2.99"/>
  <path class="cls-12" d="M180.46,193.4c.31-.9,1-1.11,1.86-1-.38.78-1.08.98-1.86,1"/>
  <path class="cls-2" d="M255.97,289.9c-.26-.78-.17-1.47.52-2.01.14.75.14,1.46-.52,2.01"/>
  <path class="cls-9" d="M52.86,490.76c.36.18.72.35,1.08.53-.1.09-.17.26-.29.28-.48.07-.78-.18-.96-.62l.17-.19Z"/>
  <path class="cls-2" d="M60.91,232.79c1.2.43.47.74-.06,1.06-.07-.24-.17-.48-.19-.72,0-.11.16-.22.25-.34"/>
  <path class="cls-3" d="M55.2,376.41c.12-.06.22-.13.34-.19-.09.04-.17.08-.27.13,0,0-.07.05-.07.05"/>
  <path class="cls-12" d="M244.05,100.72c-.12-.52.11-.88.54-1.13.08.5-.04.91-.54,1.13"/>
  <path class="cls-2" d="M69.07,307.21c.58.12.93.47,1.01,1.06-.6-.11-.89-.5-1.01-1.06"/>
  <path class="cls-2" d="M67.66,305.29c.23.32.47.63.71.95-.49-.13-.76-.43-.71-.95"/>
  <path class="cls-11" d="M166.55,47.91c-.08.55-.38.95-.92,1.13.03-.6.3-1.01.92-1.13"/>
  <path class="cls-16" d="M103.3,117.2c.3.07.53.25.64.54-.38.02-.58-.17-.64-.54"/>
  <path class="cls-5" d="M226.93,434.13c0,3.42-.36,6.74-1.51,9.94-2.84,7.79-9.64,10.75-17.3,7.58-3.01-1.25-5.73-3.02-7.91-5.38-10.85-11.7-17.66-25.16-17.49-41.53.03-3.4.65-6.67,2.18-9.74,3.34-6.74,10.61-9.27,17.38-5.99,4.34,2.1,7.9,5.24,10.88,8.96,8.43,10.58,13.05,22.63,13.77,36.15M188.85,420.15c2.23,9.26,6.76,17.2,13.66,23.78,2.22,2.1,4.66,3.92,7.55,5.06,5.98,2.35,9.84.47,11.87-5.78.25-.54.58-1.05.72-1.61,1.88-7.4.48-14.58-1.86-21.57-3.76-11.26-9.73-21.06-20.33-27.18-5.24-3.01-9.9-1.3-11.92,3.2-.81,1.82-1.45,3.67-1.72,5.65-.85,6.32.03,12.45,2.01,18.46"/>
  <path class="cls-5" d="M80.84,436.99c1.46-17.04,7.82-31.88,19.92-44.16,3.3-3.34,7.43-5.34,11.75-6.92,3.41-1.25,8.08.99,10.49,4.86,2.9,4.65,3.26,9.86,2.73,15.06-1.51,14.52-7.04,27.43-16.15,38.82-.86,1.07-1.77,2.1-2.73,3.09-2.35,2.45-5,4.51-8.03,6.05-7.63,3.89-14.01,1.27-16.65-6.81-1.05-3.25-1.33-6.58-1.32-10.01M122.62,404.17c-.06-3.92-.68-7.5-1.82-9.89-1.35-2.85-3.34-4.34-6.76-4.45-3.78-.12-6.5,1.63-8.95,3.9-13.18,12.25-19.84,27.55-20.82,45.41-.14,2.76.33,5.49,1.46,8.05,1.9,4.3,5.21,5.74,9.66,4.41,2.86-.86,5.27-2.45,7.39-4.45,12.41-11.66,18.52-26.22,19.84-42.98"/>
  <path class="cls-14" d="M54.57,450c.2-2.1.98-4.09.98-6.28s-.63-4.19-.98-6.28c-.23-1.36-1-2-2.2-2.61-3.66-1.88-3.81-2.33-1.69-5.88,3.28-5.48,5.61-5.78,10.03-4.58,2.91.78,5.86,1.58,8.8,2.29,3.21.78,3.53,1.9,2.02,4.76-1.07,2.03-2.35,3.89-3.74,5.72-.99,1.29-1.86,2.31-3.59,2.39-.95.05-2.28.95-1.87,1.53,2.1,2.94-.42,6.68,2.34,9.71,3.75,4.15,6.49,9.17,10.36,13.28.31.33.62.66.92,1.02.52.63.81,1.4.36,2.1-.58.86-1.37.37-2.02,0-4.12-2.29-8.33-4.44-11.93-7.55-2.4-2.07-5.26-3.64-6.75-6.68-.47-.96-1.1-1.82-1.03-2.95"/>
  <path class="cls-14" d="M249.31,465.17c.59-2.65,2.68-4.36,4.19-6.4.91-1.25,1.58-2.6,2.35-3.91.71-1.23.69-2.25-.38-3.27-1.58-1.55-2.51-3.41-2.52-5.71-.02-2.03-1.4-3.18-2.84-4.43-2.44-2.11-2.35-4.33.21-6.03,1.9-1.26,4-2.33,6.14-3.07,2.51-.86,3.68.84,4.42,3.46,1.25,4.48.46,8.47-1.24,12.53-.21.54-.17,1.21-.13,1.8.62,7.4-2.93,12.61-10.21,15.03"/>
  <path class="cls-14" d="M249.31,465.17c-.07.13-.17.38-.2.37-.32-.07-.25-.21.2-.37"/>
  <path class="cls-1" d="M218.58,292.93c-1.41-2.51-3.12-2.46-5.28-1.85-1.77.51-3.47,1.92-5.99.91,4.18-3.43,8.63-5.52,13.34-7.22,1.76-.62,2.66.4,3.37,1.53.91,1.43,1.87,1.68,3.44,1.13,1.52-.54,2.96-1.45,4.81-.85,1.38.46,1.62-1.07,2.14-1.9,1.06-1.68,1.92-1.04,2.75.15,3.13,4.5,2.15,10.83-2.42,14.22-3.94,2.92-8.51,4.01-13.38,3.41-2.67-.33-6.19-3.7-6.74-6.23-.19-.83.04-1.52.84-1.9.95-.45,1.92-.86,3.12-1.4"/>
  <path class="cls-16" d="M157.6,281.49c1.62.11,4.9,2.99,5.22,4.66.18.92-.31,1.69-1.2,1.36-1.99-.72-4.03-1.48-5.4-3.29-.5-.66-.69-1.41-.25-2.11.34-.54,1.01-.63,1.63-.62"/>
  <path class="cls-5" d="M48.1,142.94c-.07-3.33,1.41-5.86,4.06-7.75,1.34-.95,2.87-1.14,4.3-.24,1.48.94,1.65,2.41,1.32,4.04-.5,2.46-1.58,4.59-3.3,6.41-1.19,1.26-2.49,2.47-4.35,1.77-1.88-.71-1.99-2.51-2.02-4.23"/>
  <path class="cls-1" d="M96.63,294.22c-1.49,2.31-2.85,4.5-5.48,5.62-1.86.8-1.86,1.55-.04,2.67,1.56.95,3.31,1.57,4.51,3.04.38.45.67.96,1.15,1.66-1.91,1.53-3.77.96-5.59.31-7.35-2.62-12.43-7.94-16.71-14.18-.55-.8-.8-1.77.14-2.41.68-.45,1.48-.12,2.09.43.69.6,1.34,1.23,2,1.86,3.59,3.47,4.16,3.56,8.7,1.37,3.18-1.54,4.94-1.63,9.23-.37"/>
  <path class="cls-16" d="M140.44,287.5c-.88.11-1.24-.47-1.3-1.31-.12-1.84,1.51-4.5,2.9-4.58,1.69-.09,2.41.98,2.5,2.51.12,1.83-1.63,3.27-4.09,3.38"/>
  <path class="cls-5" d="M261.53,144.87c-.04.34-.06.95-.19,1.54-.5,2.29-2.36,2.93-3.95,1.16-2.43-2.73-4.48-5.75-5.67-9.3-.61-1.81-.59-3.42,1.14-4.4,1.76-.98,3.26-.16,4.4,1.29,2.18,2.8,4.04,5.74,4.27,9.7"/>
  <path class="cls-15" d="M202.47,65.63c1.3-2.25,3.65-3.15,5.78-4.22,1.74-.87,3.31.03,3.26,1.86-.09,4.78,2.46,9.15,1.95,13.96-.25,2.46.92,3.91,3.18,4.91,4.29,1.9,8.6,3.82,12.11,7.1,1.06,1,1.09,1.67.19,2.61-3.58,3.71-16.13,4.99-20.28,2.11-1.77-1.22-2.18-3.75-4.39-4.51-.53-3.57-1.02-7.14-1.6-10.69-.28-1.7-.3-3.38.7-4.82,2.15-3.09,1.9-5.82-.92-8.31"/>
  <path class="cls-15" d="M171.75,58.92c.48,5.2-.49,10.27-1.75,15.22-.94,3.67-.92,6.39,2.85,8.49,1.93,1.08,3.46,2.98,4.94,4.71,2.47,2.89,5.56,4.16,9.27,3.95,2.94-.15,5.67.94,8.53,1.27.51.06,1.19.34,1.4,1.35-8.56.42-16.96.46-24.65-3.93-3.59-2.04-6.61-4.78-8.53-8.55,1.53-1.49.98-3.42.95-5.16-.04-2.8.36-5.24,2.43-7.44,1.85-1.97,2.95-4.52,3.13-7.33.06-1.12.31-2.08,1.45-2.58"/>
  <path class="cls-11" d="M171.75,58.92c-1.13.5-1.38,1.45-1.45,2.58-.18,2.81-1.28,5.36-3.13,7.33-2.07,2.2-2.47,4.64-2.43,7.44.04,1.74.59,3.67-.95,5.16-2.22-1.3-3.35-3.37-3.59-5.81-.33-3.41-.39-6.85-.55-10.27,2.61-3.52,5.07-7.15,7.08-11.06,1.05-2.05,2.12-4.06,4.62-4.67,1.67.45,3.3.75,2.14,3.27-.85,1.89-1.19,4.01-1.75,6.04"/>
  <path class="cls-11" d="M202.47,65.63c2.82,2.49,3.07,5.23.92,8.31-1.01,1.44-.98,3.11-.7,4.82.58,3.56,1.07,7.13,1.6,10.69-5.56-2.48-8.37-7.17-9.82-12.75-.46-1.73-.61-3.51-1.32-5.24-.91-2.18.26-4.4,2.6-4.83,2.21-.41,4.39-1.28,6.73-1.01"/>
  <path class="cls-10" d="M188.85,420.15c-1.98-6.01-2.85-12.14-2.01-18.46.27-1.98.91-3.84,1.72-5.65,2.02-4.5,6.68-6.22,11.92-3.2,10.6,6.13,16.56,15.93,20.33,27.18,2.34,6.99,3.74,14.17,1.86,21.57-.14.56-.47,1.08-.72,1.61-1.25-.12-2.38.26-3.57.59-1.62.46-3.29.41-4.92-.23-4.65-1.81-8.61-4.77-11.82-8.37-3.62-4.06-7.22-8.22-10.04-12.94-.67-1.11-1.34-2.03-2.74-2.11"/>
  <path class="cls-8" d="M188.85,420.15c1.4.07,2.07,1,2.74,2.11,2.82,4.72,6.42,8.88,10.04,12.94,3.21,3.59,7.17,6.56,11.82,8.37,1.63.64,3.3.7,4.92.23,1.19-.33,2.32-.71,3.57-.59-2.03,6.25-5.89,8.12-11.87,5.78-2.89-1.13-5.33-2.95-7.55-5.06-6.9-6.57-11.43-14.52-13.66-23.78"/>
  <path class="cls-10" d="M122.62,404.17c-1.31,16.76-7.43,31.32-19.84,42.98-2.12,2-4.53,3.59-7.39,4.45-4.45,1.34-7.76-.11-9.66-4.41-1.13-2.56-1.61-5.3-1.46-8.05.97-17.86,7.63-33.17,20.82-45.41,2.45-2.27,5.17-4.02,8.95-3.9,3.43.11,5.41,1.61,6.76,4.45,1.14,2.39,1.76,5.97,1.82,9.89"/>
</svg>