<?xml version="1.0" encoding="UTF-8"?>
<svg id="Layer_1" data-name="Layer 1" xmlns="http://www.w3.org/2000/svg" version="1.1" viewBox="0 0 56.72 58.01">
  <defs>
    <style>
      .cls-1 {
        fill: #e4dfb9;
      }

      .cls-1, .cls-2, .cls-3, .cls-4, .cls-5, .cls-6, .cls-7, .cls-8, .cls-9, .cls-10, .cls-11, .cls-12, .cls-13, .cls-14, .cls-15, .cls-16, .cls-17, .cls-18, .cls-19, .cls-20, .cls-21, .cls-22, .cls-23, .cls-24, .cls-25, .cls-26, .cls-27, .cls-28, .cls-29, .cls-30, .cls-31, .cls-32, .cls-33, .cls-34, .cls-35, .cls-36, .cls-37, .cls-38, .cls-39, .cls-40, .cls-41, .cls-42, .cls-43, .cls-44, .cls-45, .cls-46, .cls-47, .cls-48, .cls-49, .cls-50, .cls-51, .cls-52, .cls-53, .cls-54, .cls-55, .cls-56, .cls-57, .cls-58, .cls-59, .cls-60, .cls-61, .cls-62, .cls-63, .cls-64, .cls-65, .cls-66, .cls-67, .cls-68, .cls-69, .cls-70, .cls-71, .cls-72 {
        stroke-width: 0px;
      }

      .cls-2 {
        fill: #eddc13;
      }

      .cls-3 {
        fill: #f5ee83;
      }

      .cls-4 {
        fill: #f9f185;
      }

      .cls-5 {
        fill: #a29832;
      }

      .cls-6 {
        fill: #d4d2d3;
      }

      .cls-7 {
        fill: #fefcf9;
      }

      .cls-8 {
        fill: #ead817;
      }

      .cls-9 {
        fill: #e3d21b;
      }

      .cls-10 {
        fill: #ede369;
      }

      .cls-11 {
        fill: #eee57a;
      }

      .cls-12 {
        fill: #d3c129;
      }

      .cls-13 {
        fill: #e5e0ba;
      }

      .cls-14 {
        fill: #b3a42e;
      }

      .cls-15 {
        fill: #f9f187;
      }

      .cls-16 {
        fill: #f5ed83;
      }

      .cls-17 {
        fill: #ebd916;
      }

      .cls-18 {
        fill: #f5ed80;
      }

      .cls-19 {
        fill: #efdc17;
      }

      .cls-20 {
        fill: #f9f181;
      }

      .cls-21 {
        fill: #eae27e;
      }

      .cls-22 {
        fill: #f7ed59;
      }

      .cls-23 {
        fill: #fefad0;
      }

      .cls-24 {
        fill: #fef7bd;
      }

      .cls-25 {
        fill: #f4ec82;
      }

      .cls-26 {
        fill: #e1dcb8;
      }

      .cls-27 {
        fill: #b1a734;
      }

      .cls-28 {
        fill: #796e2c;
      }

      .cls-29 {
        fill: #f9eb2f;
      }

      .cls-30 {
        fill: #464220;
      }

      .cls-31 {
        fill: #f8ec3e;
      }

      .cls-32 {
        fill: #f9ef66;
      }

      .cls-33 {
        fill: #f9f072;
      }

      .cls-34 {
        fill: #e7e1bb;
      }

      .cls-35 {
        fill: #8b8836;
      }

      .cls-36 {
        fill: #f9f07a;
      }

      .cls-37 {
        fill: #ecdc13;
      }

      .cls-38 {
        fill: #f9ed4e;
      }

      .cls-39 {
        fill: #e6e0bb;
      }

      .cls-40 {
        fill: #f8f087;
      }

      .cls-41 {
        fill: #f9ee60;
      }

      .cls-42 {
        fill: #eddc12;
      }

      .cls-43 {
        fill: #e3d321;
      }

      .cls-44 {
        fill: #f9ef69;
      }

      .cls-45 {
        fill: #e0d654;
      }

      .cls-46 {
        fill: #e6e1bb;
      }

      .cls-47 {
        fill: #f8ee56;
      }

      .cls-48 {
        fill: #eedc12;
      }

      .cls-49 {
        fill: #ebda15;
      }

      .cls-50 {
        fill: #fdea04;
      }

      .cls-51 {
        fill: #231f20;
      }

      .cls-52 {
        fill: #fcfae7;
      }

      .cls-53 {
        fill: #e8d717;
      }

      .cls-54 {
        fill: #f8f086;
      }

      .cls-55 {
        fill: #8e8532;
      }

      .cls-56 {
        fill: #fff;
      }

      .cls-57 {
        fill: #5d5d52;
      }

      .cls-58 {
        fill: #f9f184;
      }

      .cls-59 {
        fill: #ecda15;
      }

      .cls-60 {
        fill: #f9f07b;
      }

      .cls-61 {
        fill: #f9ee5b;
      }

      .cls-62 {
        fill: #efe77a;
      }

      .cls-63 {
        fill: #f8ef6f;
      }

      .cls-64 {
        fill: #fffcfb;
      }

      .cls-65 {
        fill: #f8f184;
      }

      .cls-66 {
        fill: #e8d71b;
      }

      .cls-67 {
        fill: #fdfce8;
      }

      .cls-68 {
        fill: #f9ef6c;
      }

      .cls-69 {
        fill: #a09e87;
      }

      .cls-70 {
        fill: #615727;
      }

      .cls-71 {
        fill: #e5dfba;
      }

      .cls-72 {
        fill: #cdbf3a;
      }
    </style>
  </defs>
  <path class="cls-56" d="M56.37,50.48c-.24-.4-.59-.71-1.06-.92-.26-.12-.52-.24-.78-.35-.25-.11-.51-.23-.76-.34-.2-.09-.4-.18-.59-.26-.52-.23-1.02-.44-1.4-.74-.21-.17-.42-.32-.63-.47l-.12-.09c-.5-.37-.95-.7-1.28-1.1-.03-.04-.07-.08-.1-.12-.27-.33-.6-.73-1.04-1.06-.07-.18-.16-.38-.27-.59.03-.05.05-.09.07-.13.43-.78.69-1.67.82-2.71.12-1,.29-1.68.58-2.27.11-.23.17-.44.21-.6v-.03c.04-.11.07-.23.1-.34.16-.6.32-1.23.43-1.88.12-.69.05-1.32-.21-1.94-.13-.31-.32-.72-.62-1.1-.54-.69-1.01-1.23-1.49-1.71-.92-.91-1.8-1.82-2.45-2.84-.07-.11-.14-.22-.21-.33-.24-.37-.46-.72-.63-1.07-.12-.27-.23-.55-.34-.86-.12-.32-.24-.65-.39-.98-.07-.15-.11-.3-.12-.41-.09-.83-.09-1.42-.02-1.97.11-.8.02-1.61-.29-2.57-.18-.56-.61-.97-1.18-1.12-.38-.1-.76-.07-1.1.06-.03-.12-.07-.24-.1-.35.35-.29.67-.6.96-.96,1.64-2,2.02-4.32,1.08-6.71-.57-1.47-1.57-2.67-2.95-3.58-1.95-1.27-3.97-1.69-5.99-1.25-.66.15-1.28.35-1.85.62.03-.02.06-.04.09-.07.3-.22.61-.43.91-.65.12-.08.23-.16.35-.24.19-.1.49-.26.75-.54.78-.65,1-1.76.51-2.7-.22-.43-.49-.91-.89-1.35-.08-.14-.18-.28-.3-.39-.02-.02-.03-.04-.04-.06-.2-.27-.48-.66-.97-.93-.13-.1-.28-.18-.43-.23-.27-.13-.68-.29-1.16-.21-.55.09-.91.45-1.12.66-.84.77-1.65,1.63-2.55,2.72-.08.1-.16.2-.24.3.02-.1.03-.21.05-.31.12-.73-.24-1.37-.93-1.65-.99-.4-1.8.07-2.18.3-.72.42-1.49.89-2.36,1.44-.7.44-1.21.89-1.62,1.41-.64.83-.52,1.59-.3,2.09l.08.18c.18.41.38.88.68,1.33.14.21.29.44.42.67,0,0,0,0,0,0-1.33-.7-2.74-.92-4.22-.67-1,.17-1.91.54-2.7,1.11-.75.54-1.4,1.25-1.93,2.11-.7,1.15-.9,2.37-.99,3.19-.09.86-.04,1.68.17,2.46-.08.04-.15.09-.23.14-.15.1-.61.42-.69,1.04,0,.03,0,.07-.01.1-.02,0-.03,0-.05.01-.6.13-.9.48-1.04.75-.12.22-.28.68-.05,1.26,0,0,0,0,0,0-.56.34-1.17.63-1.85.93-.07.03-.15.07-.24.1-.2.08-.43.17-.67.31-.72.41-1.43.7-2.18.91-.77.21-1.39.61-1.94.96-.05.04-.11.07-.17.11-.97.62-1.54,1.51-1.69,2.66-.19,1.43.49,2.28,1.09,2.73.72.54,1.55.59,2.28.14.24-.15.5-.3.77-.45l.11-.06c.41-.24.78-.35,1.14-.35h.02c.14,0,.29,0,.44.01.25,0,.5.02.77.01.09,0,.19,0,.28.02-.04.07-.08.14-.12.21-.05.09-.11.19-.17.29-.19.31-.4.67-.56,1.09-.55,1.02-.9,2.18-1.05,3.44-.08.63-.07,1.29.03,1.96,0,.05,0,.11.01.16.01.08.03.15.05.23.01.08.03.15.04.22.03.15.07.29.1.42.09.36.16.67.15.93,0,0,0,.02,0,.03-.84-.4-1.65-.2-1.96-.12-.26.07-.47.19-.61.31-.42-.16-.85-.2-1.26-.11-.65.15-1.19.62-1.53,1.32h0c-.03.07-.1.2-.15.38-.34.77-.55,1.52-.64,2.3-.18,1.59-.2,2.99-.04,4.29.1.85.28,1.62.55,2.35.15.51.37,1,.66,1.45,0,0,0,0,0,0l.13.19c.08.12.16.24.23.36.13.22.27.45.4.67.23.39.47.78.72,1.18.12.19.23.39.35.61.18.32.37.65.6.99.42.61.91,1.06,1.51,1.39.36.2.71.27.95.31.03,0,.07.01.1.02,1.31.27,2.42.11,3.4-.51.03-.02.05-.03.07-.05.66.44,1.36.75,2.1.92,1.17.27,2.4.29,3.64.06,1.4-.26,2.44-.56,3.39-.99.88-.39,1.88-.56,3.05-.51.04,0,.11,0,.18.02.17.02.4.04.66.03.17.14.34.28.53.41,1.03.76,2.22,1.27,3.54,1.53.8.15,1.66.2,2.69.14.4-.02.82-.01,1.25,0,.54.01,1.1.02,1.68-.03.13.36.35.66.65.88.3.28.76.55,1.44.55.07,0,.15,0,.22,0,.07,0,.14-.01.21-.02.3-.02.62-.05.95-.1,1.38-.21,2.46-.78,3.23-1.69.11,0,.23-.03.36-.06h.3c.39,0,.77,0,1.15,0,.41,0,.96-.03,1.53-.32.08-.04.17-.07.25-.08.93-.13,1.65-.58,2.29-1.05.27-.2.5-.42.71-.65.15.02.3.04.44.06.14.02.27.04.4.06.11.02.22.03.33.05.66.1,1.34.21,2.09.17.23-.01.47-.02.7-.03.55-.02,1.13-.05,1.7-.1.15-.01.3-.02.44-.04.83-.07,1.68-.13,2.56-.37l.09-.02c.31-.08.69-.19,1.08-.41.68-.39.94-.92,1.03-1.29.1-.38.12-.97-.3-1.67"/>
  <path class="cls-51" d="M9.71,53.29c-.23.22-.4.49-.68.67-.77.48-1.6.52-2.45.34-.23-.05-.47-.08-.7-.2-.44-.24-.78-.57-1.07-.99-.34-.5-.6-1.04-.92-1.55-.38-.6-.74-1.22-1.11-1.83-.12-.2-.25-.39-.38-.58.31.08.62.07.93.04.26.22.4.52.57.81.55.98,1.16,1.94,1.74,2.91.35.59.82,1.02,1.54,1.15.8.13,1.39-.15,1.87-.76.41-.52.64-1.13.86-1.74.15-.4.29-.81.5-1.19.82-1.49,1.16-3.12,1.42-4.78,0-.06.02-.12,0-.18-.2-1.32-.13-2.68-.66-3.95-.23-.54-.55-1.01-.88-1.49-.11-.15-.23-.11-.35-.02-.17.12-.29.29-.47.4-.19.06-.27.21-.32.39-.02.03-.05.05-.08.07-.19.07-.24-.04-.27-.19-.03-.21-.02-.42-.07-.62-.02-.09,0-.21-.08-.28-.39-.37-.48-.9-.71-1.36-.16-.31-.23-.65-.3-.98-.12-.57-.16-1.16-.4-1.7-.02-.04-.02,0,0-.03.2-.79-.2-1.61.12-2.39.28-.69.36-1.45.7-2.12.05-.1.07-.21.08-.32.16-.46.43-.85.67-1.27.16-.28.32-.55.5-.82.16-.23.24-.48.33-.75-.7-.3-1.37-.6-2.15-.58-.39,0-.78-.02-1.18-.03-.66,0-1.25.2-1.82.52-.31.18-.62.35-.92.54-.29.18-.55.13-.81-.07-.52-.39-.67-.91-.59-1.53.1-.76.46-1.33,1.11-1.74.56-.36,1.11-.74,1.76-.92.87-.24,1.69-.59,2.47-1.03.26-.15.54-.24.81-.36.91-.41,1.81-.83,2.61-1.43.24-.18.23-.19.13-.47-.08-.23-.14-.47-.23-.7-.07-.19,0-.24.17-.28.52-.11,1.03-.08,1.52.1.12.05.24.12.41.12-.02-.21-.13-.35-.22-.5-.15-.27-.35-.5-.55-.74-.15-.17-.15-.21.04-.34.25-.17.53-.26.83-.27.13,0,.26,0,.42,0-.1-.22-.2-.42-.29-.62-.36-.84-.46-1.72-.36-2.63.1-.93.31-1.84.81-2.66.87-1.42,2.1-2.35,3.74-2.62,1.24-.21,2.45,0,3.56.62.04.06.1.05.15.08h0c.07.06.14.11.23.14h0c.03.06.1.04.15.08.3.29.61.29.94.04.07-.05.15-.07.23-.11.31-.17.61-.37,1.03-.34-.16-.31-.4-.49-.51-.76.35,0,.47.3.64.52.12.16.23.26.44.27.49.02.52.09.36.59-.09.07-.13,0-.18-.06-.24-.24-.51-.11-.75-.05-.84.22-1.52.71-2.15,1.29-.16.15-.33.29-.5.43-1.12,1.15-2.26,2.27-3.29,3.51-.29.35-.49.76-.69,1.16,0,.02-.04.02-.02.05.01-.02.02-.03.04-.05.58-.74,1.14-1.51,1.74-2.22.39-.46.93-.61,1.53-.47.44.17.8.48,1.21.71.64.36,1.29.66,2.02.87,1.28.37,2.59.57,3.89.84.1.02.2.03.29.03.81.02,1.37.43,1.74,1.11.21.39.41.77.39,1.25-.03.83-.38,1.36-1.17,1.64-.07.02-.13.03-.2.05-.03.01-.06.02-.09.03-.07.02-.13.05-.2.05-.03,0-.05-.02-.07-.03,0,0,0-.04,0-.04,0,0-.02.03-.02.03.03,0,.04.03.03.06,0,.01-.02.02-.02.03-.02.02-.05.03-.08.05-.1.04-.19.09-.19.22,0,.45-.03.9-.06,1.35-.05.74-.36,1.31-.95,1.73-.6.46-1.24.81-2.03.69-.85-.12-1.71-.21-2.56-.31-.68-.08-1.37-.11-2.05-.19-.17-.02-.34,0-.51.04-.99.25-1.95.59-2.84,1.11-.22.13-.38.29-.5.52-.18.36-.49.64-.66,1.02-.14.32-.24.64-.23.99,0,.47-.03.93-.2,1.38-.04.12-.07.24.04.34.23.21.49.35.74.52.2.15.36.32.37.59-.04.08-.11.08-.19.08-.04,0-.07-.01-.1-.03-.45-.21-.86-.46-1.16-.94-.04.26-.18.46-.31.65-.02.03-.04.06-.06.09-.04.06-.08.12-.11.19-.56.95-1.21,1.85-1.7,2.85-.33.68-.51,1.41-.74,2.12-.06.19-.05.39-.04.57.11.05.16-.02.21-.07.72-.68,1.6-.98,2.56-1.1,1.66-.22,3.33-.2,4.99.01.16.02.35.01.41.23-.29.23-.62.07-.93.12-1.31.01-2.62.03-3.93.23-.81.13-1.57.38-2.22.91-.26.21-.57.33-.87.48-.46.25-.86.58-1.22.96-.02.03-.04.05-.07.07-.01.01-.02.03-.03.04-.05.07-.09.15-.15.21-.24.24-.16.42.11.55.65.95,1.26,1.91,1.49,3.06.06.31.11.63.14.95.28,2.4-.21,4.67-1.3,6.81-.42.82-.64,1.73-1.08,2.54-.09.17-.17.36-.32.49-.02,0-.04.02-.05.02"/>
  <path class="cls-51" d="M24.48,10.76c0,.06.02.12.08.15.36-.19.71-.37,1.12-.43.27-.04.48-.26.73-.38.37-.18.71-.32,1.17-.24-.19-.18-.19-.35-.02-.43.35-.15.61-.4.92-.6.1-.06.2-.1.3,0-.24.29-.58.48-.82.77.02.05.04.07.08.08.9.04,1.77.27,2.62.55.19.06.3.05.44-.11.98-1.13,2.23-1.78,3.68-2.1,1.83-.4,3.48.07,5.01,1.07,1.12.73,1.97,1.71,2.45,2.96.77,1.97.46,3.79-.88,5.42-.72.88-1.66,1.45-2.72,1.84-.13.05-.26.09-.38.14-.02,0-.04.03-.07.05.19.2.26.47.41.7.15-.07.17-.23.25-.35.22-.33.54-.49.92-.53.18-.02.3.04.36.23.09.29.18.58.23.89.08.58.2,1.16.34,1.73.04.15.1.27.24.39.22-.34.46-.65.57-1.04.04-.13.08-.26.12-.38.09-.26.37-.41.63-.34.14.04.23.13.28.27.21.65.33,1.32.24,1.99-.11.76-.07,1.52.01,2.28.03.28.12.56.23.81.27.61.46,1.24.74,1.85.25.55.6,1.04.92,1.55.73,1.15,1.67,2.12,2.63,3.07.5.49.95,1.03,1.38,1.58.19.24.33.52.45.8.17.39.21.79.13,1.22-.12.72-.31,1.41-.49,2.11-.03.13-.06.26-.12.38-.42.85-.6,1.76-.71,2.69-.09.78-.29,1.54-.67,2.24-.09.17-.2.35-.35.47-.18.13-.15.27-.04.4.33.39.48.88.68,1.34.05.14.32.17.17.4-.19.3-.29.31-.56,0-.02-.03-.03-.06-.04-.09-.03-.1-.05-.19-.12-.27-.2-.38-.25-.82-.53-1.17-.08-.1-.14-.2-.28-.22-.7-.11-1.28-.48-1.84-.89-.5-.37-1.05-.69-1.49-1.14-.11-.11-.21-.24-.29-.38-.05.06.03.1.02.15.08.23.08.46.14.69.08,1.18.04,2.35-.24,3.51-.43,1.82-1.18,3.51-1.97,5.19-.45.96-1.02,1.85-1.61,2.72-.15.21-.25.45-.47.6-.63.99-1.59,1.45-2.72,1.62-.35.05-.71.07-1.06.1-.27.02-.54-.02-.73-.25.27-.17.52,0,.78,0-.04-.12-.33-.09-.25-.33.41-.04.83-.05,1.24.02.47.07.86-.06,1.24-.3.08-.07.18-.12.26-.19.26-.21.49-.46.65-.75.03-.06.07-.12.1-.18.02-.03.04-.06.06-.09.54-.87,1.15-1.68,1.64-2.58.67-1.26,1.25-2.56,1.71-3.91.73-2.17.94-4.36.29-6.59-.08-.29-.22-.54-.4-.79-.19-.26-.3-.27-.52-.03-.4.44-.75.91-1.01,1.44-.4.8-.76,1.62-1.03,2.48-.03.09-.02.21-.16.21-.18-.21-.06-.5-.19-.74-.1.35-.13.69-.06,1.05.16-.04-.01-.42.3-.25.1.65-.04,1.29-.07,1.93-.02.25,0,.52-.12.76-.15.25-.24.08-.29-.06-.08-.23-.1-.48-.12-.72-.1-.85-.07-1.72-.21-2.57-.13-.79-.36-1.56-.61-2.31-.17-.51-.46-.95-.87-1.3-.27-.23-.38-.23-.54.07-.26.5-.59.97-.77,1.51-.51,1.29-.95,2.6-1,4.01,0,.09-.02.17-.07.25-.24.15-.39.05-.43-.18-.22-1.22-1.06-2.08-1.75-3.02-.21-.29-.52-.48-.81-.69-.24-.17-.35-.08-.42.15-.2.6-.35,1.21-.4,1.83-.07.71-.06,1.42.02,2.13.04.38.05.76.15,1.13.03.11.02.22-.03.32-.16.22-.4.19-.62.2-.29-.46-.25-.99-.32-1.49-.18-1.24-.04-2.47.21-3.69.15-.73.59-1.16,1.32-1.31.32-.06.6,0,.89.14,1.08.53,1.42,1.57,1.8,2.5.28-1.31.78-2.63,1.5-3.86.57-.97,1.72-1.01,2.47-.06.22.27.37.58.49.91.23.64.41,1.29.45,1.96,0,.04-.01.08,0,.13.02-.03,0-.06,0-.09.11-.57.36-1.1.63-1.6.22-.41.49-.79.77-1.17.36-.47.84-.7,1.37-.65-.58-.66-1.15-1.4-1.54-2.26-.25-.56-.61-1.06-.88-1.61-.17-.35-.34-.7-.46-1.08-.35-1.11-.68-2.23-.86-3.39-.17-1.02-.56-1.98-1.02-2.91-.41-.84-.88-1.65-1.22-2.52-.36-.92-1.02-1.58-1.73-2.21-.28-.25-.58-.49-.93-.66-.21-.1-.36-.29-.5-.48-.24-.34-.11-.65.3-.74.12-.03.24-.02.37-.02.58,0,1.15-.02,1.73.02.21.02.24-.07.15-.23-.15-.28-.31-.56-.49-.82-.22-.31-.15-.56.2-.71.32-.14.65-.23,1-.18.96.14,1.94.19,2.8.69.08.05.14.03.17-.06.03-.12.05-.24-.04-.35-.17-.21-.31-.44-.45-.67-.08-.14-.18-.19-.33-.16-3.26.5-6.23-1.24-7.56-4.01-.61-1.76-.42-3.42.57-5,.04-.2-.13-.18-.23-.2-.55-.13-1.1-.27-1.66-.35-.8-.11-1.53.14-2.24.48-.1.05-.2.1-.3.14-.41.14-.78.36-1.16.55-.17.08-.34.15-.52.06-.24-.14-.31-.32-.11-.55.06-.05.12-.09.2-.07"/>
  <path class="cls-51" d="M28.77,8.85c-.12-.02-.21.02-.3.1-.16.13-.33.25-.5.37-.09.07-.15.17-.31.15-.12-.02-.16.11-.17.23.09.09.19-.07.28.03-.06.26-.27.25-.46.22-.32-.05-.59.04-.83.25-.03.02-.06.07-.08.07-.27-.07-.4.11-.52.3-.02.03-.09.05-.13.05-.32-.05-.58.09-.84.24-.11.06-.23.07-.36.07v-.49c-.15-.06-.32-.02-.48-.02-.13,0-.21-.04-.28-.17-.15-.29-.36-.54-.65-.71-.15-.1-.23-.25-.3-.41-.23-.47-.5-.9-.79-1.33-.27-.41-.46-.87-.65-1.32-.14-.31-.04-.54.14-.78.35-.46.8-.8,1.28-1.1.77-.48,1.55-.96,2.33-1.42.32-.18.64-.38,1.04-.21.13.05.16.11.14.24-.19,1.16-.38,2.33-.55,3.49-.09.57-.12,1.14-.1,1.81.15-.22.26-.38.36-.54.29-.47.61-.92.96-1.35.62-.78,1.17-1.61,1.8-2.38.77-.92,1.58-1.81,2.46-2.62.28-.22.61-.14.92-.15h0c.01.09.09.07.14.08h0c.29.25.54.54.82.81h0c.03.08.05.18.15.22h0c.22.43.55.8.72,1.26.14.4.17.78-.13,1.13h0c-.18.11-.37.21-.52.37-.45.32-.91.63-1.35.95-1.05.75-2.05,1.57-3.01,2.42-.06.06-.14.1-.2.15"/>
  <path class="cls-2" d="M42.62,42c.26.36.57.66.94.91.43.29.84.6,1.25.9.33.24.7.4,1.08.55.07.02.15.06.21.05.25-.06.35.08.48.26.27.38.36.83.54,1.24.11.08.02.21.08.3h0c.23.69.15,1.39.08,2.1-.03.32-.15.62-.25.92-.09.32-.29.58-.39.9-.03.06-.06.12-.08.19-.01.03-.03.06-.04.09-.07.18-.15.36-.24.54-.01.03-.03.06-.05.08-.02.02-.04.05-.06.07,0,.01-.02.02-.03.03-.04.05-.07.09-.1.14-.01.02-.03.05-.05.07-.04.05-.07.1-.1.15-.02.03-.03.05-.05.08-.05.07-.09.14-.13.2-.02.03-.04.06-.06.08-.36.37-.69.77-1,1.18-.61.77-1.41,1.16-2.33,1.45-.87.27-1.72.32-2.61.24-.2-.02-.39.06-.59.04.1,0,.2-.02.27.09-.28.12-.6.03-.88.14.08-.23.23-.41.38-.59.41-.07.83.02,1.25-.02.58-.06,1.15-.12,1.65-.46.39-.27.84-.45,1.21-.77.73-.63,1.01-1.53,1.43-2.34.14-.28.26-.58.41-.87.53-.99.69-2.06.64-3.17-.02-.44.03-.88.03-1.33,0-.22-.07-.39-.28-.46-1.04-.37-1.69-1.18-2.33-2.01-.07-.09-.12-.04-.18,0-.09-.24-.1-.5-.14-.76-.02-.08-.1-.18.06-.22"/>
  <path class="cls-51" d="M33.41,55.57c-.24-.23-.52-.32-.86-.29-1.02.1-2.04-.01-3.05.04-.8.05-1.59.03-2.38-.12-1.1-.21-2.11-.63-3.01-1.3-.27-.2-.52-.41-.78-.62-.28-.11-.45-.35-.66-.55-.16-.15-.29-.32-.42-.49-.02-.02-.05-.05-.07-.07-.03-.02-.05-.05-.07-.07-.36-.41-.67-.86-.97-1.32-.07-.1-.14-.2-.09-.34.03-.05.07-.08.14-.07.44.32.73.79,1.08,1.2,1.35,1.58,3.05,2.56,5.06,3.02,1.38.31,2.77.28,4.17.28.29,0,.59.02.9-.01,0-.15-.12-.24-.17-.36-.02-.03-.04-.06-.05-.1-.03-.07-.07-.13-.1-.19-.53-.95-1.05-1.91-1.51-2.9-.24-.53-.4-1.1-.57-1.67-.04-.12-.07-.24,0-.36.15-.1.37-.1.46-.3.2,0,.16.18.2.29.27.74.39,1.53.8,2.21.54.91,1.05,1.83,1.59,2.74.13.22.29.43.5.59.11.08.2.18.18.34-.23.04-.24.24-.31.4"/>
  <path class="cls-51" d="M8.16,30.82c.1.19,0,.37-.08.52-.17.35-.2.73-.33,1.08-.09.26-.12.53-.28.78-.14.22-.19.53-.16.84.03.35.13.69.12,1.05,0,.07.02.17-.02.22-.19.21-.1.39,0,.59.17.33.12.72.23,1.07.15.5.18,1.02.49,1.47.09.13.22.3.12.51-.04.09,0,.17.1.24.37.28.57.64.48,1.13-.03.13.06.23.07.36.02.17.14.07.22.06.06.09.02.16-.02.24-.39.69-.82,1.36-1.04,2.14-.02.09-.09.14-.18.17-.3.04-.4-.11-.37-.39.02-.14.02-.27-.04-.4-.41-.82-.72-1.69-1.26-2.45-.18-.26-.36-.52-.6-.74-.33-.29-.38-.28-.65.08-.65,1.03-.92,2.15-.74,3.36.02.13.05.28-.1.36-.13.07-.26.02-.38-.05-.07-.04-.14-.1-.19-.17-.33-.71-.28-1.44-.08-2.15.13-.46.08-.85-.21-1.21-.12-.15-.27-.28-.45-.06-.05.08-.09.16-.14.23-.05.07-.09.16-.2.14-.07-.07-.11-.24-.24-.05-.05.07-.13.11-.21.03,0-.08.04-.14.07-.21.34-.72.92-.84,1.54-.35.14.11.23.25.36.38.14-.22.23-.46.4-.66.07-.08.13-.18.25-.21.49-.12.96-.14,1.38.22.67.57,1.15,1.26,1.56,2.03.09.17.17.36.2.55.02.12.04.23.12.36.27-.49.52-.97.81-1.42.05-.08.05-.16.03-.25-.04-.04-.02-.12-.09-.15h0c-.09-.26-.13-.55-.36-.74h0s-.02-.11-.08-.15c-.24-.35-.46-.72-.56-1.14-.03-.13-.09-.26-.08-.39.04-.59-.15-1.14-.27-1.7-.15-.71-.2-1.43-.12-2.14.13-1.07.42-2.11.95-3.06"/>
  <path class="cls-51" d="M22.97,53.2c-.31.1-.63.01-.94,0-1.26-.05-2.47.11-3.63.62-.99.44-2.05.7-3.11.89-1.03.19-2.09.19-3.11-.05-.94-.22-1.76-.71-2.47-1.38h0c.15-.14.32-.09.49-.04.25.08.48.19.7.33.86.53,1.81.6,2.78.58.5-.01,1.01-.05,1.51-.12.04-.01.08-.02.11-.03.09-.01.19-.03.28-.06.94-.2,1.88-.42,2.77-.8.07-.03.15-.05.21-.08.04-.02.07-.04.11-.05,1.29-.4,2.59-.62,3.94-.32.16.07.26.22.38.33.06.05.09.12-.01.17"/>
  <path class="cls-51" d="M2.03,39.84c.16,0,.18-.13.24-.23.03-.04.05-.09.11-.08.07,0,.09.07.1.13.01.07.01.14.02.21.08.18,0,.34-.06.5-.55,1.67-.52,3.38-.28,5.1.05.36.14.72.17,1.09.01.04.02.08.03.11.14.5.29.99.46,1.48-.15.13-.26-.01-.38-.06-.18-.07-.35-.16-.55-.1-.26-.68-.41-1.38-.5-2.09-.16-1.33-.11-2.66.04-3.99.08-.73.29-1.4.6-2.06"/>
  <path class="cls-51" d="M46.92,49.3c0-.3.17-.55.22-.84.13-.68.11-1.35.06-2.03,0-.07-.01-.14-.02-.22.07.02.09.08.13.12.05.07.16.15.21.1.08-.08.16-.18.21-.28.04-.09-.15-.15-.15-.27.5.27.83.71,1.18,1.14.43.53.97.93,1.52,1.33.24.17.48.34.7.52.68.54,1.48.81,2.24,1.16.51.24,1.02.46,1.53.7.2.09.38.22.49.42.03.12-.06.12-.13.13-1.05-.5-2.18-.8-3.22-1.33-.69-.35-1.31-.79-1.88-1.33-.45-.43-.97-.78-1.39-1.26-.2-.23-.37-.49-.62-.67-.08-.05-.18-.14-.19.05.04.8,0,1.58-.34,2.32-.03.08-.05.16-.12.23-.15.07-.3.06-.46.01"/>
  <path class="cls-51" d="M55.12,51.21c.06,0,.11-.01.14-.07.3.49.21.89-.27,1.17-.27.15-.57.22-.86.3-.91.25-1.84.29-2.77.37-.79.07-1.57.08-2.36.12-.72.04-1.44-.11-2.16-.21-.33-.05-.66-.09-.98-.14-.18-.03-.37-.02-.53-.13-.08-.16.01-.23.16-.26.61,0,1.2.13,1.79.22,1.5.24,2.99.1,4.48-.03.75-.06,1.49-.14,2.22-.35.41-.12.82-.25,1.14-.58.17-.13-.02-.28.03-.41"/>
  <path class="cls-51" d="M45.46,52.4c-.1.04-.13.12-.15.22-.31.37-.6.75-.99,1.03-.51.37-1.05.72-1.71.81-.23.03-.46.1-.66.21-.3.15-.61.18-.93.18-.55,0-1.1,0-1.65,0-.18-.04-.37.04-.55-.03-.01-.11.07-.12.14-.12.34-.02.68-.07,1.03-.04.43.04.86.02,1.29.03.09,0,.16-.04.24-.07.41-.17.84-.27,1.27-.37.2-.04.36-.15.53-.24.8-.41,1.29-1.15,1.86-1.8.15-.17.3-.33.44-.49.1.04.22.03.32.09-.06.28-.19.51-.49.59"/>
  <path class="cls-51" d="M1.88,47.99c.02-.08.03-.16.16-.13.27.06.51.19.74.33.32.27.52.6.51,1.03-.31.14-.61.22-.9-.06-.23-.36-.41-.75-.52-1.16"/>
  <path class="cls-51" d="M33.41,55.57c-.04-.16-.04-.32.04-.47.11-.01.15.13.26.1.02,0,.03,0,.05.01.12.08.22.19.36.24.2.19.41.37.41.69.01.1.07.15.16.17.1.02.18.06.21.19-.31.12-.61-.05-.91-.04-.15-.08-.24-.22-.28-.37-.05-.21-.19-.36-.3-.53"/>
  <path class="cls-51" d="M33.86,4.95c.15-.39.19-.77.01-1.18-.15-.37-.43-.66-.56-1.04-.02-.06-.05-.11-.04-.17.36.35.61.79.84,1.23.23.44.1.92-.25,1.16"/>
  <path class="cls-72" d="M22.97,53.2c-.05-.2-.23-.29-.36-.42,0-.05.04-.09.1-.1.22.18.43.38.62.6-.13.03-.25-.03-.36-.09"/>
  <path class="cls-51" d="M8.31,39.41c.4.12.31.47.36.75-.13-.24-.27-.49-.36-.75"/>
  <path class="cls-51" d="M33.34,5.32c.1-.22.29-.33.52-.38-.14.18-.33.28-.52.38"/>
  <path class="cls-51" d="M21.32,10.61c-.12.02-.19-.03-.23-.14.1.01.17.06.23.14"/>
  <path class="cls-51" d="M21.09,10.47c-.07,0-.12,0-.15-.08.06,0,.12.01.15.08"/>
  <path class="cls-51" d="M8.23,39.26c.07.03.08.08.08.15-.07-.03-.08-.09-.08-.15"/>
  <path class="cls-51" d="M21.46,10.69c-.07,0-.12-.01-.15-.09.06,0,.12.02.15.09"/>
  <path class="cls-51" d="M8.67,40.15c.08.02.09.08.08.15-.06-.03-.08-.08-.08-.15"/>
  <path class="cls-50" d="M29.99,49.3c.35,1.24.8,2.44,1.47,3.56.27.44.47.91.7,1.37.04.04.02.12.08.15h0c-.03.2-.18.14-.31.14-.37-.01-.72-.16-1.09-.19-2.58-.17-4.95-1.05-7.16-2.33-1.18-.68-2.11-1.68-2.73-2.93-.05-.09-.06-.25-.2-.21-.14.04-.14.19-.14.31.01.28.24.49.24.77,0,.03.01.07.02.1.02.05.04.09.06.13.07.09.12.2.14.31.31.58.74,1.08,1.12,1.61.02.02.04.05.07.08h0c-.05.19-.06.19-.24.16-.24-.04-.48-.11-.72-.15-.84-.15-1.66,0-2.42.3-1.24.5-2.53.87-3.79,1.33-.09.03-.19.06-.29.07-1.49.14-2.91-.08-4.26-.73-.4-.19-.42-.28-.25-.69.2-.48.43-.93.73-1.36.57-.84,1-1.75,1.37-2.69.37-.95.83-1.86,1.06-2.87.11-.48.21-.96.11-1.46-.05-.3-.02-.61-.03-.92-.04-1.01-.38-1.87-1.27-2.44-.47-.3-.85-.71-1.24-1.1-.09-.09-.16-.19-.29-.22-.11-.05-.21-.11-.34-.17.13-.24.24-.48.45-.64q.48.39,1.02.03c.21-.14.43-.28.65-.41.13-.08.21-.2.26-.34.05-.09.14-.14.22-.2.03-.02.06-.03.09-.04.11-.03.22-.06.31-.14.03-.02.06-.04.09-.06.6-.42,1.23-.75,1.96-.89.67-.13,1.32-.35,1.89-.34-.24.04-.62.02-1,.07-.97.13-1.83.52-2.67,1.01-.13.07-.26.13-.39.21-.03.02-.07.04-.1.05-.26.05-.51.17-.78.14-.11-.03-.23-.04-.31-.15.66-.3,1.19-.82,1.85-1.1.88-.36,1.82-.47,2.76-.52.82-.04,1.64-.04,2.46-.06.4.06.8.02,1.2,0,.12.06.26.05.38.09.08.02.16.05.22.05-.02,0-.07-.01-.12-.03-.1-.03-.2-.05-.3-.06-.13-.07-.29-.04-.41-.14-.47-.14-.97-.18-1.46-.2-1.16-.05-2.33-.09-3.5.04-.41.05-.83.12-1.23.23-.57.14-1.08.39-1.53.78-.18.16-.35.34-.61.4.08-1.31.56-2.49,1.17-3.61.44-.79.92-1.56,1.44-2.3.06-.02.05-.1.09-.14h0s.08-.03.11,0c.47.32.99.3,1.52.22h0c.08.05.15.08.21-.03-.11-.29-.32-.5-.59-.66-.18-.1-.36-.2-.5-.35-.11-.17.02-.29.11-.39.39-.47.62-1,.7-1.6.06-.4.3-.73.57-1.02.31-.33.62-.66.92-1.01.41-.47.94-.74,1.5-.98.22-.09.44-.16.62-.32.18-.15.4-.1.6-.06.82.13,1.52.55,2.27.87.62.27,1.23.55,1.94.5.4-.03.78-.14,1.03-.42.41-.45.82-.91,1.25-1.35.12-.15.32-.23.43-.39.26-.35.43-.72.47-1.17.04-.53.07-1.05.07-1.58.11-.09.25-.11.38-.15h0c.08-.08.2-.1.3-.15h0c.03-.07.11-.05.15-.08.43-.12.77-.35.99-.76.22-.41.25-1.17.03-1.58-.15-.28-.27-.57-.47-.83-.29-.37-.66-.59-1.12-.64-.72-.07-1.42-.3-2.14-.36-.77-.06-1.47-.38-2.21-.54-.01,0-.02-.01-.04-.01-1.07-.14-1.92-.76-2.8-1.3-.18-.11-.35-.22-.53-.33-.15-.09-.31-.02-.46-.04-.07,0-.15.03-.2-.05-.04-.08,0-.15.06-.2.54-.47.74-1.18,1.24-1.67.51-.46,1.09-.83,1.66-1.21.47-.31,1.03-.45,1.58-.57.07-.02.15-.02.2.06q-.15.24.07.46-.02.12-.09.22c.65-.19,1.18-.63,1.82-.83.91-.43,1.88-.38,2.84-.31.39.03.77.1,1.16.15.16.02.35.01.47.16-.24.44-.49.87-.65,1.35-.23.7-.27,1.4-.23,2.14.03.52.14,1,.29,1.49.06.29.21.55.34.81.47.94,1.09,1.77,1.89,2.46.34.29.7.54,1.07.78.58.37,1.22.38,1.85.29.77-.11,1.55-.24,2.32-.34.02,0,.06,0,.07.02.23.43.58.77.84,1.18,0,.11.01.22-.07.33-.48-.44-1.09-.54-1.69-.66-.36-.07-.73-.11-1.09-.17-.42-.07-.83-.03-1.22.16-.3.15-.33.27-.12.54.29.38.53.79.7,1.28-.29-.03-.54-.07-.79-.08-.26-.02-.52-.02-.77-.02-.26,0-.52,0-.77,0-.14,0-.27.04-.39.11-.16.1-.21.25-.1.41.18.26.38.49.69.64.48.23.87.6,1.24.98.3.3.58.64.86.96.16.18.24.4.34.61.3.66.61,1.31.94,1.96.47.9.9,1.83,1.2,2.8.18.58.26,1.17.37,1.76.14.81.43,1.59.65,2.38.02.08.04.17.06.25.17.74.54,1.38.95,2,.14.21.2.47.4.65.39.86,1.01,1.58,1.6,2.35-.24.06-.43.02-.62.08-.43.12-.71.4-.96.75-.56.8-1,1.66-1.3,2.59-.02.04-.04.04-.07,0-.12-.53-.24-1.05-.36-1.58-.09-.4-.27-.76-.48-1.11-.14-.22-.32-.4-.52-.57-.43-.38-.9-.35-1.38-.18-.29.11-.44.39-.59.64-.73,1.26-1.23,2.62-1.5,4.05-.06,0-.08-.05-.09-.09-.17-.54-.41-1.05-.68-1.55-.17-.31-.4-.56-.67-.77-.11-.09-.25-.15-.36-.25-.64-.52-1.82,0-2.02.62-.08.23-.14.47-.19.71-.29,1.36-.27,2.73-.07,4.11.04.26.12.52.19.78.21.28.29.6.28.95"/>
  <path class="cls-23" d="M2.71,27.89c-.08-.76.06-1.45.66-1.98.42-.09.71-.43,1.11-.57.24-.08.44-.19.55.16.06.19.24.14.38.12.36-.05.68-.2,1.03-.27.74-.15,1.5-.22,2.26-.32-.67-.09-1.33-.17-1.99-.15-.02,0-.05,0-.07,0-.12-.02-.29.01-.31-.13-.03-.15.14-.18.25-.22.27-.08.53-.19.79-.3.83-.34,1.59-.82,2.4-1.21,1.12-.54,2.25-1.05,3.39-1.54,1.71-.75,3.16-1.89,4.63-2.99.67-.5,1.1-1.22,1.58-1.89.3-.42.62-.76,1.13-.88.06-.01.12-.03.14-.11-.12-.2-.39-.13-.53-.29.26-.11.5-.07.74.07.26.15.52.29.76.45.47.32,1.01.53,1.53.71.43.14.87.27,1.3.38.41.11.79.33,1.23.38.48.05.95.11,1.43.16.43.04.85.15,1.28.17.34.02.6.15.72.52.08.24.25.43.25.71.02.75-.27,1.31-.96,1.63-.03.01-.06.04-.09.06-.11.11-.22.19-.37.23h0s-.1.04-.15.08h0s-.11.04-.16.06h0c-.05.1-.17.03-.24.08-.29.06-.58.12-.87.16-.91.13-1.82.27-2.74.35-1.64.15-3.18.58-4.62,1.39-.99.56-1.9,1.21-2.75,1.97-.63.56-1.32,1.07-1.92,1.66-.43.42-.92.77-1.42,1.12-.13.09-.27.18-.42.21-.2.04-.41.06-.61.09-.64.1-1.18-.16-1.68-.52-1.18-.84-2.52-1.17-3.94-1.25-.62-.04-1.1.29-1.62.54-.55.25-1.05.59-1.56.91-.17.11-.33.27-.56.24"/>
  <path class="cls-23" d="M2.26,46.71s-.02-.03-.02-.04c0,0,0-.02,0-.02.32-.43.33-.91.23-1.41-.12-.6-.07-1.2,0-1.79.07-.6.08-1.2,0-1.8-.07-.5.03-.98.17-1.45.05-.17.11-.33-.02-.49,0-.09.04-.15.1-.22.31-.08.35.17.4.35.12.39.03.77-.09,1.15-.19.59.11,1.54.58,1.89.11.08.21.16.33.23.06.04.14.05.21,0,.05-.05.02-.11.01-.17-.19-.99-.1-1.95.36-2.85.12-.25.22-.52.41-.73.23-.02.26.18.36.31.33.45.45,1,.73,1.48.28.47.63.87.98,1.28.18.22.37.43.46.7.09.25.21.29.42.15.09-.04.12-.11.14-.2.19-.78.64-1.43,1.02-2.11.03-.06.06-.13.09-.2h0c.06-.18.16-.33.3-.45.16-.11.23-.3.41-.38.21,0,.21.17.26.29.23.64.28,1.32.36,1.99.1.81.3,1.62.23,2.45-.15,1.94-.4,3.85-1.28,5.64-.47.95-.95,1.89-1.55,2.76-.48.69-.51.66-1.08.04-.82-.9-1.66-1.78-2.38-2.77-.56-.77-1.08-1.55-1.41-2.45-.16-.43-.31-.89-.74-1.15"/>
  <path class="cls-2" d="M10.24,28.2c.57.13,1.12.32,1.71.36.34.03.66-.03.97-.14.81-.28,1.51-.73,2.1-1.36.07-.02.11,0,.09.09-.07.36-.07.73-.07,1.1,0,.31-.12.54-.36.72-.35.26-.67.57-1.01.85-.51.42-.77.99-.85,1.66.6-.51,1.04-1.19,1.78-1.58.03.26-.04.48-.17.68-.51.78-1.01,1.57-1.51,2.35-.23.35-.39.74-.55,1.12-.09.21-.2.42-.35.6-.23.3-.41.64-.56.99-.08.2-.15.41-.12.61.04.32-.03.6-.09.9-.03.15-.17.2-.19.3-.03.16-.12.26-.23.35-.42.37-.78.78-.97,1.32-.09.26-.37.38-.55.58-.34-1.14-.87-2.2-1.11-3.38-.39-1.94-.21-3.79.68-5.55.38-.76.68-1.55,1.13-2.28.07-.11.12-.25.25-.31"/>
  <path class="cls-23" d="M14.67,18.88c-.97-1.27-1.44-2.72-1.12-4.29.44-2.2,1.77-3.71,3.95-4.4.06-.02.12-.01.18-.02.54-.08,1.07-.17,1.53.26.31.29.5.61.5,1.06,0,.63-.15,1.18-.56,1.67-.46.56-.89,1.14-1.42,1.64-.77.73-1.2,1.66-1.56,2.64-.23.62-.71,1.08-1.27,1.43-.07.05-.16.08-.24,0"/>
  <path class="cls-13" d="M2.26,46.71c.21-.03.33.06.43.26.23.45.43.91.62,1.37.19.45.44.86.73,1.26.31.42.6.86.93,1.28.22.28.45.55.68.82.48.57,1.05,1.06,1.49,1.67.13.18.2.17.36-.02.54-.61.9-1.35,1.3-2.04.38-.67.7-1.38.96-2.1.24-.69.45-1.39.57-2.12.11-.68.16-1.36.24-2.04.09-.76.1-1.54-.14-2.3-.1-.33-.1-.7-.13-1.05-.05-.56-.17-1.11-.35-1.64-.02-.06-.06-.11-.11-.14.09-.12.25-.14.33-.27.89,1.08,1.41,2.3,1.54,3.68.06.61.15,1.22.17,1.83.04.94-.2,1.85-.44,2.76-.22.83-.5,1.64-.93,2.4-.24.43-.4.9-.57,1.36-.21.58-.47,1.14-.82,1.64-.47.69-1.28,1.01-2.08.83-.57-.13-1.02-.42-1.33-.91-.71-1.11-1.38-2.24-2.04-3.37-.13-.22-.27-.43-.4-.65-.15-.35-.33-.69-.51-1.03-.31-.44-.33-.99-.52-1.47"/>
  <path class="cls-42" d="M10.73,39.42c.15-.03.26.03.36.14.52.61,1.2,1.05,1.81,1.55.06.05.11.09.15.16.35.64.63,1.3.59,2.05-.02.32,0,.63.05.95.07.44-.03.87-.15,1.3-.02.08-.05.16-.07.25-.12.59-.4,1.13-.61,1.69-.34.89-.72,1.77-1.15,2.62-.2.39-.42.77-.68,1.13-.32.45-.52.97-.75,1.46-.06.13-.03.2.1.26.67.29,1.33.62,2.08.68.1,0,.19.06.28.08.28.07.55.14.86.08.32-.06.66-.02.99-.02.15,0,.29,0,.43-.07.62-.26,1.28-.42,1.92-.64.6-.2,1.2-.43,1.79-.67.43-.18.89-.25,1.34-.34.48-.09.95-.05,1.42.02.22.03.43.1.64.16.08.02.11-.01.12-.09.18.14.31.33.45.51-.03.03-.07.06-.1.1-.36-.05-.73-.09-1.09-.14-.21-.03-.41.03-.62.05-.79.07-1.58.17-2.33.44-.14-.02-.26.06-.38.1-1.03.35-2.08.65-3.11.83.03,0,.12-.04.19.04-.21.1-.43.07-.65.1-.72.09-1.44.09-2.16.03-.57-.05-1.09-.28-1.59-.54-.18-.1-.37-.2-.55-.29-.19-.09-.39-.16-.6-.11.36-.71.7-1.43.96-2.19.1-.28.22-.55.36-.81.67-1.23,1.04-2.56,1.28-3.94.25-1.47.14-2.91-.23-4.34-.17-.66-.45-1.27-.87-1.81-.18-.24-.32-.52-.48-.78"/>
  <path class="cls-67" d="M20.11,15.34c.3-.02.54.1.8.34-.19.05-.33.15-.5.19-.4.1-.68.36-.89.71-.12.21-.27.41-.43.59-.45.52-.8,1.15-1.39,1.55-.54.36-1.05.76-1.58,1.14-.42.3-.82.62-1.24.89-.28.18-.58.32-.89.42-.42.14-.78.4-1.17.58-.65.28-1.27.62-1.93.86-.24.09-.49.21-.73.34-.64.34-1.29.64-1.92.99-.57.31-1.16.59-1.8.74-.02,0-.04.03-.06.05.04.12.14.07.21.07.57,0,1.13-.01,1.69.08.24.04.48.05.77.1-.17.16-.35.17-.52.19-.63.08-1.26.14-1.88.26-.39.08-.75.22-1.13.3-.11.02-.22.03-.33.04-.18.01-.27-.04-.28-.24-.01-.21-.05-.2-.25-.13-.35.12-.63.35-.95.52-.12.06-.22.12-.33.02.1-.17.27-.25.41-.36.65-.46,1.31-.91,2.09-1.15.62-.19,1.16-.54,1.72-.84.34-.18.68-.33,1.04-.47.89-.35,1.75-.77,2.58-1.25.69-.4,1.41-.75,2.14-1.07.36-.16.71-.33,1.05-.53.71-.41,1.41-.86,2.08-1.33.71-.5,1.27-1.16,1.79-1.85.32-.42.64-.84.96-1.26.22-.29.51-.46.88-.48"/>
  <path class="cls-42" d="M26.76,24.41c.02.15-.09.22-.18.31-.33.31-.62.66-.89,1.02-.21.26-.52.42-.84.49-.37.08-.75.08-1.13,0-.36-.08-.7-.23-1.03-.38-.39-.17-.78-.36-1.17-.54-.43-.2-.89-.35-1.36-.43-.18-.03-.36-.05-.52.14-.1.12-.29.17-.46.23-.34.11-.65.28-.95.46-.35.22-.63.5-.87.83-.12.16-.26.29-.41.43-.46.43-.79.93-.87,1.57-.05.45-.28.83-.55,1.18-.11.14-.24.28-.28.46-.26-.2-.28-.23-.14-.47.17-.29.16-.61.21-.93.03-.18.04-.37.03-.55-.03-.55.22-.99.52-1.42.16-.23.41-.39.4-.71,0-.07.1-.1.16-.14.63-.4,1.29-.76,2.02-.97.3-.09.6-.2.91-.3.29-.1.6-.13.91-.1,1.48.14,2.96.26,4.43.48.66.1,1.27-.04,1.8-.47.09-.07.18-.12.27-.18"/>
  <path class="cls-23" d="M24.32,24.57c-.65-.05-1.29-.13-1.93-.25-.76-.15-1.51-.29-2.27-.45-.27-.06-.54-.03-.81-.03-.19-.04-.05-.12,0-.15.16-.12.35-.18.53-.24.82-.23,1.66-.31,2.5-.4.95-.1,1.91,0,2.86-.13.26-.03.48-.11.65-.3.36-.38.87-.49,1.29-.76.12-.08.28-.09.22.15,0,.19-.02.38-.08.56-.35,1.11-1.26,1.62-2.22,2.06-.1.02-.2.02-.3,0-.14-.08-.31.02-.45-.06"/>
  <path class="cls-46" d="M27.37,22.02c-.02-.1-.07-.18-.17-.09-.25.24-.58.31-.87.46-.16.08-.27.2-.4.32-.2.19-.42.29-.71.33-.7.09-1.39,0-2.09.07-.67.07-1.34.06-2,.19-.41.08-.82.14-1.22.25-.2.06-.39.14-.59.21-.04.02-.04.05-.01.08-.22.08-.44.15-.66.23-.08.03-.09,0-.08-.08.95-.65,1.88-1.34,3-1.67.79-.24,1.61-.33,2.43-.39.48-.04.94-.14,1.42-.18.7-.06,1.38-.2,2.07-.41.03.26-.05.47-.12.68"/>
  <path class="cls-34" d="M14.67,18.88c.37-.17.7-.39.93-.74.02-.03.04-.07.07-.09.41-.3.48-.78.64-1.21.28-.75.68-1.44,1.26-2,.65-.63,1.2-1.35,1.76-2.07.17-.22.24-.5.26-.76.05-.44.13-.91-.21-1.3-.28-.33-.61-.55-1.06-.55-.21,0-.42,0-.63,0,.93-.25,1.84-.21,2.72.21.11.05.22.11.33.16.03.05.1.03.14.08h0s.05.04.08.06c0,.02.02.03.05.03.05,0,.08.03.1.07h0s.05.04.08.06c.41.38.41.38-.02.75-.77.66-1.37,1.47-2.03,2.23-.06.07-.1.14-.17.2-.63.57-1.15,1.24-1.72,1.86-.49.54-.81,1.2-.87,1.94-.01.13-.06.23-.16.31-.4.34-.85.62-1.29.91-.18.12-.18-.06-.23-.16"/>
  <path class="cls-46" d="M2.71,27.89c.93-.61,1.89-1.18,2.9-1.64.2-.09.41-.12.64-.14.75-.06,1.45.16,2.17.32.75.17,1.41.52,2.04.96.25.17.52.33.8.44.32.12.68.1,1.01.01.17-.05.27.01.4.04-.52.35-1.08.26-1.63.14-.89-.21-1.71-.59-2.55-.94-.73-.3-1.49-.37-2.28-.27-.12.02-.24.04-.37.04-.75-.02-1.37.32-1.99.68-.29.17-.56.39-.88.52-.19.08-.19.08-.27-.17"/>
  <path class="cls-3" d="M10.24,28.2c-.08.25-.24.46-.35.69-.45.95-.97,1.87-1.32,2.87-.16.45-.29.91-.4,1.37-.14.59-.14,1.19-.07,1.78.09.7.15,1.41.33,2.1.14.51.29,1.01.53,1.48.2.39.3.8.32,1.23-.03.05-.08.06-.1,0-.14-.58-.51-1.05-.71-1.61-.02-.05-.04-.09-.05-.14-.14-.68-.29-1.36-.41-2.04-.04-.23-.13-.43-.17-.66-.18-.98-.05-1.93.23-2.87.23-.75.56-1.46.87-2.18.08-.19.18-.38.25-.58.18-.51.55-.92.74-1.43.07-.2.2-.03.3,0"/>
  <path class="cls-17" d="M20.94,12.6c0,.12-.1.19-.16.28-.19.25-.41.49-.51.8-.05.16-.19.25-.3.37-.1.12-.22.22-.34.35.21.14.46-.04.63.14-.58-.07-1.1.07-1.48.52-.21.24-.38.51-.58.76-.39.48-.74,1.01-1.18,1.45-.07.02-.11,0-.09-.08.21-.57.54-1.07.94-1.52.94-1.06,1.94-2.08,2.94-3.09.03-.03.08-.06.11-.09.04.04.04.08,0,.12"/>
  <path class="cls-40" d="M12.82,37.87c.02.19-.06.31-.23.41-.32.19-.64.4-.95.61-.32.21-.5.18-.75-.11-.04-.05-.06-.1-.07-.16h0s.03-.06.05-.07c.31-.42.72-.73,1.18-.99.1.02.22-.02.3.08.3.09.54-.1.81-.15h0c.08-.02.14-.12.23-.05.05.04.03.09,0,.13h0c-.1.1-.25.09-.37.15h0c-.07.05-.16.08-.22.15"/>
  <path class="cls-51" d="M15.74,26.46c-.19-.24-.18-.47.02-.72.09-.11.2-.22.31-.32.55-.47,1.17-.82,1.93-1.09-.24.3-.43.53-.69.68-.29.17-.54.37-.69.68-.04.08-.11.1-.18.09-.16-.04-.26.07-.27.18-.02.29-.27.34-.43.5"/>
  <path class="cls-25" d="M20.94,12.6s0-.08,0-.12c.41-.38.81-.76,1.27-1.08.37-.27.78-.43,1.17-.63.3-.15.62-.14.93-.16.1,0,.16.03.16.14-.04.03-.09.07-.13.1-.54.05-1.03.31-1.54.46-.14.04-.24.17-.35.26-.47.34-.97.63-1.4,1.01-.02.02-.07.01-.11.02"/>
  <path class="cls-49" d="M16.14,31.21c-.43.23-.86.22-1.28,0-.12-.06-.23-.14-.34-.21.14-.27.34-.51.37-.9.27.61.8.82,1.25,1.12"/>
  <path class="cls-26" d="M25.07,24.64c.61-.33,1.15-.78,1.69-1.21.19-.15.32-.33.38-.57.03-.11.05-.21.16-.28.03.46-.26.77-.51,1.1-.16.21-.38.38-.58.55-.33.28-.69.45-1.14.41"/>
  <path class="cls-66" d="M13.25,18.73c.27-.12.48-.07.66.18.13.18.32.29.55.43-.22.15-.4.28-.62.36-.13-.36-.43-.62-.59-.96"/>
  <path class="cls-62" d="M13.25,18.73c.16.14.32.28.44.46.1.16.17.31.16.5-.11.11-.22.18-.28-.04-.09-.3-.27-.54-.43-.81-.08-.14.03-.12.12-.12"/>
  <path class="cls-43" d="M11.62,20.14c.28.02.53.12.82.26-.27.15-.5.28-.73.41-.13-.21-.2-.43-.09-.67"/>
  <path class="cls-21" d="M11.62,20.14c.01.23.1.44.09.67h0s-.04.03-.07.05c-.06.04-.15.16-.17,0-.02-.21-.02-.43-.06-.64-.04-.21.1-.13.2-.09"/>
  <path class="cls-30" d="M20.12,35.79c.16-.03.29.04.44.08,0,.14-.08.1-.16.08-.42-.03-.84,0-1.26-.07.22-.04.45-.01.68-.02.1,0,.22.03.3-.06"/>
  <path class="cls-51" d="M9.44,40.3c-.08.17-.18.32-.3.45-.05-.25.07-.39.3-.45"/>
  <path class="cls-51" d="M27.94,20.8c.11-.1.22-.2.37-.23-.07.17-.18.25-.37.23"/>
  <path class="cls-51" d="M28.11,21.12c-.11.09-.24.12-.38.15.09-.14.22-.18.38-.15"/>
  <path class="cls-57" d="M18.51,24.15c-.06.07-.15.09-.27.11.03-.12.1-.17.19-.2.03.02.08.03.08.09"/>
  <path class="cls-26" d="M24.32,24.57c.15,0,.31-.05.45.06-.16.03-.31.02-.45-.06"/>
  <path class="cls-5" d="M15.11,27.16s-.06-.06-.09-.09c.03-.1.1-.16.2-.21,0,.12-.04.21-.11.29"/>
  <path class="cls-55" d="M16.94,17.18s.06.06.09.08c-.03.08-.08.15-.19.18-.04-.12.03-.2.1-.27"/>
  <path class="cls-51" d="M28.41,20.97c-.08.08-.18.14-.3.15,0-.03-.01-.06-.01-.09.11,0,.2-.09.31-.06"/>
  <path class="cls-69" d="M18.51,24.15s-.07-.04-.08-.09c.05-.02.1-.05.15-.07.03.03.05.05.08.08-.03.06-.09.07-.15.09"/>
  <path class="cls-51" d="M27.4,21.02c.06-.08.15-.07.24-.08,0,.03,0,.06.01.09h0c-.08,0-.17,0-.25-.01"/>
  <path class="cls-49" d="M16.35,31.18c-.05.14-.13.12-.21.03.07,0,.14-.02.21-.03"/>
  <path class="cls-51" d="M20.86,10.62c-.06,0-.11-.02-.14-.08.06,0,.11.02.14.08"/>
  <path class="cls-51" d="M28.56,20.89c-.03.06-.09.08-.15.09.02-.08.08-.09.15-.09"/>
  <path class="cls-51" d="M27.64,20.94c.04-.06.1-.06.16-.06-.04.07-.09.08-.16.06"/>
  <path class="cls-51" d="M27.8,20.88c.03-.05.08-.08.15-.08-.03.07-.08.08-.15.08"/>
  <path class="cls-49" d="M14.52,30.99c0,.07-.02.12-.09.14,0-.06.04-.11.09-.14"/>
  <path class="cls-51" d="M27.65,21.03s.03.01.03.02c0,.02-.02.02-.03-.02Z"/>
  <path class="cls-51" d="M28.1,20.95s.01-.03.02-.03c.02,0,.02.02-.02.03h0Z"/>
  <path class="cls-51" d="M28.1,20.95v.07h0s-.04-.03-.03-.05c0,0,.02-.01.03-.02h0Z"/>
  <path class="cls-43" d="M11.65,20.86s.03-.05.06-.06c0,.04-.02.06-.06.06"/>
  <path class="cls-50" d="M10.89,38.54s-.04.04-.05.06c0-.04.02-.06.05-.06"/>
  <path class="cls-51" d="M21.16,10.84s-.07-.02-.08-.06c.04,0,.07.03.08.06"/>
  <path class="cls-51" d="M21.08,10.78s-.08-.02-.1-.07c.05,0,.08.02.1.07"/>
  <path class="cls-51" d="M20.94,10.68s-.06-.02-.08-.06c.04,0,.07.02.08.06"/>
  <path class="cls-50" d="M48.45,37.86c-.14.65-.3,1.29-.53,1.91-.19.51-.28,1.04-.33,1.58-.06.6-.15,1.19-.31,1.77-.06.23-.19.45-.28.68-.02.05-.08.05-.13.05-.4.04-.67-.22-.9-.46-.44-.45-.83-.94-1.26-1.39-.13-.14-.19-.31-.26-.48-.25-.61-.52-1.21-.92-1.76-.48-.64-.76-1.4-1.17-2.09-.65-1.09-1.19-2.23-1.74-3.37-.08-.17-.26-.42-.09-.53.18-.12.33.15.43.3.42.57.93,1.05,1.53,1.55-.29-.54-.56-1.01-.84-1.47-.46-.73-.89-1.47-1.22-2.27-.25-.61-.6-1.16-.98-1.69-.38-.53-.73-1.08-1.11-1.61-.14-.19-.27-.38-.49-.49-.14-.07-.2-.21-.27-.34-.35-.6-.54-1.26-.92-1.85-.17-.26-.34-.51-.54-.74-.28-.31-.57-.61-.78-.97-.15-.25-.38-.41-.64-.54-.45-.21-.87-.46-1.27-.74-.1-.07-.24-.15-.21-.28.04-.16.21-.06.32-.08.09-.01.2-.02.29.02.38,0,.71.14,1.03.32.34.2.65.13.94-.09.03-.67-.17-1.26-.66-1.75-.11-.11-.29-.24-.2-.38.08-.11.29-.05.45-.02.64.05,1.24.24,1.83.49.26.11.46.33.68.49.18.13.35.26.53.39.1.07.21.05.32.05.15,0,.29-.05.43-.08.1-.41.24-.8.36-1.2.03-.11,0-.26.18-.27.11.62.24,1.23.46,1.81.11.31.27.6.42.89.16.29.21.29.53.21.05-.01.09-.02.14-.04.19-.12.28-.33.41-.5.09-.11.15-.3.36-.23.14.14.13.32.1.49-.09.61-.07,1.21-.08,1.83-.02.79.26,1.49.48,2.21.53,1.71,1.51,3.16,2.63,4.52.2.24.35.5.48.78.33.7.74,1.33,1.32,1.84.38.34.71.71,1.01,1.12.48.65.6,1.38.5,2.17-.01.08-.05.17-.01.25"/>
  <path class="cls-23" d="M30.61,15.79c-.11-.17-.13-.37-.21-.55-.38-.88-.27-1.77-.05-2.66.23-.92.7-1.7,1.37-2.36,1.16-1.14,2.56-1.69,4.17-1.75,1.07-.04,2.1.1,3.1.51.44.18.86.41,1.23.73.24.26.49.52.7.8.89,1.21,1.27,2.52.62,3.97-.34.74-.85,1.38-1.47,1.92-.79.68-1.6,1.36-2.63,1.65-2.31.66-4.3.53-6.15-1.34-.27-.27-.45-.61-.67-.92"/>
  <path class="cls-23" d="M33.91,46.46c.02-1.5.43-2.9,1.03-4.26.31-.24.49-.58.7-.89.07-.1.12-.24.28-.2.12.03.14.16.17.26.2.61.49,1.18.71,1.78.52,1.4.96,2.82,1.13,4.31.04.38.12.75.27,1.17.12-.36.1-.68.19-.97.13-.9.33-1.79.68-2.63.53-1.23.96-2.5,1.64-3.66.08-.14.16-.39.34-.32.19.07.13.32.1.5-.07.48-.06.95,0,1.43.1.8-.09,1.56-.36,2.31-.39,1.15-1.04,2.19-1.48,3.32-.01.04-.03.07-.05.1-.59,1.27-1.22,2.52-1.97,3.71-.64,1.01-1.56,1.65-2.65,2.08-.43.17-1.1-.13-1.41-.58-.4-.57-.76-1.15-1.03-1.78-.63-1.43-1.15-2.9-1.44-4.44-.22-1.22-.17-2.45.04-3.67.02-.12.04-.26.17-.31.11-.05.19.05.24.12.8,1.1,1.8,2.05,2.47,3.26.12.22.24.45.41.67-.08-.31-.15-.61-.22-.9-.03-.14-.05-.27.03-.39"/>
  <path class="cls-37" d="M33.8,22.57h-.54c0,.15.08.18.15.23.43.29.86.56,1.33.78.3.14.55.33.7.62.21.38.53.67.81.99.33.37.56.8.78,1.23.24.47.45.95.68,1.43.03.05.07.12.11.14.45.14.59.57.83.9.48.65.93,1.32,1.37,2,.21.32.37.67.51,1.02.29.72.69,1.38,1.09,2.04.32.52.64,1.05.92,1.6.03.06.09.12.04.24-.81-.53-1.42-1.26-2.05-2.08,0,.25.06.38.12.51.42.86.81,1.73,1.27,2.57.18.34.39.67.59,1.01.34.58.61,1.19.95,1.77.11.18.27.32.37.5.29.5.52,1.02.72,1.57.04.11.08.21.16.29.34.3.6.68.92,1,.1.09.18.19.26.31.11.16.24.31.45.36.1.02.2.08.26.19.05.09.15.07.23.09-.2.1-.41.06-.6-.01-.38-.15-.74-.33-1.07-.58-.58-.43-1.17-.85-1.76-1.28-.18-.13-.34-.29-.45-.48-.5-.88-1.07-1.71-1.7-2.49-.57-.7-.98-1.5-1.4-2.29-.5-.94-1.01-1.88-1.29-2.92-.19-.68-.33-1.36-.46-2.05-.19-.99-.53-1.95-.92-2.87-.17-.41-.41-.81-.67-1.18-.36-.52-.59-1.1-.84-1.67-.16-.36-.3-.73-.58-1.02-.04-.04-.06-.11-.09-.16-.04-.08-.02-.21-.15-.22-.3-.32-.54-.69-.89-.98-.22-.18-.42-.37-.69-.48-.27-.11-.43-.36-.59-.59.22-.08.79-.06,1.09.02"/>
  <path class="cls-50" d="M42.7,42.97c.01-.08.02-.17.03-.25.12-.02.16.07.19.14.11.24.28.43.47.6.26.22.44.52.68.77.21.21.44.36.7.45.24.08.41.25.65.31.12.03.16.14.16.26-.02.45.03.9-.04,1.36-.04.22.06.46.04.69-.08.88-.17,1.75-.6,2.55-.38.71-.71,1.45-1.04,2.19-.27.62-.72,1.11-1.24,1.47-.45.3-.94.57-1.44.8-.24.11-.5.11-.75.14-.55.05-1.11.16-1.65-.03.17-.35.42-.66.63-.99.3-.46.59-.93.8-1.45.28-.66.67-1.26.92-1.92.48-1.25,1.02-2.48,1.27-3.8.19-.98.29-1.97.2-2.97,0-.1,0-.2,0-.29"/>
  <path class="cls-46" d="M33.91,46.46c.03.41.18.79.26,1.18.02.11.06.21.02.35-.2-.16-.31-.37-.42-.57-.44-.78-.9-1.54-1.56-2.17-.1-.09-.17-.21-.25-.32-.27-.42-.63-.78-.94-1.22-.17.27-.16.57-.2.84-.09.62-.1,1.24-.08,1.87.02.81.12,1.61.39,2.38.17.47.24.98.43,1.44.29.7.49,1.44.86,2.11.29.53.58,1.05.92,1.55.32.46.99.65,1.5.43.52-.23.99-.53,1.41-.9.28-.25.6-.46.8-.8.6-1.02,1.25-2.02,1.71-3.12.13-.3.25-.61.46-.87.15-.56.43-1.06.69-1.57.28-.54.53-1.09.73-1.67.01-.03.04-.06.06-.09.28.27.1.58.04.86-.12.52-.33,1.02-.52,1.52-.16.4-.24.86-.35,1.3-.08.33-.23.63-.42.93-.17.26-.34.56-.43.88-.14.49-.21.56-.71.62-.19.02-.28.12-.16.3.26.37.14.75-.1,1.02-.4.47-.55,1.04-.72,1.6-.14.46-.42.75-.74,1.06-.09.08-.19.14-.28.24.19.03.47-.19.53.18.09-.02.22-.15.24.07-.34.31-.73.46-1.2.4-.3-.04-.61-.03-.92-.02-.16,0-.32-.02-.45-.12-.18-.19-.22-.48-.46-.63-.13-.09-.24-.21-.36-.31h0c-.05-.07-.08-.16-.15-.2-.4-.29-.63-.71-.86-1.13-.46-.81-.93-1.61-1.39-2.42-.16-.29-.29-.59-.38-.91-.13-.52-.31-1.03-.47-1.54-.15-.14-.13-.34-.19-.52-.02-.08-.04-.16-.03-.24,0-.02,0-.03,0-.05-.06-.52-.15-1.04-.2-1.56-.12-1.31,0-2.6.38-3.85.19-.63.26-.52.66-.22.94.7,1.54,1.66,2.13,2.64.08.13.13.27.22.38.11.15.15.3.15.48,0,.09.02.17.03.26.02.2.13.25.31.17"/>
  <path class="cls-71" d="M37.1,55.87c-.05-.07-.11-.09-.19-.04-.05.04-.09.08-.11-.03-.04-.21-.18-.18-.3-.09-.18.13-.28.02-.44-.11.49-.12.68-.56,1.03-.8.05-.03.08-.1.07-.16-.02-.25.09-.46.22-.65.13-.2.06-.45.19-.66.1-.16.18-.34.32-.48.16-.17.23-.38.29-.58.05-.16.08-.36-.12-.49-.08-.06-.17-.17-.07-.28.1-.1.16-.28.38-.18.23.1.29.06.41-.14.06-.1.13-.2.14-.3.01-.22.04-.41.26-.52.01,0,.02-.02.02-.03-.05-.36.28-.51.4-.77.12-.27.17-.56.25-.84.03-.11.07-.21.13-.3.08-.12.13-.28.09-.38-.1-.24.04-.4.15-.56.19-.31.33-.64.35-1.01.01-.23.16-.42.17-.66,0-.16,0-.31-.03-.46.13-.43.25-.87.33-1.32.06-.38.06-.76,0-1.13-.06-.4-.07-.81,0-1.21.03-.18.04-.36.03-.54-.12-.04-.12.06-.16.11-.43.69-.77,1.42-1.04,2.19-.11.32-.29.62-.43.94-.43.99-.77,2.01-.96,3.08-.01.08-.04.16-.07.25-.02.03-.05.03-.07,0,.16-.93.17-1.87.22-2.8h0c.22-.8.57-1.56.9-2.32.29-.67.71-1.26,1.17-1.82.13-.15.28-.27.48-.33.35.36.59.78.7,1.27.17.79.36,1.58.38,2.39.03.98-.13,1.93-.35,2.88-.29,1.22-.71,2.4-1.25,3.53-.48,1-.93,2.03-1.6,2.93-.33.44-.6.93-.92,1.37-.06,0-.1-.13-.14-.07-.25.36-.71.49-.93.88-.02.02-.06.05-.06.07,0,.04.02.04,0,.01,0-.02,0-.04.03-.04.13,0,.26-.03.34.11-.06.08-.14.12-.23.15"/>
  <path class="cls-1" d="M30.61,15.79c.13.08.22.19.3.31.76,1.08,1.8,1.75,3.06,2.09.66.18,1.33.15,2,.05.3-.05.61-.06.9-.13.91-.23,1.74-.62,2.46-1.26.34-.3.71-.56,1.02-.89.63-.67,1.14-1.4,1.35-2.31.08-.34.09-.7.01-1.02-.13-.52-.24-1.05-.51-1.53-.2-.37-.52-.65-.76-.99-.09-.13-.2-.25-.25-.4.82.56,1.37,1.34,1.68,2.26.69,2.05.21,3.87-1.27,5.39-1.55,1.6-3.51,2.11-5.67,1.79-1.17-.17-2.24-.65-3.12-1.47-.57-.52-.97-1.17-1.22-1.9"/>
  <path class="cls-54" d="M48.45,37.86c-.1-.13-.05-.29-.05-.43,0-.38,0-.75-.11-1.13-.16-.57-.53-.99-.91-1.41-.29-.32-.61-.6-.91-.91-.38-.4-.66-.88-.9-1.38-.17-.36-.36-.69-.65-.98-.42-.42-.71-.94-1.03-1.43-.27-.42-.53-.86-.78-1.29-.37-.65-.62-1.33-.8-2.05-.06-.24-.13-.47-.21-.71-.1-.32-.18-.64-.15-.98.02-.26-.06-.51-.05-.77,0-.37.03-.74.09-1.1.04-.23.03-.44-.03-.65-.06-.05-.07-.12-.06-.2.03-.12.04-.25.07-.37.02-.05.05-.1.11-.1.12.45.1.9.06,1.35-.07.77-.1,1.55-.02,2.32.03.27.14.52.23.77.26.75.48,1.52.86,2.23.26.47.56.9.88,1.31.63.8,1.27,1.6,2.02,2.3.61.57,1.2,1.16,1.74,1.8.26.3.5.61.69.96.25.47.36.97.2,1.49-.14.45-.13.92-.31,1.36"/>
  <path class="cls-46" d="M38.36,47.67h.07c.05.32-.07.63-.07.95,0,.07.03.17-.06.19-.12.03-.18-.07-.21-.16-.07-.23-.12-.47-.17-.71-.13-.71-.19-1.42-.37-2.12-.13-.52-.27-1.04-.45-1.55-.25-.71-.49-1.43-.8-2.12-.14-.32-.34-.62-.32-1.06-.25.23-.35.44-.48.64-.14.2-.23.47-.55.48.2-.61.55-1.15.86-1.7.14-.25.2-.23.43-.06.54.4.87.94,1.1,1.57.5,1.38.71,2.8.76,4.26.01.38.07.76.11,1.13.01.11,0,.24.15.27"/>
  <path class="cls-48" d="M37.55,19.7c-.24.12-.5.08-.75.14-.46.11-.93.16-1.4.25-.99.18-1.88.03-2.68-.65-.34-.28-.66-.57-.99-.86-.47-.42-.83-.92-1.13-1.48-.18-.33-.38-.65-.51-1.01-.05-.13-.08-.26-.06-.39.38.75.86,1.43,1.47,2.01,1.64,1.58,3.59,2.2,5.84,1.94.07,0,.15,0,.22-.01.02.02.01.05,0,.07"/>
  <path class="cls-18" d="M30.62,10.7c-.56-.06-1.11-.16-1.66-.21-.85-.08-1.71-.09-2.54.18-.13.04-.25.1-.39.1-.02-.01-.02-.03-.02-.04,0-.02,0-.02.02-.02.38-.2.76-.39,1.17-.52.58-.18,1.18-.21,1.78-.08.54.12,1.08.21,1.61.36.21.06.16.14.03.24"/>
  <path class="cls-53" d="M39.68,20.51c-.14.41-.22.84-.4,1.23-.04.08-.02.2-.14.24-.05-.43-.15-.86-.06-1.31.06-.3.17-.59.25-.88.02-.08.06-.16.2-.19.09.3.12.61.15.91"/>
  <path class="cls-59" d="M35.36,20.65c-.13,0-.27.01-.44.02.11.22.31.33.44.5.35.46.56.96.48,1.55,0,.03-.04.06-.06.08-.15-.44-.35-.86-.6-1.25-.13-.22-.21-.47-.34-.69-.11-.18-.02-.28.21-.28.11,0,.22,0,.32.07"/>
  <path class="cls-51" d="M30.32,48.41c.1.18.14.38.14.58q-.04.29-.3.31c-.06,0-.12,0-.18,0-.15-.3-.21-.63-.28-.95.03-.06.07-.15.15-.12.14.05.25-.05.38-.06h0c.05.07,0,.17.07.23"/>
  <path class="cls-8" d="M42.09,21.98s-.04.06-.06.09c-.07.11.01.25-.06.37,0,.07,0,.14,0,.21-.17.11-.28.28-.35.45-.08.19-.21.25-.38.29.01-.02.04-.04.04-.06-.01-.65.35-1.13.73-1.6.07.07.09.16.09.26"/>
  <path class="cls-46" d="M37.33,55.72c-.13-.02-.25-.05-.38-.08-.01-.14,0-.27.14-.35.34-.21.65-.46.9-.82.1.11.06.22.1.3h0c-.08.01-.05.1-.09.14-.14.33-.36.6-.66.81"/>
  <path class="cls-51" d="M38.58,44.87c-.14.11-.05.28-.08.41-.02.06-.04.13-.11.13-.04,0-.08-.05-.12-.08-.05-.04-.06-.1-.06-.17-.02-.38,0-.75.09-1.12.02-.07.06-.13.17-.16.07.33.12.65.11.98h0Z"/>
  <path class="cls-11" d="M37.55,19.7s0-.04,0-.07c.15-.09.23-.02.32.12.17.28.29.58.57.8.12.09-.02.22-.03.33-.38-.33-.72-.68-.86-1.18"/>
  <path class="cls-9" d="M39.78,37.77c-.16-.03-.21-.18-.26-.29-.1-.23-.29-.4-.4-.61-.28-.56-.68-1.08-.69-1.75.36.88.84,1.69,1.3,2.51.02.04.03.09.05.14"/>
  <path class="cls-10" d="M26.03,10.7s0,.04,0,.07c-.62.31-1.21.69-1.89.94,0-.24.24-.24.27-.39.15.08.28-.01.42-.07.4-.17.78-.41,1.2-.54"/>
  <path class="cls-45" d="M34.87,24.59c.08-.09.13-.04.15.04.02.06,0,.12,0,.18-.08-.05-.13-.13-.15-.22"/>
  <path class="cls-27" d="M42.62,42c-.07.06-.03.15-.06.22-.05-.07-.07-.15-.07-.23,0-.04-.03-.11.04-.11.07,0,.08.07.1.12"/>
  <path class="cls-51" d="M47.2,46.21c-.08-.09-.08-.19-.08-.3.14.07.09.19.08.3"/>
  <path class="cls-71" d="M37.99,54.91c0-.07.01-.13.09-.14-.01.06-.03.11-.09.14"/>
  <path class="cls-35" d="M38.43,43.54s.04,0,.07,0c0,.04.02.1-.05.09-.03,0-.03-.06-.02-.09"/>
  <path class="cls-51" d="M45.96,51.8c-.12.02-.25.08-.32-.09h0c.09-.05.12-.14.16-.23h0s.05-.04.08-.07c.02-.01.03-.03.04-.05,0-.03.03-.06.04-.1h0c.08-.05.11-.14.16-.21h0s.06-.05.07-.09h0c.18-.18.25-.41.3-.66h0c.06-.04.05-.11.07-.17.08-.3.24-.57.39-.85.13-.06.26-.13.38,0,0,.02,0,.03,0,.04,0,.04-.02.09-.03.13,0,.03-.02.06-.03.08-.02.07-.03.14-.03.22,0,.05-.01.09-.03.14-.05.15-.06.31-.18.43-.05.05-.11.09-.15.15-.01.02-.03.04-.04.07-.02.03-.04.07-.06.1-.01.02-.02.05-.03.07-.02.04-.04.07-.05.11-.01.02-.03.05-.04.07-.03.04-.06.09-.09.14-.01.03-.03.05-.05.07-.02.03-.04.05-.06.07-.01.01-.02.02-.03.04-.09.09-.15.2-.21.31-.02.03-.04.05-.05.07-.05.05-.09.11-.14.17-.01,0-.02.02-.03.02"/>
  <path class="cls-51" d="M46.47,50.32c.04.25-.09.44-.2.64-.01.02-.07.01-.1.02.1-.22.2-.44.3-.66"/>
  <path class="cls-51" d="M46.1,51.06c0,.11-.05.19-.16.22.02-.1.07-.17.16-.22"/>
  <path class="cls-51" d="M45.8,51.49c.02.12-.03.2-.16.23.03-.09.07-.17.16-.23"/>
  <path class="cls-51" d="M45.95,51.28c0,.05,0,.11.01.16l-.17.06c.02-.1.07-.17.16-.22"/>
  <path class="cls-51" d="M46.54,50.15c0,.07,0,.14-.07.18,0-.07.01-.13.07-.18"/>
  <path class="cls-51" d="M46.17,50.98s-.03.07-.07.09c0-.04.03-.08.07-.09"/>
  <path class="cls-42" d="M20.79,50.03c-.01-.22-.14-.4-.23-.6-.12-.27-.08-.54.1-.71.07-.07.14-.1.21.01.04.07.1.14.13.22.42.88,1,1.62,1.76,2.23.18.14.36.3.53.45.3.27.64.44.99.62.36.19.72.35,1.09.52.41.19.84.33,1.26.48.46.16.91.36,1.38.5.75.23,1.51.39,2.3.42.36.02.73.05,1.08.16.23.07.48.08.72.12.05,0,.09-.03.12-.07.13.18.25.35.41.57-.36.02-.69.05-1.01.04-.93-.01-1.86-.02-2.79-.07-1.07-.06-2.1-.34-3.1-.72-1.44-.55-2.59-1.47-3.59-2.61-.34-.39-.66-.79-.99-1.18-.18-.07-.23-.26-.36-.37"/>
  <path class="cls-70" d="M20.79,50.03c.19.06.27.22.36.37-.03.03-.05.06-.08.08-.11-.08-.14-.22-.23-.31-.01-.03-.03-.06-.05-.08,0-.02,0-.04,0-.06"/>
  <path class="cls-42" d="M32.24,54.39c-.07-.03-.08-.08-.08-.15.06.03.08.09.08.15"/>
  <path class="cls-42" d="M22.26,52.18s-.04-.05-.07-.08c.04,0,.06.03.07.08"/>
  <path class="cls-52" d="M2.63,39.7c.14-.07.25-.07.22.13-.04.25-.08.51-.18.74-.17.4-.11.79-.07,1.19.06.51.06,1.03,0,1.54-.08.68-.16,1.35,0,2.03.06.25.04.51.01.77-.02.24-.12.45-.37.54-.16-.98-.4-1.95-.34-2.95.02-.4,0-.81.02-1.21.02-.91.25-1.77.57-2.61.04-.06.09-.12.13-.17"/>
  <path class="cls-39" d="M7.87,43.25c-.27.36-.29.37-.45-.04-.18-.45-.51-.77-.82-1.12-.47-.53-.82-1.12-1.07-1.78-.14-.37-.33-.71-.61-.99q.29-.46.68-.13c.39.33.68.74.93,1.18.29.51.61,1.01.78,1.58.02.07.05.14.09.2.16.27.32.54.21.89-.06.2.15.17.27.2"/>
  <path class="cls-13" d="M3.61,42.87c-.19.03-.31-.05-.38-.21-.22-.43-.34-.88-.37-1.36,0-.14.04-.26.09-.39.14-.37.2-.75.07-1.14-.05-.15-.12-.27-.29-.29.03-.05.05-.11.08-.16.08-.15.18-.16.32-.06.36.24.66.96.48,1.43-.27.71-.29,1.45,0,2.18"/>
  <path class="cls-51" d="M2.59,39.31s.02,0,.02,0c0,.01,0,.02,0,.03,0,0-.03,0-.03-.01,0,0,0-.02.01-.03"/>
  <path class="cls-19" d="M15.27,54.1c-.08-.02-.17.02-.25-.05.28-.15.6-.13.88-.23.72-.23,1.45-.42,2.18-.62.07-.02.13-.06.2-.1.1-.06.21-.08.3.03h0s-.11.03-.15.07c-.36.21-.77.33-1.16.44-.55.16-1.11.3-1.68.38-.08.04-.18,0-.25.07l-.03.02h-.03Z"/>
  <path class="cls-42" d="M15.33,54.09c.06-.09.16-.07.25-.06-.07.06-.16.07-.25.06"/>
  <path class="cls-42" d="M18.43,53.2c.03-.06.09-.07.15-.07-.04.05-.09.07-.15.07"/>
  <path class="cls-50" d="M47.14,49.88s0-.09,0-.14c.07-.06,0-.17.09-.22h0c.06-.06,0-.17.08-.22h0c.09-.27.18-.55.28-.82.21-.6.16-1.23.17-1.85.18-.08.27.07.37.16.36.33.67.72,1,1.08,1.09,1.24,2.41,2.12,3.99,2.6.55.17,1.09.39,1.59.68.15.09.34.18.3.42-.3.32-.72.27-1.1.33-.41.07-.83.09-1.24.14-.62.08-1.23-.05-1.82-.21-1.14-.3-2.24-.72-3.24-1.36-.21-.14-.51-.23-.45-.59"/>
  <path class="cls-16" d="M54.97,51.5c-.14-.22-.37-.32-.58-.43-.57-.29-1.17-.48-1.78-.68-1.01-.33-1.85-.92-2.67-1.57-.53-.43-.93-.96-1.39-1.45-.25-.27-.46-.58-.8-.74-.02-.07-.05-.14.01-.22.18.07.32.21.46.34.38.37.68.81,1.1,1.14.47.37.9.8,1.37,1.17.79.62,1.67,1.07,2.62,1.38.62.21,1.25.44,1.82.78.07.12.28.2.11.38-.12.07-.19,0-.26-.09"/>
  <path class="cls-48" d="M54.97,51.5c.09.03.17.06.26.09-.15.33-.47.46-.78.57-.67.23-1.37.38-2.08.45-1.08.11-2.15.17-3.23.21-.65.02-1.3-.06-1.94-.14-.54-.07-1.07-.18-1.6-.21-.05,0-.09-.02-.12-.06.19-.18.35-.38.49-.6h0c.07-.06.07-.17.16-.22h0c.09-.15.17-.32.3-.44h0s.04-.05.07-.08h0c.05-.07.09-.16.16-.22h0s.02-.11.08-.15h0s.02-.12.08-.14h0c.03-.08.08-.15.14-.23.14-.12.12-.31.22-.45.04.29.29.39.5.5.84.48,1.7.91,2.65,1.17.52.14,1.04.26,1.57.38.19.04.39.04.59.02.74-.09,1.48-.12,2.21-.28.12-.03.24-.05.32-.16"/>
  <path class="cls-51" d="M33.71,55.19c.17.04.26.18.36.31-.18-.03-.28-.15-.36-.31"/>
  <path class="cls-2" d="M24.09,37.27c.32,0,.61,0,.9-.06.18-.04.39-.06.55.12.1.11.15.2.02.31-.33.26-.57.61-.86.9-.42.43-.87.86-1.24,1.35-.56.75-1.03,1.55-1.45,2.38-.26.52-.42,1.06-.57,1.62-.03.1-.01.3-.17.28-.15-.02-.11-.19-.11-.31,0-.17,0-.34.05-.51.08-.3.09-.6.11-.91.03-.41.03-.83.12-1.24.06-.3-.06-.58-.08-.87-.02-.23-.04-.46-.05-.69,0-.2-.05-.4-.04-.58.02-.4-.02-.82.14-1.19.14-.35.5-.44.84-.51.06-.01.12,0,.18,0,.57.05,1.12-.11,1.66-.07"/>
  <path class="cls-2" d="M34.43,26.76c.09.2.09.4-.04.59-.06.09-.09.2-.09.31-.02.39-.2.72-.45,1.02-.1.11-.18.23-.27.35-.33.4-.8.56-1.25.76-.19.08-.41.04-.62.02-.23-.01-.46-.05-.69-.09-.67-.14-1.34-.28-2.03-.27-.23,0-.45-.07-.69-.07-.57-.01-1.12.11-1.67.19-.2.03-.4.07-.66.11.17-.21.38-.28.56-.42-.09-.02-.15-.02-.21-.03.05-.18.2-.16.33-.18,1.08-.18,2.16-.3,3.26-.15,1.63.23,2.89-.43,3.93-1.62.17-.2.3-.46.6-.5"/>
  <path class="cls-15" d="M28.4,27.6c-.25.27-.23.23-.55.07-.2-.1-.2-.2-.2-.35,0-.29-.1-.58-.07-.88.02-.25.06-.48.17-.73.17.13.25.31.34.47.14.23.16.24.4.1.22-.12.32-.13.44.06.4.63,1,.57,1.6.48.42-.07.84-.17,1.26-.26.35-.07.7-.1,1.04-.22.15-.06.21-.02.14.14-.02,0-.04,0-.06.01-.03.02-.06.04-.08.07h0s-.05.04-.08.07c-.56.45-1.23.69-1.89.94-.46.17-.92.32-1.35.56-.18.1-.33,0-.47-.09-.11-.07-.21-.17-.27-.3-.1-.11-.16-.31-.37-.14"/>
  <path class="cls-48" d="M34.96,33.72c-.1.13-.26.03-.37.1.09.16.27.2.4.3-.05.14-.16.12-.25.11-.29-.02-.56.06-.83.14-.35.11-.71.16-1.07.24-.41.09-.84.17-1.23.36-.78.4-1.55.83-2.27,1.35-.34.24-.69.46-1.02.72-.18.15-.32.12-.48-.02,0-.12.07-.2.15-.29,1.17-1.26,2.54-2.23,4.18-2.78.79-.26,1.61-.27,2.43-.34.12-.01.25-.01.34.09"/>
  <path class="cls-2" d="M23.3,29.81c0,.1-.02.21.01.29.08.21-.01.4-.12.55-.22.31-.45.61-.72.87-.24.24-.58.37-.9.46-.58.17-1.16.31-1.77.25-.72-.07-1.42-.23-2.1-.45-.04-.01-.09-.04-.12-.07-.05-.05-.11-.11-.09-.19.03-.12.13-.09.21-.1,1.2.39,2.32.12,3.42-.38.68-.31,1.33-.69,1.92-1.15.08-.06.15-.13.27-.09"/>
  <path class="cls-51" d="M34.96,33.72c-1.67-.02-3.25.31-4.67,1.24-.62.4-1.22.82-1.73,1.37-.23.24-.47.47-.71.7-.13-.14-.12-.28,0-.43.34-.4.66-.82,1.08-1.16.55-.43,1.04-.93,1.66-1.28,1.13-.63,2.32-1,3.63-.82.27.04.53.11.78.21.04.02.11.03.08.09-.02.04-.08.05-.12.07"/>
  <path class="cls-51" d="M34.43,26.76c-.2.16-.36.37-.52.56-.42.49-.92.89-1.46,1.23-.73.47-1.55.53-2.38.45-1.23-.13-2.45-.05-3.66.17-.04,0-.07.03-.1.05-.23,0-.43.08-.64.15-.06.02-.13.02-.16-.04-.05-.09.02-.14.08-.17.21-.13.45-.18.7-.23,1.15-.2,2.31-.29,3.48-.3,1.18,0,2.24-.38,3.19-1.08.36-.27.69-.59,1.11-.79.1-.05.2-.1.31-.12.1-.02.07.06.07.12"/>
  <path class="cls-4" d="M22.12,47.6c.23.66.63,1.21,1.04,1.77.42.58,1,1.01,1.39,1.64-.19.12-.36.05-.5-.06-.23-.19-.5-.31-.74-.47-.82-.55-1.46-1.28-1.66-2.26-.16-.78-.1-1.59.32-2.32.26.11.09.29.08.45h0c-.06.15-.06.29,0,.44,0,.07,0,.15,0,.22.1.19-.03.4.07.59"/>
  <path class="cls-51" d="M23.3,29.81c-.78.67-1.67,1.14-2.62,1.52-.81.33-1.64.47-2.51.33-.18-.03-.36-.06-.48-.23,0-.12.07-.17.18-.18.18-.02.37-.04.55-.05.99-.04,1.9-.33,2.76-.81.53-.29,1.09-.49,1.68-.63.14-.03.31-.12.43.05"/>
  <path class="cls-65" d="M14.3,34.02c-.2.27-.46.47-.69.71-.11.11-.21.09-.33.03-.12-.07-.19-.16-.16-.3.03-.14.07-.29.14-.42.17-.35.34-.71.56-1.04.28-.41.45-.87.68-1.31.04-.07.02-.19.15-.16.1.03.17.09.17.21,0,.16,0,.32-.03.48-.1.38-.21.76-.4,1.1-.02.04-.06.08-.02.13.1.03.14-.09.22-.1.12-.02.25-.02.21.15-.05.18.12.19.17.28.05.14-.12.08-.15.16-.07.15-.18.15-.3.06-.04-.04-.06-.13-.15-.07h0s-.05.04-.07.07"/>
  <path class="cls-20" d="M34.51,36.61c0,.11-.07.17-.16.22-1.13.63-2.25,1.27-3.38,1.91-.04.04-.11.02-.15.07h0s-.05.05-.08.07h0c-.09.06-.15.05-.15-.08h0s.05-.05.08-.07c.02-.02.05-.05.08-.07h0s.11-.03.14-.08c.48-.4,1.02-.71,1.56-1.03.21-.12.41-.25.6-.42-.21.06-.42.11-.62.17-.11.03-.2.02-.25-.09-.05-.11.01-.19.1-.24.17-.1.3-.24.49-.32.11-.05.23-.09.32-.27-.45.14-.87.21-1.25.42-.06.03-.13.11-.18.02-.04-.08.02-.13.1-.17.1-.05.19-.11.3-.14.55-.17,1.1-.33,1.65-.49.03,0,.07-.01.11-.01.15,0,.18.04.1.2-.02.03-.04.06-.06.09-.04.05-.11.04-.15.08-.03.02-.05.05-.08.07h0s-.11.03-.15.08h0c-.1.06-.17.17-.35.23.1-.02.14-.05.18-.06.08-.02.17.05.24-.02h0c.06-.07.16,0,.22-.07h0c.06-.07.16,0,.22-.07h0c.06-.07.16,0,.23-.07.02,0,.05,0,.07,0,.14-.04.16.08.22.15"/>
  <path class="cls-65" d="M30.32,31.89c-.07.08-.15.16-.22.25-.2.25-.45.38-.77.24-.18-.08-.25.02-.3.16-.12.31-.22.62-.27.95-.02.12-.03.26-.17.3-.18.05-.34,0-.48-.12-.04-.03-.06-.08-.05-.13.13-.73.19-1.47.29-2.22.19.02.3.08.36.28.13.5.5.63.93.33.14-.1.29-.19.45-.24.06-.02.12,0,.16.05.04.05.12.07.08.16"/>
  <path class="cls-15" d="M18.28,28.93c-.2.3-.39.59-.6.88-.14.2-.22.19-.34-.03-.04-.07-.06-.13-.09-.2-.02-.05-.03-.11-.04-.15-.12.01-.09.12-.16.15-.03,0-.04-.01-.04-.05.04-.65.17-1.28.37-1.9,0-.01,0-.03.01-.04.05-.08.08-.2.2-.16.1.03.07.14.05.23-.04.15-.07.31-.13.46-.07.18,0,.34.08.49.06.12.15.11.23,0,.15-.21.34-.39.53-.56.16-.14.27-.11.32.09.03.13.02.27.03.4.05.05.1.05.15,0,.29-.1.6.02.89-.07h0s.11-.04.14-.08c.05-.04.12-.04.15.01.03.06-.02.11-.07.14h0s-.11.03-.15.07h0s-.11.03-.15.07c-.02,0-.05,0-.07,0-.12-.06-.25-.06-.37,0h-.03s-.03,0-.03,0c-.09.08-.22-.02-.3.08h0s-.05.04-.08.07h0s-.05.04-.07.07h0c-.09.04-.11-.04-.15-.08,0-.02,0-.05,0-.07-.19-.13-.21.07-.29.15"/>
  <path class="cls-63" d="M22.04,46.34c-.03-.15.06-.32-.08-.45,0-.17.24-.14.24-.33,0-.12.05-.26.13-.36.11.03.04.14.12.18.22-.45.37-.94.69-1.34.07-.02.11,0,.08.08-.06.26-.19.5-.24.77-.01.09-.03.15-.17.11-.09-.03-.11.11-.13.18-.26.85-.41,1.69.12,2.5.01.01,0,.04,0,.07-.31-.12-.61-.85-.63-1.56-.1,0-.06.12-.14.14"/>
  <path class="cls-60" d="M13.41,37.56c-.02-.19-.15-.05-.23-.08.08-.17.26-.18.39-.25.71-.39,1.42-.77,2.22-.95.57-.13,1.14-.13,1.73-.12-.18.13-.18.13-.29.14-.85.09-1.68.32-2.51.54-.4.11-.74.38-1.09.6-.07.05-.13.11-.22.11"/>
  <path class="cls-33" d="M30.32,31.89c-.03-.05-.05-.11-.08-.16.56.06,1.09-.05,1.61-.24.41-.15.83-.27,1.27-.35.04-.04.11-.02.15-.07.05,0,.1,0,.15,0,.08-.03.09,0,.07.07-.02,0-.05,0-.07,0-.03.02-.05.05-.08.07-.44.07-.85.23-1.26.4-.5.21-1,.32-1.54.27-.07,0-.15,0-.22,0"/>
  <path class="cls-41" d="M23.23,44.14s-.06-.05-.08-.08c.41-1.02,1-1.93,1.55-2.88.07-.02.1,0,.07.07-.5.8-.9,1.66-1.33,2.5-.07.13-.11.28-.21.38"/>
  <path class="cls-36" d="M19.98,28.55c.04-.08.05-.15-.07-.15.66-.39,1.4-.53,2.15-.61-.69.25-1.39.51-2.08.76"/>
  <path class="cls-44" d="M14.81,33.95l.15-.16c.11.07.22.07.35.05.42-.08.84-.14,1.27-.19.14-.02.29,0,.44.02-.72.19-1.44.42-2.2.28"/>
  <path class="cls-31" d="M24.78,41.25s-.05-.05-.07-.07c.19-.34.37-.69.66-.96-.13.38-.38.7-.59,1.03"/>
  <path class="cls-32" d="M30.6,38.81c.03.06.09.08.15.08-.21.15-.4.32-.66.37h0c.14-.19.27-.38.51-.45"/>
  <path class="cls-68" d="M32.82,26.34c-.32.18-.67.23-1.04.22.33-.13.68-.19,1.04-.22"/>
  <path class="cls-38" d="M33.48,31.14s-.05-.05-.07-.07c.18-.13.39-.08.59-.12-.16.12-.33.2-.52.2"/>
  <path class="cls-29" d="M33.56,36.67c-.16.09-.33.15-.61.13.23-.11.35-.25.53-.28-.04.08-.05.15.08.15"/>
  <path class="cls-60" d="M13.18,37.48c-.16.14-.36.16-.55.22-.08.03-.19.03-.26-.07.28,0,.53-.16.81-.15"/>
  <path class="cls-36" d="M19.76,28.49c-.15.13-.32.05-.49.07-.13.01-.27,0-.4,0,.13-.13.3-.07.45-.07.14,0,.29,0,.44,0"/>
  <path class="cls-36" d="M18.28,28.93c0-.12.06-.21.15-.25.08-.04.2-.07.13.11-.13-.01-.19.1-.29.15"/>
  <path class="cls-61" d="M28.4,27.6c.19-.19.23-.17.37.14-.12-.06-.21-.18-.37-.14"/>
  <path class="cls-63" d="M22.12,47.6c-.15-.18-.05-.39-.07-.59.14.18.05.39.07.59"/>
  <path class="cls-28" d="M20.41,35.95c.06-.02.13-.01.16-.08.11-.02.2.06.3.07.02.07,0,.1-.08.09-.13-.02-.26,0-.38-.08"/>
  <path class="cls-47" d="M12.79,50.77c-.02.19-.08.25-.24.28.05-.12.1-.2.24-.28"/>
  <path class="cls-68" d="M32.96,26.48c0-.1-.05-.14-.14-.14.08-.11.2-.06.3-.07.01.14-.08.18-.16.22"/>
  <path class="cls-31" d="M25.59,39.85c-.02.15-.07.29-.22.37h0c.02-.15.07-.29.22-.37h0Z"/>
  <path class="cls-14" d="M20.78,36.02s.07-.04.08-.09c.09,0,.16.05.23.12-.11.03-.21.05-.31-.03"/>
  <path class="cls-63" d="M22.04,46.79c-.11-.15-.11-.29,0-.44,0,.15,0,.3,0,.44"/>
  <path class="cls-60" d="M13.04,37.71c.1-.1.24-.12.37-.15-.08.16-.23.15-.37.15"/>
  <path class="cls-36" d="M19.24,28.7c.12-.11.24-.11.37,0h-.37"/>
  <path class="cls-29" d="M34.51,36.61c-.07-.05-.15-.1-.22-.15.15-.07.18-.05.22.15"/>
  <path class="cls-36" d="M18.57,28.85c.05.03.1.05.15.08,0,.04-.01.11-.07.09-.08-.02-.08-.1-.08-.17"/>
  <path class="cls-60" d="M12.82,37.87c.03-.11.11-.16.22-.15-.04.09-.12.14-.22.15"/>
  <path class="cls-36" d="M18.87,28.78c.08-.12.19-.07.3-.08-.08.1-.2.06-.3.08"/>
  <path class="cls-29" d="M34,36.53c-.06.08-.14.07-.22.07.05-.09.14-.07.22-.07"/>
  <path class="cls-29" d="M34.23,36.45c-.06.08-.14.07-.23.07.05-.09.14-.07.23-.07"/>
  <path class="cls-29" d="M33.78,36.6c-.06.08-.14.07-.22.07.05-.09.14-.07.22-.07"/>
  <path class="cls-22" d="M14.37,33.95c.11-.11.13-.03.15.07-.05-.02-.1-.05-.15-.07"/>
  <path class="cls-36" d="M19.68,28.7c.03-.06.09-.07.15-.07-.03.06-.08.08-.15.07"/>
  <path class="cls-29" d="M33.7,36.38c.03-.06.09-.07.15-.08-.03.07-.08.08-.15.08"/>
  <path class="cls-36" d="M19.83,28.63c.03-.06.09-.07.15-.07-.03.06-.09.07-.15.07"/>
  <path class="cls-36" d="M18.87,28.56c-.05.08-.1.08-.15,0,.05,0,.1,0,.15,0"/>
  <path class="cls-36" d="M19.9,28.41c-.03.06-.08.07-.14.08.03-.06.08-.08.14-.08"/>
  <path class="cls-38" d="M33.26,31.07c-.04.06-.09.07-.15.07.03-.06.09-.07.15-.07"/>
  <path class="cls-32" d="M30.83,38.82c.03-.06.09-.08.15-.07-.03.06-.09.07-.15.07"/>
  <path class="cls-32" d="M30.9,38.59c-.03.06-.08.08-.14.08.03-.06.08-.08.14-.08"/>
  <path class="cls-29" d="M33.48,36.53c.03-.06.09-.07.15-.08-.03.06-.09.08-.15.08"/>
  <path class="cls-32" d="M30.75,38.89l.08-.07-.08.07Z"/>
  <path class="cls-29" d="M33.63,36.45s.05-.05.08-.07c-.03.02-.05.05-.08.07"/>
  <path class="cls-31" d="M25.59,39.85s.01-.03.02-.03c.02,0,.02.02-.02.03h0Z"/>
  <path class="cls-32" d="M30.68,38.74s-.05.05-.08.07c.03-.02.05-.05.08-.07"/>
  <path class="cls-32" d="M30.75,38.67l-.08.07.08-.07Z"/>
  <path class="cls-68" d="M32.74,26.63s.05-.05.08-.07c-.03.02-.05.05-.08.07"/>
  <path class="cls-68" d="M32.82,26.56l.08-.07-.08.07Z"/>
  <path class="cls-36" d="M18.72,28.93s.05-.05.07-.08c-.02.03-.05.05-.07.08"/>
  <path class="cls-36" d="M18.8,28.85s.05-.05.08-.07c-.03.02-.05.05-.08.07"/>
  <path class="cls-32" d="M30.09,39.26s-.02.02-.03.03c0,0,0-.02,0-.02,0,0,.02,0,.02-.01h0Z"/>
  <path class="cls-38" d="M33.33,31.21s.05-.05.08-.07c-.03.02-.05.05-.08.07"/>
  <path class="cls-42" d="M20.79,50.1s.05.04.05.08c-.02-.03-.03-.05-.05-.08"/>
  <path class="cls-22" d="M14.3,34.02s.03-.06.07-.07c-.02.02-.05.05-.07.07"/>
  <path class="cls-51" d="M12.27,25.46c.06.16.03.3-.01.44-.05.19-.15.36-.17.56-.02.16-.13.21-.27.17-.37-.1-.72-.26-.99-.54-.04-.04-.09-.1-.04-.16.02-.03.09-.04.13-.04.18.02.36.05.55.08.15.03.26-.01.34-.15.11-.18.24-.33.48-.36"/>
  <path class="cls-51" d="M3.07,26.55c.18-.05.3-.12.37-.26.05-.09.12-.12.21-.05.07.06.17.12.09.24-.02.03-.04.06-.06.09-.21.32-.31.32-.61-.02"/>
  <path class="cls-24" d="M8.82,25.42c-.02.07-.07.11-.13.09-.09-.03-.21-.04-.19-.17.01-.08.09-.11.17-.1.1.02.14.08.15.18"/>
  <path class="cls-51" d="M16.21,13.86c-.05.05-.1.06-.15.01-.04-.05-.11-.04-.16-.07h0c-.02-.06-.1-.04-.14-.08-.19-.1-.35-.23-.45-.42-.05-.42.16-.73.46-.96.21-.16.4-.01.6.15.27.23.23.35-.04.48-.03.02-.05.03-.08.04-.05.03-.1.05-.13.1-.02.05-.03.1,0,.15.08.12.27.19.18.38h0c-.1.03-.02.15-.09.2"/>
  <path class="cls-7" d="M16.65,12.9c.38-.11.77-.11,1.15,0,.07.02.14.05.15.14,0,.09-.06.12-.13.16-.24.12-.48.23-.76.22-.18,0-.37,0-.55,0-.13-.12-.12-.28-.11-.44.06-.09.13-.15.25-.08"/>
  <path class="cls-51" d="M16.65,12.9c-.07.03-.15.06-.22.08-.06.06-.13.06-.2.02.05-.14.21-.16.29-.27-.08-.11-.26-.11-.31-.3-.03-.12-.36-.1-.47.02-.22.24-.33.54-.42.84-.17-.14-.16-.32-.13-.5.04-.2.11-.4.23-.57.19-.27.32-.3.61-.14.2.12.37.27.53.44.1.11.14.23.09.37"/>
  <path class="cls-6" d="M16.23,13c.07,0,.14-.01.2-.02.09.13.07.29.08.44-.02.02-.04.05-.07.07-.18-.03-.32-.12-.45-.24,0-.07.04-.12.07-.17.03-.08.1-.06.16-.08h0Z"/>
  <path class="cls-51" d="M16,13.25c.13.11.33.11.45.24-.05.06-.07.13-.15.17-.02-.1-.05-.18-.15-.23-.08-.04-.14-.09-.15-.18"/>
  <path class="cls-51" d="M16.21,13.86c0-.08-.02-.17.09-.21-.03.07.02.17-.09.21"/>
  <path class="cls-51" d="M15.91,13.8c.07-.01.13,0,.16.07-.07.01-.12,0-.16-.07"/>
  <path class="cls-51" d="M15.77,13.72c.07,0,.12.02.14.09-.06,0-.11-.03-.14-.09"/>
  <path class="cls-12" d="M12.24,47.71s.04.03.04.07c0,.05-.03.09-.08.08-.02,0-.04-.06-.04-.09,0-.04.02-.06.08-.06"/>
  <path class="cls-64" d="M34.99,11.65c.21,0,.41,0,.61.09.25.12.41.32.43.56.03.28-.11.56-.36.67-.54.24-1.1.41-1.7.23-.57-.17-.64-.56-.46-1.07.04-.11.14-.16.24-.22.33-.18.74-.27,1.24-.27"/>
  <path class="cls-51" d="M37.3,11.28c.11,0,.24.08.3.25.09.3.17.61.25.92.05.18,0,.35-.16.45-.18.11-.38.16-.59.08-.09-.04-.12-.12-.14-.2-.09-.3-.2-.6-.28-.91-.08-.33.16-.57.63-.59"/>
  <path class="cls-58" d="M44.62,48.7c.14-.57.06-1.14.08-1.72,0-.26.05-.5.11-.76.22,0,.34.12.38.3.15.75.22,1.5-.26,2.18-.09.11.01.26-.07.37h0c-.05.04-.1.04-.16,0h0c-.15-.1-.14-.24-.07-.38"/>
  <path class="cls-33" d="M44.7,49.08c.05,0,.1,0,.16,0-.23,1.03-.62,1.99-1.3,2.82.14-.49.4-.92.65-1.36.25-.46.34-.96.5-1.45"/>
  <path class="cls-33" d="M44.62,48.7c0,.13.01.26.07.38-.25-.11-.25-.12-.07-.38"/>
  <path class="cls-33" d="M44.85,49.08c.01-.12-.05-.27.07-.37-.01.13.05.27-.07.37"/>
  <path class="cls-71" d="M39.88,47.83s-.05.04-.09.03c-.04-.02-.09-.05-.08-.11,0-.04.05-.03.08-.02.04.02.09.04.08.1"/>
  <path class="cls-51" d="M30.32,48.41c-.1-.05-.08-.14-.07-.23.07.06.08.14.07.23"/>
  <path class="cls-71" d="M39.24,48.63s.07.07.05.07c-.08.03-.03-.05-.05-.07"/>
  <polygon class="cls-46" points="36.95 55.64 36.94 55.67 36.92 55.66 36.95 55.64"/>
  <path class="cls-50" d="M41.98,22.43c.01-.12-.05-.26.06-.37,0,.13.04.26-.06.37"/>
  <path class="cls-51" d="M46.41,51.15c-.07.17-.17.32-.3.45.02-.2.1-.36.3-.45"/>
  <path class="cls-51" d="M46.11,51.59c-.02.1-.07.17-.16.22,0-.11,0-.22.16-.22"/>
  <path class="cls-51" d="M46.63,50.85c-.02.1-.07.17-.16.22,0-.11.05-.19.16-.22"/>
  <path class="cls-51" d="M46.92,50.33c0,.1-.06.18-.14.24-.02-.12.03-.19.14-.24"/>
  <path class="cls-51" d="M47.3,49.3c0,.08-.01.17-.08.23,0-.09-.03-.18.08-.23"/>
  <path class="cls-51" d="M47.22,49.52c0,.08-.02.16-.09.22,0-.08-.01-.17.09-.22"/>
  <path class="cls-51" d="M46.79,50.56c0,.06-.02.12-.08.15,0-.07,0-.13.08-.15"/>
  <path class="cls-51" d="M46.71,50.7c0,.06-.02.12-.08.15,0-.07,0-.13.08-.15"/>
  <path class="cls-51" d="M46.48,51.07s-.03.08-.07.09c0-.04.03-.07.07-.09"/>
  <polygon class="cls-51" points="45.96 51.44 45.99 51.45 45.97 51.47 45.96 51.44"/>
  <path class="cls-51" d="M16.23,13c-.04.06-.1.07-.16.08.02-.09.08-.1.16-.08"/>
</svg>