<?xml version="1.0" encoding="UTF-8"?>
<svg xmlns="http://www.w3.org/2000/svg" version="1.1" xmlns:xlink="http://www.w3.org/1999/xlink" viewBox="0 0 197.21 158.06">
  <defs>
    <style>
      .cls-1 {
        fill: url(#_Áåçûìÿííûé_ãðàäèåíò_192-16);
      }

      .cls-1, .cls-2, .cls-3, .cls-4, .cls-5, .cls-6, .cls-7, .cls-8, .cls-9, .cls-10, .cls-11, .cls-12, .cls-13, .cls-14, .cls-15, .cls-16, .cls-17, .cls-18, .cls-19, .cls-20, .cls-21, .cls-22, .cls-23, .cls-24, .cls-25, .cls-26, .cls-27, .cls-28, .cls-29, .cls-30, .cls-31, .cls-32, .cls-33, .cls-34, .cls-35, .cls-36, .cls-37, .cls-38, .cls-39, .cls-40, .cls-41, .cls-42, .cls-43, .cls-44, .cls-45, .cls-46, .cls-47, .cls-48, .cls-49, .cls-50, .cls-51, .cls-52, .cls-53, .cls-54, .cls-55, .cls-56, .cls-57, .cls-58, .cls-59, .cls-60, .cls-61, .cls-62, .cls-63, .cls-64, .cls-65, .cls-66, .cls-67, .cls-68, .cls-69, .cls-70, .cls-71, .cls-72, .cls-73, .cls-74, .cls-75, .cls-76, .cls-77, .cls-78, .cls-79, .cls-80, .cls-81, .cls-82, .cls-83, .cls-84, .cls-85, .cls-86, .cls-87, .cls-88, .cls-89, .cls-90, .cls-91, .cls-92, .cls-93, .cls-94, .cls-95, .cls-96, .cls-97, .cls-98, .cls-99, .cls-100, .cls-101, .cls-102, .cls-103, .cls-104, .cls-105 {
        stroke-width: 0px;
      }

      .cls-1, .cls-13, .cls-14, .cls-41, .cls-43, .cls-47, .cls-48, .cls-70, .cls-74, .cls-76, .cls-80, .cls-89, .cls-91, .cls-93, .cls-98 {
        fill-rule: evenodd;
      }

      .cls-2 {
        fill: url(#_Áåçûìÿííûé_ãðàäèåíò_77-6);
      }

      .cls-106, .cls-3, .cls-8, .cls-9, .cls-11, .cls-15, .cls-16, .cls-20, .cls-22, .cls-25, .cls-28, .cls-30, .cls-31, .cls-35, .cls-36, .cls-37, .cls-39, .cls-44, .cls-45, .cls-49, .cls-52, .cls-54, .cls-56, .cls-58, .cls-61, .cls-62, .cls-66, .cls-72, .cls-73, .cls-85, .cls-101 {
        mix-blend-mode: multiply;
      }

      .cls-106, .cls-3, .cls-8, .cls-11, .cls-15, .cls-16, .cls-20, .cls-22, .cls-25, .cls-30, .cls-35, .cls-39, .cls-61 {
        opacity: .4;
      }

      .cls-3 {
        fill: url(#_Áåçûìÿííûé_ãðàäèåíò_271-8);
      }

      .cls-4 {
        fill: url(#_Áåçûìÿííûé_ãðàäèåíò_176-3);
      }

      .cls-5 {
        fill: url(#_Áåçûìÿííûé_ãðàäèåíò_182);
      }

      .cls-6 {
        fill: url(#_Áåçûìÿííûé_ãðàäèåíò_169-7);
      }

      .cls-7 {
        fill: url(#_Áåçûìÿííûé_ãðàäèåíò_82-4);
      }

      .cls-8 {
        fill: url(#_Áåçûìÿííûé_ãðàäèåíò_271-16);
      }

      .cls-9 {
        fill: url(#_Áåçûìÿííûé_ãðàäèåíò_103-4);
      }

      .cls-9, .cls-31, .cls-44, .cls-72, .cls-79 {
        opacity: .6;
      }

      .cls-10 {
        fill: url(#_Áåçûìÿííûé_ãðàäèåíò_77-8);
      }

      .cls-11 {
        fill: url(#_Áåçûìÿííûé_ãðàäèåíò_271-11);
      }

      .cls-12 {
        fill: url(#_Áåçûìÿííûé_ãðàäèåíò_165-2);
      }

      .cls-13 {
        fill: url(#_Áåçûìÿííûé_ãðàäèåíò_192-13);
      }

      .cls-14 {
        fill: url(#_Áåçûìÿííûé_ãðàäèåíò_192-19);
      }

      .cls-15 {
        fill: url(#_Áåçûìÿííûé_ãðàäèåíò_271-10);
      }

      .cls-16 {
        fill: url(#_Áåçûìÿííûé_ãðàäèåíò_271-4);
      }

      .cls-17 {
        fill: #8e8a79;
      }

      .cls-18 {
        fill: url(#_Áåçûìÿííûé_ãðàäèåíò_77-3);
      }

      .cls-19 {
        fill: url(#_Áåçûìÿííûé_ãðàäèåíò_169-3);
      }

      .cls-20 {
        fill: url(#_Áåçûìÿííûé_ãðàäèåíò_271-2);
      }

      .cls-21 {
        fill: url(#_Áåçûìÿííûé_ãðàäèåíò_82);
      }

      .cls-22 {
        fill: url(#_Áåçûìÿííûé_ãðàäèåíò_271-9);
      }

      .cls-23 {
        fill: url(#_Áåçûìÿííûé_ãðàäèåíò_165);
      }

      .cls-24 {
        fill: url(#_Áåçûìÿííûé_ãðàäèåíò_77-4);
      }

      .cls-25 {
        fill: url(#_Áåçûìÿííûé_ãðàäèåíò_271-7);
      }

      .cls-26 {
        fill: url(#_Áåçûìÿííûé_ãðàäèåíò_180-11);
      }

      .cls-27 {
        fill: #ffe54a;
      }

      .cls-27, .cls-28, .cls-54, .cls-56, .cls-58, .cls-62, .cls-73, .cls-101 {
        opacity: .5;
      }

      .cls-27, .cls-79 {
        mix-blend-mode: screen;
      }

      .cls-28 {
        fill: url(#_Áåçûìÿííûé_ãðàäèåíò_103);
      }

      .cls-29 {
        fill: url(#_Áåçûìÿííûé_ãðàäèåíò_77-15);
      }

      .cls-30 {
        fill: url(#_Áåçûìÿííûé_ãðàäèåíò_271-6);
      }

      .cls-31 {
        fill: url(#_Áåçûìÿííûé_ãðàäèåíò_271);
      }

      .cls-32 {
        fill: url(#_Áåçûìÿííûé_ãðàäèåíò_180-5);
      }

      .cls-107 {
        isolation: isolate;
      }

      .cls-33 {
        fill: url(#_Áåçûìÿííûé_ãðàäèåíò_77-5);
      }

      .cls-34 {
        fill: url(#_Áåçûìÿííûé_ãðàäèåíò_180-10);
      }

      .cls-35 {
        fill: url(#_Áåçûìÿííûé_ãðàäèåíò_271-15);
      }

      .cls-36 {
        fill: url(#_Áåçûìÿííûé_ãðàäèåíò_192-6);
      }

      .cls-36, .cls-37, .cls-45, .cls-49, .cls-66 {
        opacity: .8;
      }

      .cls-37 {
        fill: url(#_Áåçûìÿííûé_ãðàäèåíò_192-2);
      }

      .cls-38 {
        fill: url(#_Áåçûìÿííûé_ãðàäèåíò_77-7);
      }

      .cls-39 {
        fill: url(#_Áåçûìÿííûé_ãðàäèåíò_271-5);
      }

      .cls-40 {
        fill: url(#_Áåçûìÿííûé_ãðàäèåíò_82-7);
      }

      .cls-41 {
        fill: url(#_Áåçûìÿííûé_ãðàäèåíò_192-11);
      }

      .cls-42 {
        fill: url(#_Áåçûìÿííûé_ãðàäèåíò_82-2);
      }

      .cls-43 {
        fill: url(#_Áåçûìÿííûé_ãðàäèåíò_192-20);
      }

      .cls-44 {
        fill: url(#_Áåçûìÿííûé_ãðàäèåíò_271-3);
      }

      .cls-45 {
        fill: url(#_Áåçûìÿííûé_ãðàäèåíò_192);
      }

      .cls-46 {
        fill: url(#_Áåçûìÿííûé_ãðàäèåíò_180);
      }

      .cls-47 {
        fill: url(#_Áåçûìÿííûé_ãðàäèåíò_192-14);
      }

      .cls-48 {
        fill: url(#_Áåçûìÿííûé_ãðàäèåíò_192-18);
      }

      .cls-49 {
        fill: url(#_Áåçûìÿííûé_ãðàäèåíò_192-5);
      }

      .cls-50 {
        fill: url(#_Áåçûìÿííûé_ãðàäèåíò_82-9);
      }

      .cls-51 {
        fill: #698096;
      }

      .cls-52 {
        fill: url(#_Áåçûìÿííûé_ãðàäèåíò_192-3);
      }

      .cls-53 {
        fill: #f28f36;
      }

      .cls-54 {
        fill: url(#_Áåçûìÿííûé_ãðàäèåíò_103-5);
      }

      .cls-55 {
        fill: url(#_Áåçûìÿííûé_ãðàäèåíò_169-5);
      }

      .cls-56 {
        fill: url(#_Áåçûìÿííûé_ãðàäèåíò_103-8);
      }

      .cls-57 {
        fill: url(#_Áåçûìÿííûé_ãðàäèåíò_169-4);
      }

      .cls-58 {
        fill: url(#_Áåçûìÿííûé_ãðàäèåíò_103-3);
      }

      .cls-59 {
        fill: url(#_Áåçûìÿííûé_ãðàäèåíò_82-5);
      }

      .cls-60 {
        fill: url(#_Áåçûìÿííûé_ãðàäèåíò_77-16);
      }

      .cls-61 {
        fill: url(#_Áåçûìÿííûé_ãðàäèåíò_271-12);
      }

      .cls-62 {
        fill: url(#_Áåçûìÿííûé_ãðàäèåíò_103-2);
      }

      .cls-63 {
        fill: url(#_Áåçûìÿííûé_ãðàäèåíò_165-3);
      }

      .cls-64 {
        fill: url(#_Áåçûìÿííûé_ãðàäèåíò_77-17);
      }

      .cls-65 {
        fill: url(#_Áåçûìÿííûé_ãðàäèåíò_77-12);
      }

      .cls-66 {
        fill: url(#_Áåçûìÿííûé_ãðàäèåíò_192-4);
      }

      .cls-67 {
        fill: url(#_Áåçûìÿííûé_ãðàäèåíò_77-13);
      }

      .cls-68 {
        fill: url(#_Áåçûìÿííûé_ãðàäèåíò_77-9);
      }

      .cls-69 {
        fill: url(#_Áåçûìÿííûé_ãðàäèåíò_180-9);
      }

      .cls-70 {
        fill: url(#_Áåçûìÿííûé_ãðàäèåíò_192-9);
      }

      .cls-71 {
        fill: url(#_Áåçûìÿííûé_ãðàäèåíò_180-2);
      }

      .cls-72 {
        fill: url(#_Áåçûìÿííûé_ãðàäèåíò_271-14);
      }

      .cls-73 {
        fill: url(#_Áåçûìÿííûé_ãðàäèåíò_103-7);
      }

      .cls-74 {
        fill: url(#_Áåçûìÿííûé_ãðàäèåíò_192-21);
      }

      .cls-75 {
        fill: url(#_Áåçûìÿííûé_ãðàäèåíò_77);
      }

      .cls-76 {
        fill: url(#_Áåçûìÿííûé_ãðàäèåíò_192-15);
      }

      .cls-77 {
        fill: url(#_Áåçûìÿííûé_ãðàäèåíò_180-8);
      }

      .cls-78 {
        fill: #ffaa45;
      }

      .cls-79 {
        fill: #0ca9b9;
      }

      .cls-80 {
        fill: url(#_Áåçûìÿííûé_ãðàäèåíò_192-10);
      }

      .cls-81 {
        fill: url(#_Áåçûìÿííûé_ãðàäèåíò_82-8);
      }

      .cls-82 {
        fill: url(#_Áåçûìÿííûé_ãðàäèåíò_82-3);
      }

      .cls-83 {
        fill: url(#_Áåçûìÿííûé_ãðàäèåíò_176-4);
      }

      .cls-84 {
        fill: url(#_Áåçûìÿííûé_ãðàäèåíò_77-14);
      }

      .cls-85 {
        fill: url(#_Áåçûìÿííûé_ãðàäèåíò_271-13);
        opacity: .63;
      }

      .cls-86 {
        fill: url(#_Áåçûìÿííûé_ãðàäèåíò_169-2);
      }

      .cls-87 {
        fill: url(#_Áåçûìÿííûé_ãðàäèåíò_77-2);
      }

      .cls-88 {
        fill: url(#_Áåçûìÿííûé_ãðàäèåíò_169-6);
      }

      .cls-89 {
        fill: url(#_Áåçûìÿííûé_ãðàäèåíò_192-12);
      }

      .cls-90 {
        fill: url(#_Áåçûìÿííûé_ãðàäèåíò_180-3);
      }

      .cls-91 {
        fill: url(#_Áåçûìÿííûé_ãðàäèåíò_192-17);
      }

      .cls-92 {
        fill: url(#_Áåçûìÿííûé_ãðàäèåíò_180-7);
      }

      .cls-93 {
        fill: url(#_Áåçûìÿííûé_ãðàäèåíò_192-7);
      }

      .cls-94 {
        fill: url(#_Áåçûìÿííûé_ãðàäèåíò_82-6);
      }

      .cls-95 {
        fill: url(#_Áåçûìÿííûé_ãðàäèåíò_180-6);
      }

      .cls-96 {
        fill: url(#_Áåçûìÿííûé_ãðàäèåíò_176);
      }

      .cls-97 {
        fill: url(#_Áåçûìÿííûé_ãðàäèåíò_180-4);
      }

      .cls-98 {
        fill: url(#_Áåçûìÿííûé_ãðàäèåíò_192-8);
      }

      .cls-99 {
        fill: #475f72;
      }

      .cls-100 {
        fill: url(#_Áåçûìÿííûé_ãðàäèåíò_169);
      }

      .cls-101 {
        fill: url(#_Áåçûìÿííûé_ãðàäèåíò_103-6);
      }

      .cls-102 {
        fill: url(#_Áåçûìÿííûé_ãðàäèåíò_77-11);
      }

      .cls-103 {
        fill: url(#_Áåçûìÿííûé_ãðàäèåíò_77-10);
      }

      .cls-104 {
        fill: url(#_Áåçûìÿííûé_ãðàäèåíò_176-2);
      }

      .cls-105 {
        fill: #590946;
      }
    </style>
    <linearGradient id="_Áåçûìÿííûé_ãðàäèåíò_180" data-name="Áåçûìÿííûé ãðàäèåíò 180" x1="29.74" y1="88.95" x2="41.02" y2="65.32" gradientUnits="userSpaceOnUse">
      <stop offset="0" stop-color="#096084"/>
      <stop offset="1" stop-color="#003e54"/>
    </linearGradient>
    <linearGradient id="_Áåçûìÿííûé_ãðàäèåíò_165" data-name="Áåçûìÿííûé ãðàäèåíò 165" x1="182.85" y1="51.08" x2="159.79" y2="58.18" gradientUnits="userSpaceOnUse">
      <stop offset="0" stop-color="#93a9c3"/>
      <stop offset=".22" stop-color="#acbec3"/>
      <stop offset=".49" stop-color="#c3d2c3"/>
      <stop offset=".74" stop-color="#d1dec3"/>
      <stop offset=".96" stop-color="#d6e3c3"/>
    </linearGradient>
    <linearGradient id="_Áåçûìÿííûé_ãðàäèåíò_165-2" data-name="Áåçûìÿííûé ãðàäèåíò 165" x1="177.71" y1="34.38" x2="154.65" y2="41.48" xlink:href="#_Áåçûìÿííûé_ãðàäèåíò_165"/>
    <linearGradient id="_Áåçûìÿííûé_ãðàäèåíò_192" data-name="Áåçûìÿííûé ãðàäèåíò 192" x1="193.71" y1="45.02" x2="134.01" y2="64.69" gradientUnits="userSpaceOnUse">
      <stop offset="0" stop-color="#4f4a8d"/>
      <stop offset="1" stop-color="#fff"/>
    </linearGradient>
    <linearGradient id="_Áåçûìÿííûé_ãðàäèåíò_165-3" data-name="Áåçûìÿííûé ãðàäèåíò 165" x1="101.83" y1="161.05" x2="96.54" y2="72.31" xlink:href="#_Áåçûìÿííûé_ãðàäèåíò_165"/>
    <linearGradient id="_Áåçûìÿííûé_ãðàäèåíò_192-2" data-name="Áåçûìÿííûé ãðàäèåíò 192" x1="75.47" y1="144.61" x2="166.82" y2="30.5" xlink:href="#_Áåçûìÿííûé_ãðàäèåíò_192"/>
    <linearGradient id="_Áåçûìÿííûé_ãðàäèåíò_192-3" data-name="Áåçûìÿííûé ãðàäèåíò 192" x1="120.86" y1="65.69" x2="139.64" y2="189.78" xlink:href="#_Áåçûìÿííûé_ãðàäèåíò_192"/>
    <linearGradient id="_Áåçûìÿííûé_ãðàäèåíò_180-2" data-name="Áåçûìÿííûé ãðàäèåíò 180" x1="77.61" y1="65.47" x2="84.93" y2="80.77" xlink:href="#_Áåçûìÿííûé_ãðàäèåíò_180"/>
    <linearGradient id="_Áåçûìÿííûé_ãðàäèåíò_77" data-name="Áåçûìÿííûé ãðàäèåíò 77" x1="8.43" y1="97.93" x2="98.03" y2="97.93" gradientUnits="userSpaceOnUse">
      <stop offset=".02" stop-color="#d96a39"/>
      <stop offset=".99" stop-color="#981c36"/>
    </linearGradient>
    <linearGradient id="_Áåçûìÿííûé_ãðàäèåíò_77-2" data-name="Áåçûìÿííûé ãðàäèåíò 77" x1="92.48" y1="50.96" x2="152.13" y2="50.96" xlink:href="#_Áåçûìÿííûé_ãðàäèåíò_77"/>
    <linearGradient id="_Áåçûìÿííûé_ãðàäèåíò_82" data-name="Áåçûìÿííûé ãðàäèåíò 82" x1="90.56" y1="54.19" x2="217.98" y2="17.24" gradientUnits="userSpaceOnUse">
      <stop offset="0" stop-color="#f28f36"/>
      <stop offset="1" stop-color="#dc6221"/>
    </linearGradient>
    <linearGradient id="_Áåçûìÿííûé_ãðàäèåíò_169" data-name="Áåçûìÿííûé ãðàäèåíò 169" x1="18.1" y1="94.08" x2="45.81" y2="36.04" gradientUnits="userSpaceOnUse">
      <stop offset="0" stop-color="#0ca9b9"/>
      <stop offset="1" stop-color="#008089"/>
    </linearGradient>
    <linearGradient id="_Áåçûìÿííûé_ãðàäèåíò_169-2" data-name="Áåçûìÿííûé ãðàäèåíò 169" x1="30.31" y1="122.06" x2="70.67" y2="94.34" xlink:href="#_Áåçûìÿííûé_ãðàäèåíò_169"/>
    <linearGradient id="_Áåçûìÿííûé_ãðàäèåíò_176" data-name="Áåçûìÿííûé ãðàäèåíò 176" x1="34.52" y1="90.1" x2="62.06" y2="32.41" gradientUnits="userSpaceOnUse">
      <stop offset="0" stop-color="#0cb995"/>
      <stop offset="1" stop-color="#008968"/>
    </linearGradient>
    <linearGradient id="_Áåçûìÿííûé_ãðàäèåíò_169-3" data-name="Áåçûìÿííûé ãðàäèåíò 169" x1="132.26" y1="89" x2="110.98" y2="66.83" xlink:href="#_Áåçûìÿííûé_ãðàäèåíò_169"/>
    <linearGradient id="_Áåçûìÿííûé_ãðàäèåíò_169-4" data-name="Áåçûìÿííûé ãðàäèåíò 169" x1="20.81" y1="108.22" x2="61.16" y2="80.51" xlink:href="#_Áåçûìÿííûé_ãðàäèåíò_169"/>
    <linearGradient id="_Áåçûìÿííûé_ãðàäèåíò_176-2" data-name="Áåçûìÿííûé ãðàäèåíò 176" x1="112.22" y1="67.26" x2="151.24" y2="-14.46" xlink:href="#_Áåçûìÿííûé_ãðàäèåíò_176"/>
    <linearGradient id="_Áåçûìÿííûé_ãðàäèåíò_169-5" data-name="Áåçûìÿííûé ãðàäèåíò 169" x1="78.92" y1="73.23" x2="112.46" y2="2.96" xlink:href="#_Áåçûìÿííûé_ãðàäèåíò_169"/>
    <linearGradient id="_Áåçûìÿííûé_ãðàäèåíò_180-3" data-name="Áåçûìÿííûé ãðàäèåíò 180" x1="69.96" y1="89.55" x2="72.32" y2="76.39" xlink:href="#_Áåçûìÿííûé_ãðàäèåíò_180"/>
    <linearGradient id="_Áåçûìÿííûé_ãðàäèåíò_103" data-name="Áåçûìÿííûé ãðàäèåíò 103" x1="86.56" y1="60.92" x2="97.53" y2="121.28" gradientUnits="userSpaceOnUse">
      <stop offset="0" stop-color="#700065"/>
      <stop offset="1" stop-color="#fff"/>
    </linearGradient>
    <linearGradient id="_Áåçûìÿííûé_ãðàäèåíò_77-3" data-name="Áåçûìÿííûé ãðàäèåíò 77" x1="122.88" y1="20.5" x2="150.82" y2="55.24" xlink:href="#_Áåçûìÿííûé_ãðàäèåíò_77"/>
    <linearGradient id="_Áåçûìÿííûé_ãðàäèåíò_77-4" data-name="Áåçûìÿííûé ãðàäèåíò 77" x1="117.63" y1="116.74" x2="181.04" y2="28.94" xlink:href="#_Áåçûìÿííûé_ãðàäèåíò_77"/>
    <linearGradient id="_Áåçûìÿííûé_ãðàäèåíò_192-4" data-name="Áåçûìÿííûé ãðàäèåíò 192" x1="39.55" y1="124.74" x2="46.1" y2="145.45" xlink:href="#_Áåçûìÿííûé_ãðàäèåíò_192"/>
    <linearGradient id="_Áåçûìÿííûé_ãðàäèåíò_82-2" data-name="Áåçûìÿííûé ãðàäèåíò 82" x1="47.22" y1="144.41" x2="48.05" y2="121.49" xlink:href="#_Áåçûìÿííûé_ãðàäèåíò_82"/>
    <linearGradient id="_Áåçûìÿííûé_ãðàäèåíò_271" data-name="Áåçûìÿííûé ãðàäèåíò 271" x1="50.75" y1="144.48" x2="44.89" y2="124.07" gradientUnits="userSpaceOnUse">
      <stop offset="0" stop-color="#fff"/>
      <stop offset=".98" stop-color="#a90038"/>
    </linearGradient>
    <linearGradient id="_Áåçûìÿííûé_ãðàäèåíò_77-5" data-name="Áåçûìÿííûé ãðàäèåíò 77" x1="-252.31" y1="-111.64" x2="-250.6" y2="-132.1" gradientTransform="translate(301.59 240.13) rotate(-2.45)" xlink:href="#_Áåçûìÿííûé_ãðàäèåíò_77"/>
    <radialGradient id="_Áåçûìÿííûé_ãðàäèåíò_182" data-name="Áåçûìÿííûé ãðàäèåíò 182" cx="38.2" cy="114.27" fx="38.2" fy="114.27" r="14.52" gradientUnits="userSpaceOnUse">
      <stop offset="0" stop-color="#f28f36"/>
      <stop offset="1" stop-color="#dc6221"/>
    </radialGradient>
    <linearGradient id="_Áåçûìÿííûé_ãðàäèåíò_77-6" data-name="Áåçûìÿííûé ãðàäèåíò 77" x1="-252.35" y1="-129.31" x2="-254.39" y2="-137.28" gradientTransform="translate(301.59 240.13) rotate(-2.45)" xlink:href="#_Áåçûìÿííûé_ãðàäèåíò_77"/>
    <linearGradient id="_Áåçûìÿííûé_ãðàäèåíò_82-3" data-name="Áåçûìÿííûé ãðàäèåíò 82" x1="-253.5" y1="-133.96" x2="-253.93" y2="-136.02" gradientTransform="translate(301.59 240.13) rotate(-2.45)" xlink:href="#_Áåçûìÿííûé_ãðàäèåíò_82"/>
    <linearGradient id="_Áåçûìÿííûé_ãðàäèåíò_271-2" data-name="Áåçûìÿííûé ãðàäèåíò 271" x1="33.99" y1="131.85" x2="30.81" y2="111.86" xlink:href="#_Áåçûìÿííûé_ãðàäèåíò_271"/>
    <linearGradient id="_Áåçûìÿííûé_ãðàäèåíò_271-3" data-name="Áåçûìÿííûé ãðàäèåíò 271" x1="145.07" y1="76.58" x2="137.68" y2="41.2" xlink:href="#_Áåçûìÿííûé_ãðàäèåíò_271"/>
    <linearGradient id="_Áåçûìÿííûé_ãðàäèåíò_180-4" data-name="Áåçûìÿííûé ãðàäèåíò 180" x1="1.38" y1="97.64" x2="35.87" y2="97.64" xlink:href="#_Áåçûìÿííûé_ãðàäèåíò_180"/>
    <linearGradient id="_Áåçûìÿííûé_ãðàäèåíò_180-5" data-name="Áåçûìÿííûé ãðàäèåíò 180" x1="27.49" y1="98.39" x2="49.91" y2="98.39" xlink:href="#_Áåçûìÿííûé_ãðàäèåíò_180"/>
    <linearGradient id="_Áåçûìÿííûé_ãðàäèåíò_271-4" data-name="Áåçûìÿííûé ãðàäèåíò 271" x1="107.52" y1="104.37" x2="103.78" y2="68.69" xlink:href="#_Áåçûìÿííûé_ãðàäèåíò_271"/>
    <linearGradient id="_Áåçûìÿííûé_ãðàäèåíò_271-5" data-name="Áåçûìÿííûé ãðàäèåíò 271" x1="186.87" y1="49.98" x2="168.98" y2="111.03" xlink:href="#_Áåçûìÿííûé_ãðàäèåíò_271"/>
    <linearGradient id="_Áåçûìÿííûé_ãðàäèåíò_271-6" data-name="Áåçûìÿííûé ãðàäèåíò 271" x1="198.31" y1="53.34" x2="180.43" y2="114.38" xlink:href="#_Áåçûìÿííûé_ãðàäèåíò_271"/>
    <linearGradient id="_Áåçûìÿííûé_ãðàäèåíò_192-5" data-name="Áåçûìÿííûé ãðàäèåíò 192" x1="148.2" y1="91.21" x2="143.62" y2="126.51" xlink:href="#_Áåçûìÿííûé_ãðàäèåíò_192"/>
    <linearGradient id="_Áåçûìÿííûé_ãðàäèåíò_77-7" data-name="Áåçûìÿííûé ãðàäèåíò 77" x1="145.2" y1="189.08" x2="108.35" y2="129.7" xlink:href="#_Áåçûìÿííûé_ãðàäèåíò_77"/>
    <linearGradient id="_Áåçûìÿííûé_ãðàäèåíò_82-4" data-name="Áåçûìÿííûé ãðàäèåíò 82" x1="121.7" y1="165.89" x2="119.13" y2="130.96" xlink:href="#_Áåçûìÿííûé_ãðàäèåíò_82"/>
    <linearGradient id="_Áåçûìÿííûé_ãðàäèåíò_77-8" data-name="Áåçûìÿííûé ãðàäèåíò 77" x1="179.01" y1="172.84" x2="139.24" y2="108.75" xlink:href="#_Áåçûìÿííûé_ãðàäèåíò_77"/>
    <linearGradient id="_Áåçûìÿííûé_ãðàäèåíò_82-5" data-name="Áåçûìÿííûé ãðàäèåíò 82" x1="164.77" y1="160.95" x2="162.54" y2="130.64" xlink:href="#_Áåçûìÿííûé_ãðàäèåíò_82"/>
    <linearGradient id="_Áåçûìÿííûé_ãðàäèåíò_192-6" data-name="Áåçûìÿííûé ãðàäèåíò 192" x1="125.16" y1="124.35" x2="210.9" y2="231.07" xlink:href="#_Áåçûìÿííûé_ãðàäèåíò_192"/>
    <linearGradient id="_Áåçûìÿííûé_ãðàäèåíò_77-9" data-name="Áåçûìÿííûé ãðàäèåíò 77" x1="135.82" y1="157.5" x2="126.92" y2="114.11" xlink:href="#_Áåçûìÿííûé_ãðàäèåíò_77"/>
    <linearGradient id="_Áåçûìÿííûé_ãðàäèåíò_77-10" data-name="Áåçûìÿííûé ãðàäèåíò 77" x1="138.8" y1="162.32" x2="134.38" y2="146.79" xlink:href="#_Áåçûìÿííûé_ãðàäèåíò_77"/>
    <linearGradient id="_Áåçûìÿííûé_ãðàäèåíò_77-11" data-name="Áåçûìÿííûé ãðàäèåíò 77" x1="146.38" y1="160.14" x2="141.69" y2="143.69" xlink:href="#_Áåçûìÿííûé_ãðàäèåíò_77"/>
    <linearGradient id="_Áåçûìÿííûé_ãðàäèåíò_77-12" data-name="Áåçûìÿííûé ãðàäèåíò 77" x1="137.01" y1="132.08" x2="148.24" y2="143" xlink:href="#_Áåçûìÿííûé_ãðàäèåíò_77"/>
    <linearGradient id="_Áåçûìÿííûé_ãðàäèåíò_77-13" data-name="Áåçûìÿííûé ãðàäèåíò 77" x1="141.8" y1="150.46" x2="138.68" y2="141.85" xlink:href="#_Áåçûìÿííûé_ãðàäèåíò_77"/>
    <linearGradient id="_Áåçûìÿííûé_ãðàäèåíò_77-14" data-name="Áåçûìÿííûé ãðàäèåíò 77" x1="181.85" y1="159.94" x2="146.45" y2="102.9" xlink:href="#_Áåçûìÿííûé_ãðàäèåíò_77"/>
    <linearGradient id="_Áåçûìÿííûé_ãðàäèåíò_180-6" data-name="Áåçûìÿííûé ãðàäèåíò 180" x1="131.4" y1="99.53" x2="130.17" y2="128.48" xlink:href="#_Áåçûìÿííûé_ãðàäèåíò_180"/>
    <linearGradient id="_Áåçûìÿííûé_ãðàäèåíò_271-7" data-name="Áåçûìÿííûé ãðàäèåíò 271" x1="136.97" y1="147.19" x2="135.44" y2="125.03" xlink:href="#_Áåçûìÿííûé_ãðàäèåíò_271"/>
    <linearGradient id="_Áåçûìÿííûé_ãðàäèåíò_169-6" data-name="Áåçûìÿííûé ãðàäèåíò 169" x1="126.73" y1="129.59" x2="124.87" y2="115.91" xlink:href="#_Áåçûìÿííûé_ãðàäèåíò_169"/>
    <linearGradient id="_Áåçûìÿííûé_ãðàäèåíò_176-3" data-name="Áåçûìÿííûé ãðàäèåíò 176" x1="137.99" y1="114.47" x2="136.81" y2="105.73" xlink:href="#_Áåçûìÿííûé_ãðàäèåíò_176"/>
    <linearGradient id="_Áåçûìÿííûé_ãðàäèåíò_82-6" data-name="Áåçûìÿííûé ãðàäèåíò 82" x1="159.43" y1="81.39" x2="139.75" y2="130.48" xlink:href="#_Áåçûìÿííûé_ãðàäèåíò_82"/>
    <linearGradient id="_Áåçûìÿííûé_ãðàäèåíò_77-15" data-name="Áåçûìÿííûé ãðàäèåíò 77" x1="124.96" y1="110.89" x2="119.2" y2="125.26" xlink:href="#_Áåçûìÿííûé_ãðàäèåíò_77"/>
    <linearGradient id="_Áåçûìÿííûé_ãðàäèåíò_271-8" data-name="Áåçûìÿííûé ãðàäèåíò 271" x1="152.64" y1="96.38" x2="147.62" y2="110.39" xlink:href="#_Áåçûìÿííûé_ãðàäèåíò_271"/>
    <linearGradient id="_Áåçûìÿííûé_ãðàäèåíò_271-9" data-name="Áåçûìÿííûé ãðàäèåíò 271" x1="166.91" y1="100.34" x2="161.06" y2="116.69" xlink:href="#_Áåçûìÿííûé_ãðàäèåíò_271"/>
    <linearGradient id="_Áåçûìÿííûé_ãðàäèåíò_271-10" data-name="Áåçûìÿííûé ãðàäèåíò 271" x1="126.96" y1="136.78" x2="117.04" y2="124.62" xlink:href="#_Áåçûìÿííûé_ãðàäèåíò_271"/>
    <linearGradient id="_Áåçûìÿííûé_ãðàäèåíò_271-11" data-name="Áåçûìÿííûé ãðàäèåíò 271" x1="166.3" y1="135.72" x2="154.44" y2="121.2" xlink:href="#_Áåçûìÿííûé_ãðàäèåíò_271"/>
    <linearGradient id="_Áåçûìÿííûé_ãðàäèåíò_271-12" data-name="Áåçûìÿííûé ãðàäèåíò 271" x1="132.85" y1="147.27" x2="135.33" y2="161.08" xlink:href="#_Áåçûìÿííûé_ãðàäèåíò_271"/>
    <linearGradient id="_Áåçûìÿííûé_ãðàäèåíò_103-2" data-name="Áåçûìÿííûé ãðàäèåíò 103" x1="101.84" y1="164.7" x2="82.26" y2="138.5" xlink:href="#_Áåçûìÿííûé_ãðàäèåíò_103"/>
    <linearGradient id="_Áåçûìÿííûé_ãðàäèåíò_103-3" data-name="Áåçûìÿííûé ãðàäèåíò 103" x1="82.33" y1="135.38" x2="90.36" y2="135.38" xlink:href="#_Áåçûìÿííûé_ãðàäèåíò_103"/>
    <linearGradient id="_Áåçûìÿííûé_ãðàäèåíò_103-4" data-name="Áåçûìÿííûé ãðàäèåíò 103" x1="29.25" y1="158.02" x2="28.75" y2="149.55" xlink:href="#_Áåçûìÿííûé_ãðàäèåíò_103"/>
    <linearGradient id="_Áåçûìÿííûé_ãðàäèåíò_103-5" data-name="Áåçûìÿííûé ãðàäèåíò 103" x1="68.16" y1="157.92" x2="67.86" y2="152.84" xlink:href="#_Áåçûìÿííûé_ãðàäèåíò_103"/>
    <linearGradient id="_Áåçûìÿííûé_ãðàäèåíò_103-6" data-name="Áåçûìÿííûé ãðàäèåíò 103" x1="86.33" y1="156.9" x2="87.62" y2="172.82" xlink:href="#_Áåçûìÿííûé_ãðàäèåíò_103"/>
    <linearGradient id="_Áåçûìÿííûé_ãðàäèåíò_103-7" data-name="Áåçûìÿííûé ãðàäèåíò 103" x1="39.66" y1="154.85" x2="43.07" y2="154.85" xlink:href="#_Áåçûìÿííûé_ãðàäèåíò_103"/>
    <linearGradient id="_Áåçûìÿííûé_ãðàäèåíò_271-13" data-name="Áåçûìÿííûé ãðàäèåíò 271" x1="133.38" y1="135.12" x2="172.4" y2="56.19" xlink:href="#_Áåçûìÿííûé_ãðàäèåíò_271"/>
    <linearGradient id="_Áåçûìÿííûé_ãðàäèåíò_192-7" data-name="Áåçûìÿííûé ãðàäèåíò 192" x1="-3176.19" y1="-6755.03" x2="-3244.04" y2="-6780.97" gradientTransform="translate(7325.07 2031.32) rotate(-49.89)" xlink:href="#_Áåçûìÿííûé_ãðàäèåíò_192"/>
    <linearGradient id="_Áåçûìÿííûé_ãðàäèåíò_192-8" data-name="Áåçûìÿííûé ãðàäèåíò 192" x1="-3173.03" y1="-6763.28" x2="-3240.88" y2="-6789.22" gradientTransform="translate(7325.07 2031.32) rotate(-49.89)" xlink:href="#_Áåçûìÿííûé_ãðàäèåíò_192"/>
    <linearGradient id="_Áåçûìÿííûé_ãðàäèåíò_192-9" data-name="Áåçûìÿííûé ãðàäèåíò 192" x1="-3175.42" y1="-6757.04" x2="-3243.27" y2="-6782.98" gradientTransform="translate(7325.07 2031.32) rotate(-49.89)" xlink:href="#_Áåçûìÿííûé_ãðàäèåíò_192"/>
    <linearGradient id="_Áåçûìÿííûé_ãðàäèåíò_192-10" data-name="Áåçûìÿííûé ãðàäèåíò 192" x1="-3176.09" y1="-6755.29" x2="-3243.94" y2="-6781.23" gradientTransform="translate(7325.07 2031.32) rotate(-49.89)" xlink:href="#_Áåçûìÿííûé_ãðàäèåíò_192"/>
    <linearGradient id="_Áåçûìÿííûé_ãðàäèåíò_192-11" data-name="Áåçûìÿííûé ãðàäèåíò 192" x1="-1482.47" y1="-8576.42" x2="-1550.32" y2="-8602.37" gradientTransform="translate(25420.67 985.19) rotate(-84.51) scale(1 2.94)" xlink:href="#_Áåçûìÿííûé_ãðàäèåíò_192"/>
    <linearGradient id="_Áåçûìÿííûé_ãðàäèåíò_192-12" data-name="Áåçûìÿííûé ãðàäèåíò 192" x1="-1479.32" y1="-8584.68" x2="-1547.17" y2="-8610.62" gradientTransform="translate(25420.67 985.19) rotate(-84.51) scale(1 2.94)" xlink:href="#_Áåçûìÿííûé_ãðàäèåíò_192"/>
    <linearGradient id="_Áåçûìÿííûé_ãðàäèåíò_192-13" data-name="Áåçûìÿííûé ãðàäèåíò 192" x1="-1481.7" y1="-8578.44" x2="-1549.55" y2="-8604.38" gradientTransform="translate(25420.67 985.19) rotate(-84.51) scale(1 2.94)" xlink:href="#_Áåçûìÿííûé_ãðàäèåíò_192"/>
    <linearGradient id="_Áåçûìÿííûé_ãðàäèåíò_192-14" data-name="Áåçûìÿííûé ãðàäèåíò 192" x1="-1507.8" y1="-10228.1" x2="-1575.65" y2="-10254.04" gradientTransform="translate(15813.41 61.18) rotate(-84.51) scale(1 1.53)" xlink:href="#_Áåçûìÿííûé_ãðàäèåíò_192"/>
    <linearGradient id="_Áåçûìÿííûé_ãðàäèåíò_192-15" data-name="Áåçûìÿííûé ãðàäèåíò 192" x1="15425.18" y1="-7051.96" x2="15283.62" y2="-7106.08" gradientTransform="translate(2432.12 -18530.75) rotate(132.25) scale(1 1.53)" xlink:href="#_Áåçûìÿííûé_ãðàäèåíò_192"/>
    <linearGradient id="_Áåçûìÿííûé_ãðàäèåíò_192-16" data-name="Áåçûìÿííûé ãðàäèåíò 192" x1="-1482.4" y1="-11722.11" x2="-1550.25" y2="-11748.05" gradientTransform="translate(12709.59 -236.79) rotate(-84.51) scale(1 1.06)" xlink:href="#_Áåçûìÿííûé_ãðàäèåíò_192"/>
    <linearGradient id="_Áåçûìÿííûé_ãðàäèåíò_192-17" data-name="Áåçûìÿííûé ãðàäèåíò 192" x1="3478.93" y1="-8831.5" x2="3456.17" y2="-8840.2" gradientTransform="translate(26209.31 9583.34) rotate(-90.41) scale(2.78 2.94)" xlink:href="#_Áåçûìÿííûé_ãðàäèåíò_192"/>
    <linearGradient id="_Áåçûìÿííûé_ãðàäèåíò_192-18" data-name="Áåçûìÿííûé ãðàäèåíò 192" x1="3978.44" y1="-9258.61" x2="3931.56" y2="-9276.54" gradientTransform="translate(29073.64 5298.6) rotate(-101.84) scale(2.78 2.94)" xlink:href="#_Áåçûìÿííûé_ãðàäèåíò_192"/>
    <linearGradient id="_Áåçûìÿííûé_ãðàäèåíò_192-19" data-name="Áåçûìÿííûé ãðàäèåíò 192" x1="3479.18" y1="-8832.17" x2="3456.43" y2="-8840.87" gradientTransform="translate(26209.31 9583.34) rotate(-90.41) scale(2.78 2.94)" xlink:href="#_Áåçûìÿííûé_ãðàäèåíò_192"/>
    <linearGradient id="_Áåçûìÿííûé_ãðàäèåíò_192-20" data-name="Áåçûìÿííûé ãðàäèåíò 192" x1="3479" y1="-12403.56" x2="3456.25" y2="-12412.26" gradientTransform="translate(13439.58 9675.27) rotate(-90.41) scale(2.78 1.06)" xlink:href="#_Áåçûìÿííûé_ãðàäèåíò_192"/>
    <linearGradient id="_Áåçûìÿííûé_ãðàäèåíò_192-21" data-name="Áåçûìÿííûé ãðàäèåíò 192" x1="-1424.83" y1="-11715.53" x2="-1555.69" y2="-11765.56" gradientTransform="translate(12709.59 -236.79) rotate(-84.51) scale(1 1.06)" xlink:href="#_Áåçûìÿííûé_ãðàäèåíò_192"/>
    <linearGradient id="_Áåçûìÿííûé_ãðàäèåíò_169-7" data-name="Áåçûìÿííûé ãðàäèåíò 169" x1="48.52" y1="108.71" x2="75.08" y2="53.06" xlink:href="#_Áåçûìÿííûé_ãðàäèåíò_169"/>
    <linearGradient id="_Áåçûìÿííûé_ãðàäèåíò_176-4" data-name="Áåçûìÿííûé ãðàäèåíò 176" x1="35.84" y1="101.46" x2="60.36" y2="50.09" xlink:href="#_Áåçûìÿííûé_ãðàäèåíò_176"/>
    <linearGradient id="_Áåçûìÿííûé_ãðàäèåíò_180-7" data-name="Áåçûìÿííûé ãðàäèåíò 180" x1="64.52" y1="88.57" x2="66.88" y2="75.41" xlink:href="#_Áåçûìÿííûé_ãðàäèåíò_180"/>
    <linearGradient id="_Áåçûìÿííûé_ãðàäèåíò_77-16" data-name="Áåçûìÿííûé ãðàäèåíò 77" x1="68.81" y1="114.67" x2="59.05" y2="54.36" xlink:href="#_Áåçûìÿííûé_ãðàäèåíò_77"/>
    <linearGradient id="_Áåçûìÿííûé_ãðàäèåíò_82-7" data-name="Áåçûìÿííûé ãðàäèåíò 82" x1="73.17" y1="80.26" x2="69.83" y2="49.39" xlink:href="#_Áåçûìÿííûé_ãðàäèåíò_82"/>
    <linearGradient id="_Áåçûìÿííûé_ãðàäèåíò_180-8" data-name="Áåçûìÿííûé ãðàäèåíò 180" x1="84.61" y1="32.75" x2="86.23" y2="60.56" xlink:href="#_Áåçûìÿííûé_ãðàäèåíò_180"/>
    <linearGradient id="_Áåçûìÿííûé_ãðàäèåíò_82-8" data-name="Áåçûìÿííûé ãðàäèåíò 82" x1="76.72" y1="69.43" x2="81.15" y2="85.93" xlink:href="#_Áåçûìÿííûé_ãðàäèåíò_82"/>
    <linearGradient id="_Áåçûìÿííûé_ãðàäèåíò_271-14" data-name="Áåçûìÿííûé ãðàäèåíò 271" x1="44.12" y1="102.22" x2="84.93" y2="45.71" xlink:href="#_Áåçûìÿííûé_ãðàäèåíò_271"/>
    <linearGradient id="_Áåçûìÿííûé_ãðàäèåíò_82-9" data-name="Áåçûìÿííûé ãðàäèåíò 82" x1="55.62" y1="26.44" x2="63.31" y2="76.11" xlink:href="#_Áåçûìÿííûé_ãðàäèåíò_82"/>
    <linearGradient id="_Áåçûìÿííûé_ãðàäèåíò_271-15" data-name="Áåçûìÿííûé ãðàäèåíò 271" x1="53.86" y1="25.24" x2="65.21" y2="43.5" xlink:href="#_Áåçûìÿííûé_ãðàäèåíò_271"/>
    <linearGradient id="_Áåçûìÿííûé_ãðàäèåíò_271-16" data-name="Áåçûìÿííûé ãðàäèåíò 271" x1="74.23" y1="37.84" x2="77.59" y2="43.25" xlink:href="#_Áåçûìÿííûé_ãðàäèåíò_271"/>
    <linearGradient id="_Áåçûìÿííûé_ãðàäèåíò_180-9" data-name="Áåçûìÿííûé ãðàäèåíò 180" x1="93.19" y1="53.28" x2="97.63" y2="77.72" xlink:href="#_Áåçûìÿííûé_ãðàäèåíò_180"/>
    <linearGradient id="_Áåçûìÿííûé_ãðàäèåíò_180-10" data-name="Áåçûìÿííûé ãðàäèåíò 180" x1="68.83" y1="93.13" x2="90.93" y2="93.13" xlink:href="#_Áåçûìÿííûé_ãðàäèåíò_180"/>
    <linearGradient id="_Áåçûìÿííûé_ãðàäèåíò_103-8" data-name="Áåçûìÿííûé ãðàäèåíò 103" x1="61" y1="77.18" x2="62.19" y2="83.74" xlink:href="#_Áåçûìÿííûé_ãðàäèåíò_103"/>
    <linearGradient id="_Áåçûìÿííûé_ãðàäèåíò_77-17" data-name="Áåçûìÿííûé ãðàäèåíò 77" x1="83.45" y1="85.28" x2="31.57" y2="57.35" xlink:href="#_Áåçûìÿííûé_ãðàäèåíò_77"/>
    <linearGradient id="_Áåçûìÿííûé_ãðàäèåíò_180-11" data-name="Áåçûìÿííûé ãðàäèåíò 180" x1="107.65" y1="59.03" x2="106.61" y2="56.57" xlink:href="#_Áåçûìÿííûé_ãðàäèåíò_180"/>
  </defs>
  <g class="cls-107">
    <g id="Layer_1" data-name="Layer 1">
      <g>
        <path class="cls-46" d="M26.41,77.26c.89,5.52,3.4,8.18,3.4,8.18l10.94-.89-1.03-7.24-13.3-.05Z"/>
        <g>
          <path class="cls-23" d="M176.84,41.58c-.06.11-.12.23-.19.35-.18.37-.37.81-.55,1.31-2.44,6.62-6.3,31.99-6.3,31.99l-2.71-2.52-11.58-6.33s.71-3.39.92-23.05c-.03-.49-.05-.94-.08-1.35-.02-.3-.04-.57-.06-.8-.04-.6-.07-.96-.07-.96,0,0,1.62-1.86,2.83-1.92h0c2.68-.13,7.54-.29,11.51.03.6.05,1.17.1,1.72.17.17.02.34.04.5.07,3.05.45,5.02,1.33,4.06,3Z"/>
          <path class="cls-12" d="M179.86,43.03h-.06s0,0,0,0l-3.69.21-5.19.3-.54-.13-9.61-2.36-4.41.94-3.04-.75,1.95-9.26s.76-.07,2.01-.08c3.72-.02,12.62-2.45,16.05-2.36.49.01.9.02,1.21.03.13,0,.25,0,.34,0,.18,0,.27,0,.27,0l4.43,7.44.62.46.17.12-.5,5.41Z"/>
          <path class="cls-51" d="M157.23,31.19s14.97-3.23,15.76-2.58c.77.65-.96,8.95-2.16,9.63-1.21.68-12.71.68-13.05-.45-.34-1.16-.54-6.6-.54-6.6Z"/>
          <path class="cls-51" d="M152.91,32.03l2.98-.81s-.11,8.47-.36,8.57c-.25.1-3.4.18-3.66-.5-.26-.68,1.05-7.25,1.05-7.25Z"/>
          <path class="cls-51" d="M178.5,42.43c-.24.05-.97-.17-1.85-.49-1.91-.7-4.6-1.91-4.6-1.91l.14-.92.09-.59,2.24-8.94.09-.61,5.11,6.03s-.06.88-.16,2.04c-.2,2.18-.57,5.28-1.07,5.39Z"/>
          <path class="cls-51" d="M180.03,43.15c-.06,0-.14-.05-.24-.11h0c-.31-.19-.75-.57-.75-.57l1.15-4.97.16-.7c.91.49-.07,6.39-.32,6.35Z"/>
          <path class="cls-45" d="M180.03,43.15c-.06,0-.14-.05-.24-.11h0s-3.69.21-3.69.21c-2.44,6.62-6.3,31.99-6.3,31.99l-2.71-2.52,2.79-25.35.33-1.95s-8.19-5.91-13.77-2.09c-.03-.49-.05-.94-.08-1.35l-3.04-.75,2.98-.06,15.9-2.08h.1s.22-.18.49-.52c.7-.87,3.15-5.97,2.08-9-.07-.2-.15-.41-.24-.62l5.11,6.03s-.06.88-.16,2.04l.62.46.16-.7c.91.49-.07,6.39-.32,6.35Z"/>
        </g>
        <path class="cls-63" d="M186.94,158.02H16.36s6.42-15.19,12.8-52.39c.86-5.03,1.72-10.47,2.57-16.35l91.53-42.32,12.79-5.91,37.81,63.08,4.33,17.6,8.75,36.28Z"/>
        <path class="cls-37" d="M176.44,115.3c-20.09-43.72-29.71-51.88-39.76-53.51-10.05-1.62-32.89,26.9-45.15,48.41-34.82-3.91-51.52-.07-63.88,3.8.5-2.65,1-5.43,1.51-8.36l51.93-6.18c.19-.45.31-.71.31-.71l41.86-51.78,12.79-5.91,37.81,63.08,2.59,11.16Z"/>
        <path class="cls-52" d="M186.94,158.02h-104.21c7.54-30.15,9.75-58.46,9.75-58.46l43.57-58.5,37.81,63.08,4.33,17.6,8.75,36.28Z"/>
        <path class="cls-71" d="M8.67,96.08s14.93-4.88,30.6-20.1c15.67-15.23,19.36-26.61,19.36-26.61,0,0,13.01,0,35.77-6.21,22.76-6.21,45.23-22.76,45.23-22.76,0,0-15.08,47.89-38.43,67.11-23.35,19.22-92.53,8.57-92.53,8.57Z"/>
        <path class="cls-75" d="M17.1,107.24c-5.76-4.43-8.67-11.21-8.67-11.21,0,0,4.39,1.82,35.43,1.82s48.63-9.24,48.63-9.24l5.54,13.3-80.93,5.32Z"/>
        <path class="cls-87" d="M152.13,4.8c-20.4,54.1-54.1,97.12-54.1,97.12l-5.54-13.3s9.24-7.17,28.08-32.89C139.42,30.01,146.73,0,146.73,0l5.4,4.8Z"/>
        <path class="cls-21" d="M146.73,0l-5.1,3.4s-5.76,26.83-19.73,47.89c-13.97,21.06-35.4,39.61-35.4,39.61l6.87.37s13.23-13.45,30.3-38.06C140.75,28.6,146.73,0,146.73,0Z"/>
        <path class="cls-100" d="M28.85,82.48c-9.31,3.33-28.85,13.4-28.85,13.4,0,0,12.07,6.55,22.57.2,10.49-6.36,18.03-13.01,18.03-13.01,0,0-2.44-3.92-11.75-.59Z"/>
        <path class="cls-86" d="M76.52,80.41c-5.32,2.44-11.58,15.52-11.58,15.52,0,0,11.87,2.51,18.38-.44,6.5-2.96,16.85-17.74,16.85-17.74,0,0-18.33.22-23.65,2.66Z"/>
        <path class="cls-96" d="M61.1,64.25l-18.03,15.18s-9.95,1.12-14.86-1c0,0-.02,0-.03-.01-.71-.31-1.32-.69-1.77-1.15l4.29-1.98,28.82-13.29,1.58,2.26Z"/>
        <path class="cls-19" d="M99.33,71.74c.44,3.33,4.53,2.46,4.53,2.46l14.63-17.44s-7.76-.07-12.42,3.55c-4.66,3.62-6.75,11.43-6.75,11.43Z"/>
        <path class="cls-57" d="M93.81,56.02c5.91,7.98,17.74.44,17.74.44l13.3-27.05-15.67,7.54-15.37,19.07Z"/>
        <path class="cls-104" d="M120.57,55.73c-6.95,1.03-7.39-.44-7.39-.44l13.89-28.82,11.09-3.55-17.59,32.82Z"/>
        <path class="cls-55" d="M87.7,43.36l17-6.6-15.13,23.16s-6.41,3.65-11.43,2.37c-5.03-1.28,9.56-18.92,9.56-18.92Z"/>
        <path class="cls-90" d="M51.14,78.44c9.56,4.53,29.07-.1,29.07-.1,0,0,16.85-15.37,15.77-18.53s-19.41,2.36-23.45,3.45-21.38,15.18-21.38,15.18Z"/>
        <path class="cls-28" d="M95.14,43.9c9.98-.67-2.59,37.78-2.59,37.78,0,0-5.69-14.87-20.47-20.19,4.14-11.9,23.06-17.59,23.06-17.59Z"/>
        <path class="cls-18" d="M195.81,107.31l-20.4,3.25-1.55-6.43s-10.13-14.9-20.43-31.73v-.02c-4.65-7.58-9.31-15.55-13.1-22.73-1.61-3.04-3.05-5.94-4.28-8.61l2.33-5.2-1.79-5.09s0,0,0,0l-4.42.3c-6.2-18.12-8.05-24.39-8.05-24.39l4.43-3.84s0,0,0,.02c9.84,45.71,66.36,103.58,67.24,104.48,0,0,.01.01.01.01Z"/>
        <path class="cls-24" d="M197.21,96.67l-1.4,10.64s-4.83-4.16-11.85-11.35c-.87-.89-1.77-1.83-2.71-2.81-8.8-9.27-20.14-22.49-29.78-37.87-18.92-30.15-22.91-52.48-22.91-52.48l5.62-1.33s5,27.18,16.85,45.97c5.47,8.68,12.24,16.89,18.89,24.03,4.45,4.78,8.85,9.08,12.77,12.72,1.27,1.18,2.49,2.28,3.64,3.32.62.56,1.22,1.09,1.81,1.6,5.44,4.77,9.07,7.55,9.07,7.55Z"/>
        <g>
          <g>
            <path class="cls-66" d="M52.28,140c0,2.19-.05,3.68-.05,3.68h-.01l-9.69-.17h-.15s-7.67.03-8.45-.93c-.78-.96-.16-11.63,2.76-17.95,1.75-3.79,6.71-4.76,9.99-3.81.42.12.81.27,1.17.46,1.13.58,2.08,1.45,2.63,2.55.71,1.42,1.15,3.89,1.41,6.63.29,2.99.38,6.29.39,8.85,0,.24,0,.47,0,.7Z"/>
            <path class="cls-42" d="M52.26,142.83c-.01.54-.02.85-.02.85l-9.71-.15c-.02-.36-.61-11.88,1.75-18.68.57-1.65,1.55-2.81,2.75-3.56.53.29,1.03.64,1.48,1.03.71.6,1.29,1.32,1.7,2.12,2.2,4.31,2.12,15.25,2.05,18.38Z"/>
            <path class="cls-105" d="M52.1,140.99s-6.22.42-7.28-.1c-1.05-.52-.54-9.76,1.56-15.35.5-1.31,1.34-2.25,2.37-2.87.63.54,1.15,1.18,1.52,1.89,1.96,3.85,1.89,13.62,1.83,16.42Z"/>
            <path class="cls-31" d="M51.89,130.45c-.05-.01-.11-.03-.16-.04-4.48-.96-8.09,3.07-9.13,4.39-.2.25-.3.4-.3.4,0,0-.61-12.22,4.23-15.42.42.12.96,1.29,1.32,1.48,1.13.58,2.08,1.45,2.63,2.55.71,1.42,1.15,3.89,1.41,6.63Z"/>
            <path class="cls-33" d="M34.49,129.54s-4.3,1.29-4.34.32c-.04-.97,8.82-17.97,13.34-18.86,4.52-.88,16.58,14.32,16.75,15,.17.68-4.51,5.25-7.91,3.5-3.11-1.6-5.19-7.65-8.37-7.79s-9.46,7.82-9.46,7.82Z"/>
            <path class="cls-5" d="M51.75,129.18s-.08.06-.11.07c-.01,0-.02.01-.04.02,0,0-.02,0-.04,0,0,0-.02,0-.03-.01-.41-.24-2.28-2.69-4.43-5.07-.5-.56-1.02-1.11-1.53-1.63-.16-.16-.31-.31-.47-.46-.13-.12-.25-.24-.38-.36-.49-.46-.98-.87-1.44-1.21-.82-.61-1.58-1-2.19-1.02-1.56-.07-4.21,2.47-6.51,5.08-.41.47-.81.93-1.18,1.39-1.75,2.11-3.09,3.95-3.18,4.08,0,0,0,0,0,0,0,0-2.89-3.05-2.94-4.02-.01-.35,1.31-2.48,3.21-5.1.84-1.15,1.8-2.4,2.8-3.63,2.96-3.62,6.35-7.08,8.49-7.5,1.33-.26,3.08.89,4.89,2.65,4.34,4.23,9.04,12.01,9.16,12.5.15.63-3.25,3.67-4.09,4.24Z"/>
            <path class="cls-2" d="M43.55,114.37c.05,1.24-.54,2.27-1.32,2.3s-2.32-.98-2.37-2.21c-.05-1.24,1.48-2,2.26-2.03s1.38.7,1.43,1.94Z"/>
            <path class="cls-82" d="M43.35,115.07c.03.77-.38,1.41-.92,1.43-.54.02-1.61-.6-1.64-1.36-.03-.77,1.04-1.24,1.58-1.27.54-.02.95.43.99,1.2Z"/>
          </g>
          <path class="cls-53" d="M54.4,122.37c.74,2.07.46,3.96.46,3.96l1.31-1.36-1.77-2.6Z"/>
          <path class="cls-20" d="M34.59,124.57c-.41.47-.81.93-1.18,1.39l-.54-.92-2.38-4.11c.84-1.15,1.8-2.4,2.8-3.63-.18,2.9.21,4.82.69,6.06.2.52.41.92.61,1.22Z"/>
        </g>
        <polygon class="cls-44" points="138.23 36.14 138.31 45.97 136.05 41.05 138.23 36.14"/>
        <path class="cls-97" d="M1.38,96.57c11.04,7,34.49-.79,34.49-.79l-34.49.79Z"/>
        <path class="cls-32" d="M27.49,97.95c6.31,5.52,22.42-1.28,22.42-1.28l-22.42,1.28Z"/>
        <polygon class="cls-16" points="104.9 78.05 103.79 93.79 107.12 75.58 104.9 78.05"/>
        <path class="cls-39" d="M183.95,95.96l.03.26-2.74-3.08-11.45-12.89s.52-2.78.12-8.78c4.45,4.78,8.85,9.08,12.77,12.72l1.27,11.76Z"/>
        <path class="cls-30" d="M188.14,89.12l-.16,6.22-1.65-7.82c.62.56,1.22,1.09,1.81,1.6Z"/>
        <g>
          <path class="cls-49" d="M136.92,108.41c7.59-1.88,16.64,11.31,16.64,11.31l.21-6.62-12.97-11.25-3.88,6.56Z"/>
          <polygon class="cls-38" points="116.11 122.36 110.24 158.02 116.19 158.02 119.73 122.77 116.11 122.36"/>
          <path class="cls-7" d="M124.12,122.54c-.22.29-.43.6-.62.92-.73,1.17-1.31,2.53-1.78,4-3.65,11.51-.28,30.55-.28,30.55h-5.94s.21-16.44,2.54-29.43c.34-1.9.72-3.72,1.16-5.41.03-.14.07-.27.1-.41,3.51-13.22,4.82-.23,4.82-.23Z"/>
          <g>
            <polygon class="cls-10" points="152.4 111.97 158.64 158.02 164.53 158.02 157.64 120.88 152.4 111.97"/>
            <path class="cls-59" d="M157.28,121.61l5.9,36.41h5.97c-9.7-16.26-8.25-36.83-8.25-36.83l-3.62.42Z"/>
          </g>
          <path class="cls-36" d="M154.8,158.02h-31.3s-.37-38.1,9.21-45.49c1.31-1.01,5.58-1.8,7.37-1.81,13.02-.06,14.72,47.3,14.72,47.3Z"/>
          <g>
            <path class="cls-68" d="M144.7,158.02h-21.2v-.23c0-.32,0-.96,0-1.85.07-7.43.81-32.7,7.18-41.3.33-.45.69-.88,1.06-1.25.31-.32.63-.61.97-.87.12.01.24.03.36.05,3.65.54,6.05,4.38,7.69,9.64,2.32,7.41,3.26,18.04,3.66,25.93.16,3.08.22,6.04.24,7.97.02.88.02,1.55.03,1.91Z"/>
            <path class="cls-103" d="M132.71,112.53c.12.01.24.02.36.05-.03.79-.16,2.02-.43,3.84-1.55,10.81-.85,37.59-.74,41.6h-2.77c3.06-16.59,2.05-43.09,2.05-43.09,0,0,.25-.73.56-1.54.31-.32.63-.61.97-.87Z"/>
            <path class="cls-102" d="M141.29,158.02s-.04-.1-.12,0h-.58l-.7-38.36.88,2.55s-.51,21.61.53,35.81Z"/>
            <path class="cls-65" d="M138.44,129.44c.1,3.77-1.99,7.43-4.23,7.43-.71,0-1.61-1.57-2.28-2.07-1.43-1.07-2.53-3.14-2.47-5.69.05-2.02.82-3.91,1.85-5.19.81-1,1.79-1.63,2.71-1.63,2.08,0,4.32,3.53,4.42,7.15Z"/>
            <path class="cls-67" d="M138.45,128.9c.1,3.8-2.17,6.18-4.42,6.18-.71,0-1.45-.28-2.12-.78-1.43-1.08-2.54-3.17-2.48-5.74.05-2.04.83-3.94,1.86-5.22.82-1.01,1.8-1.64,2.72-1.64,2.08,0,4.34,3.55,4.43,7.2Z"/>
            <path class="cls-105" d="M136.17,129.57c.04,2.94-1.9,4.77-3.79,4.77-.15,0-.31-.01-.46-.04-1.43-.99-2.55-2.89-2.49-5.24.05-1.87.83-3.62,1.86-4.8.39-.21.79-.33,1.17-.33,1.79,0,3.67,2.79,3.71,5.64Z"/>
          </g>
          <path class="cls-84" d="M136.82,101.5c5.81,3.71,18.63,20.15,18.63,20.15l9.81.18s-10.99-23.01-14.24-24.06c-3.2-1.03-14.2,3.73-14.2,3.73Z"/>
          <path class="cls-95" d="M148.59,96.01c-9.54,3.77-18,3.17-18,3.17-7.71,2.37-16.91,16.42-16.91,16.42l6.09,1.42,9.09-1.22,19.73-19.79Z"/>
          <path class="cls-25" d="M144.51,147.74c0,.93-.02,1.44-.02,1.44,0,0-.39-34.81-16.8-27.24.34-.47,3.3-9.81,3.69-10.2.32-.33.65-.63,1-.9.13.01.25.03.38.05,3.78.57,6.27,4.54,7.97,9.98,2.4,7.67,3.38,18.69,3.79,26.87Z"/>
          <path class="cls-88" d="M116.18,114.08c4.8,2.94,10.24.47,10.24.47,0,0,6.31-6.26,5.71-7.13-.59-.86-9.11-1.21-9.11-1.21l-6.84,7.87Z"/>
          <path class="cls-4" d="M129.81,105.09c3.12,1.54,5.81-.03,5.81-.03l7.19-5.99-10.58.93-2.43,5.09Z"/>
          <path class="cls-94" d="M167.37,114.52l-2.11,7.31h0c-.07-.15-1.92-3.73-4.34-7.95-2.46-4.29-5.48-9.16-7.98-11.99-.74-.83-1.44-1.5-2.08-1.94-.54-.37-1.04-.57-1.48-.57-6.99,1.18-20.27,24.49-20.27,24.49,0,0-5.63-6.81-5.56-7.99.07-1.17,23.49-20.64,25.58-20.8.28-.02.76.26,1.4.77.76.61,1.76,1.56,2.88,2.71,1.73,1.78,3.79,4.06,5.81,6.36,4.18,4.78,8.15,9.6,8.15,9.6Z"/>
          <path class="cls-29" d="M113.68,115.6c6.48,1.42,10.28.09,10.28.09,0,0,5.64,8.48,5.16,8.19-.48-.28-12.61-.39-12.61-.39l-2.83-7.89Z"/>
          <path class="cls-3" d="M153.42,98.56l-.46,3.34h0s-2.25-.54-2.25-.54c0,0,.17-.2.18-1.4,0-.83-.07-2.12-.33-4.11.76.61,1.76,1.56,2.88,2.71Z"/>
          <path class="cls-22" d="M167.37,114.52l-2.11,7.31h0s-2.89-5.52-2.89-5.52l-1.44-2.43-1.7-8.97c4.18,4.78,8.15,9.6,8.15,9.6Z"/>
          <path class="cls-78" d="M145.56,97.31c2.72-1.79,5.38-1.16,5.38-1.16,0,0-1.19-1.35-1.94-1.14-.75.21-3.44,2.3-3.44,2.3Z"/>
          <path class="cls-15" d="M123.51,123.46c-.73,1.17-1.31,2.53-1.78,4-1.4.17-2.65.61-3.69,1.12-2.07,1-3.34,2.27-3.34,2.27l1.35-7.88,3.14.21,4.31.28Z"/>
          <path class="cls-11" d="M160.85,123.94c-4.18.59-6.26,5.09-6.26,5.09l-1.16-9.93s1.7,1.99,2.73,2.34c1.03.35,4.84.12,4.84.12l-.15,2.38Z"/>
          <path class="cls-61" d="M144.7,158.02h-21.19v-.23s-.1-1.99-.1-1.99c0,0,.03.05.1.14.3.42,1.17,1.62,1.7,1.71.64.12,9.59.12,9.59.12,0,0,9.36-.12,9.59-9.02l.28,7.35c.02.88.02,1.55.03,1.91Z"/>
        </g>
        <path class="cls-53" d="M121.33,116.23c1.4-1.18,5.1-3.18,5.1-3.18l-1.77,3.4-3.33-.22Z"/>
        <path class="cls-51" d="M14.21,147.22c7.98-2,15.52.89,16.63,1.77,1.11.89-.22,9.02-.22,9.02H12.88l1.33-10.79Z"/>
        <path class="cls-17" d="M32.62,158.02s.1-5.86.99-6.26,8.87-.3,9.26.79c.39,1.08-.1,5.76-.3,5.47-.2-.3-9.95,0-9.95,0Z"/>
        <path class="cls-51" d="M95.91,158.02c-.01.11-.02,0-.02,0h-26.61s1.04-6.95,2.81-9.9c1.77-2.96,13.15-8.72,15.37-8.13.23.06.51.18.83.33,2.69,1.33,7.94,5.75,8.34,7.2.41,1.49-.55,9.3-.71,10.5Z"/>
        <path class="cls-17" d="M82.88,137.91s3.1.74,4.88-.89c1.77-1.63,4.73-8.72,2.66-9.76-2.07-1.03-8.43.3-9.16,1.63-.74,1.33,1.63,9.02,1.63,9.02Z"/>
        <polygon class="cls-99" points="184.28 141.46 179.7 145.3 177.63 158.02 189.16 158.02 184.28 141.46"/>
        <path class="cls-51" d="M57.45,158.02s-.49-2.91.2-3.79,8.38-3.15,8.97-2.96c.59.2,2.46,2.76,2.46,2.76l-.3,3.99h-11.33Z"/>
        <path class="cls-62" d="M95.91,158.02h-6.82s1.33-12.28-.8-17.7c2.69,1.33,7.94,5.75,8.34,7.2.41,1.49-.55,9.3-.71,10.5Z"/>
        <path class="cls-58" d="M82.33,135.84c5.52.64,8.03-3.2,8.03-3.2,0,0-1.38,4.24-4.09,5.12s-3.35-.2-3.35-.2l-.59-1.72Z"/>
        <path class="cls-9" d="M25.23,147c4.29,2.44,3.18,11.01,3.18,11.01h4.21s-1.18-8.35-1.77-9.02c-.59-.67-5.62-2-5.62-2Z"/>
        <path class="cls-54" d="M66.62,151.27c.04.06.08.14.12.22.68,1.42,1.73,6.53,1.73,6.53l.62-3.99-2.46-2.76Z"/>
        <path class="cls-101" d="M80.51,158.02s8.28-2.51,8.87-2.51,2.96,2.51,2.96,2.51h-11.83Z"/>
        <path class="cls-73" d="M39.66,151.71c1.92.34,2.76,6.31,2.76,6.31,0,0,1.08-4.39.44-5.47-.64-1.08-3.2-.84-3.2-.84Z"/>
        <path class="cls-85" d="M195.51,107.31l-20.1,3.25-1.55-6.43s-10.13-14.9-20.43-31.73v-.02s-13.1-22.73-13.1-22.73l-4.68-8.12,2.59-5.4-1.65-5.39c.21.39,13.55,25.45,26.6,41.58,1.27,1.57,2.6,3.16,3.96,4.76,9.31,10.94,20.19,22.05,25.35,27.23,0,0,0,0,.01.01,1.88,1.89,3,2.98,3,2.98Z"/>
        <g class="cls-106">
          <path class="cls-93" d="M73.17,130.73c.93,1.38,2.16-.16,2.22-.41.06-.25-.92-1.3-1.26-1.21-.34.09-.96,1.62-.96,1.62Z"/>
          <path class="cls-98" d="M74.6,119.67c.34,2.14,4.06,1.88,5.16.76,1.1-1.13,3.26-4.28,3.26-4.28,0,0-2.16-2.94-3.46-2.46-1.3.48-5.32,3.74-4.96,5.98Z"/>
          <path class="cls-70" d="M78.23,123.48c3.12-1.04,3.35,1.21,3.35,1.21l-2.63,2.46-1.3-2.4.58-1.27Z"/>
          <path class="cls-80" d="M66.66,134.29c.04.08,1.5.18,1.5.18l.23-1.56-1.33-.19s-1.17.02-.39,1.58Z"/>
        </g>
        <g class="cls-106">
          <path class="cls-41" d="M142.26,86.61c4.64.91,4.66-1.07,4.35-1.33-.31-.26-4.48-.83-5.09-.6-.61.23.74,1.94.74,1.94Z"/>
          <path class="cls-89" d="M125.51,75.58c4.65,1.87,12.74.05,13.22-1.49.48-1.53-.24-5.42-.24-5.42,0,0-10.28-1.85-12.41-.85-2.12,1-5.45,5.79-.58,7.75Z"/>
          <path class="cls-13" d="M140.76,77.62c5.28-2.31,9.9-.28,9.9-.28l-1.6,3.44-7.34-1.71-.96-1.44Z"/>
          <path class="cls-47" d="M102.99,108.37c2.39.69,2.49-1.28,2.34-1.53-.15-.24-2.31-.62-2.64-.37s.3,1.9.3,1.9Z"/>
          <path class="cls-76" d="M111.56,102.27c-7.97.65-9.61-5.26-9.61-5.26l6.02-4.6,4.59,6.99-1.01,2.87Z"/>
          <path class="cls-1" d="M131.95,92.56c.08.04,1.41-.7,1.41-.7l-.75-1.42-1.28.59s-1.01.68.62,1.52Z"/>
          <path class="cls-91" d="M174.48,150.74c1.58.41,1.51-1.42,1.4-1.63s-1.52-.36-1.72-.09c-.2.27.32,1.73.32,1.73Z"/>
          <path class="cls-48" d="M167.5,140.72c3.81,1.98,8.12-4,7.72-7-.39-3-2.63-9.98-2.63-9.98,0,0-7.38-.13-8.27,2.41-.89,2.54-.82,12.5,3.17,14.57Z"/>
          <path class="cls-14" d="M173.63,142.54c1.67-2.62,3.29-1.17,3.29-1.17l-.4,3.33-2.51-.91-.38-1.25Z"/>
          <path class="cls-43" d="M171.27,157.2s.44-.78.44-.78l-.3-1.25-.4.67s-.31.72.26,1.36Z"/>
          <path class="cls-74" d="M121.76,79.66c.16.08,2.72-1.34,2.72-1.34l-1.44-2.74-2.47,1.15s-1.95,1.31,1.19,2.94Z"/>
        </g>
        <path class="cls-6" d="M60.06,81.74l-17.1,15.96s9.41,3.84,15.91.89c6.5-2.96,13.45-17.15,13.45-17.15l-12.27.3Z"/>
        <path class="cls-83" d="M43.85,80.86l-17.29,15.82s1.48,4.43,10.94,1.77c9.46-2.66,19.51-14.71,19.14-16.85-.37-2.14-12.79-.74-12.79-.74Z"/>
        <g>
          <path class="cls-92" d="M41.91,85.43c27.51-13.15,44.81-11.08,44.81-11.08l3.1,2.37-2.66-7.24-35.92,6.95-9.33,9.01Z"/>
          <path class="cls-60" d="M41.91,85.43l23.96-13.74,14.49-22.62s-4.58-15.37-15.52-13.89c-10.94,1.48-22.91,46.27-22.91,46.27l-.02,3.98Z"/>
          <path class="cls-40" d="M87.61,72.43l-30.15,3.84s7.54-28.31,16.26-29.49c8.72-1.18,13.89,25.65,13.89,25.65Z"/>
          <path class="cls-105" d="M84.57,70.38l-8.17,1.04-1.96.25-11.74,1.49s1.31-6.51,3.58-12.55c.16-.44.34-.88.51-1.32,1.92-4.75,4.45-8.86,7.37-8.75,2.58.1,4.69,2.93,6.32,6.43.27.58.53,1.18.77,1.79,2.19,5.45,3.31,11.61,3.31,11.61Z"/>
          <path class="cls-77" d="M91.34,76.79s-13.59-34.79-18.12-44.67c12.42,13.5,22.96,16.56,22.96,16.56,0,0,4.43,9.46-4.84,28.11Z"/>
          <path class="cls-81" d="M81.26,58.77c-2.98,2.97-4.4,9.9-4.86,12.65-.12.72-.18,1.15-.18,1.15h-1.47s-.1-.33-.31-.9c-.8-2.24-3.22-8.09-7.37-10.63.15-.39.31-.8.48-1.22,4.58,3.45,7.2,10.01,7.2,10.01l.44.22s1.73-8.75,5.11-13.07c.07,0,.12,0,.18,0,.28.58.53,1.17.77,1.79Z"/>
          <path class="cls-72" d="M58.93,70.51s9.46-15.52,16.26-15.52,10.94,9.76,10.94,9.76c0,0,.74-18.33-10.2-20.25s-17,26.02-17,26.02Z"/>
          <path class="cls-50" d="M92.55,81.68l-3.98.37s-.57-3.71-1.73-8.97c-2.03-9.13-5.86-22.93-11.66-30.03-.07-.08-.13-.16-.2-.24-2.59-3.08-5.57-4.81-8.95-4.22-.19.03-.38.07-.58.12-2.74.69-5.22,2.52-7.48,5.09-2.75,3.14-5.14,7.38-7.18,11.95,0,0,0,0,0,0-.75,1.69-1.46,3.42-2.11,5.17,0,0,0,.01,0,.01-1.58,4.2-2.87,8.44-3.9,12.18-1.92,7.02-2.86,12.3-2.86,12.3l-5.46.54s6.84-29.19,17.63-48.22c2.52-4.45,5.26-8.34,8.17-11.18,1.37-1.33,2.78-2.44,4.23-3.25,3.82.36,7.84,6.96,11.34,14.22.25.53.51,1.07.76,1.61.15.31.29.63.43.94,4.53,9.88,8.28,21.97,10.68,30.56,1.82,6.52,2.86,11.03,2.86,11.03Z"/>
          <polygon class="cls-27" points="76.77 64.1 78.03 64.45 79.03 61.94 77.96 60.97 76.77 64.1"/>
        </g>
        <path class="cls-35" d="M66.02,38.6c-.19.03-.38.07-.58.12-2.74.69-5.22,2.52-7.48,5.09-.84-1.56-2.09-3.64-3.88-6.05,2.52-4.45,5.26-8.34,8.17-11.18,1.03,3.38,2.83,9.26,3.77,12.02Z"/>
        <path class="cls-8" d="M78.58,39.15l-3.41,3.9-.87,1,.67-1.24,2.85-5.27c.25.53.51,1.07.76,1.61Z"/>
        <polygon class="cls-78" points="61.98 26.78 68.83 24.17 66.42 22.86 61.98 26.78"/>
        <path class="cls-69" d="M88.69,47.84c2.07,14.88,8.28,13.6,8.28,13.6,0,0,.59-10.05-1.58-11.73-2.17-1.68-6.7-1.87-6.7-1.87Z"/>
        <path class="cls-34" d="M90.93,89.35c-18.21,8.8-22.1,7.17-22.1,7.17,0,0,7.98,1.03,12.86-.3,4.88-1.33,9.24-6.87,9.24-6.87Z"/>
        <path class="cls-56" d="M47.77,81.96c8.28-4.58,26.78-7.81,26.78-7.81l-16.7,1.92-10.08,5.89Z"/>
        <path class="cls-64" d="M50.78,55.76l11.69,3.81s-4.14,12.71-5.17,13.89c-1.03,1.18-13.45,5.62-13.45,4.88s6.93-22.58,6.93-22.58Z"/>
        <path class="cls-79" d="M44.81,95.86c-.22,1.63,1.18,2.88,1.18,2.88l-3.03-1.03,1.85-1.85Z"/>
        <path class="cls-79" d="M16.65,96.08c5.03-.64,13.55-4.93,13.55-4.93l-7.59,5.17-5.96-.25Z"/>
        <path class="cls-79" d="M105.44,58.63c.1-.49,5.62-4.04,6.41-3.74.79.3.2,1.87.2,1.87l-6.6,1.87Z"/>
        <path class="cls-26" d="M104.7,36.76l2.41,2.49s-10.94,12.42-10.64,11.68,8.23-14.17,8.23-14.17Z"/>
        <path class="cls-79" d="M29.44,78.86s-.58-.18-1.23-.43c0,0-.02,0-.03-.01-.84-.33-1.79-.79-1.77-1.15l4.29-1.98c-2.29,2.11-1.26,3.58-1.26,3.58Z"/>
        <path class="cls-53" d="M14.88,105.25c4.73,2,17.96,1.03,17.96,1.03l-15.74.96-2.22-2Z"/>
      </g>
    </g>
  </g>
</svg>