<?xml version="1.0" encoding="UTF-8"?>
<svg xmlns="http://www.w3.org/2000/svg" version="1.1" xmlns:xlink="http://www.w3.org/1999/xlink" viewBox="0 0 468.87 119.89">
  <defs>
    <style>
      .cls-1 {
        fill: url(#_Áåçûìÿííûé_ãðàäèåíò_182);
      }

      .cls-1, .cls-2, .cls-3, .cls-4, .cls-5, .cls-6 {
        stroke-width: 0px;
      }

      .cls-2 {
        fill: url(#_Áåçûìÿííûé_ãðàäèåíò_908);
      }

      .cls-2, .cls-4, .cls-5 {
        mix-blend-mode: screen;
      }

      .cls-2, .cls-5 {
        opacity: .63;
      }

      .cls-7 {
        isolation: isolate;
      }

      .cls-3 {
        fill: url(#_Áåçûìÿííûé_ãðàäèåíò_79);
      }

      .cls-4 {
        fill: url(#_Áåçûìÿííûé_ãðàäèåíò_908-3);
      }

      .cls-5 {
        fill: url(#_Áåçûìÿííûé_ãðàäèåíò_908-2);
      }

      .cls-6 {
        fill: url(#_Áåçûìÿííûé_ãðàäèåíò_72);
      }
    </style>
    <linearGradient id="_Áåçûìÿííûé_ãðàäèåíò_72" data-name="Áåçûìÿííûé ãðàäèåíò 72" x1="46.2" y1="61.32" x2="424.42" y2="61.32" gradientUnits="userSpaceOnUse">
      <stop offset=".03" stop-color="#006fff"/>
      <stop offset=".05" stop-color="#0273ff"/>
      <stop offset=".38" stop-color="#23aeff"/>
      <stop offset=".66" stop-color="#3cdaff"/>
      <stop offset=".87" stop-color="#4bf5ff"/>
      <stop offset="1" stop-color="#51ffff"/>
    </linearGradient>
    <linearGradient id="_Áåçûìÿííûé_ãðàäèåíò_79" data-name="Áåçûìÿííûé ãðàäèåíò 79" x1="30.23" y1="59.79" x2="468.87" y2="59.79" gradientUnits="userSpaceOnUse">
      <stop offset="0" stop-color="#51ffff"/>
      <stop offset=".23" stop-color="#87ffff"/>
      <stop offset=".47" stop-color="#baffff"/>
      <stop offset=".69" stop-color="#dfffff"/>
      <stop offset=".86" stop-color="#f6ffff"/>
      <stop offset=".96" stop-color="#fff"/>
    </linearGradient>
    <linearGradient id="_Áåçûìÿííûé_ãðàäèåíò_182" data-name="Áåçûìÿííûé ãðàäèåíò 182" x1="79.86" y1="65.76" x2="304.26" y2="65.76" gradientUnits="userSpaceOnUse">
      <stop offset=".03" stop-color="#003697"/>
      <stop offset=".45" stop-color="#07196e"/>
      <stop offset=".79" stop-color="#0c0653"/>
      <stop offset="1" stop-color="#0e004a"/>
    </linearGradient>
    <linearGradient id="_Áåçûìÿííûé_ãðàäèåíò_908" data-name="Áåçûìÿííûé ãðàäèåíò 908" x1="2413.45" y1="261.4" x2="2696.02" y2="261.4" gradientTransform="translate(2808.51 167.77) rotate(-170.9) scale(.99 -.99) skewX(-9.1)" gradientUnits="userSpaceOnUse">
      <stop offset="0" stop-color="#fff"/>
      <stop offset=".12" stop-color="#8cc8ff"/>
      <stop offset=".24" stop-color="#2798ff"/>
      <stop offset=".29" stop-color="#0086ff"/>
      <stop offset=".59" stop-color="#00498c"/>
      <stop offset=".88" stop-color="#001427"/>
      <stop offset="1" stop-color="#000"/>
    </linearGradient>
    <linearGradient id="_Áåçûìÿííûé_ãðàäèåíò_908-2" data-name="Áåçûìÿííûé ãðàäèåíò 908" x1="2395.71" y1="-74.72" x2="2804.9" y2="-74.72" gradientTransform="translate(2821.62 -120.28) rotate(173.52) scale(.99 -.99) skewX(6.47)" xlink:href="#_Áåçûìÿííûé_ãðàäèåíò_908"/>
    <linearGradient id="_Áåçûìÿííûé_ãðàäèåíò_908-3" data-name="Áåçûìÿííûé ãðàäèåíò 908" x1="2378.54" y1="52.66" x2="2834.98" y2="52.66" gradientTransform="translate(2834.98) rotate(-180) scale(1 -1)" xlink:href="#_Áåçûìÿííûé_ãðàäèåíò_908"/>
  </defs>
  <g class="cls-7">
    <g id="Layer_1" data-name="Layer 1">
      <g>
        <path class="cls-6" d="M347.95,74.82c1.86-1.95,3.47-4.26,5.65-5.75,2.61-1.78,5.71-2.86,8.6-4.23.4-.19.83-.33,1.7-.68-.97-.41-1.53-.64-2.28-.95.18-.48.41-.97.54-1.47.45-1.72.08-2.97-1.42-3.93-1.1-.7-2.34-1.27-3.6-1.61-4.59-1.25-9.2-1-13.73.27-3.1.86-3.58,1.98-3.25,6.33-1.23.47-2.53.97-3.84,1.45-2.06.77-3.39,2.15-4.32,4.2-2.35,5.16-4.83,10.26-7.4,15.31-2.41,4.73-6.16,8.27-10.7,11.36-1.76-2.66-4.09-2.33-6.38-1.44-2.55.99-5.05,2.13-7.52,3.31-1.28.61-2.47,1.41-2.41,3.17.04,1.07-.87,1.35-1.73,1.55-1.47.34-2.95.68-4.43,1-5.55,1.2-11.09,2.39-16.64,3.57-.52.11-1.07.12-1.72-.21.64-.29,1.28-.61,1.94-.87,6.94-2.76,13.92-5.39,20.5-9.01,5.96-3.28,11.14-7.44,15.5-12.65,4.8-5.74,9.31-11.67,13.32-17.99.39-.61.68-1.29,1.06-2.03-.5-.38-.82-.76-1.23-.91-4.23-1.62-8.36-3.44-12.79-4.59-5.2-1.36-10.26-3.3-15.32-5.13-9.08-3.28-18.26-6.22-27.79-7.96-10.35-1.89-20.75-3.22-31.28-3.25-6.52-.02-13.05.14-19.57.26-3.47.06-6.73.74-9.58,3.63.77.79,1.32,1.74,2.14,2.14,2.11,1.02,4.27,2.13,6.53,2.63,16.75,3.7,33.73,5.7,50.83,6.86,9.9.68,19.78,1.66,29.54,3.64,3.28.67,5.42,2.28,6.86,5.24,1.42,2.93,1.17,5.01-1.2,7.38-.73.73-1.5,1.49-2,2.37-6.68,11.73-17.13,18.07-29.96,20.98-3.5.79-7.04,1.49-10.59,1.98-8.85,1.21-17.45-.44-25.6-3.55-8.37-3.19-16.39-7.31-24.56-11.03-1.27-.58-2.52-1.21-4.37-2.1,1.06,2.25,2.76,3.04,4.25,4.93-1.83-.31-3.12-.53-4.83-.83.18,1.02.27,1.81.45,2.58.39,1.65.97,3.28,1.19,4.95.39,2.83-.59,4.57-3.08,5.83-.19-.5-.44-.97-.56-1.47-.58-2.6-2.11-4.61-3.96-6.42-1.87-1.84-3.42-3.74-4.57-6.27-2.26-4.96-6.31-8.67-10.64-11.95-1.96-1.49-3.92-.87-5.9.75-.83-.83-1.63-1.58-2.36-2.39-5.36-5.98-10.64-12.07-17.16-16.87-6.26-4.61-12.88-8.74-20.19-11.39-7.56-2.74-15.44-4.25-23.52-4.95-8-.7-15.38,1.13-22.63,4.11-1.39.57-2.78,1.21-4.39.6-.38-1.33.61-1.97,1.34-2.57,13.05-10.74,27.75-17.14,44.93-16.99.57,0,1.18-.07,1.69.11,4.94,1.72,10.12,1.03,15.17,1.56,6.96.72,13.91,1.54,20.86,2.33,1.91.22,3.58.76,4.86,2.47.82,1.08,2.14,1.85,3.37,2.54,3.91,2.2,8.11,3.65,12.57,4.2,3.14.39,4.21-.28,5.57-3.09.76-1.57,1.2-1.71,3.19-1.18,3.47.93,6.94,1.87,10.43,2.7,1.74.41,3.54.58,5.32.85.56.08,1.3-.08,1.65.23,2,1.75,4.38,1.19,6.49.83,7.4-1.24,14.84-1.86,22.31-1.85,7.83,0,15.41-1.55,23.03-2.91,5.12-.91,10.2-2,15.31-2.98,10-1.92,19.55-.16,28.9,3.45,7.89,3.05,15.28,7.05,22.47,11.44,2.16,1.32,3.93,1.65,6.24.25,1.73-1.05,3.85-1.55,5.86-2,4.02-.9,7.28.99,10,3.57,2.26,2.13,4.91,3.02,7.74,3.82,9,2.57,17.98,5.18,26.96,7.84,6.74,2,13.69,2.84,20.62,3.77,2.34.31,4.71.43,7.06.7.87.1,1.72.39,2.94.68-1.28,1.52-2.66,1.48-3.9,1.59-4.24.39-8.47.85-12.72.99-4.16.13-8.01,1.2-11.77,2.84-1,.44-2.06.74-3.17,1.13-.17-5.35-.23-5.44-5.69-6.29-2.23-.34-4.48-.68-6.73-.72-1.37-.02-2.82.36-4.12.86-1.69.65-2.78,1.96-2.75,3.91.04,1.91,1.04,3.36,2.75,3.92,1.76.58,3.67.85,5.52.94,1.68.09,3.39-.25,5.09-.39l-.05-.04c-.47.43-.88,1.05-1.43,1.24-3.3,1.16-6.64,2.15-10.22,2-2.67-.11-5.06-.89-6.8-2.97-2.67-3.2-6.12-3.71-9.75-2.57-2.57.81-4.92,2.3-7.35,3.51-1.15.57-2.28,1.19-3.41,1.79,0,0,.03.03.03.03ZM172.17,43.41c.71.43,1.51.76,2.1,1.31,2.29,2.12,4.62,4.21,6.73,6.5,4.81,5.19,9.91,10.16,13.33,16.49,1.44,2.66,3.1,5.2,4.5,7.88.95,1.82,2.2,2.91,4.3,3.2,3.65.51,7.27,1.22,10.91,1.85.9.16,1.8.34,2.75.52-.09.51-.12.79-.2,1.04-.96,2.98-.43,4.24,2.47,5.19,1.7.56,3.48.92,5.25,1.15,1.86.24,3.79.48,5.63.26,2.87-.35,3.76-2.23,2.66-4.89-.17-.41-.26-.84-.5-1.6,4.15-.22,8.05-.43,11.95-.63.1.61.17.89.18,1.16.03,2.89.75,3.7,3.58,3.89.85.06,1.72.1,2.55-.02,5.33-.78,10.69-1.4,15.96-2.48,3.4-.7,6.66-2.09,9.99-3.18,1.3-.43,2.14-1.27,2.03-2.71-.11-1.39-.99-2.26-2.33-2.49-1.21-.2-2.46-.36-3.66-.27-3.39.27-6.77.71-10.15,1.05-1.41.14-2.85.41-4.23.24-7.88-.96-15.75-2.02-23.62-3.08-.77-.1-1.5-.46-2.88-.9.82-.53,1.19-.68,1.45-.95,2.06-2.14,1.99-4.14-.36-6-1.17-.93-2.52-1.68-3.86-2.35-4.15-2.06-8.32-4.08-12.51-6.05-2.14-1-4.29-2-6.52-2.77-1.96-.68-3.66-.05-4.55,1.31-.83,1.27-.74,3.42.58,4.73,1.44,1.44,3.02,2.89,4.81,3.84,4.62,2.45,9.38,4.62,13.55,6.65-.12-.02-.88-.09-1.61-.27-9.79-2.38-18.8-6.5-26.45-13.08-5.15-4.43-9.93-9.31-14.69-14.17-8.58-8.77-18.54-14.88-30.85-16.72-1.22-.18-2.46-.28-3.69-.42-.04.2-.09.39-.13.59,2.37,1.21,4.74,2.43,7.34,3.76-.61.65-.9,1.01-1.23,1.3-1.6,1.4-1.62,3.13-.95,4.93.32.88.84,1.69,1.35,2.48,3.63,5.63,8.28,10.3,13.65,14.27.98.72,2.06,1.39,3.2,1.79,2.97,1.06,5.51-.7,5.25-3.86-.15-1.81-1.03-3.58-1.71-5.32-.4-1.04-1.05-1.98-1.59-2.97.08-.07.15-.14.23-.21ZM319.39,41.39c-.66,0-1.32-.01-1.98,0-1.43.03-2.6.59-3.23,1.91-.7,1.46-.21,2.81.82,3.9.77.81,1.62,1.67,2.61,2.13,4.1,1.9,8.24,3.73,12.44,5.4,1.27.51,2.78.54,4.18.55,1.83.01,3.32-.85,4.08-2.57.74-1.68.54-3.37-.69-4.77-.73-.84-1.58-1.65-2.54-2.19-4.85-2.75-10.15-4-15.68-4.36ZM137.25,75.95c3.38,4.78,5.99,9.56,7.3,14.94.37,1.52.28,3.19.17,4.77-.12,1.68-1.12,2.9-2.88,2.96-6.97.23-13.99.94-20.8-1.31-3.76-1.25-8.75-5.59-10.26-8.95,1.22-.38,1.96.49,2.72,1.04,4.46,3.2,9.6,4.31,14.91,4.87.51.05,1.04-.15,1.89-.29-.48-.67-.7-1.21-1.09-1.51-4.58-3.47-7.92-8.06-11.4-12.52-4.02-5.15-8.51-9.85-13.62-13.96-1.38-1.11-2.54-2.52-3.68-3.89-1.69-2.03-3.2-4.22-4.94-6.2-3.78-4.32-8.49-6.14-14.22-4.88-.64.14-1.29.26-1.94.37-.07.01-.16-.06-.78-.32,2.09-.74,3.75-1.54,5.5-1.91,6.68-1.42,13.45-1.92,20.28-1.61,4.75.22,8.77,2.02,12.12,5.4.65.65,1.19,1.21.77,2.18-.93,2.16.05,3.91,1.35,5.46,3.4,4.05,6.89,8.02,10.35,12.02.43.5.93.94,1.36,1.44,1.8,2.07,3.82,3.42,6.9,1.91ZM134.18,85.2c-.34-.78-.8-2.22-1.54-3.5-3.87-6.72-8.91-12.42-15.12-17.07-.9-.68-1.85-1.44-2.89-1.73-.88-.24-2.09-.12-2.88.32-1.12.62-1.12,1.91-.72,3.05.28.8.7,1.55,1.12,2.29,3.65,6.44,8.37,12.09,13.03,17.78.94,1.15,2.13,2.21,3.42,2.93,2.64,1.47,5.55-.36,5.59-4.07ZM78.26,69.19c.12,1.22,1.36,2.25.67,3.88-3.36-1.1-6.38-2.58-9.01-4.72-2.03-1.65-1.7-3.75.67-4.9,1.16-.57,2.47-.9,3.74-1.16,3.99-.83,7.61.43,11.15,2.11,1.15.55,2.41.88,3.62,1.32l-.04.03c-.6-.79-1.04-1.81-1.82-2.33-5.07-3.45-10.53-5.92-16.79-6.26-5.23-.28-10.15.69-14.71,3.32-.97.56-1.95,1.12-2.95,1.63-1.74.9-2.33,2.25-1.41,3.97,1.6,3.01,3.39,5.9,5.98,8.21,5.28,4.73,11.5,7.14,18.52,7.67,1.12.09,2.01-.18,2.78-1.04,1.08-1.22,2.47-1.66,4.1-1.4.43.07.9-.06,1.54-.12,0-1.04.23-2.02-.04-2.84-.94-2.83-2.6-5.22-4.97-7.08-.26-.2-.71-.16-1.08-.23l.05-.04ZM294.93,56.11c-4.62-1.96-9.32-3.6-14.03-5.23-11.89-4.12-24.1-6.28-36.72-5.85-3.49.12-6.96.26-10.23,1.65,20.85-.02,40.96,4.29,60.97,9.43ZM222.14,105.15c.56.26,1.1.56,1.67.77,6.22,2.29,12.61,3.88,19.19,4.66,5.78.68,11.48.26,17.12-1.16.97-.24,2.03-.35,2.46-1.66-1.92-1.07-3.92-.69-5.82-.5-9.83.96-19.58.59-29.24-1.55-1.73-.39-3.5-.64-5.25-.96-.04.13-.09.26-.13.39ZM103.06,22.15c6.16-.77,12.31-1.94,18.5-2.19,6.23-.26,12.5.38,18.74.63.06-.2.11-.4.17-.61-.49-.32-.93-.74-1.46-.94-4.57-1.75-9.32-2.37-14.19-2.25-4.86.12-9.51,1.31-14.14,2.67-2.56.75-5.16,1.39-7.74,2.08.04.2.09.41.13.61ZM138.5,71.1c.62,1.37,1.04,2.47,1.6,3.49,1.18,2.15,2.52,4.22,3.63,6.4,3.12,6.15,5.61,12.53,6.37,19.72,3.31-7.12-4.42-27.19-11.59-29.62ZM71.75,85.2c-8.7-1.96-16.26-6.03-22.73-12.14-.34-.33-.83-.5-1.5-.88,2.76,7.75,19.74,16.6,27.14,13.92-.97-.3-1.92-.68-2.91-.9ZM330.29,78.55c-1.04,3.35-2.04,6.68-3.92,9.68-.11.18-.01.5-.01,1.03.45-.36.82-.52.98-.81,1.44-2.54,3.16-4.97,4.18-7.67,1.86-4.89,4.83-8.7,9.27-11.43.75-.46,1.37-1.13,2.43-2.03-5.92.9-11.16,5.53-12.93,11.23ZM124.51,11.73c1.9.59,3.79,1.23,5.71,1.77,2,.56,4.02,1.04,6.04,1.54,1.94.47,3.89.91,5.83,1.36.05-.21.1-.42.15-.63-1.97-.61-3.91-1.33-5.91-1.81-2.01-.48-4.14-.53-6.12-1.09-1.96-.55-4.04.92-5.89-.31.07-.28.13-.55.2-.83ZM386.94,71.83c.18-.03.36-.07.54-.1-.19.02-.38.05-.58.07,0,0,.04.04.04.04ZM78.21,69.23c0-.16.01-.31.02-.47-.11.03-.21.07-.32.1.12.11.24.21.35.32,0,0-.05.04-.05.04ZM46.42,70.88c.03-.07.07-.14.1-.21-.11.01-.21.03-.32.04.06.04.12.09.18.13l.04.04ZM347.92,74.8l-.06.13.09-.1-.03-.03ZM46.42,70.87s.1.08.1.08l-.15-.11s.04.04.04.04ZM89.06,65.75l.09.11s-.05-.15-.05-.15c0,0-.04.03-.04.03ZM172.17,43.41c-.12-.03-.23-.06-.34-.1.04.1.08.2.12.3.08-.07.15-.14.22-.21Z"/>
        <path class="cls-3" d="M250.92,71.11c.42,1.4.71,2.37,1.14,3.83-1.21-.32-2.08-.51-2.91-.79-8.82-2.96-17.84-5-27.14-5.7-5.68-.43-11.37-.43-16.95.79-2.55.55-5.14,1.43-7.38,2.73-4.06,2.36-5.79,6.08-4.9,10.83.07.36.08.73.12,1.17-1.55.39-2.8.3-4.36-.19-2.85-.91-5.93-1.09-8.92-1.57-.93-.15-1.86-.37-2.8-.42-2.38-.12-4.06-1.03-5.7-2.97-1.5-1.77-3.91-2.97-6.15-3.86-3.86-1.55-7.83-2.77-11.11-5.51-.53-.44-1.65-.58-2.33-.35-3.09,1.05-5.98.44-8.83-.76-2.08-.87-4.15-1.78-6.23-2.68-1.27,1.14-2.45,2.2-3.79,3.41.44.49.9,1.01,1.4,1.56-.22.16-.42.38-.67.48-3.7,1.39-7.46,2.64-11.11,4.18-4.35,1.84-5.01,5.9-1.65,9.31.32.33.8.5,1.49.91-1.7,1.53-3.29,1.72-4.81,1.53-3.67-.48-6.98-1.59-8.68-5.39-1.55-3.45-4.38-5.6-7.77-7.11-4.11-1.84-8.48-2.64-12.92-3.04-5.28-.48-10.58-.57-15.85.32-1.09.18-2.23.03-3.33.03-1.7,1.32-3.35,2.71-5.13,3.92-.55.37-1.49.46-2.16.3-1.18-.27-2.39-.67-3.4-1.31-3.81-2.39-7.92-3.99-12.25-5.12-5.2-1.35-10.39-2.73-15.61-4.48,1.12.06,2.23.09,3.35.17,2.08.14,4.15.35,6.23.45.93.04,2.08.18,2.77-.28,1.76-1.15,3.43-.56,5.16-.23,2.2.43,4.39.89,6.93,1.4-.17-2.1-.31-3.83-.46-5.7.5-.08.85-.21,1.19-.18,6.41.46,12.82,1.01,19.23,1.39,3.29.2,6.6.11,9.9.15,3.15.04,6.2-.44,9.21-1.4,1.22-.39,2.6-.33,3.9-.42,2.83-.18,5.67-.17,8.47-.53,2.84-.37,5.23-1.64,6.23-4.81.77.23,1.45.43,2.26.67.25-.57.46-1.07.69-1.56,1.43-2.97,4.03-4.38,7.19-3.62,1.48.36,2.67.38,3.99-.51,1.27-.86,2.79-1.09,4.66-.52-.43,3.45,1.27,5.96,3.51,7.51-.97-1.62-3.04-3.43-2.38-6.43,12.37,3.5,24.9,4.53,37.59,4.16,1.04-.03,2.08-.14,3.11-.3,2.63-.4,5.23-.64,7.85.21.88.28,1.88.29,2.81.26,2.85-.11,4.16-2.1,3.26-4.86-.11-.35-.28-.68-.48-1.18,3.77-2.27,7.4-4.67,5.5-10.59,2.69,1.77,4.88,3.26,7.13,4.67,11.31,7.12,23.26,12.62,36.68,14.3,2.9.36,5.86.54,8.77.39,3.46-.17,6.78.27,10.11,1.04.64.15,1.3.3,1.95.28,2.25-.06,3.99.77,5.42,2.53.55.68,1.48,1.2,2.34,1.43,1.44.38,2.39-.3,2.54-1.81.16-1.58.68-2.92,1.74-4.08.31-.34.62-.77.72-1.2.73-3.21,2.84-4.99,6.22-5.76-1.77-3.48-6.11-5.23-5.99-10.06,19.48,6.66,39.19,10.55,59.8,9.72-.31,4.69,2.58,6.79,6.27,7.67,4.58,1.09,9.27,1.97,13.95,2.34,13.53,1.08,27.03.52,40.48-1.35q2.5-.35,6.14,1.52c.42-.57.85-1.16,1.3-1.76.31.03.62-.03.84.08,3.5,1.85,7.25,2.64,11.18,2.84,1.06.06,2.09.68,2.85.95,1.44-.12,2.68-.29,3.92-.31,3.49-.06,6.98-.05,10.47-.09.47,0,1-.02,1.39-.23,2.66-1.5,5.24-.69,7.93.02,6.77,1.78,13.6,3.33,20.63,3.68,2.36.12,4.73.08,7.09,0,1.73-.06,3.25.35,5.09,1.63-1.31,0-2.11.04-2.92,0-7.3-.41-14.64-.62-21.73,1.27-4.36,1.16-8.16,1.19-12.48-.45-5.65-2.15-11.77-1.53-17.69-.62-3.07.47-6.11,1.26-9.13,2.03-2.86.72-5.55,1.88-7.8,4.01-1.6-.9-3.14-1.81-4.72-2.64-7.81-4.11-16.28-5.38-24.96-5.68-6.56-.22-13.05.33-19.37,2.2-3.51,1.04-6.74,2.53-8.65,5.95-.35-.06-.66-.02-.86-.15-7.76-4.87-16.35-7.34-25.34-8.55-11.37-1.52-22.65-1.27-33.74,1.96-4.06,1.18-7.83,2.81-10.16,6.7-.36.59-1.38.96-2.15,1.1-2.29.42-4.57.14-6.65-.89-1.9-.94-3.8-1.57-5.96-1.47-1.09.05-2.21-.3-3.65-.52ZM282.33,76.61c6.98-2.54,14.25-2.79,21.54-2.09,4.5.43,8.96,1.34,13.45,1.93.95.13,2.4.16,2.85-.39,1.18-1.45,2.36-1.12,3.78-.77,1.26.31,2.59.37,3.89.54.3.04.6.08.9.12-.79-.1-1.45-.59-2.18-.93-.85-.4-1.75-.71-2.65-.99-13.49-4.18-27.13-4.38-40.86-1.38-1.79.39-3.5,1.2-5.74,1.99,1.84,1.59,2.98,2.71,5.03,1.97ZM235.16,78.13c-.53-.2-1.07-.38-1.62-.49-7.24-1.51-14.55-2.23-21.93-1.77-2.52.16-5.04.64-7.52,1.18-1.06.23-2.1.85-2.98,1.52-1.08.81-1.46,2.03-.71,3.26,1.09,1.77,2.45,3.27,4.53,3.96,1.06.35,1.96.35,2.87-.45,2.63-2.29,5.82-3.38,9.13-4.27,5.06-1.37,10.24-1.52,15.42-1.87,1.06-.07,2.12-.21,3.36-.34-.33-.45-.4-.67-.54-.73ZM295.35,37.8c-3.39-1.66-6.68-3.32-10.01-4.89-2.08-.98-4.16-.24-5.5,1.96,3.27,1.5,11.8,3.09,15.52,2.93ZM348.81,49.95c-2.77.31-5.52.76-8.28,1.14,4.22,1.57,8.56,1.74,12.96,1.71-1.5-1.19-2.52-3.1-4.68-2.85ZM21.17,63.63c-2.88-.7-5.76-1.39-8.64-2.09,2.35,2.88,5.55,2.22,8.64,2.09ZM369.85,52.67c-2.69-1.11-3.41-1.03-5.56.74,1.85-.25,3.71-.49,5.56-.74ZM430.42,73.92c-.65-.24-1.29-.56-1.96-.69-.82-.16-1.68-.18-2.52-.2-.56-.01-1.13.08-1.69.13-.01-.12-.02-.25-.04-.37,1.96.68,3.92,1.35,5.89,2.03.11-.3.21-.6.32-.9ZM83.83,47.87c-.92-1.55-2.42-1.35-3.46-.77-2.57,1.43-5.25.61-7.85.76,2.6-.14,5.22-.73,7.78.59,1.14.59,2.5.84,3.54-.58ZM181.79,42.9c1.14.13,2.13-.2,2.96-1.49-1.34-.33-2.45-.61-3.65-.91.06,1.93.14,2.33.69,2.4ZM188.54,35.76c-.44-.14-.97-.18-1.3-.45-.77-.64-1.38-1.5-2.2-2.06-.33-.23-1.04.09-1.57.15,1.33,1.09,2.56,1.82,4.18,1.28.75-.25,1.2.27.96,1.13l-.06-.05ZM147.76,36.31c-1.1.3-1.87.5-2.64.71,1.05.64,2.03.95,2.64-.71ZM188.6,35.81s.03-.13.03-.13l-.09.08s.06.05.06.05Z"/>
        <path class="cls-1" d="M304.26,67.48c-.25.17-.51.25-.54.37-.7,3.4-2.6,6.07-4.65,8.84-2.84,3.83-6.21,7.06-9.67,10.25-8.04,7.42-17.74,11.35-28.31,13.42-2.21.43-4.44.78-6.9,1.21.2-2.1-.77-3.32-2.42-4.11-5.47-2.63-11.22-3.93-17.3-3.56-2.59.16-3.81.95-4.02,2.41-.3,2.13,1.27,2.97,2.79,3.8.82.44,1.67.83,2.41,1.75-2.39-.34-4.8-.56-7.15-1.05-2.58-.53-5.15-1.19-7.67-1.99-2.42-.77-4.82-1.68-7.13-2.74-2.3-1.06-4.47-2.38-6.95-3.72-.11.71-.25,1.3-.28,1.89-.29,6.53-3.08,9.81-9.48,11.18-6.46,1.38-12.78.65-19.02-1.25-11.91-3.63-21.94-10.41-31.2-18.52-6.98-6.12-12.61-13.41-18.59-20.79,1.29-.13,2.07.59,2.5,1.18.88,1.2,2.16,1.43,3.36,1.88,1.01.38,2.08.43,2.84-.57.74-.97.49-1.99-.05-2.93-.47-.81-1-1.61-1.63-2.31-4.34-4.83-9.46-8.67-15.11-11.84-.33-.18-.67-.35-1.02-.49-1.78-.71-2.61-.32-3.14,1.52-.12.42-.08.89-.15,1.74-11.29-7.23-23.01-10.56-35.91-5.05,9.41-9,19.77-15.8,33.12-17.06,8.22-.78,15.98.88,23.67,3.29,7.52,2.36,14.53,5.87,21.39,9.71.92.51,1.35,1.1,1.53,2.15.17.99.66,1.97,1.2,2.84,4.12,6.59,9.9,11.36,16.71,14.95.81.43,1.77.72,2.69.81,2.38.23,3.5-1.18,2.91-3.52-.07-.27-.24-.52-.32-.79-.04-.16.02-.35.06-.97,1.05.66,1.96,1.19,2.83,1.78,7.37,4.96,14.57,10.19,22.15,14.81,6.28,3.82,12.84,7.3,19.58,10.2,3.9,1.68,8.39,2.1,12.67,2.74,4.01.59,8.08.72,12.3,1.07.65,2.9,2.93,3.71,5.61,4.17,4.62.8,9.22.76,13.82-.06.74-.13,1.48-.34,2.18-.6,3.5-1.3,4.31-3.05,2.95-6.81.84-.31,1.67-.65,2.53-.92,5.83-1.79,11.29-4.28,16.1-8.11,3.36-2.68,5.9-6.06,8.56-9.36.14-.18.11-.49.18-.83ZM150.63,66.67c-.73.06-1.15.08-1.57.13-2.41.31-3.33,1.57-2.65,3.89.31,1.07.85,2.11,1.47,3.04,5.08,7.63,11.99,13,20.52,16.29.87.33,1.83.58,2.75.57,2.35-.02,3.59-2.13,2.41-4.15-.5-.87-1.3-1.63-2.11-2.25-1.34-1.05-2.8-1.93-4.18-2.92-.55-.4-1.03-.9-1.8-1.59.65,0,.86-.07.98.01.94.64,1.87,1.28,2.78,1.96,6.34,4.76,12.76,9.38,20.02,12.68,3.29,1.49,6.67,2.7,10.32,2.78,1.07.02,2.39-.09,3.16-.7,1.91-1.49,2.08-5.38.37-7.23-1.39-1.51-2.91-2.95-4.58-4.15-4.43-3.19-9.08-6.08-13.43-9.36-10.49-7.89-20.95-15.83-31.25-23.95-9.91-7.81-20.43-14.21-32.97-16.88-10.85-2.31-20.26.99-29.49,7.14,1.62-.37,2.81-.63,3.99-.91,3.55-.86,7.1-.96,10.65,0,12.9,3.48,25,8.6,35.27,17.4,2.8,2.4,5.63,4.75,8.44,7.13.27.23.45.54.89,1.07ZM201.85,84.48c.42-.3,1.43-.67,1.76-1.36.27-.56-.06-2-.49-2.19-1.82-.79-2.67-2.6-4.11-3.62-2.84-2-5.97-3.6-9.07-5.2-.58-.3-1.71-.04-2.32.36-.85.56-.96,1.62-.46,2.55.4.73.9,1.44,1.47,2.06,3.12,3.42,7.53,4.85,11.35,7.18.36.22.92.12,1.87.22ZM336.37,50.6c-2.41,2.38-5.02,4.58-7.72,6.63-2.25,1.71-4.71,3.12-7.61,3.62-.64.11-1.35.96-1.65,1.64-1.15,2.59-2.14,5.25-3.21,7.87-2.89,7.07-6.54,13.63-12.57,18.57-5.61,4.6-11.86,8.21-18.29,11.53-3.06,1.58-6.06,3.3-9.11,4.91-.19.1-.55-.12-1.48-.34,2.17-.45,3.71-.61,5.13-1.11,3.53-1.25,6.95-2.85,10.52-3.96,6.35-1.98,12.11-5.16,17.91-8.3,3.62-1.96,6.74-4.5,9.34-7.7,1.42-1.74,3.14-3.29,2.56-5.91-.09-.4.2-.91.37-1.35.81-2.12,1.5-4.29,2.49-6.32,2.72-5.6,6.88-9.9,12.32-12.91,2.11-1.17,4.37-1.82,6.25.01,2.49-1.23,4.67-2.65,7.06-3.43,4.6-1.51,9.37-2.37,14.24-1.91,5.44.52,10.87,1.25,16.29,1.94.55.07,1.06.47,2.18.99-15.9,4.21-28.14,12.96-38.44,24.69.83-.17,1.51-.59,2.15-1.05,2.69-1.9,5.36-3.83,8.07-5.72,3.43-2.4,7.13-4.28,11.13-5.5,1.22-.37,2.05-.88,2.7-2.15.53-1.04,1.84-1.95,3-2.35,4.15-1.41,8.46-1.99,12.85-1.55.74.08,1.53.21,2.18.54.45.23.7.85,1.37,1.72-2.47.18-4.38.32-6.9.51,1.92.56,3.17.94,4.43,1.28.89.24,1.8.6,2.7.61,8.6.03,17.19.22,25.76-.84,4.87-.6,9.77-.88,14.66-1.28,1.46-.12,2.93-.13,4.85-.21-.68-.37-.88-.55-1.11-.6-4.07-.81-8.13-1.64-12.21-2.39-.81-.15-1.71-.09-2.51.11-4.77,1.17-9.56,1.16-14.35.32-1.47-.26-2.95-.73-4.28-1.39-1.62-.8-3.15-1.86-2.24-4.47-2.84-.15-5.36-.26-7.89-.43-1.21-.08-2.54.03-3.61-.42-3.14-1.31-6.49-1.91-9.58-3.47-5.56-2.8-11.39-5.06-17.05-7.67-7.5-3.45-14.31-1.22-21.26,2.07,2.57,2.19,2.74,2.95.51,5.15ZM165.99,27.1c10.01,1.63,19.72,4.4,29.27,7.77,7.51,2.64,15.13,4.78,23.11,5.47,9.53.82,19.07,1,28.59.31,4.82-.35,9.79-.19,14.36-2.29.11.26.21.53.45,1.12-1.64-.69-2.98-1.09-4.14-1.79-2.14-1.28-2.15-3.42-.07-4.74.87-.55,1.85-.99,2.84-1.26,4.95-1.36,10.03-1.9,15.15-1.93,3.04-.02,5.39,1.32,6.74,4.41,18.12-3.01,35.37-.05,51.89,7.92-4.31-2.75-8.69-5.31-13.15-7.74-2.36-1.28-4.76-2.79-7.66-1.47-.16.07-.37.02-.56.02-5.86.11-11.46-1.1-16.83-3.4-2.1-.9-4.08-1.94-4.94-4.12-21.01.34-41.5,4.13-62.14,5.96-.41,2.84-1.18,3.59-4.13,4.28-7.53,1.75-14.62-.2-21.67-2.52-.35-.12-.77-.29-.97-.56-1.21-1.67-3.04-1.65-4.81-1.89-2.16-.28-4.3-.64-6.45-.98-9.06-1.45-18.04-3.57-27.27-3.28.8.24,1.59.58,2.41.71ZM294.97,59.08c-2.46-.62-5-1.04-7.53-1.33-5.07-.58-10.16-.91-15.22-1.51-7.5-.88-14.99-1.91-22.49-2.83-2.5-.31-5.01-.49-8.06-.79,1.51,1.03,2.49,1.7,3.67,2.5-.72.33-1.12.52-1.51.7,1.21,3.17.46,4.3-2.95,4.44-.66.03-1.33,0-1.98-.09-4.62-.68-9.04-2.01-13.18-4.18-1.06-.56-2.11-1.36-2.8-2.31-.73-1.01-1.69-2.3-.06-3.83-10.42-1.67-19.98-5.24-28.96-10.45.34.54.76.91,1.19,1.28,4.06,3.49,8.13,6.98,12.19,10.47,3.65,3.14,7.26,6.34,11.63,8.5,11.8,5.84,24.33,8.71,37.46,8.87,4.36.06,8.67-.77,12.87-2.07-.72-.35-1.44-.53-2.16-.68-1.6-.35-3.25-.7-3.58-2.67-.22-1.32.87-2.33,3.17-3.07,3.19-1.04,6.48-1.23,9.81-1.15,8.18.18,16.1,1.8,23.88,4.23.6.19,1.24.29,1.85.43-1.92-2.58-4.5-3.75-7.25-4.45ZM140.18,97.37c-2.36-.15-4.72-.22-7.07-.42-8.54-.76-14.91-5.01-19.34-12.23-.68-1.1-1.48-1.85-2.61-2.44-4.05-2.12-7.65-4.88-10.78-8.22-2.43-2.6-2.45-3.92-.31-6.72-3.5-3.28-7-6.59-11.28-8.87-4.87-2.59-10.08-3.65-15.61-3.04-7.59.84-14.3,4.06-20.9,7.61-.27.15-.45.47-.67.72,9.45-3.71,18.81-2.03,28.37.33-.14-.77-.24-1.12-.26-1.48-.15-2.25,1.07-3.47,3.27-2.93,5.15,1.28,9.29,4.13,12.35,8.48.79,1.13.48,2.16-.52,3-.41.35-.92.59-1.67,1.06,3.78,4.79,7.25,9.64,11.19,14.06,6.17,6.92,14,11.14,23.18,12.68,5.24.88,10.41-.35,15.67-1.29-1.01-.09-2.02-.21-3.03-.28ZM56.18,73.6c6.34,5.1,13.49,8.48,21.58,10.27,1.16-4.6,4.55-3.76,7.63-3.48.88-3,.63-5.68-1.49-7.8-2.23-2.22-4.7-4.22-7.13-6.24-.54-.44-1.34-.57-1.98-.82.56.7,1.16,1.43,1.74,2.17.57.74,1.18,1.46,1.67,2.25.79,1.26,1.73,2.5,2.19,3.88.75,2.3-.31,3.88-2.7,4.32-1.57.29-3.18.49-4.78.52-5.29.1-10.36-.62-14.56-4.3-.54-.48-1.2-.82-1.8-1.23-.12.15-.24.31-.36.46ZM326.09,72.39c3.91-4.03,7.83-8.06,12.21-12.57-5.73,3.12-9.85,6.97-12.21,12.57ZM167.13,49.94c2.89,3.47,6.64,5,10.84,6.63-2.48-2.54-8.35-6.12-10.84-6.63ZM273.01,33.69c-3.84-.26-7.66-.34-11.28,1.09,3.85.14,7.65.26,11.28-1.09ZM272.43,61.87c1.55.33,3.08.79,4.64.94,1.7.16,3.44.04,5.15.04-2.23-.68-4.47-.96-6.72-1.05-1-.04-2.01.32-3.01.5-.02-.14-.04-.29-.06-.43ZM397.66,56.8c1.9.35,3.79.71,5.69,1.06-.82-.56-1.69-.86-2.58-1.09-.98-.25-1.98-.43-2.97-.64-.05.23-.09.45-.14.68ZM218,32.66h6.2c-2.63-1.22-3.84-1.2-6.2,0ZM151.39,71.47c.92,1.24,1.83,2.49,2.78,3.77.93-.21,1.87-.43,3.01-.69-1.71-1.54-3.5-2.65-5.8-3.08Z"/>
        <g>
          <path class="cls-2" d="M453.83,63.76c.24-.09.09-.5-.16-.58-2.36-.75-8.94-3.84-22.43-14-25.76-19.39-21.86-8-11.39.52,8.83,7.18-10.61-1.66-31.46-15.21-29.34-19.06-27.21-.17-28.44,3.98-1.25,4.21-7.51,1.85-31.34-8.15-31.09-13.05-16.12,8.7-75.03-11.37C151.65-15.79,182.74,7.87,182.74,7.87c0,0,43.25,2.28,71.86,13.34,23.73,9.18,40.96,13.32,53.18,9.03,11.04-3.87,25.41,1.6,43.62,10.31,15.17,7.25,13.84-2.35,13.6-8.13-.25-5.81,14.85-5.52,32.28,8.56,13.86,11.2,28.37,15.21,27.72,12.5-.66-2.74-5.66-3.06-9.81-9.82-4.47-7.28,13.2,3.09,20.08,9.03,5.56,4.8,14.12,12.67,18.56,11.06Z"/>
          <path class="cls-5" d="M455.37,71.67c-2.43,3.71-13.01,11.45-27.72,12.66-20.35,1.68,5.84,7.57-21.95,5.13-49.11-4.32-34.41,7.03-49.93,7.73-18.79.84,22.71,10.17-34.77,11.45-125.13,2.79-107.13,20.88-167.03,4.43-87.63-24.07-102.68-.53-102.68-.53,0,0-6.91-36.33,113.63-3.93,72.8,19.57,77.71-4.03,128.54-2.38,35.71,1.15,69.74,2.09,56.1-6.69-16.03-10.32,5.93,1.72,12.37-6.64,6-7.79,22.78-7.02,37.89-4.75,12.33,1.85,22.04,3,18.84-1.01-3.4-4.25,8.53-3.88,14.53-4.04,5.36-.14,22.19-11.68,22.19-11.68v.27Z"/>
          <path class="cls-4" d="M456.45,69.4s-8.98-.02-18.1-5.27c-11.24-6.48-4.67,6.31-22.88-1.59-26.23-11.37-17.34,2.36-37.62-1.54-27.35-5.25-57.37-30.79-83.37-22.8-33.14,10.17-43.18,27.7-152.66,11.42C-105.52,12.82,45.85,58.02,45.85,58.02c0,0-81.14-25.04,84.95-4.48,91.14,11.28,116.65,6.33,145.77-4.49,23.79-8.84,56.02-7.31,82.65,6.77,20.42,10.79,33.3,7.77,37.27,5.07,3.76-2.56,12.04-1.5,21.8,3.45,8.36,4.24,11.64.26,13.23-.85,1.54-1.08,8.36.84,11.71,4.65,3.12,3.56,13.23,1.27,13.23,1.27Z"/>
        </g>
      </g>
    </g>
  </g>
</svg>